M48
; DRILL file {KiCad (5.1.10)-1} date 02/25/22 11:13:05
; FORMAT={-:-/ absolute / metric / decimal}
; #@! TF.CreationDate,2022-02-25T11:13:05-05:00
; #@! TF.GenerationSoftware,Kicad,Pcbnew,(5.1.10)-1
; #@! TF.FileFunction,Plated,1,2,PTH
FMAT,2
METRIC
T1C0.400
T2C0.800
%
G90
G05
T1
X78.0Y-114.0
X150.0Y-114.0
X155.0Y-114.965
X155.0Y-116.546
X188.0Y-107.0
X188.0Y-110.0
X189.0Y-105.0
X189.0Y-110.0
X195.0Y-94.0
X195.0Y-99.0
X195.0Y-104.0
X195.0Y-110.0
X195.0Y-113.0
X201.0Y-116.546
X208.0Y-116.0
X216.0Y-86.0
X219.0Y-89.0
T2
X209.0Y-89.0
X209.0Y-92.0
X209.0Y-95.0
X209.0Y-100.0
X209.0Y-103.0
X209.0Y-106.0
X216.62Y-89.0
X216.62Y-92.0
X216.62Y-95.0
X216.62Y-100.0
X216.62Y-103.0
X216.62Y-106.0
T0
M30
