  0
SECTION
  2
HEADER
  9
$ACADVER
  1
AC1032
  9
$ACADMAINTVER
 90
      155
  9
$DWGCODEPAGE
  3
ANSI_1252
  9
$REQUIREDVERSIONS
160
                 0
  9
$INSBASE
 10
0.0
 20
0.0
 30
0.0
  9
$EXTMIN
 10
1.000000000000000E+20
 20
1.000000000000000E+20
 30
1.000000000000000E+20
  9
$EXTMAX
 10
-1.000000000000000E+20
 20
-1.000000000000000E+20
 30
-1.000000000000000E+20
  9
$LIMMIN
 10
0.0
 20
0.0
  9
$LIMMAX
 10
12.0
 20
9.0
  9
$ORTHOMODE
 70
     0
  9
$REGENMODE
 70
     1
  9
$FILLMODE
 70
     1
  9
$QTEXTMODE
 70
     0
  9
$MIRRTEXT
 70
     0
  9
$LTSCALE
 40
1.0
  9
$ATTMODE
 70
     1
  9
$TEXTSIZE
 40
0.2
  9
$TRACEWID
 40
0.05
  9
$TEXTSTYLE
  7
Standard
  9
$CLAYER
  8
0
  9
$CELTYPE
  6
ByLayer
  9
$CECOLOR
 62
   256
  9
$CELTSCALE
 40
1.0
  9
$DISPSILH
 70
     0
  9
$DIMSCALE
 40
1.0
  9
$DIMASZ
 40
0.18
  9
$DIMEXO
 40
0.0625
  9
$DIMDLI
 40
0.38
  9
$DIMRND
 40
0.0
  9
$DIMDLE
 40
0.0
  9
$DIMEXE
 40
0.18
  9
$DIMTP
 40
0.0
  9
$DIMTM
 40
0.0
  9
$DIMTXT
 40
0.18
  9
$DIMCEN
 40
0.09
  9
$DIMTSZ
 40
0.0
  9
$DIMTOL
 70
     0
  9
$DIMLIM
 70
     0
  9
$DIMTIH
 70
     1
  9
$DIMTOH
 70
     1
  9
$DIMSE1
 70
     0
  9
$DIMSE2
 70
     0
  9
$DIMTAD
 70
     0
  9
$DIMZIN
 70
     0
  9
$DIMBLK
  1

  9
$DIMASO
 70
     1
  9
$DIMSHO
 70
     1
  9
$DIMPOST
  1

  9
$DIMAPOST
  1

  9
$DIMALT
 70
     0
  9
$DIMALTD
 70
     2
  9
$DIMALTF
 40
25.4
  9
$DIMLFAC
 40
1.0
  9
$DIMTOFL
 70
     0
  9
$DIMTVP
 40
0.0
  9
$DIMTIX
 70
     0
  9
$DIMSOXD
 70
     0
  9
$DIMSAH
 70
     0
  9
$DIMBLK1
  1

  9
$DIMBLK2
  1

  9
$DIMSTYLE
  2
Standard
  9
$DIMCLRD
 70
     0
  9
$DIMCLRE
 70
     0
  9
$DIMCLRT
 70
     0
  9
$DIMTFAC
 40
1.0
  9
$DIMGAP
 40
0.09
  9
$DIMJUST
 70
     0
  9
$DIMSD1
 70
     0
  9
$DIMSD2
 70
     0
  9
$DIMTOLJ
 70
     1
  9
$DIMTZIN
 70
     0
  9
$DIMALTZ
 70
     0
  9
$DIMALTTZ
 70
     0
  9
$DIMUPT
 70
     0
  9
$DIMDEC
 70
     4
  9
$DIMTDEC
 70
     4
  9
$DIMALTU
 70
     2
  9
$DIMALTTD
 70
     2
  9
$DIMTXSTY
  7
Standard
  9
$DIMAUNIT
 70
     0
  9
$DIMADEC
 70
     0
  9
$DIMALTRND
 40
0.0
  9
$DIMAZIN
 70
     0
  9
$DIMDSEP
 70
    46
  9
$DIMATFIT
 70
     3
  9
$DIMFRAC
 70
     0
  9
$DIMLDRBLK
  1

  9
$DIMLUNIT
 70
     2
  9
$DIMLWD
 70
    -2
  9
$DIMLWE
 70
    -2
  9
$DIMTMOVE
 70
     0
  9
$DIMFXL
 40
1.0
  9
$DIMFXLON
 70
     0
  9
$DIMJOGANG
 40
0.7853981633974483
  9
$DIMTFILL
 70
     0
  9
$DIMTFILLCLR
 70
     0
  9
$DIMARCSYM
 70
     0
  9
$DIMLTYPE
  6

  9
$DIMLTEX1
  6

  9
$DIMLTEX2
  6

  9
$DIMTXTDIRECTION
 70
     0
  9
$LUNITS
 70
     2
  9
$LUPREC
 70
     4
  9
$SKETCHINC
 40
0.1
  9
$FILLETRAD
 40
0.0
  9
$AUNITS
 70
     0
  9
$AUPREC
 70
     0
  9
$MENU
  1
.
  9
$ELEVATION
 40
0.0
  9
$PELEVATION
 40
0.0
  9
$THICKNESS
 40
0.0
  9
$LIMCHECK
 70
     0
  9
$CHAMFERA
 40
0.0
  9
$CHAMFERB
 40
0.0
  9
$CHAMFERC
 40
0.0
  9
$CHAMFERD
 40
0.0
  9
$SKPOLY
 70
     0
  9
$TDCREATE
 40
2459636.067962963
  9
$TDUCREATE
 40
2459636.276296296
  9
$TDUPDATE
 40
2459636.067962963
  9
$TDUUPDATE
 40
2459636.276296296
  9
$TDINDWG
 40
0.0000000000
  9
$TDUSRTIMER
 40
0.0000000000
  9
$USRTIMER
 70
     1
  9
$ANGBASE
 50
0.0
  9
$ANGDIR
 70
     0
  9
$PDMODE
 70
     0
  9
$PDSIZE
 40
0.0
  9
$PLINEWID
 40
0.0
  9
$SPLFRAME
 70
     0
  9
$SPLINETYPE
 70
     6
  9
$SPLINESEGS
 70
     8
  9
$HANDSEED
  5
D2
  9
$SURFTAB1
 70
     6
  9
$SURFTAB2
 70
     6
  9
$SURFTYPE
 70
     6
  9
$SURFU
 70
     6
  9
$SURFV
 70
     6
  9
$UCSBASE
  2

  9
$UCSNAME
  2

  9
$UCSORG
 10
0.0
 20
0.0
 30
0.0
  9
$UCSXDIR
 10
1.0
 20
0.0
 30
0.0
  9
$UCSYDIR
 10
0.0
 20
1.0
 30
0.0
  9
$UCSORTHOREF
  2

  9
$UCSORTHOVIEW
 70
     0
  9
$UCSORGTOP
 10
0.0
 20
0.0
 30
0.0
  9
$UCSORGBOTTOM
 10
0.0
 20
0.0
 30
0.0
  9
$UCSORGLEFT
 10
0.0
 20
0.0
 30
0.0
  9
$UCSORGRIGHT
 10
0.0
 20
0.0
 30
0.0
  9
$UCSORGFRONT
 10
0.0
 20
0.0
 30
0.0
  9
$UCSORGBACK
 10
0.0
 20
0.0
 30
0.0
  9
$PUCSBASE
  2

  9
$PUCSNAME
  2

  9
$PUCSORG
 10
0.0
 20
0.0
 30
0.0
  9
$PUCSXDIR
 10
1.0
 20
0.0
 30
0.0
  9
$PUCSYDIR
 10
0.0
 20
1.0
 30
0.0
  9
$PUCSORTHOREF
  2

  9
$PUCSORTHOVIEW
 70
     0
  9
$PUCSORGTOP
 10
0.0
 20
0.0
 30
0.0
  9
$PUCSORGBOTTOM
 10
0.0
 20
0.0
 30
0.0
  9
$PUCSORGLEFT
 10
0.0
 20
0.0
 30
0.0
  9
$PUCSORGRIGHT
 10
0.0
 20
0.0
 30
0.0
  9
$PUCSORGFRONT
 10
0.0
 20
0.0
 30
0.0
  9
$PUCSORGBACK
 10
0.0
 20
0.0
 30
0.0
  9
$USERI1
 70
     0
  9
$USERI2
 70
     0
  9
$USERI3
 70
     0
  9
$USERI4
 70
     0
  9
$USERI5
 70
     0
  9
$USERR1
 40
0.0
  9
$USERR2
 40
0.0
  9
$USERR3
 40
0.0
  9
$USERR4
 40
0.0
  9
$USERR5
 40
0.0
  9
$WORLDVIEW
 70
     1
  9
$SHADEDGE
 70
     3
  9
$SHADEDIF
 70
    70
  9
$TILEMODE
 70
     1
  9
$MAXACTVP
 70
    64
  9
$PINSBASE
 10
0.0
 20
0.0
 30
0.0
  9
$PLIMCHECK
 70
     0
  9
$PEXTMIN
 10
1.000000000000000E+20
 20
1.000000000000000E+20
 30
1.000000000000000E+20
  9
$PEXTMAX
 10
-1.000000000000000E+20
 20
-1.000000000000000E+20
 30
-1.000000000000000E+20
  9
$PLIMMIN
 10
0.0
 20
0.0
  9
$PLIMMAX
 10
12.0
 20
9.0
  9
$UNITMODE
 70
     0
  9
$VISRETAIN
 70
     1
  9
$PLINEGEN
 70
     0
  9
$PSLTSCALE
 70
     1
  9
$TREEDEPTH
 70
  3020
  9
$CMLSTYLE
  2
Standard
  9
$CMLJUST
 70
     0
  9
$CMLSCALE
 40
1.0
  9
$PROXYGRAPHICS
 70
     1
  9
$MEASUREMENT
 70
     0
  9
$CELWEIGHT
370
    -1
  9
$ENDCAPS
280
     0
  9
$JOINSTYLE
280
     0
  9
$LWDISPLAY
290
     1
  9
$INSUNITS
 70
     0
  9
$HYPERLINKBASE
  1

  9
$STYLESHEET
  1

  9
$XEDIT
290
     1
  9
$CEPSNTYPE
380
     0
  9
$PSTYLEMODE
290
     1
  9
$FINGERPRINTGUID
  2
{F92CF988-EBBC-3046-B46D-4A0818C8D872}
  9
$VERSIONGUID
  2
{072841F4-A823-8746-ADA7-484C6AA88F1C}
  9
$EXTNAMES
290
     1
  9
$PSVPSCALE
 40
0.0
  9
$OLESTARTUP
290
     0
  9
$SORTENTS
280
   127
  9
$INDEXCTL
280
     0
  9
$HIDETEXT
280
     1
  9
$XCLIPFRAME
280
     2
  9
$HALOGAP
280
     0
  9
$OBSCOLOR
 70
   257
  9
$OBSLTYPE
280
     0
  9
$INTERSECTIONDISPLAY
280
     0
  9
$INTERSECTIONCOLOR
 70
   257
  9
$DIMASSOC
280
     2
  9
$PROJECTNAME
  1

  9
$CAMERADISPLAY
290
     0
  9
$LENSLENGTH
 40
50.0
  9
$CAMERAHEIGHT
 40
0.0
  9
$STEPSPERSEC
 40
2.0
  9
$STEPSIZE
 40
6.0
  9
$3DDWFPREC
 40
2.0
  9
$PSOLWIDTH
 40
0.25
  9
$PSOLHEIGHT
 40
4.0
  9
$LOFTANG1
 40
1.570796326794896
  9
$LOFTANG2
 40
1.570796326794896
  9
$LOFTMAG1
 40
0.0
  9
$LOFTMAG2
 40
0.0
  9
$LOFTPARAM
 70
     7
  9
$LOFTNORMALS
280
     1
  9
$LATITUDE
 40
37.795
  9
$LONGITUDE
 40
-122.394
  9
$NORTHDIRECTION
 40
0.0
  9
$TIMEZONE
 70
 -8000
  9
$LIGHTGLYPHDISPLAY
280
     1
  9
$TILEMODELIGHTSYNCH
280
     1
  9
$CMATERIAL
347
11
  9
$SOLIDHIST
280
     0
  9
$SHOWHIST
280
     1
  9
$DWFFRAME
280
     2
  9
$DGNFRAME
280
     0
  9
$REALWORLDSCALE
290
     1
  9
$INTERFERECOLOR
 62
     1
  9
$INTERFEREOBJVS
345
33
  9
$INTERFEREVPVS
346
30
  9
$CSHADOW
280
     0
  9
$SHADOWPLANELOCATION
 40
0.0
  0
ENDSEC
  0
SECTION
  2
CLASSES
  0
CLASS
  1
ACDBDICTIONARYWDFLT
  2
AcDbDictionaryWithDefault
  3
ObjectDBX Classes
 90
        0
 91
        1
280
     0
281
     0
  0
CLASS
  1
MATERIAL
  2
AcDbMaterial
  3
ObjectDBX Classes
 90
     1153
 91
        3
280
     0
281
     0
  0
CLASS
  1
VISUALSTYLE
  2
AcDbVisualStyle
  3
ObjectDBX Classes
 90
     4095
 91
       24
280
     0
281
     0
  0
CLASS
  1
SCALE
  2
AcDbScale
  3
ObjectDBX Classes
 90
     1153
 91
       17
280
     0
281
     0
  0
CLASS
  1
TABLESTYLE
  2
AcDbTableStyle
  3
ObjectDBX Classes
 90
     4095
 91
        1
280
     0
281
     0
  0
CLASS
  1
MLEADERSTYLE
  2
AcDbMLeaderStyle
  3
ACDB_MLEADERSTYLE_CLASS
 90
     4095
 91
        1
280
     0
281
     0
  0
CLASS
  1
ACDBSECTIONVIEWSTYLE
  2
AcDbSectionViewStyle
  3
ObjectDBX Classes
 90
     1025
 91
        1
280
     0
281
     0
  0
CLASS
  1
ACDBDETAILVIEWSTYLE
  2
AcDbDetailViewStyle
  3
ObjectDBX Classes
 90
     1025
 91
        1
280
     0
281
     0
  0
CLASS
  1
DICTIONARYVAR
  2
AcDbDictionaryVar
  3
ObjectDBX Classes
 90
        0
 91
        5
280
     0
281
     0
  0
CLASS
  1
CELLSTYLEMAP
  2
AcDbCellStyleMap
  3
ObjectDBX Classes
 90
     1152
 91
        1
280
     0
281
     0
  0
ENDSEC
  0
SECTION
  2
TABLES
  0
TABLE
  2
VPORT
  5
8
330
0
100
AcDbSymbolTable
 70
     1
  0
VPORT
  5
57
330
8
100
AcDbSymbolTableRecord
100
AcDbViewportTableRecord
  2
*Active
 70
     0
 10
0.0
 20
0.0
 11
1.0
 21
1.0
 12
0.0
 22
0.0
 13
0.0
 23
0.0
 14
1.0
 24
1.0
 15
0.0
 25
0.0
 16
0.0
 26
0.0
 36
1.0
 17
500.0
 27
500.0
 37
0.0
 40
1020.0
 41
1.0
 42
50.0
 43
0.0
 44
0.0
 50
0.0
 51
0.0
 71
     0
 72
   100
 73
     1
 74
     0
 75
     1
 76
     0
 77
     0
 78
     0
281
     0
 65
     1
110
0.0
120
0.0
130
0.0
111
1.0
121
0.0
131
0.0
112
0.0
122
1.0
132
0.0
 79
     0
146
0.0
 60
     3
 61
     5
292
     1
282
     1
141
0.0
142
0.0
 63
   250
421
  3355443
  0
ENDTAB
  0
TABLE
  2
LTYPE
  5
5
330
0
100
AcDbSymbolTable
 70
     1
  0
LTYPE
  5
5B
330
5
100
AcDbSymbolTableRecord
100
AcDbLinetypeTableRecord
  2
ByBlock
 70
     0
  3

 72
    65
 73
     0
 40
0.0
  0
LTYPE
  5
5C
330
5
100
AcDbSymbolTableRecord
100
AcDbLinetypeTableRecord
  2
ByLayer
 70
     0
  3

 72
    65
 73
     0
 40
0.0
  0
LTYPE
  5
5D
330
5
100
AcDbSymbolTableRecord
100
AcDbLinetypeTableRecord
  2
Continuous
 70
     0
  3
Solid line
 72
    65
 73
     0
 40
0.0
  0
ENDTAB
  0
TABLE
  2
LAYER
  5
2
330
0
100
AcDbSymbolTable
 70
     2
  0
LAYER
  5
54
330
2
100
AcDbSymbolTableRecord
100
AcDbLayerTableRecord
  2
0
 70
     0
 62
     7
  6
Continuous
370
    -3
390
F
347
21
348
0
  0
LAYER
  5
78
330
2
100
AcDbSymbolTableRecord
100
AcDbLayerTableRecord
  2
Layer 2
 70
     0
 62
     7
  6
Continuous
370
     0
390
F
347
21
348
0
  0
ENDTAB
  0
TABLE
  2
STYLE
  5
3
330
0
100
AcDbSymbolTable
 70
     2
  0
STYLE
  5
55
330
3
100
AcDbSymbolTableRecord
100
AcDbTextStyleTableRecord
  2
Standard
 70
     0
 40
0.0
 41
1.0
 50
0.0
 71
     0
 42
0.2
  3
txt
  4

  0
STYLE
  5
5A
330
3
100
AcDbSymbolTableRecord
100
AcDbTextStyleTableRecord
  2
Annotative
 70
     0
 40
0.0
 41
1.0
 50
0.0
 71
     0
 42
0.2
  3
txt
  4

1001
AcadAnnotative
1000
AnnotativeData
1002
{
1070
     1
1070
     1
1002
}
  0
ENDTAB
  0
TABLE
  2
VIEW
  5
6
330
0
100
AcDbSymbolTable
 70
     0
  0
ENDTAB
  0
TABLE
  2
UCS
  5
7
330
0
100
AcDbSymbolTable
 70
     0
  0
ENDTAB
  0
TABLE
  2
APPID
  5
9
330
0
100
AcDbSymbolTable
 70
     2
  0
APPID
  5
56
330
9
100
AcDbSymbolTableRecord
100
AcDbRegAppTableRecord
  2
ACAD
 70
     0
  0
APPID
  5
5E
330
9
100
AcDbSymbolTableRecord
100
AcDbRegAppTableRecord
  2
AcadAnnotative
 70
     0
  0
ENDTAB
  0
TABLE
  2
DIMSTYLE
  5
A
330
0
100
AcDbSymbolTable
 70
     2
100
AcDbDimStyleTable
 71
     0
  0
DIMSTYLE
105
58
330
A
100
AcDbSymbolTableRecord
100
AcDbDimStyleTableRecord
  2
Standard
 70
     0
340
55
  0
DIMSTYLE
105
59
330
A
100
AcDbSymbolTableRecord
100
AcDbDimStyleTableRecord
  2
Annotative
 70
     0
340
55
1001
AcadAnnotative
1000
AnnotativeData
1002
{
1070
     1
1070
     1
1002
}
  0
ENDTAB
  0
TABLE
  2
BLOCK_RECORD
  5
1
330
0
100
AcDbSymbolTable
 70
     1
  0
BLOCK_RECORD
  5
70
330
1
100
AcDbSymbolTableRecord
100
AcDbBlockTableRecord
  2
*Model_Space
340
73
 70
     0
280
     1
281
     0
  0
BLOCK_RECORD
  5
6C
330
1
100
AcDbSymbolTableRecord
100
AcDbBlockTableRecord
  2
*Paper_Space
340
6F
 70
     0
280
     1
281
     0
  0
BLOCK_RECORD
  5
74
330
1
100
AcDbSymbolTableRecord
100
AcDbBlockTableRecord
  2
*Paper_Space0
340
77
 70
     0
280
     1
281
     0
  0
ENDTAB
  0
ENDSEC
  0
SECTION
  2
BLOCKS
  0
BLOCK
  5
71
330
70
100
AcDbEntity
  8
0
100
AcDbBlockBegin
  2
*Model_Space
 70
     0
 10
0.0
 20
0.0
 30
0.0
  3
*Model_Space
  1

  0
ENDBLK
  5
72
330
70
100
AcDbEntity
  8
0
100
AcDbBlockEnd
  0
BLOCK
  5
6D
330
6C
100
AcDbEntity
 67
     1
  8
0
100
AcDbBlockBegin
  2
*Paper_Space
 70
     0
 10
0.0
 20
0.0
 30
0.0
  3
*Paper_Space
  1

  0
ENDBLK
  5
6E
330
6C
100
AcDbEntity
 67
     1
  8
0
100
AcDbBlockEnd
  0
BLOCK
  5
75
330
74
100
AcDbEntity
 67
     1
  8
0
100
AcDbBlockBegin
  2
*Paper_Space0
 70
     0
 10
0.0
 20
0.0
 30
0.0
  3
*Paper_Space0
  1

  0
ENDBLK
  5
76
330
74
100
AcDbEntity
 67
     1
  8
0
100
AcDbBlockEnd
  0
ENDSEC
  0
SECTION
  2
ENTITIES
  0
SPLINE
  5
79
330
70
100
AcDbEntity
  8
Layer 2
 62
    18
420
        0
370
     5
100
AcDbSpline
210
0.0
220
0.0
230
1.0
 70
     9
 71
     3
 72
    17
 73
    13
 74
     0
 42
0.0000000001
 43
0.0000000001
 40
0.0
 40
0.0
 40
0.0
 40
0.0
 40
1.0
 40
1.0
 40
1.0
 40
2.0
 40
2.0
 40
2.0
 40
3.0
 40
3.0
 40
3.0
 40
4.0
 40
4.0
 40
4.0
 40
4.0
 10
544.8894505902298
 20
418.598803397599
 30
0.0
 10
546.4517143472603
 20
419.4902991894614
 30
0.0
 10
546.9956054579943
 20
421.4792065902875
 30
0.0
 10
546.1043040673266
 20
423.0416246209697
 30
0.0
 10
545.2129826128894
 20
424.6038683142269
 30
0.0
 10
543.2238539688897
 20
425.1476788990312
 30
0.0
 10
541.6614828439541
 20
424.2564780980647
 30
0.0
 10
540.099239150697
 20
423.3651566436273
 30
0.0
 10
539.5553279761934
 20
421.3760749053762
 30
0.0
 10
540.4466494306307
 20
419.8138312121191
 30
0.0
 10
541.3380983167463
 20
418.2514668653893
 30
0.0
 10
543.3270594015247
 20
417.7074282592075
 30
0.0
 10
544.8894505902298
 20
418.598803397599
 30
0.0
  0
SPLINE
  5
7A
330
70
100
AcDbEntity
  8
Layer 2
 62
    18
420
        0
370
     5
100
AcDbSpline
210
0.0
220
0.0
230
1.0
 70
     9
 71
     3
 72
    17
 73
    13
 74
     0
 42
0.0000000001
 43
0.0000000001
 40
0.0
 40
0.0
 40
0.0
 40
0.0
 40
1.0
 40
1.0
 40
1.0
 40
2.0
 40
2.0
 40
2.0
 40
3.0
 40
3.0
 40
3.0
 40
4.0
 40
4.0
 40
4.0
 40
4.0
 10
544.91972618002
 20
418.5456814443077
 30
0.0
 10
543.3281260102249
 20
417.6374948182838
 30
0.0
 10
541.3016202918643
 20
418.1917542731317
 30
0.0
 10
540.3935342555469
 20
419.7833075371818
 30
0.0
 10
539.4853945352715
 20
421.3750082966762
 30
0.0
 10
540.0395534004219
 20
423.4015609207817
 30
0.0
 10
541.6311535702134
 20
424.3097475468021
 30
0.0
 10
543.2228074239628
 20
425.2177866773745
 30
0.0
 10
545.2493868900437
 20
424.6635540645057
 30
0.0
 10
546.157526610319
 20
423.0718533050094
 30
0.0
 10
547.0654651511922
 20
421.4802463570086
 30
0.0
 10
546.5114537814933
 20
419.4537474168555
 30
0.0
 10
544.91972618002
 20
418.5456814443077
 30
0.0
  0
HATCH
  5
7B
330
70
100
AcDbEntity
  8
Layer 2
 62
    18
420
        0
440
 33554687
100
AcDbHatch
 10
0.0
 20
0.0
 30
0.0
210
0.0
220
0.0
230
1.0
  2
SOLID
 70
     1
 71
     1
 91
        2
 92
        1
 93
        2
 72
     4
 94
        3
 73
     0
 74
     0
 95
       17
 96
       13
 40
0.0
 40
0.0
 40
0.0
 40
0.0
 40
1.0
 40
1.0
 40
1.0
 40
2.0
 40
2.0
 40
2.0
 40
3.0
 40
3.0
 40
3.0
 40
4.0
 40
4.0
 40
4.0
 40
4.0
 10
544.8894505902298
 20
418.598803397599
 10
546.4517143472603
 20
419.4902991894614
 10
546.9956054579943
 20
421.4792065902875
 10
546.1043040673266
 20
423.0416246209697
 10
545.2129826128894
 20
424.6038683142269
 10
543.2238539688897
 20
425.1476788990312
 10
541.6614828439541
 20
424.2564780980647
 10
540.099239150697
 20
423.3651566436273
 10
539.5553279761934
 20
421.3760749053762
 10
540.4466494306307
 20
419.8138312121191
 10
541.3380983167463
 20
418.2514668653893
 10
543.3270594015247
 20
417.7074282592075
 10
544.8894505902298
 20
418.598803397599
 97
        0
 72
     1
 10
544.8894505902298
 20
418.598803397599
 11
544.8894505902298
 21
418.598803397599
 97
        0
 92
        1
 93
        2
 72
     4
 94
        3
 73
     0
 74
     0
 95
       17
 96
       13
 40
0.0
 40
0.0
 40
0.0
 40
0.0
 40
1.0
 40
1.0
 40
1.0
 40
2.0
 40
2.0
 40
2.0
 40
3.0
 40
3.0
 40
3.0
 40
4.0
 40
4.0
 40
4.0
 40
4.0
 10
544.91972618002
 20
418.5456814443077
 10
543.3281260102249
 20
417.6374948182838
 10
541.3016202918643
 20
418.1917542731317
 10
540.3935342555469
 20
419.7833075371818
 10
539.4853945352715
 20
421.3750082966762
 10
540.0395534004219
 20
423.4015609207817
 10
541.6311535702134
 20
424.3097475468021
 10
543.2228074239628
 20
425.2177866773745
 10
545.2493868900437
 20
424.6635540645057
 10
546.157526610319
 20
423.0718533050094
 10
547.0654651511922
 20
421.4802463570086
 10
546.5114537814933
 20
419.4537474168555
 10
544.91972618002
 20
418.5456814443077
 97
        0
 72
     1
 10
544.91972618002
 20
418.5456814443076
 11
544.91972618002
 21
418.5456814443077
 97
        0
 75
     0
 76
     1
 98
        1
 10
0.0
 20
0.0
450
        0
451
        0
460
0.0
461
0.0
452
        0
462
0.0
453
        0
470

  0
SPLINE
  5
7C
330
70
100
AcDbEntity
  8
Layer 2
 62
    18
420
        0
370
     5
100
AcDbSpline
210
0.0
220
0.0
230
1.0
 70
    11
 71
     3
 72
    23
 73
    19
 74
     0
 42
0.0000000001
 43
0.0000000001
 40
0.0
 40
0.0
 40
0.0
 40
0.0
 40
1.0
 40
1.0
 40
1.0
 40
2.0
 40
2.0
 40
2.0
 40
3.0
 40
3.0
 40
3.0
 40
4.0
 40
4.0
 40
4.0
 40
5.0
 40
5.0
 40
5.0
 40
6.0
 40
6.0
 40
6.0
 40
6.0
 10
562.2353966735118
 20
425.0606563440269
 30
0.0
 10
562.2353966735118
 20
425.0606563440269
 30
0.0
 10
562.279417514881
 20
424.9397100762944
 30
0.0
 10
562.279417514881
 20
424.9397100762944
 30
0.0
 10
562.279417514881
 20
424.9397100762944
 30
0.0
 10
551.5898829702764
 20
425.016281443648
 30
0.0
 10
551.5898829702764
 20
425.016281443648
 30
0.0
 10
551.5898829702764
 20
425.016281443648
 30
0.0
 10
522.1731354856583
 20
425.2266890825485
 30
0.0
 10
522.1731354856583
 20
425.2266890825485
 30
0.0
 10
522.1731354856583
 20
425.2266890825485
 30
0.0
 10
522.1291146442927
 20
425.347635350281
 30
0.0
 10
522.1291146442927
 20
425.347635350281
 30
0.0
 10
522.1291146442927
 20
425.347635350281
 30
0.0
 10
551.5459158128614
 20
425.1370802159344
 30
0.0
 10
551.5459158128614
 20
425.1370802159344
 30
0.0
 10
551.5459158128614
 20
425.1370802159344
 30
0.0
 10
562.2353966735118
 20
425.0606563440269
 30
0.0
 10
562.2353966735118
 20
425.0606563440269
 30
0.0
  0
HATCH
  5
7D
330
70
100
AcDbEntity
  8
Layer 2
 62
    18
420
        0
440
 33554687
100
AcDbHatch
 10
0.0
 20
0.0
 30
0.0
210
0.0
220
0.0
230
1.0
  2
SOLID
 70
     1
 71
     1
 91
        1
 92
        1
 93
        1
 72
     4
 94
        3
 73
     0
 74
     0
 95
       23
 96
       19
 40
0.0
 40
0.0
 40
0.0
 40
0.0
 40
1.0
 40
1.0
 40
1.0
 40
2.0
 40
2.0
 40
2.0
 40
3.0
 40
3.0
 40
3.0
 40
4.0
 40
4.0
 40
4.0
 40
5.0
 40
5.0
 40
5.0
 40
6.0
 40
6.0
 40
6.0
 40
6.0
 10
562.2353966735118
 20
425.0606563440269
 10
562.2353966735118
 20
425.0606563440269
 10
562.279417514881
 20
424.9397100762944
 10
562.279417514881
 20
424.9397100762944
 10
562.279417514881
 20
424.9397100762944
 10
551.5898829702764
 20
425.016281443648
 10
551.5898829702764
 20
425.016281443648
 10
551.5898829702764
 20
425.016281443648
 10
522.1731354856583
 20
425.2266890825485
 10
522.1731354856583
 20
425.2266890825485
 10
522.1731354856583
 20
425.2266890825485
 10
522.1291146442927
 20
425.347635350281
 10
522.1291146442927
 20
425.347635350281
 10
522.1291146442927
 20
425.347635350281
 10
551.5459158128614
 20
425.1370802159344
 10
551.5459158128614
 20
425.1370802159344
 10
551.5459158128614
 20
425.1370802159344
 10
562.2353966735118
 20
425.0606563440269
 10
562.2353966735118
 20
425.0606563440269
 97
        0
 97
        1
330
7C
 75
     0
 76
     1
 98
        1
 10
0.0
 20
0.0
450
        0
451
        0
460
0.0
461
0.0
452
        0
462
0.0
453
        0
470

  0
SPLINE
  5
7E
330
70
100
AcDbEntity
  8
Layer 2
 62
    18
420
        0
370
     5
100
AcDbSpline
210
0.0
220
0.0
230
1.0
 70
    11
 71
     3
 72
    23
 73
    19
 74
     0
 42
0.0000000001
 43
0.0000000001
 40
0.0
 40
0.0
 40
0.0
 40
0.0
 40
1.0
 40
1.0
 40
1.0
 40
2.0
 40
2.0
 40
2.0
 40
3.0
 40
3.0
 40
3.0
 40
4.0
 40
4.0
 40
4.0
 40
5.0
 40
5.0
 40
5.0
 40
6.0
 40
6.0
 40
6.0
 40
6.0
 10
503.5566351239758
 20
586.2792288205492
 30
0.0
 10
503.5566351239758
 20
586.2792288205492
 30
0.0
 10
503.6006022813926
 20
586.1584300482627
 30
0.0
 10
503.6006022813926
 20
586.1584300482627
 30
0.0
 10
503.6006022813926
 20
586.1584300482627
 30
0.0
 10
492.9111214207441
 20
586.2348539201693
 30
0.0
 10
492.9111214207441
 20
586.2348539201693
 30
0.0
 10
492.9111214207441
 20
586.2348539201693
 30
0.0
 10
462.4568243738049
 20
586.4526396376414
 30
0.0
 10
462.4568243738049
 20
586.4526396376414
 30
0.0
 10
462.4568243738049
 20
586.4526396376414
 30
0.0
 10
462.4128035324338
 20
586.5735859053729
 30
0.0
 10
462.4128035324338
 20
586.5735859053729
 30
0.0
 10
462.4128035324338
 20
586.5735859053729
 30
0.0
 10
492.8672079472817
 20
586.3555051970069
 30
0.0
 10
492.8672079472817
 20
586.3555051970069
 30
0.0
 10
492.8672079472817
 20
586.3555051970069
 30
0.0
 10
503.5566351239758
 20
586.2792288205492
 30
0.0
 10
503.5566351239758
 20
586.2792288205492
 30
0.0
  0
HATCH
  5
7F
330
70
100
AcDbEntity
  8
Layer 2
 62
    18
420
        0
440
 33554687
100
AcDbHatch
 10
0.0
 20
0.0
 30
0.0
210
0.0
220
0.0
230
1.0
  2
SOLID
 70
     1
 71
     1
 91
        1
 92
        1
 93
        1
 72
     4
 94
        3
 73
     0
 74
     0
 95
       23
 96
       19
 40
0.0
 40
0.0
 40
0.0
 40
0.0
 40
1.0
 40
1.0
 40
1.0
 40
2.0
 40
2.0
 40
2.0
 40
3.0
 40
3.0
 40
3.0
 40
4.0
 40
4.0
 40
4.0
 40
5.0
 40
5.0
 40
5.0
 40
6.0
 40
6.0
 40
6.0
 40
6.0
 10
503.5566351239758
 20
586.2792288205492
 10
503.5566351239758
 20
586.2792288205492
 10
503.6006022813926
 20
586.1584300482627
 10
503.6006022813926
 20
586.1584300482627
 10
503.6006022813926
 20
586.1584300482627
 10
492.9111214207441
 20
586.2348539201693
 10
492.9111214207441
 20
586.2348539201693
 10
492.9111214207441
 20
586.2348539201693
 10
462.4568243738049
 20
586.4526396376414
 10
462.4568243738049
 20
586.4526396376414
 10
462.4568243738049
 20
586.4526396376414
 10
462.4128035324338
 20
586.5735859053729
 10
462.4128035324338
 20
586.5735859053729
 10
462.4128035324338
 20
586.5735859053729
 10
492.8672079472817
 20
586.3555051970069
 10
492.8672079472817
 20
586.3555051970069
 10
492.8672079472817
 20
586.3555051970069
 10
503.5566351239758
 20
586.2792288205492
 10
503.5566351239758
 20
586.2792288205492
 97
        0
 97
        1
330
7E
 75
     0
 76
     1
 98
        1
 10
0.0
 20
0.0
450
        0
451
        0
460
0.0
461
0.0
452
        0
462
0.0
453
        0
470

  0
SPLINE
  5
80
330
70
100
AcDbEntity
  8
Layer 2
 62
    18
420
        0
370
     5
100
AcDbSpline
210
0.0
220
0.0
230
1.0
 70
    11
 71
     3
 72
    23
 73
    19
 74
     0
 42
0.0000000001
 43
0.0000000001
 40
0.0
 40
0.0
 40
0.0
 40
0.0
 40
1.0
 40
1.0
 40
1.0
 40
2.0
 40
2.0
 40
2.0
 40
3.0
 40
3.0
 40
3.0
 40
4.0
 40
4.0
 40
4.0
 40
5.0
 40
5.0
 40
5.0
 40
6.0
 40
6.0
 40
6.0
 40
6.0
 10
504.9195096359653
 20
582.5347618705818
 30
0.0
 10
504.9195096359653
 20
582.5347618705818
 30
0.0
 10
504.9634767933821
 20
582.4139630982954
 30
0.0
 10
504.9634767933821
 20
582.4139630982954
 30
0.0
 10
504.9634767933821
 20
582.4139630982954
 30
0.0
 10
494.2739959327318
 20
582.4903869701993
 30
0.0
 10
494.2739959327318
 20
582.4903869701993
 30
0.0
 10
494.2739959327318
 20
582.4903869701993
 30
0.0
 10
466.6354604176904
 20
582.6880563040231
 30
0.0
 10
466.6354604176904
 20
582.6880563040231
 30
0.0
 10
466.6354604176904
 20
582.6880563040231
 30
0.0
 10
466.5914932602736
 20
582.8088550763077
 30
0.0
 10
466.5914932602736
 20
582.8088550763077
 30
0.0
 10
466.5914932602736
 20
582.8088550763077
 30
0.0
 10
494.230028775315
 20
582.6111857424857
 30
0.0
 10
494.230028775315
 20
582.6111857424857
 30
0.0
 10
494.230028775315
 20
582.6111857424857
 30
0.0
 10
504.9195096359653
 20
582.5347618705818
 30
0.0
 10
504.9195096359653
 20
582.5347618705818
 30
0.0
  0
HATCH
  5
81
330
70
100
AcDbEntity
  8
Layer 2
 62
    18
420
        0
440
 33554687
100
AcDbHatch
 10
0.0
 20
0.0
 30
0.0
210
0.0
220
0.0
230
1.0
  2
SOLID
 70
     1
 71
     1
 91
        1
 92
        1
 93
        1
 72
     4
 94
        3
 73
     0
 74
     0
 95
       23
 96
       19
 40
0.0
 40
0.0
 40
0.0
 40
0.0
 40
1.0
 40
1.0
 40
1.0
 40
2.0
 40
2.0
 40
2.0
 40
3.0
 40
3.0
 40
3.0
 40
4.0
 40
4.0
 40
4.0
 40
5.0
 40
5.0
 40
5.0
 40
6.0
 40
6.0
 40
6.0
 40
6.0
 10
504.9195096359653
 20
582.5347618705818
 10
504.9195096359653
 20
582.5347618705818
 10
504.9634767933821
 20
582.4139630982954
 10
504.9634767933821
 20
582.4139630982954
 10
504.9634767933821
 20
582.4139630982954
 10
494.2739959327318
 20
582.4903869701993
 10
494.2739959327318
 20
582.4903869701993
 10
494.2739959327318
 20
582.4903869701993
 10
466.6354604176904
 20
582.6880563040231
 10
466.6354604176904
 20
582.6880563040231
 10
466.6354604176904
 20
582.6880563040231
 10
466.5914932602736
 20
582.8088550763077
 10
466.5914932602736
 20
582.8088550763077
 10
466.5914932602736
 20
582.8088550763077
 10
494.230028775315
 20
582.6111857424857
 10
494.230028775315
 20
582.6111857424857
 10
494.230028775315
 20
582.6111857424857
 10
504.9195096359653
 20
582.5347618705818
 10
504.9195096359653
 20
582.5347618705818
 97
        0
 97
        1
330
80
 75
     0
 76
     1
 98
        1
 10
0.0
 20
0.0
450
        0
451
        0
460
0.0
461
0.0
452
        0
462
0.0
453
        0
470

  0
SPLINE
  5
82
330
70
100
AcDbEntity
  8
Layer 2
 62
    18
420
        0
370
     5
100
AcDbSpline
210
0.0
220
0.0
230
1.0
 70
     8
 71
     3
 72
    35
 73
    31
 74
     0
 42
0.0000000001
 43
0.0000000001
 40
0.0
 40
0.0
 40
0.0
 40
0.0
 40
1.0
 40
1.0
 40
1.0
 40
2.0
 40
2.0
 40
2.0
 40
3.0
 40
3.0
 40
3.0
 40
4.0
 40
4.0
 40
4.0
 40
5.0
 40
5.0
 40
5.0
 40
6.0
 40
6.0
 40
6.0
 40
7.0
 40
7.0
 40
7.0
 40
8.0
 40
8.0
 40
8.0
 40
9.0
 40
9.0
 40
9.0
 40
10.0
 40
10.0
 40
10.0
 40
10.0
 10
517.3995626347496
 20
421.8383007853044
 30
0.0
 10
517.3995626347496
 20
421.8383007853044
 30
0.0
 10
541.5860505923901
 20
421.6652057149803
 30
0.0
 10
541.5860505923901
 20
421.6652057149803
 30
0.0
 10
541.7486896113532
 20
422.821152035025
 30
0.0
 10
542.9959860184953
 20
423.4759066411752
 30
0.0
 10
544.0397020300715
 20
422.9529650576696
 30
0.0
 10
545.10232239801
 20
422.4205346858598
 30
0.0
 10
545.3088968954671
 20
420.9934105786978
 30
0.0
 10
544.4407775737618
 20
420.1816816717783
 30
0.0
 10
543.5749173186905
 20
419.371777206723
 30
0.0
 10
542.1704420515725
 20
419.6683703530107
 30
0.0
 10
541.7058220221642
 20
420.7590390243076
 30
0.0
 10
541.6543450698973
 20
420.8802781161848
 30
0.0
 10
541.6177662413047
 20
421.0032649158129
 30
0.0
 10
541.5951051271313
 20
421.1329876973104
 30
0.0
 10
541.5590989534157
 20
421.3376959132365
 30
0.0
 10
541.3851454059822
 20
421.2155857469624
 30
0.0
 10
541.2654062288693
 20
421.2164355099248
 30
0.0
 10
541.2654062288693
 20
421.2164355099248
 30
0.0
 10
540.4511891514649
 20
421.2224177345888
 30
0.0
 10
540.4511891514649
 20
421.2224177345888
 30
0.0
 10
540.4511891514649
 20
421.2224177345888
 30
0.0
 10
538.8227886168478
 20
421.2340603510456
 30
0.0
 10
538.8227886168478
 20
421.2340603510456
 30
0.0
 10
538.8227886168478
 20
421.2340603510456
 30
0.0
 10
525.7962079418521
 20
421.327094185628
 30
0.0
 10
525.7962079418521
 20
421.327094185628
 30
0.0
 10
525.7962079418521
 20
421.327094185628
 30
0.0
 10
517.4112902061223
 20
421.3871023987958
 30
0.0
 10
517.4112902061223
 20
421.3871023987958
 30
0.0
  0
HATCH
  5
83
330
70
100
AcDbEntity
  8
Layer 2
 62
    18
420
        0
440
 33554687
100
AcDbHatch
 10
0.0
 20
0.0
 30
0.0
210
0.0
220
0.0
230
1.0
  2
SOLID
 70
     1
 71
     1
 91
        1
 92
        1
 93
        2
 72
     4
 94
        3
 73
     0
 74
     0
 95
       35
 96
       31
 40
0.0
 40
0.0
 40
0.0
 40
0.0
 40
1.0
 40
1.0
 40
1.0
 40
2.0
 40
2.0
 40
2.0
 40
3.0
 40
3.0
 40
3.0
 40
4.0
 40
4.0
 40
4.0
 40
5.0
 40
5.0
 40
5.0
 40
6.0
 40
6.0
 40
6.0
 40
7.0
 40
7.0
 40
7.0
 40
8.0
 40
8.0
 40
8.0
 40
9.0
 40
9.0
 40
9.0
 40
10.0
 40
10.0
 40
10.0
 40
10.0
 10
517.3995626347496
 20
421.8383007853044
 10
517.3995626347496
 20
421.8383007853044
 10
541.5860505923901
 20
421.6652057149803
 10
541.5860505923901
 20
421.6652057149803
 10
541.7486896113532
 20
422.821152035025
 10
542.9959860184953
 20
423.4759066411752
 10
544.0397020300715
 20
422.9529650576696
 10
545.10232239801
 20
422.4205346858598
 10
545.3088968954671
 20
420.9934105786978
 10
544.4407775737618
 20
420.1816816717783
 10
543.5749173186905
 20
419.371777206723
 10
542.1704420515725
 20
419.6683703530107
 10
541.7058220221642
 20
420.7590390243076
 10
541.6543450698973
 20
420.8802781161848
 10
541.6177662413047
 20
421.0032649158129
 10
541.5951051271313
 20
421.1329876973104
 10
541.5590989534157
 20
421.3376959132365
 10
541.3851454059822
 20
421.2155857469624
 10
541.2654062288693
 20
421.2164355099248
 10
541.2654062288693
 20
421.2164355099248
 10
540.4511891514649
 20
421.2224177345888
 10
540.4511891514649
 20
421.2224177345888
 10
540.4511891514649
 20
421.2224177345888
 10
538.8227886168478
 20
421.2340603510456
 10
538.8227886168478
 20
421.2340603510456
 10
538.8227886168478
 20
421.2340603510456
 10
525.7962079418521
 20
421.327094185628
 10
525.7962079418521
 20
421.327094185628
 10
525.7962079418521
 20
421.327094185628
 10
517.4112902061223
 20
421.3871023987958
 10
517.4112902061223
 20
421.3871023987958
 97
        0
 72
     1
 10
517.4112902061223
 20
421.3871023987958
 11
517.3995626347496
 21
421.8383007853044
 97
        0
 75
     0
 76
     1
 98
        1
 10
0.0
 20
0.0
450
        0
451
        0
460
0.0
461
0.0
452
        0
462
0.0
453
        0
470

  0
SPLINE
  5
84
330
70
100
AcDbEntity
  8
Layer 2
 62
    18
420
        0
370
     5
100
AcDbSpline
210
0.0
220
0.0
230
1.0
 70
     9
 71
     3
 72
    41
 73
    37
 74
     0
 42
0.0000000001
 43
0.0000000001
 40
0.0
 40
0.0
 40
0.0
 40
0.0
 40
1.0
 40
1.0
 40
1.0
 40
2.0
 40
2.0
 40
2.0
 40
3.0
 40
3.0
 40
3.0
 40
4.0
 40
4.0
 40
4.0
 40
5.0
 40
5.0
 40
5.0
 40
6.0
 40
6.0
 40
6.0
 40
7.0
 40
7.0
 40
7.0
 40
8.0
 40
8.0
 40
8.0
 40
9.0
 40
9.0
 40
9.0
 40
10.0
 40
10.0
 40
10.0
 40
11.0
 40
11.0
 40
11.0
 40
12.0
 40
12.0
 40
12.0
 40
12.0
 10
517.3480753076692
 20
506.2255608394743
 30
0.0
 10
517.5892433521985
 20
506.2238081712848
 30
0.0
 10
517.6715902166506
 20
506.057681112632
 30
0.0
 10
517.5268580949305
 20
505.8646936885452
 30
0.0
 10
517.386723819869
 20
505.6778896836403
 30
0.0
 10
517.2204498642859
 20
505.7753858427513
 30
0.0
 10
517.0543987485253
 20
505.776584023929
 30
0.0
 10
517.0543987485253
 20
505.776584023929
 30
0.0
 10
516.0556112024678
 20
505.7837053289349
 30
0.0
 10
516.0556112024678
 20
505.7837053289349
 30
0.0
 10
516.0556112024678
 20
505.7837053289349
 30
0.0
 10
514.0579623626327
 20
505.7979210969715
 30
0.0
 10
514.0579623626327
 20
505.7979210969715
 30
0.0
 10
514.0579623626327
 20
505.7979210969715
 30
0.0
 10
510.0626847467283
 20
505.8265269704734
 30
0.0
 10
510.0626847467283
 20
505.8265269704734
 30
0.0
 10
510.0626847467283
 20
505.8265269704734
 30
0.0
 10
508.066101995213
 20
505.8407966933064
 30
0.0
 10
508.066101995213
 20
505.8407966933064
 30
0.0
 10
507.3496516137147
 20
505.8459494967264
 30
0.0
 10
506.7971901059336
 20
505.7945331415912
 30
0.0
 10
506.3411882486798
 20
505.1267894715474
 30
0.0
 10
505.4901272885144
 20
503.8806314733838
 30
0.0
 10
503.5595521139693
 20
504.2713694372032
 30
0.0
 10
503.2602246966944
 20
505.7502560648136
 30
0.0
 10
502.9611792555916
 20
507.2279090448819
 30
0.0
 10
504.5851520247124
 20
508.3387991205545
 30
0.0
 10
505.8538147463659
 20
507.5245756796748
 30
0.0
 10
506.4080390226154
 20
507.1689016604214
 30
0.0
 10
506.5494413504202
 20
506.3978884974985
 30
0.0
 10
507.3806615868997
 20
506.3038872841461
 30
0.0
 10
508.0421308554723
 20
506.2292806886143
 30
0.0
 10
508.6983846837101
 20
506.2874058843854
 30
0.0
 10
509.3573725804162
 20
506.2827189025211
 30
0.0
 10
509.3573725804162
 20
506.2827189025211
 30
0.0
 10
517.3480753076692
 20
506.2255608394743
 30
0.0
 10
517.3480753076692
 20
506.2255608394743
 30
0.0
  0
HATCH
  5
85
330
70
100
AcDbEntity
  8
Layer 2
 62
    18
420
        0
440
 33554687
100
AcDbHatch
 10
0.0
 20
0.0
 30
0.0
210
0.0
220
0.0
230
1.0
  2
SOLID
 70
     1
 71
     1
 91
        1
 92
        1
 93
        1
 72
     4
 94
        3
 73
     0
 74
     0
 95
       41
 96
       37
 40
0.0
 40
0.0
 40
0.0
 40
0.0
 40
1.0
 40
1.0
 40
1.0
 40
2.0
 40
2.0
 40
2.0
 40
3.0
 40
3.0
 40
3.0
 40
4.0
 40
4.0
 40
4.0
 40
5.0
 40
5.0
 40
5.0
 40
6.0
 40
6.0
 40
6.0
 40
7.0
 40
7.0
 40
7.0
 40
8.0
 40
8.0
 40
8.0
 40
9.0
 40
9.0
 40
9.0
 40
10.0
 40
10.0
 40
10.0
 40
11.0
 40
11.0
 40
11.0
 40
12.0
 40
12.0
 40
12.0
 40
12.0
 10
517.3480753076692
 20
506.2255608394743
 10
517.5892433521985
 20
506.2238081712848
 10
517.6715902166506
 20
506.057681112632
 10
517.5268580949305
 20
505.8646936885452
 10
517.386723819869
 20
505.6778896836403
 10
517.2204498642859
 20
505.7753858427513
 10
517.0543987485253
 20
505.776584023929
 10
517.0543987485253
 20
505.776584023929
 10
516.0556112024678
 20
505.7837053289349
 10
516.0556112024678
 20
505.7837053289349
 10
516.0556112024678
 20
505.7837053289349
 10
514.0579623626327
 20
505.7979210969715
 10
514.0579623626327
 20
505.7979210969715
 10
514.0579623626327
 20
505.7979210969715
 10
510.0626847467283
 20
505.8265269704734
 10
510.0626847467283
 20
505.8265269704734
 10
510.0626847467283
 20
505.8265269704734
 10
508.066101995213
 20
505.8407966933064
 10
508.066101995213
 20
505.8407966933064
 10
507.3496516137147
 20
505.8459494967264
 10
506.7971901059336
 20
505.7945331415912
 10
506.3411882486798
 20
505.1267894715474
 10
505.4901272885144
 20
503.8806314733838
 10
503.5595521139693
 20
504.2713694372032
 10
503.2602246966944
 20
505.7502560648136
 10
502.9611792555916
 20
507.2279090448819
 10
504.5851520247124
 20
508.3387991205545
 10
505.8538147463659
 20
507.5245756796748
 10
506.4080390226154
 20
507.1689016604214
 10
506.5494413504202
 20
506.3978884974985
 10
507.3806615868997
 20
506.3038872841461
 10
508.0421308554723
 20
506.2292806886143
 10
508.6983846837101
 20
506.2874058843854
 10
509.3573725804162
 20
506.2827189025211
 10
509.3573725804162
 20
506.2827189025211
 10
517.3480753076692
 20
506.2255608394743
 10
517.3480753076692
 20
506.2255608394743
 97
        0
 97
        1
330
84
 75
     0
 76
     1
 98
        1
 10
0.0
 20
0.0
450
        0
451
        0
460
0.0
461
0.0
452
        0
462
0.0
453
        0
470

  0
SPLINE
  5
86
330
70
100
AcDbEntity
  8
Layer 2
 62
    18
420
        0
370
     5
100
AcDbSpline
210
0.0
220
0.0
230
1.0
 70
    11
 71
     3
 72
    23
 73
    19
 74
     0
 42
0.0000000001
 43
0.0000000001
 40
0.0
 40
0.0
 40
0.0
 40
0.0
 40
1.0
 40
1.0
 40
1.0
 40
2.0
 40
2.0
 40
2.0
 40
3.0
 40
3.0
 40
3.0
 40
4.0
 40
4.0
 40
4.0
 40
5.0
 40
5.0
 40
5.0
 40
6.0
 40
6.0
 40
6.0
 40
6.0
 10
560.8725758454766
 20
428.8049757985482
 30
0.0
 10
560.8725758454766
 20
428.8049757985482
 30
0.0
 10
560.916489318939
 20
428.6843245217096
 30
0.0
 10
560.916489318939
 20
428.6843245217096
 30
0.0
 10
560.916489318939
 20
428.6843245217096
 30
0.0
 10
550.2270084582887
 20
428.7607483936171
 30
0.0
 10
550.2270084582887
 20
428.7607483936171
 30
0.0
 10
550.2270084582887
 20
428.7607483936171
 30
0.0
 10
523.6260761895228
 20
428.9508921534215
 30
0.0
 10
523.6260761895228
 20
428.9508921534215
 30
0.0
 10
523.6260761895228
 20
428.9508921534215
 30
0.0
 10
523.5820553481553
 20
429.0718384211559
 30
0.0
 10
523.5820553481553
 20
429.0718384211559
 30
0.0
 10
523.5820553481553
 20
429.0718384211559
 30
0.0
 10
550.1830413008738
 20
428.8815471659035
 30
0.0
 10
550.1830413008738
 20
428.8815471659035
 30
0.0
 10
550.1830413008738
 20
428.8815471659035
 30
0.0
 10
560.8725758454766
 20
428.8049757985482
 30
0.0
 10
560.8725758454766
 20
428.8049757985482
 30
0.0
  0
HATCH
  5
87
330
70
100
AcDbEntity
  8
Layer 2
 62
    18
420
        0
440
 33554687
100
AcDbHatch
 10
0.0
 20
0.0
 30
0.0
210
0.0
220
0.0
230
1.0
  2
SOLID
 70
     1
 71
     1
 91
        1
 92
        1
 93
        1
 72
     4
 94
        3
 73
     0
 74
     0
 95
       23
 96
       19
 40
0.0
 40
0.0
 40
0.0
 40
0.0
 40
1.0
 40
1.0
 40
1.0
 40
2.0
 40
2.0
 40
2.0
 40
3.0
 40
3.0
 40
3.0
 40
4.0
 40
4.0
 40
4.0
 40
5.0
 40
5.0
 40
5.0
 40
6.0
 40
6.0
 40
6.0
 40
6.0
 10
560.8725758454766
 20
428.8049757985482
 10
560.8725758454766
 20
428.8049757985482
 10
560.916489318939
 20
428.6843245217096
 10
560.916489318939
 20
428.6843245217096
 10
560.916489318939
 20
428.6843245217096
 10
550.2270084582887
 20
428.7607483936171
 10
550.2270084582887
 20
428.7607483936171
 10
550.2270084582887
 20
428.7607483936171
 10
523.6260761895228
 20
428.9508921534215
 10
523.6260761895228
 20
428.9508921534215
 10
523.6260761895228
 20
428.9508921534215
 10
523.5820553481553
 20
429.0718384211559
 10
523.5820553481553
 20
429.0718384211559
 10
523.5820553481553
 20
429.0718384211559
 10
550.1830413008738
 20
428.8815471659035
 10
550.1830413008738
 20
428.8815471659035
 10
550.1830413008738
 20
428.8815471659035
 10
560.8725758454766
 20
428.8049757985482
 10
560.8725758454766
 20
428.8049757985482
 97
        0
 97
        1
330
86
 75
     0
 76
     1
 98
        1
 10
0.0
 20
0.0
450
        0
451
        0
460
0.0
461
0.0
452
        0
462
0.0
453
        0
470

  0
SPLINE
  5
88
330
70
100
AcDbEntity
  8
Layer 2
 62
    18
420
        0
370
     5
100
AcDbSpline
210
0.0
220
0.0
230
1.0
 70
    11
 71
     3
 72
    23
 73
    19
 74
     0
 42
0.0000000001
 43
0.0000000001
 40
0.0
 40
0.0
 40
0.0
 40
0.0
 40
1.0
 40
1.0
 40
1.0
 40
2.0
 40
2.0
 40
2.0
 40
3.0
 40
3.0
 40
3.0
 40
4.0
 40
4.0
 40
4.0
 40
5.0
 40
5.0
 40
5.0
 40
6.0
 40
6.0
 40
6.0
 40
6.0
 10
559.5096476495346
 20
432.5495902439651
 30
0.0
 10
559.5096476495346
 20
432.5495902439651
 30
0.0
 10
559.5536684909038
 20
432.4286439762326
 30
0.0
 10
559.5536684909038
 20
432.4286439762326
 30
0.0
 10
559.5536684909038
 20
432.4286439762326
 30
0.0
 10
548.8641876302554
 20
432.5050678481384
 30
0.0
 10
548.8641876302554
 20
432.5050678481384
 30
0.0
 10
548.8641876302554
 20
432.5050678481384
 30
0.0
 10
522.0549354171926
 20
432.6968935006079
 30
0.0
 10
522.0549354171926
 20
432.6968935006079
 30
0.0
 10
522.0549354171926
 20
432.6968935006079
 30
0.0
 10
522.0109682597758
 20
432.8176922728962
 30
0.0
 10
522.0109682597758
 20
432.8176922728962
 30
0.0
 10
522.0109682597758
 20
432.8176922728962
 30
0.0
 10
548.8201667888861
 20
432.6260141158709
 30
0.0
 10
548.8201667888861
 20
432.6260141158709
 30
0.0
 10
548.8201667888861
 20
432.6260141158709
 30
0.0
 10
559.5096476495346
 20
432.5495902439651
 30
0.0
 10
559.5096476495346
 20
432.5495902439651
 30
0.0
  0
HATCH
  5
89
330
70
100
AcDbEntity
  8
Layer 2
 62
    18
420
        0
440
 33554687
100
AcDbHatch
 10
0.0
 20
0.0
 30
0.0
210
0.0
220
0.0
230
1.0
  2
SOLID
 70
     1
 71
     1
 91
        1
 92
        1
 93
        1
 72
     4
 94
        3
 73
     0
 74
     0
 95
       23
 96
       19
 40
0.0
 40
0.0
 40
0.0
 40
0.0
 40
1.0
 40
1.0
 40
1.0
 40
2.0
 40
2.0
 40
2.0
 40
3.0
 40
3.0
 40
3.0
 40
4.0
 40
4.0
 40
4.0
 40
5.0
 40
5.0
 40
5.0
 40
6.0
 40
6.0
 40
6.0
 40
6.0
 10
559.5096476495346
 20
432.5495902439651
 10
559.5096476495346
 20
432.5495902439651
 10
559.5536684909038
 20
432.4286439762326
 10
559.5536684909038
 20
432.4286439762326
 10
559.5536684909038
 20
432.4286439762326
 10
548.8641876302554
 20
432.5050678481384
 10
548.8641876302554
 20
432.5050678481384
 10
548.8641876302554
 20
432.5050678481384
 10
522.0549354171926
 20
432.6968935006079
 10
522.0549354171926
 20
432.6968935006079
 10
522.0549354171926
 20
432.6968935006079
 10
522.0109682597758
 20
432.8176922728962
 10
522.0109682597758
 20
432.8176922728962
 10
522.0109682597758
 20
432.8176922728962
 10
548.8201667888861
 20
432.6260141158709
 10
548.8201667888861
 20
432.6260141158709
 10
548.8201667888861
 20
432.6260141158709
 10
559.5096476495346
 20
432.5495902439651
 10
559.5096476495346
 20
432.5495902439651
 97
        0
 97
        1
330
88
 75
     0
 76
     1
 98
        1
 10
0.0
 20
0.0
450
        0
451
        0
460
0.0
461
0.0
452
        0
462
0.0
453
        0
470

  0
SPLINE
  5
8A
330
70
100
AcDbEntity
  8
Layer 2
 62
    18
420
        0
370
     5
100
AcDbSpline
210
0.0
220
0.0
230
1.0
 70
    11
 71
     3
 72
    23
 73
    19
 74
     0
 42
0.0000000001
 43
0.0000000001
 40
0.0
 40
0.0
 40
0.0
 40
0.0
 40
1.0
 40
1.0
 40
1.0
 40
2.0
 40
2.0
 40
2.0
 40
3.0
 40
3.0
 40
3.0
 40
4.0
 40
4.0
 40
4.0
 40
5.0
 40
5.0
 40
5.0
 40
6.0
 40
6.0
 40
6.0
 40
6.0
 10
558.1468268215012
 20
436.2939096984883
 30
0.0
 10
558.1468268215012
 20
436.2939096984883
 30
0.0
 10
558.1908476628704
 20
436.1729634307521
 30
0.0
 10
558.1908476628704
 20
436.1729634307521
 30
0.0
 10
558.1908476628704
 20
436.1729634307521
 30
0.0
 10
547.5013131182659
 20
436.2495347981057
 30
0.0
 10
547.5013131182659
 20
436.2495347981057
 30
0.0
 10
547.5013131182659
 20
436.2495347981057
 30
0.0
 10
521.9016492470455
 20
436.432625034864
 30
0.0
 10
521.9016492470455
 20
436.432625034864
 30
0.0
 10
521.9016492470455
 20
436.432625034864
 30
0.0
 10
521.8576820896323
 20
436.5534238071522
 30
0.0
 10
521.8576820896323
 20
436.5534238071522
 30
0.0
 10
521.8576820896323
 20
436.5534238071522
 30
0.0
 10
547.4573459608509
 20
436.370333570394
 30
0.0
 10
547.4573459608509
 20
436.370333570394
 30
0.0
 10
547.4573459608509
 20
436.370333570394
 30
0.0
 10
558.1468268215012
 20
436.2939096984883
 30
0.0
 10
558.1468268215012
 20
436.2939096984883
 30
0.0
  0
HATCH
  5
8B
330
70
100
AcDbEntity
  8
Layer 2
 62
    18
420
        0
440
 33554687
100
AcDbHatch
 10
0.0
 20
0.0
 30
0.0
210
0.0
220
0.0
230
1.0
  2
SOLID
 70
     1
 71
     1
 91
        1
 92
        1
 93
        1
 72
     4
 94
        3
 73
     0
 74
     0
 95
       23
 96
       19
 40
0.0
 40
0.0
 40
0.0
 40
0.0
 40
1.0
 40
1.0
 40
1.0
 40
2.0
 40
2.0
 40
2.0
 40
3.0
 40
3.0
 40
3.0
 40
4.0
 40
4.0
 40
4.0
 40
5.0
 40
5.0
 40
5.0
 40
6.0
 40
6.0
 40
6.0
 40
6.0
 10
558.1468268215012
 20
436.2939096984883
 10
558.1468268215012
 20
436.2939096984883
 10
558.1908476628704
 20
436.1729634307521
 10
558.1908476628704
 20
436.1729634307521
 10
558.1908476628704
 20
436.1729634307521
 10
547.5013131182659
 20
436.2495347981057
 10
547.5013131182659
 20
436.2495347981057
 10
547.5013131182659
 20
436.2495347981057
 10
521.9016492470455
 20
436.432625034864
 10
521.9016492470455
 20
436.432625034864
 10
521.9016492470455
 20
436.432625034864
 10
521.8576820896323
 20
436.5534238071522
 10
521.8576820896323
 20
436.5534238071522
 10
521.8576820896323
 20
436.5534238071522
 10
547.4573459608509
 20
436.370333570394
 10
547.4573459608509
 20
436.370333570394
 10
547.4573459608509
 20
436.370333570394
 10
558.1468268215012
 20
436.2939096984883
 10
558.1468268215012
 20
436.2939096984883
 97
        0
 97
        1
330
8A
 75
     0
 76
     1
 98
        1
 10
0.0
 20
0.0
450
        0
451
        0
460
0.0
461
0.0
452
        0
462
0.0
453
        0
470

  0
SPLINE
  5
8C
330
70
100
AcDbEntity
  8
Layer 2
 62
    18
420
        0
370
     5
100
AcDbSpline
210
0.0
220
0.0
230
1.0
 70
    11
 71
     3
 72
    23
 73
    19
 74
     0
 42
0.0000000001
 43
0.0000000001
 40
0.0
 40
0.0
 40
0.0
 40
0.0
 40
1.0
 40
1.0
 40
1.0
 40
2.0
 40
2.0
 40
2.0
 40
3.0
 40
3.0
 40
3.0
 40
4.0
 40
4.0
 40
4.0
 40
5.0
 40
5.0
 40
5.0
 40
6.0
 40
6.0
 40
6.0
 40
6.0
 10
556.7839523095117
 20
440.0383766484556
 30
0.0
 10
556.7839523095117
 20
440.0383766484556
 30
0.0
 10
556.8279194669285
 20
439.9175778761709
 30
0.0
 10
556.8279194669285
 20
439.9175778761709
 30
0.0
 10
556.8279194669285
 20
439.9175778761709
 30
0.0
 10
546.1384386062782
 20
439.9940017480767
 30
0.0
 10
546.1384386062782
 20
439.9940017480767
 30
0.0
 10
546.1384386062782
 20
439.9940017480767
 30
0.0
 10
517.7314280344581
 20
440.1972644900342
 30
0.0
 10
517.7314280344581
 20
440.1972644900342
 30
0.0
 10
517.7314280344581
 20
440.1972644900342
 30
0.0
 10
517.6874608770413
 20
440.3180632623189
 30
0.0
 10
517.6874608770413
 20
440.3180632623189
 30
0.0
 10
517.6874608770413
 20
440.3180632623189
 30
0.0
 10
546.0945251328175
 20
440.1146530249134
 30
0.0
 10
546.0945251328175
 20
440.1146530249134
 30
0.0
 10
546.0945251328175
 20
440.1146530249134
 30
0.0
 10
556.7839523095117
 20
440.0383766484556
 30
0.0
 10
556.7839523095117
 20
440.0383766484556
 30
0.0
  0
HATCH
  5
8D
330
70
100
AcDbEntity
  8
Layer 2
 62
    18
420
        0
440
 33554687
100
AcDbHatch
 10
0.0
 20
0.0
 30
0.0
210
0.0
220
0.0
230
1.0
  2
SOLID
 70
     1
 71
     1
 91
        1
 92
        1
 93
        1
 72
     4
 94
        3
 73
     0
 74
     0
 95
       23
 96
       19
 40
0.0
 40
0.0
 40
0.0
 40
0.0
 40
1.0
 40
1.0
 40
1.0
 40
2.0
 40
2.0
 40
2.0
 40
3.0
 40
3.0
 40
3.0
 40
4.0
 40
4.0
 40
4.0
 40
5.0
 40
5.0
 40
5.0
 40
6.0
 40
6.0
 40
6.0
 40
6.0
 10
556.7839523095117
 20
440.0383766484556
 10
556.7839523095117
 20
440.0383766484556
 10
556.8279194669285
 20
439.9175778761709
 10
556.8279194669285
 20
439.9175778761709
 10
556.8279194669285
 20
439.9175778761709
 10
546.1384386062782
 20
439.9940017480767
 10
546.1384386062782
 20
439.9940017480767
 10
546.1384386062782
 20
439.9940017480767
 10
517.7314280344581
 20
440.1972644900342
 10
517.7314280344581
 20
440.1972644900342
 10
517.7314280344581
 20
440.1972644900342
 10
517.6874608770413
 20
440.3180632623189
 10
517.6874608770413
 20
440.3180632623189
 10
517.6874608770413
 20
440.3180632623189
 10
546.0945251328175
 20
440.1146530249134
 10
546.0945251328175
 20
440.1146530249134
 10
546.0945251328175
 20
440.1146530249134
 10
556.7839523095117
 20
440.0383766484556
 10
556.7839523095117
 20
440.0383766484556
 97
        0
 97
        1
330
8C
 75
     0
 76
     1
 98
        1
 10
0.0
 20
0.0
450
        0
451
        0
460
0.0
461
0.0
452
        0
462
0.0
453
        0
470

  0
SPLINE
  5
8E
330
70
100
AcDbEntity
  8
Layer 2
 62
    18
420
        0
370
     5
100
AcDbSpline
210
0.0
220
0.0
230
1.0
 70
    11
 71
     3
 72
    23
 73
    19
 74
     0
 42
0.0000000001
 43
0.0000000001
 40
0.0
 40
0.0
 40
0.0
 40
0.0
 40
1.0
 40
1.0
 40
1.0
 40
2.0
 40
2.0
 40
2.0
 40
3.0
 40
3.0
 40
3.0
 40
4.0
 40
4.0
 40
4.0
 40
5.0
 40
5.0
 40
5.0
 40
6.0
 40
6.0
 40
6.0
 40
6.0
 10
555.421077797524
 20
443.7828435984265
 30
0.0
 10
555.421077797524
 20
443.7828435984265
 30
0.0
 10
555.4650986388915
 20
443.6618973306922
 30
0.0
 10
555.4650986388915
 20
443.6618973306922
 30
0.0
 10
555.4650986388915
 20
443.6618973306922
 30
0.0
 10
544.775617778243
 20
443.7383212025979
 30
0.0
 10
544.775617778243
 20
443.7383212025979
 30
0.0
 10
544.775617778243
 20
443.7383212025979
 30
0.0
 10
516.632994936117
 20
443.9395967404961
 30
0.0
 10
516.632994936117
 20
443.9395967404961
 30
0.0
 10
516.632994936117
 20
443.9395967404961
 30
0.0
 10
516.5889740947459
 20
444.0605430082286
 30
0.0
 10
516.5889740947459
 20
444.0605430082286
 30
0.0
 10
516.5889740947459
 20
444.0605430082286
 30
0.0
 10
544.7315969368737
 20
443.8592674703322
 30
0.0
 10
544.7315969368737
 20
443.8592674703322
 30
0.0
 10
544.7315969368737
 20
443.8592674703322
 30
0.0
 10
555.421077797524
 20
443.7828435984265
 30
0.0
 10
555.421077797524
 20
443.7828435984265
 30
0.0
  0
HATCH
  5
8F
330
70
100
AcDbEntity
  8
Layer 2
 62
    18
420
        0
440
 33554687
100
AcDbHatch
 10
0.0
 20
0.0
 30
0.0
210
0.0
220
0.0
230
1.0
  2
SOLID
 70
     1
 71
     1
 91
        1
 92
        1
 93
        1
 72
     4
 94
        3
 73
     0
 74
     0
 95
       23
 96
       19
 40
0.0
 40
0.0
 40
0.0
 40
0.0
 40
1.0
 40
1.0
 40
1.0
 40
2.0
 40
2.0
 40
2.0
 40
3.0
 40
3.0
 40
3.0
 40
4.0
 40
4.0
 40
4.0
 40
5.0
 40
5.0
 40
5.0
 40
6.0
 40
6.0
 40
6.0
 40
6.0
 10
555.421077797524
 20
443.7828435984265
 10
555.421077797524
 20
443.7828435984265
 10
555.4650986388915
 20
443.6618973306922
 10
555.4650986388915
 20
443.6618973306922
 10
555.4650986388915
 20
443.6618973306922
 10
544.775617778243
 20
443.7383212025979
 10
544.775617778243
 20
443.7383212025979
 10
544.775617778243
 20
443.7383212025979
 10
516.632994936117
 20
443.9395967404961
 10
516.632994936117
 20
443.9395967404961
 10
516.632994936117
 20
443.9395967404961
 10
516.5889740947459
 20
444.0605430082286
 10
516.5889740947459
 20
444.0605430082286
 10
516.5889740947459
 20
444.0605430082286
 10
544.7315969368737
 20
443.8592674703322
 10
544.7315969368737
 20
443.8592674703322
 10
544.7315969368737
 20
443.8592674703322
 10
555.421077797524
 20
443.7828435984265
 10
555.421077797524
 20
443.7828435984265
 97
        0
 97
        1
330
8E
 75
     0
 76
     1
 98
        1
 10
0.0
 20
0.0
450
        0
451
        0
460
0.0
461
0.0
452
        0
462
0.0
453
        0
470

  0
SPLINE
  5
90
330
70
100
AcDbEntity
  8
Layer 2
 62
    18
420
        0
370
     5
100
AcDbSpline
210
0.0
220
0.0
230
1.0
 70
    11
 71
     3
 72
    23
 73
    19
 74
     0
 42
0.0000000001
 43
0.0000000001
 40
0.0
 40
0.0
 40
0.0
 40
0.0
 40
1.0
 40
1.0
 40
1.0
 40
2.0
 40
2.0
 40
2.0
 40
3.0
 40
3.0
 40
3.0
 40
4.0
 40
4.0
 40
4.0
 40
5.0
 40
5.0
 40
5.0
 40
6.0
 40
6.0
 40
6.0
 40
6.0
 10
554.0582569694906
 20
447.5271630529477
 30
0.0
 10
554.0582569694906
 20
447.5271630529477
 30
0.0
 10
554.1022241269038
 20
447.4063642806613
 30
0.0
 10
554.1022241269038
 20
447.4063642806613
 30
0.0
 10
554.1022241269038
 20
447.4063642806613
 30
0.0
 10
543.412689582301
 20
447.482935648015
 30
0.0
 10
543.412689582301
 20
447.482935648015
 30
0.0
 10
543.412689582301
 20
447.482935648015
 30
0.0
 10
517.1883543617296
 20
447.6705084229561
 30
0.0
 10
517.1883543617296
 20
447.6705084229561
 30
0.0
 10
517.1883543617296
 20
447.6705084229561
 30
0.0
 10
517.144440888267
 20
447.7911596997946
 30
0.0
 10
517.144440888267
 20
447.7911596997946
 30
0.0
 10
517.144440888267
 20
447.7911596997946
 30
0.0
 10
543.3687761088386
 20
447.6035869248534
 30
0.0
 10
543.3687761088386
 20
447.6035869248534
 30
0.0
 10
543.3687761088386
 20
447.6035869248534
 30
0.0
 10
554.0582569694906
 20
447.5271630529477
 30
0.0
 10
554.0582569694906
 20
447.5271630529477
 30
0.0
  0
HATCH
  5
91
330
70
100
AcDbEntity
  8
Layer 2
 62
    18
420
        0
440
 33554687
100
AcDbHatch
 10
0.0
 20
0.0
 30
0.0
210
0.0
220
0.0
230
1.0
  2
SOLID
 70
     1
 71
     1
 91
        1
 92
        1
 93
        1
 72
     4
 94
        3
 73
     0
 74
     0
 95
       23
 96
       19
 40
0.0
 40
0.0
 40
0.0
 40
0.0
 40
1.0
 40
1.0
 40
1.0
 40
2.0
 40
2.0
 40
2.0
 40
3.0
 40
3.0
 40
3.0
 40
4.0
 40
4.0
 40
4.0
 40
5.0
 40
5.0
 40
5.0
 40
6.0
 40
6.0
 40
6.0
 40
6.0
 10
554.0582569694906
 20
447.5271630529477
 10
554.0582569694906
 20
447.5271630529477
 10
554.1022241269038
 20
447.4063642806613
 10
554.1022241269038
 20
447.4063642806613
 10
554.1022241269038
 20
447.4063642806613
 10
543.412689582301
 20
447.482935648015
 10
543.412689582301
 20
447.482935648015
 10
543.412689582301
 20
447.482935648015
 10
517.1883543617296
 20
447.6705084229561
 10
517.1883543617296
 20
447.6705084229561
 10
517.1883543617296
 20
447.6705084229561
 10
517.144440888267
 20
447.7911596997946
 10
517.144440888267
 20
447.7911596997946
 10
517.144440888267
 20
447.7911596997946
 10
543.3687761088386
 20
447.6035869248534
 10
543.3687761088386
 20
447.6035869248534
 10
543.3687761088386
 20
447.6035869248534
 10
554.0582569694906
 20
447.5271630529477
 10
554.0582569694906
 20
447.5271630529477
 97
        0
 97
        1
330
90
 75
     0
 76
     1
 98
        1
 10
0.0
 20
0.0
450
        0
451
        0
460
0.0
461
0.0
452
        0
462
0.0
453
        0
470

  0
SPLINE
  5
92
330
70
100
AcDbEntity
  8
Layer 2
 62
    18
420
        0
370
     5
100
AcDbSpline
210
0.0
220
0.0
230
1.0
 70
    11
 71
     3
 72
    23
 73
    19
 74
     0
 42
0.0000000001
 43
0.0000000001
 40
0.0
 40
0.0
 40
0.0
 40
0.0
 40
1.0
 40
1.0
 40
1.0
 40
2.0
 40
2.0
 40
2.0
 40
3.0
 40
3.0
 40
3.0
 40
4.0
 40
4.0
 40
4.0
 40
5.0
 40
5.0
 40
5.0
 40
6.0
 40
6.0
 40
6.0
 40
6.0
 10
552.6954361414555
 20
451.271482507469
 30
0.0
 10
552.6954361414555
 20
451.271482507469
 30
0.0
 10
552.7393496149161
 20
451.1508312306286
 30
0.0
 10
552.7393496149161
 20
451.1508312306286
 30
0.0
 10
552.7393496149161
 20
451.1508312306286
 30
0.0
 10
542.0498687542658
 20
451.2272551025362
 30
0.0
 10
542.0498687542658
 20
451.2272551025362
 30
0.0
 10
542.0498687542658
 20
451.2272551025362
 30
0.0
 10
513.9635148769302
 20
451.4281315175485
 30
0.0
 10
513.9635148769302
 20
451.4281315175485
 30
0.0
 10
513.9635148769302
 20
451.4281315175485
 30
0.0
 10
513.9195477195134
 20
451.5489302898349
 30
0.0
 10
513.9195477195134
 20
451.5489302898349
 30
0.0
 10
513.9195477195134
 20
451.5489302898349
 30
0.0
 10
542.0059015968509
 20
451.3480538748226
 30
0.0
 10
542.0059015968509
 20
451.3480538748226
 30
0.0
 10
542.0059015968509
 20
451.3480538748226
 30
0.0
 10
552.6954361414555
 20
451.271482507469
 30
0.0
 10
552.6954361414555
 20
451.271482507469
 30
0.0
  0
HATCH
  5
93
330
70
100
AcDbEntity
  8
Layer 2
 62
    18
420
        0
440
 33554687
100
AcDbHatch
 10
0.0
 20
0.0
 30
0.0
210
0.0
220
0.0
230
1.0
  2
SOLID
 70
     1
 71
     1
 91
        1
 92
        1
 93
        1
 72
     4
 94
        3
 73
     0
 74
     0
 95
       23
 96
       19
 40
0.0
 40
0.0
 40
0.0
 40
0.0
 40
1.0
 40
1.0
 40
1.0
 40
2.0
 40
2.0
 40
2.0
 40
3.0
 40
3.0
 40
3.0
 40
4.0
 40
4.0
 40
4.0
 40
5.0
 40
5.0
 40
5.0
 40
6.0
 40
6.0
 40
6.0
 40
6.0
 10
552.6954361414555
 20
451.271482507469
 10
552.6954361414555
 20
451.271482507469
 10
552.7393496149161
 20
451.1508312306286
 10
552.7393496149161
 20
451.1508312306286
 10
552.7393496149161
 20
451.1508312306286
 10
542.0498687542658
 20
451.2272551025362
 10
542.0498687542658
 20
451.2272551025362
 10
542.0498687542658
 20
451.2272551025362
 10
513.9635148769302
 20
451.4281315175485
 10
513.9635148769302
 20
451.4281315175485
 10
513.9635148769302
 20
451.4281315175485
 10
513.9195477195134
 20
451.5489302898349
 10
513.9195477195134
 20
451.5489302898349
 10
513.9195477195134
 20
451.5489302898349
 10
542.0059015968509
 20
451.3480538748226
 10
542.0059015968509
 20
451.3480538748226
 10
542.0059015968509
 20
451.3480538748226
 10
552.6954361414555
 20
451.271482507469
 10
552.6954361414555
 20
451.271482507469
 97
        0
 97
        1
330
92
 75
     0
 76
     1
 98
        1
 10
0.0
 20
0.0
450
        0
451
        0
460
0.0
461
0.0
452
        0
462
0.0
453
        0
470

  0
SPLINE
  5
94
330
70
100
AcDbEntity
  8
Layer 2
 62
    18
420
        0
370
     5
100
AcDbSpline
210
0.0
220
0.0
230
1.0
 70
    11
 71
     3
 72
    23
 73
    19
 74
     0
 42
0.0000000001
 43
0.0000000001
 40
0.0
 40
0.0
 40
0.0
 40
0.0
 40
1.0
 40
1.0
 40
1.0
 40
2.0
 40
2.0
 40
2.0
 40
3.0
 40
3.0
 40
3.0
 40
4.0
 40
4.0
 40
4.0
 40
5.0
 40
5.0
 40
5.0
 40
6.0
 40
6.0
 40
6.0
 40
6.0
 10
551.3325079455134
 20
455.0160969528842
 30
0.0
 10
551.3325079455134
 20
455.0160969528842
 30
0.0
 10
551.3765287868809
 20
454.8951506851517
 30
0.0
 10
551.3765287868809
 20
454.8951506851517
 30
0.0
 10
551.3765287868809
 20
454.8951506851517
 30
0.0
 10
540.6870479262306
 20
454.9715745570575
 30
0.0
 10
540.6870479262306
 20
454.9715745570575
 30
0.0
 10
540.6870479262306
 20
454.9715745570575
 30
0.0
 10
512.6287480053616
 20
455.1724726537977
 30
0.0
 10
512.6287480053616
 20
455.1724726537977
 30
0.0
 10
512.6287480053616
 20
455.1724726537977
 30
0.0
 10
512.5848345318972
 20
455.293123930638
 30
0.0
 10
512.5848345318972
 20
455.293123930638
 30
0.0
 10
512.5848345318972
 20
455.293123930638
 30
0.0
 10
540.6430270848631
 20
455.0925208247917
 30
0.0
 10
540.6430270848631
 20
455.0925208247917
 30
0.0
 10
540.6430270848631
 20
455.0925208247917
 30
0.0
 10
551.3325079455134
 20
455.0160969528842
 30
0.0
 10
551.3325079455134
 20
455.0160969528842
 30
0.0
  0
HATCH
  5
95
330
70
100
AcDbEntity
  8
Layer 2
 62
    18
420
        0
440
 33554687
100
AcDbHatch
 10
0.0
 20
0.0
 30
0.0
210
0.0
220
0.0
230
1.0
  2
SOLID
 70
     1
 71
     1
 91
        1
 92
        1
 93
        1
 72
     4
 94
        3
 73
     0
 74
     0
 95
       23
 96
       19
 40
0.0
 40
0.0
 40
0.0
 40
0.0
 40
1.0
 40
1.0
 40
1.0
 40
2.0
 40
2.0
 40
2.0
 40
3.0
 40
3.0
 40
3.0
 40
4.0
 40
4.0
 40
4.0
 40
5.0
 40
5.0
 40
5.0
 40
6.0
 40
6.0
 40
6.0
 40
6.0
 10
551.3325079455134
 20
455.0160969528842
 10
551.3325079455134
 20
455.0160969528842
 10
551.3765287868809
 20
454.8951506851517
 10
551.3765287868809
 20
454.8951506851517
 10
551.3765287868809
 20
454.8951506851517
 10
540.6870479262306
 20
454.9715745570575
 10
540.6870479262306
 20
454.9715745570575
 10
540.6870479262306
 20
454.9715745570575
 10
512.6287480053616
 20
455.1724726537977
 10
512.6287480053616
 20
455.1724726537977
 10
512.6287480053616
 20
455.1724726537977
 10
512.5848345318972
 20
455.293123930638
 10
512.5848345318972
 20
455.293123930638
 10
512.5848345318972
 20
455.293123930638
 10
540.6430270848631
 20
455.0925208247917
 10
540.6430270848631
 20
455.0925208247917
 10
540.6430270848631
 20
455.0925208247917
 10
551.3325079455134
 20
455.0160969528842
 10
551.3325079455134
 20
455.0160969528842
 97
        0
 97
        1
330
94
 75
     0
 76
     1
 98
        1
 10
0.0
 20
0.0
450
        0
451
        0
460
0.0
461
0.0
452
        0
462
0.0
453
        0
470

  0
SPLINE
  5
96
330
70
100
AcDbEntity
  8
Layer 2
 62
    18
420
        0
370
     5
100
AcDbSpline
210
0.0
220
0.0
230
1.0
 70
    11
 71
     3
 72
    23
 73
    19
 74
     0
 42
0.0000000001
 43
0.0000000001
 40
0.0
 40
0.0
 40
0.0
 40
0.0
 40
1.0
 40
1.0
 40
1.0
 40
2.0
 40
2.0
 40
2.0
 40
3.0
 40
3.0
 40
3.0
 40
4.0
 40
4.0
 40
4.0
 40
5.0
 40
5.0
 40
5.0
 40
6.0
 40
6.0
 40
6.0
 40
6.0
 10
549.9696871174765
 20
458.7604164074073
 30
0.0
 10
549.9696871174765
 20
458.7604164074073
 30
0.0
 10
550.0136005909389
 20
458.6397651305669
 30
0.0
 10
550.0136005909389
 20
458.6397651305669
 30
0.0
 10
550.0136005909389
 20
458.6397651305669
 30
0.0
 10
539.324173414243
 20
458.7160415070284
 30
0.0
 10
539.324173414243
 20
458.7160415070284
 30
0.0
 10
539.324173414243
 20
458.7160415070284
 30
0.0
 10
510.8213607639409
 20
458.9200135584506
 30
0.0
 10
510.8213607639409
 20
458.9200135584506
 30
0.0
 10
510.8213607639409
 20
458.9200135584506
 30
0.0
 10
510.7773936065277
 20
459.040812330737
 30
0.0
 10
510.7773936065277
 20
459.040812330737
 30
0.0
 10
510.7773936065277
 20
459.040812330737
 30
0.0
 10
539.2802062568279
 20
458.836840279313
 30
0.0
 10
539.2802062568279
 20
458.836840279313
 30
0.0
 10
539.2802062568279
 20
458.836840279313
 30
0.0
 10
549.9696871174765
 20
458.7604164074073
 30
0.0
 10
549.9696871174765
 20
458.7604164074073
 30
0.0
  0
HATCH
  5
97
330
70
100
AcDbEntity
  8
Layer 2
 62
    18
420
        0
440
 33554687
100
AcDbHatch
 10
0.0
 20
0.0
 30
0.0
210
0.0
220
0.0
230
1.0
  2
SOLID
 70
     1
 71
     1
 91
        1
 92
        1
 93
        1
 72
     4
 94
        3
 73
     0
 74
     0
 95
       23
 96
       19
 40
0.0
 40
0.0
 40
0.0
 40
0.0
 40
1.0
 40
1.0
 40
1.0
 40
2.0
 40
2.0
 40
2.0
 40
3.0
 40
3.0
 40
3.0
 40
4.0
 40
4.0
 40
4.0
 40
5.0
 40
5.0
 40
5.0
 40
6.0
 40
6.0
 40
6.0
 40
6.0
 10
549.9696871174765
 20
458.7604164074073
 10
549.9696871174765
 20
458.7604164074073
 10
550.0136005909389
 20
458.6397651305669
 10
550.0136005909389
 20
458.6397651305669
 10
550.0136005909389
 20
458.6397651305669
 10
539.324173414243
 20
458.7160415070284
 10
539.324173414243
 20
458.7160415070284
 10
539.324173414243
 20
458.7160415070284
 10
510.8213607639409
 20
458.9200135584506
 10
510.8213607639409
 20
458.9200135584506
 10
510.8213607639409
 20
458.9200135584506
 10
510.7773936065277
 20
459.040812330737
 10
510.7773936065277
 20
459.040812330737
 10
510.7773936065277
 20
459.040812330737
 10
539.2802062568279
 20
458.836840279313
 10
539.2802062568279
 20
458.836840279313
 10
539.2802062568279
 20
458.836840279313
 10
549.9696871174765
 20
458.7604164074073
 10
549.9696871174765
 20
458.7604164074073
 97
        0
 97
        1
330
96
 75
     0
 76
     1
 98
        1
 10
0.0
 20
0.0
450
        0
451
        0
460
0.0
461
0.0
452
        0
462
0.0
453
        0
470

  0
SPLINE
  5
98
330
70
100
AcDbEntity
  8
Layer 2
 62
    18
420
        0
370
     5
100
AcDbSpline
210
0.0
220
0.0
230
1.0
 70
    11
 71
     3
 72
    23
 73
    19
 74
     0
 42
0.0000000001
 43
0.0000000001
 40
0.0
 40
0.0
 40
0.0
 40
0.0
 40
1.0
 40
1.0
 40
1.0
 40
2.0
 40
2.0
 40
2.0
 40
3.0
 40
3.0
 40
3.0
 40
4.0
 40
4.0
 40
4.0
 40
5.0
 40
5.0
 40
5.0
 40
6.0
 40
6.0
 40
6.0
 40
6.0
 10
548.6068126054887
 20
462.5048833573746
 30
0.0
 10
548.6068126054887
 20
462.5048833573746
 30
0.0
 10
548.6507797629055
 20
462.3840845850899
 30
0.0
 10
548.6507797629055
 20
462.3840845850899
 30
0.0
 10
548.6507797629055
 20
462.3840845850899
 30
0.0
 10
537.9612989022553
 20
462.4605084569957
 30
0.0
 10
537.9612989022553
 20
462.4605084569957
 30
0.0
 10
537.9612989022553
 20
462.4605084569957
 30
0.0
 10
511.3768275574657
 20
462.6506302500165
 30
0.0
 10
511.3768275574657
 20
462.6506302500165
 30
0.0
 10
511.3768275574657
 20
462.6506302500165
 30
0.0
 10
511.3328604000526
 20
462.7714290222993
 30
0.0
 10
511.3328604000526
 20
462.7714290222993
 30
0.0
 10
511.3328604000526
 20
462.7714290222993
 30
0.0
 10
537.9173317448403
 20
462.5813072292821
 30
0.0
 10
537.9173317448403
 20
462.5813072292821
 30
0.0
 10
537.9173317448403
 20
462.5813072292821
 30
0.0
 10
548.6068126054887
 20
462.5048833573746
 30
0.0
 10
548.6068126054887
 20
462.5048833573746
 30
0.0
  0
HATCH
  5
99
330
70
100
AcDbEntity
  8
Layer 2
 62
    18
420
        0
440
 33554687
100
AcDbHatch
 10
0.0
 20
0.0
 30
0.0
210
0.0
220
0.0
230
1.0
  2
SOLID
 70
     1
 71
     1
 91
        1
 92
        1
 93
        1
 72
     4
 94
        3
 73
     0
 74
     0
 95
       23
 96
       19
 40
0.0
 40
0.0
 40
0.0
 40
0.0
 40
1.0
 40
1.0
 40
1.0
 40
2.0
 40
2.0
 40
2.0
 40
3.0
 40
3.0
 40
3.0
 40
4.0
 40
4.0
 40
4.0
 40
5.0
 40
5.0
 40
5.0
 40
6.0
 40
6.0
 40
6.0
 40
6.0
 10
548.6068126054887
 20
462.5048833573746
 10
548.6068126054887
 20
462.5048833573746
 10
548.6507797629055
 20
462.3840845850899
 10
548.6507797629055
 20
462.3840845850899
 10
548.6507797629055
 20
462.3840845850899
 10
537.9612989022553
 20
462.4605084569957
 10
537.9612989022553
 20
462.4605084569957
 10
537.9612989022553
 20
462.4605084569957
 10
511.3768275574657
 20
462.6506302500165
 10
511.3768275574657
 20
462.6506302500165
 10
511.3768275574657
 20
462.6506302500165
 10
511.3328604000526
 20
462.7714290222993
 10
511.3328604000526
 20
462.7714290222993
 10
511.3328604000526
 20
462.7714290222993
 10
537.9173317448403
 20
462.5813072292821
 10
537.9173317448403
 20
462.5813072292821
 10
537.9173317448403
 20
462.5813072292821
 10
548.6068126054887
 20
462.5048833573746
 10
548.6068126054887
 20
462.5048833573746
 97
        0
 97
        1
330
98
 75
     0
 76
     1
 98
        1
 10
0.0
 20
0.0
450
        0
451
        0
460
0.0
461
0.0
452
        0
462
0.0
453
        0
470

  0
SPLINE
  5
9A
330
70
100
AcDbEntity
  8
Layer 2
 62
    18
420
        0
370
     5
100
AcDbSpline
210
0.0
220
0.0
230
1.0
 70
    11
 71
     3
 72
    23
 73
    19
 74
     0
 42
0.0000000001
 43
0.0000000001
 40
0.0
 40
0.0
 40
0.0
 40
0.0
 40
1.0
 40
1.0
 40
1.0
 40
2.0
 40
2.0
 40
2.0
 40
3.0
 40
3.0
 40
3.0
 40
4.0
 40
4.0
 40
4.0
 40
5.0
 40
5.0
 40
5.0
 40
6.0
 40
6.0
 40
6.0
 40
6.0
 10
547.2439380935011
 20
466.2493503073456
 30
0.0
 10
547.2439380935011
 20
466.2493503073456
 30
0.0
 10
547.2879589348703
 20
466.1284040396094
 30
0.0
 10
547.2879589348703
 20
466.1284040396094
 30
0.0
 10
547.2879589348703
 20
466.1284040396094
 30
0.0
 10
536.5984780742201
 20
466.2048279115151
 30
0.0
 10
536.5984780742201
 20
466.2048279115151
 30
0.0
 10
536.5984780742201
 20
466.2048279115151
 30
0.0
 10
510.7508136495635
 20
466.389856543572
 30
0.0
 10
510.7508136495635
 20
466.389856543572
 30
0.0
 10
510.7508136495635
 20
466.389856543572
 30
0.0
 10
510.7068464921503
 20
466.5106553158566
 30
0.0
 10
510.7068464921503
 20
466.5106553158566
 30
0.0
 10
510.7068464921503
 20
466.5106553158566
 30
0.0
 10
536.5544572328526
 20
466.3257741792513
 30
0.0
 10
536.5544572328526
 20
466.3257741792513
 30
0.0
 10
536.5544572328526
 20
466.3257741792513
 30
0.0
 10
547.2439380935011
 20
466.2493503073456
 30
0.0
 10
547.2439380935011
 20
466.2493503073456
 30
0.0
  0
HATCH
  5
9B
330
70
100
AcDbEntity
  8
Layer 2
 62
    18
420
        0
440
 33554687
100
AcDbHatch
 10
0.0
 20
0.0
 30
0.0
210
0.0
220
0.0
230
1.0
  2
SOLID
 70
     1
 71
     1
 91
        1
 92
        1
 93
        1
 72
     4
 94
        3
 73
     0
 74
     0
 95
       23
 96
       19
 40
0.0
 40
0.0
 40
0.0
 40
0.0
 40
1.0
 40
1.0
 40
1.0
 40
2.0
 40
2.0
 40
2.0
 40
3.0
 40
3.0
 40
3.0
 40
4.0
 40
4.0
 40
4.0
 40
5.0
 40
5.0
 40
5.0
 40
6.0
 40
6.0
 40
6.0
 40
6.0
 10
547.2439380935011
 20
466.2493503073456
 10
547.2439380935011
 20
466.2493503073456
 10
547.2879589348703
 20
466.1284040396094
 10
547.2879589348703
 20
466.1284040396094
 10
547.2879589348703
 20
466.1284040396094
 10
536.5984780742201
 20
466.2048279115151
 10
536.5984780742201
 20
466.2048279115151
 10
536.5984780742201
 20
466.2048279115151
 10
510.7508136495635
 20
466.389856543572
 10
510.7508136495635
 20
466.389856543572
 10
510.7508136495635
 20
466.389856543572
 10
510.7068464921503
 20
466.5106553158566
 10
510.7068464921503
 20
466.5106553158566
 10
510.7068464921503
 20
466.5106553158566
 10
536.5544572328526
 20
466.3257741792513
 10
536.5544572328526
 20
466.3257741792513
 10
536.5544572328526
 20
466.3257741792513
 10
547.2439380935011
 20
466.2493503073456
 10
547.2439380935011
 20
466.2493503073456
 97
        0
 97
        1
330
9A
 75
     0
 76
     1
 98
        1
 10
0.0
 20
0.0
450
        0
451
        0
460
0.0
461
0.0
452
        0
462
0.0
453
        0
470

  0
SPLINE
  5
9C
330
70
100
AcDbEntity
  8
Layer 2
 62
    18
420
        0
370
     5
100
AcDbSpline
210
0.0
220
0.0
230
1.0
 70
    11
 71
     3
 72
    23
 73
    19
 74
     0
 42
0.0000000001
 43
0.0000000001
 40
0.0
 40
0.0
 40
0.0
 40
0.0
 40
1.0
 40
1.0
 40
1.0
 40
2.0
 40
2.0
 40
2.0
 40
3.0
 40
3.0
 40
3.0
 40
4.0
 40
4.0
 40
4.0
 40
5.0
 40
5.0
 40
5.0
 40
6.0
 40
6.0
 40
6.0
 40
6.0
 10
545.8811172654659
 20
469.993669761865
 30
0.0
 10
545.8811172654659
 20
469.993669761865
 30
0.0
 10
545.9250844228827
 20
469.8728709895804
 30
0.0
 10
545.9250844228827
 20
469.8728709895804
 30
0.0
 10
545.9250844228827
 20
469.8728709895804
 30
0.0
 10
535.2356035622324
 20
469.9492948614861
 30
0.0
 10
535.2356035622324
 20
469.9492948614861
 30
0.0
 10
535.2356035622324
 20
469.9492948614861
 30
0.0
 10
507.2896002640027
 20
470.1491398491016
 30
0.0
 10
507.2896002640027
 20
470.1491398491016
 30
0.0
 10
507.2896002640027
 20
470.1491398491016
 30
0.0
 10
507.2455794226316
 20
470.2700861168359
 30
0.0
 10
507.2455794226316
 20
470.2700861168359
 30
0.0
 10
507.2455794226316
 20
470.2700861168359
 30
0.0
 10
535.1916364048174
 20
470.0700936337743
 30
0.0
 10
535.1916364048174
 20
470.0700936337743
 30
0.0
 10
535.1916364048174
 20
470.0700936337743
 30
0.0
 10
545.8811172654659
 20
469.993669761865
 30
0.0
 10
545.8811172654659
 20
469.993669761865
 30
0.0
  0
HATCH
  5
9D
330
70
100
AcDbEntity
  8
Layer 2
 62
    18
420
        0
440
 33554687
100
AcDbHatch
 10
0.0
 20
0.0
 30
0.0
210
0.0
220
0.0
230
1.0
  2
SOLID
 70
     1
 71
     1
 91
        1
 92
        1
 93
        1
 72
     4
 94
        3
 73
     0
 74
     0
 95
       23
 96
       19
 40
0.0
 40
0.0
 40
0.0
 40
0.0
 40
1.0
 40
1.0
 40
1.0
 40
2.0
 40
2.0
 40
2.0
 40
3.0
 40
3.0
 40
3.0
 40
4.0
 40
4.0
 40
4.0
 40
5.0
 40
5.0
 40
5.0
 40
6.0
 40
6.0
 40
6.0
 40
6.0
 10
545.8811172654659
 20
469.993669761865
 10
545.8811172654659
 20
469.993669761865
 10
545.9250844228827
 20
469.8728709895804
 10
545.9250844228827
 20
469.8728709895804
 10
545.9250844228827
 20
469.8728709895804
 10
535.2356035622324
 20
469.9492948614861
 10
535.2356035622324
 20
469.9492948614861
 10
535.2356035622324
 20
469.9492948614861
 10
507.2896002640027
 20
470.1491398491016
 10
507.2896002640027
 20
470.1491398491016
 10
507.2896002640027
 20
470.1491398491016
 10
507.2455794226316
 20
470.2700861168359
 10
507.2455794226316
 20
470.2700861168359
 10
507.2455794226316
 20
470.2700861168359
 10
535.1916364048174
 20
470.0700936337743
 10
535.1916364048174
 20
470.0700936337743
 10
535.1916364048174
 20
470.0700936337743
 10
545.8811172654659
 20
469.993669761865
 10
545.8811172654659
 20
469.993669761865
 97
        0
 97
        1
330
9C
 75
     0
 76
     1
 98
        1
 10
0.0
 20
0.0
450
        0
451
        0
460
0.0
461
0.0
452
        0
462
0.0
453
        0
470

  0
SPLINE
  5
9E
330
70
100
AcDbEntity
  8
Layer 2
 62
    18
420
        0
370
     5
100
AcDbSpline
210
0.0
220
0.0
230
1.0
 70
    11
 71
     3
 72
    23
 73
    19
 74
     0
 42
0.0000000001
 43
0.0000000001
 40
0.0
 40
0.0
 40
0.0
 40
0.0
 40
1.0
 40
1.0
 40
1.0
 40
2.0
 40
2.0
 40
2.0
 40
3.0
 40
3.0
 40
3.0
 40
4.0
 40
4.0
 40
4.0
 40
5.0
 40
5.0
 40
5.0
 40
6.0
 40
6.0
 40
6.0
 40
6.0
 10
544.5182427534764
 20
473.7381367118359
 30
0.0
 10
544.5182427534764
 20
473.7381367118359
 30
0.0
 10
544.5622099108931
 20
473.6173379395495
 30
0.0
 10
544.5622099108931
 20
473.6173379395495
 30
0.0
 10
544.5622099108931
 20
473.6173379395495
 30
0.0
 10
533.8727290502429
 20
473.6937618114571
 30
0.0
 10
533.8727290502429
 20
473.6937618114571
 30
0.0
 10
533.8727290502429
 20
473.6937618114571
 30
0.0
 10
505.954833392434
 20
473.8934809853508
 30
0.0
 10
505.954833392434
 20
473.8934809853508
 30
0.0
 10
505.954833392434
 20
473.8934809853508
 30
0.0
 10
505.9108662350172
 20
474.0142797576372
 30
0.0
 10
505.9108662350172
 20
474.0142797576372
 30
0.0
 10
505.9108662350172
 20
474.0142797576372
 30
0.0
 10
533.8288155767786
 20
473.8144130882901
 30
0.0
 10
533.8288155767786
 20
473.8144130882901
 30
0.0
 10
533.8288155767786
 20
473.8144130882901
 30
0.0
 10
544.5182427534764
 20
473.7381367118359
 30
0.0
 10
544.5182427534764
 20
473.7381367118359
 30
0.0
  0
HATCH
  5
9F
330
70
100
AcDbEntity
  8
Layer 2
 62
    18
420
        0
440
 33554687
100
AcDbHatch
 10
0.0
 20
0.0
 30
0.0
210
0.0
220
0.0
230
1.0
  2
SOLID
 70
     1
 71
     1
 91
        1
 92
        1
 93
        1
 72
     4
 94
        3
 73
     0
 74
     0
 95
       23
 96
       19
 40
0.0
 40
0.0
 40
0.0
 40
0.0
 40
1.0
 40
1.0
 40
1.0
 40
2.0
 40
2.0
 40
2.0
 40
3.0
 40
3.0
 40
3.0
 40
4.0
 40
4.0
 40
4.0
 40
5.0
 40
5.0
 40
5.0
 40
6.0
 40
6.0
 40
6.0
 40
6.0
 10
544.5182427534764
 20
473.7381367118359
 10
544.5182427534764
 20
473.7381367118359
 10
544.5622099108931
 20
473.6173379395495
 10
544.5622099108931
 20
473.6173379395495
 10
544.5622099108931
 20
473.6173379395495
 10
533.8727290502429
 20
473.6937618114571
 10
533.8727290502429
 20
473.6937618114571
 10
533.8727290502429
 20
473.6937618114571
 10
505.954833392434
 20
473.8934809853508
 10
505.954833392434
 20
473.8934809853508
 10
505.954833392434
 20
473.8934809853508
 10
505.9108662350172
 20
474.0142797576372
 10
505.9108662350172
 20
474.0142797576372
 10
505.9108662350172
 20
474.0142797576372
 10
533.8288155767786
 20
473.8144130882901
 10
533.8288155767786
 20
473.8144130882901
 10
533.8288155767786
 20
473.8144130882901
 10
544.5182427534764
 20
473.7381367118359
 10
544.5182427534764
 20
473.7381367118359
 97
        0
 97
        1
330
9E
 75
     0
 76
     1
 98
        1
 10
0.0
 20
0.0
450
        0
451
        0
460
0.0
461
0.0
452
        0
462
0.0
453
        0
470

  0
SPLINE
  5
A0
330
70
100
AcDbEntity
  8
Layer 2
 62
    18
420
        0
370
     5
100
AcDbSpline
210
0.0
220
0.0
230
1.0
 70
    11
 71
     3
 72
    23
 73
    19
 74
     0
 42
0.0000000001
 43
0.0000000001
 40
0.0
 40
0.0
 40
0.0
 40
0.0
 40
1.0
 40
1.0
 40
1.0
 40
2.0
 40
2.0
 40
2.0
 40
3.0
 40
3.0
 40
3.0
 40
4.0
 40
4.0
 40
4.0
 40
5.0
 40
5.0
 40
5.0
 40
6.0
 40
6.0
 40
6.0
 40
6.0
 10
543.1553682414905
 20
477.4826036618033
 30
0.0
 10
543.1553682414905
 20
477.4826036618033
 30
0.0
 10
543.199389082858
 20
477.3616573940707
 30
0.0
 10
543.199389082858
 20
477.3616573940707
 30
0.0
 10
543.199389082858
 20
477.3616573940707
 30
0.0
 10
532.5098545382552
 20
477.4382287614243
 30
0.0
 10
532.5098545382552
 20
477.4382287614243
 30
0.0
 10
532.5098545382552
 20
477.4382287614243
 30
0.0
 10
506.2740000329158
 20
477.6257847298293
 30
0.0
 10
506.2740000329158
 20
477.6257847298293
 30
0.0
 10
506.2740000329158
 20
477.6257847298293
 30
0.0
 10
506.2299791915484
 20
477.7467309975618
 30
0.0
 10
506.2299791915484
 20
477.7467309975618
 30
0.0
 10
506.2299791915484
 20
477.7467309975618
 30
0.0
 10
532.4658873808385
 20
477.5590275337108
 30
0.0
 10
532.4658873808385
 20
477.5590275337108
 30
0.0
 10
532.4658873808385
 20
477.5590275337108
 30
0.0
 10
543.1553682414905
 20
477.4826036618033
 30
0.0
 10
543.1553682414905
 20
477.4826036618033
 30
0.0
  0
HATCH
  5
A1
330
70
100
AcDbEntity
  8
Layer 2
 62
    18
420
        0
440
 33554687
100
AcDbHatch
 10
0.0
 20
0.0
 30
0.0
210
0.0
220
0.0
230
1.0
  2
SOLID
 70
     1
 71
     1
 91
        1
 92
        1
 93
        1
 72
     4
 94
        3
 73
     0
 74
     0
 95
       23
 96
       19
 40
0.0
 40
0.0
 40
0.0
 40
0.0
 40
1.0
 40
1.0
 40
1.0
 40
2.0
 40
2.0
 40
2.0
 40
3.0
 40
3.0
 40
3.0
 40
4.0
 40
4.0
 40
4.0
 40
5.0
 40
5.0
 40
5.0
 40
6.0
 40
6.0
 40
6.0
 40
6.0
 10
543.1553682414905
 20
477.4826036618033
 10
543.1553682414905
 20
477.4826036618033
 10
543.199389082858
 20
477.3616573940707
 10
543.199389082858
 20
477.3616573940707
 10
543.199389082858
 20
477.3616573940707
 10
532.5098545382552
 20
477.4382287614243
 10
532.5098545382552
 20
477.4382287614243
 10
532.5098545382552
 20
477.4382287614243
 10
506.2740000329158
 20
477.6257847298293
 10
506.2740000329158
 20
477.6257847298293
 10
506.2740000329158
 20
477.6257847298293
 10
506.2299791915484
 20
477.7467309975618
 10
506.2299791915484
 20
477.7467309975618
 10
506.2299791915484
 20
477.7467309975618
 10
532.4658873808385
 20
477.5590275337108
 10
532.4658873808385
 20
477.5590275337108
 10
532.4658873808385
 20
477.5590275337108
 10
543.1553682414905
 20
477.4826036618033
 10
543.1553682414905
 20
477.4826036618033
 97
        0
 97
        1
330
A0
 75
     0
 76
     1
 98
        1
 10
0.0
 20
0.0
450
        0
451
        0
460
0.0
461
0.0
452
        0
462
0.0
453
        0
470

  0
SPLINE
  5
A2
330
70
100
AcDbEntity
  8
Layer 2
 62
    18
420
        0
370
     5
100
AcDbSpline
210
0.0
220
0.0
230
1.0
 70
    11
 71
     3
 72
    23
 73
    19
 74
     0
 42
0.0000000001
 43
0.0000000001
 40
0.0
 40
0.0
 40
0.0
 40
0.0
 40
1.0
 40
1.0
 40
1.0
 40
2.0
 40
2.0
 40
2.0
 40
3.0
 40
3.0
 40
3.0
 40
4.0
 40
4.0
 40
4.0
 40
5.0
 40
5.0
 40
5.0
 40
6.0
 40
6.0
 40
6.0
 40
6.0
 10
541.7925474134554
 20
481.2269231163263
 30
0.0
 10
541.7925474134554
 20
481.2269231163263
 30
0.0
 10
541.8365145708685
 20
481.1061243440398
 30
0.0
 10
541.8365145708685
 20
481.1061243440398
 30
0.0
 10
541.8365145708685
 20
481.1061243440398
 30
0.0
 10
531.1470873941743
 20
481.1824007204977
 30
0.0
 10
531.1470873941743
 20
481.1824007204977
 30
0.0
 10
531.1470873941743
 20
481.1824007204977
 30
0.0
 10
505.8055687255291
 20
481.3639042160939
 30
0.0
 10
505.8055687255291
 20
481.3639042160939
 30
0.0
 10
505.8055687255291
 20
481.3639042160939
 30
0.0
 10
505.761547884158
 20
481.4848504838264
 30
0.0
 10
505.761547884158
 20
481.4848504838264
 30
0.0
 10
505.761547884158
 20
481.4848504838264
 30
0.0
 10
531.1030665528033
 20
481.303346988232
 30
0.0
 10
531.1030665528033
 20
481.303346988232
 30
0.0
 10
531.1030665528033
 20
481.303346988232
 30
0.0
 10
541.7925474134554
 20
481.2269231163263
 30
0.0
 10
541.7925474134554
 20
481.2269231163263
 30
0.0
  0
HATCH
  5
A3
330
70
100
AcDbEntity
  8
Layer 2
 62
    18
420
        0
440
 33554687
100
AcDbHatch
 10
0.0
 20
0.0
 30
0.0
210
0.0
220
0.0
230
1.0
  2
SOLID
 70
     1
 71
     1
 91
        1
 92
        1
 93
        1
 72
     4
 94
        3
 73
     0
 74
     0
 95
       23
 96
       19
 40
0.0
 40
0.0
 40
0.0
 40
0.0
 40
1.0
 40
1.0
 40
1.0
 40
2.0
 40
2.0
 40
2.0
 40
3.0
 40
3.0
 40
3.0
 40
4.0
 40
4.0
 40
4.0
 40
5.0
 40
5.0
 40
5.0
 40
6.0
 40
6.0
 40
6.0
 40
6.0
 10
541.7925474134554
 20
481.2269231163263
 10
541.7925474134554
 20
481.2269231163263
 10
541.8365145708685
 20
481.1061243440398
 10
541.8365145708685
 20
481.1061243440398
 10
541.8365145708685
 20
481.1061243440398
 10
531.1470873941743
 20
481.1824007204977
 10
531.1470873941743
 20
481.1824007204977
 10
531.1470873941743
 20
481.1824007204977
 10
505.8055687255291
 20
481.3639042160939
 10
505.8055687255291
 20
481.3639042160939
 10
505.8055687255291
 20
481.3639042160939
 10
505.761547884158
 20
481.4848504838264
 10
505.761547884158
 20
481.4848504838264
 10
505.761547884158
 20
481.4848504838264
 10
531.1030665528033
 20
481.303346988232
 10
531.1030665528033
 20
481.303346988232
 10
531.1030665528033
 20
481.303346988232
 10
541.7925474134554
 20
481.2269231163263
 10
541.7925474134554
 20
481.2269231163263
 97
        0
 97
        1
330
A2
 75
     0
 76
     1
 98
        1
 10
0.0
 20
0.0
450
        0
451
        0
460
0.0
461
0.0
452
        0
462
0.0
453
        0
470

  0
SPLINE
  5
A4
330
70
100
AcDbEntity
  8
Layer 2
 62
    18
420
        0
370
     5
100
AcDbSpline
210
0.0
220
0.0
230
1.0
 70
    11
 71
     3
 72
    23
 73
    19
 74
     0
 42
0.0000000001
 43
0.0000000001
 40
0.0
 40
0.0
 40
0.0
 40
0.0
 40
1.0
 40
1.0
 40
1.0
 40
2.0
 40
2.0
 40
2.0
 40
3.0
 40
3.0
 40
3.0
 40
4.0
 40
4.0
 40
4.0
 40
5.0
 40
5.0
 40
5.0
 40
6.0
 40
6.0
 40
6.0
 40
6.0
 10
540.4297265854202
 20
484.9712425708458
 30
0.0
 10
540.4297265854202
 20
484.9712425708458
 30
0.0
 10
540.4736400588826
 20
484.850591294009
 30
0.0
 10
540.4736400588826
 20
484.850591294009
 30
0.0
 10
540.4736400588826
 20
484.850591294009
 30
0.0
 10
529.7841591982323
 20
484.9270151659148
 30
0.0
 10
529.7841591982323
 20
484.9270151659148
 30
0.0
 10
529.7841591982323
 20
484.9270151659148
 30
0.0
 10
505.8435380374994
 20
485.0982572589527
 30
0.0
 10
505.8435380374994
 20
485.0982572589527
 30
0.0
 10
505.8435380374994
 20
485.0982572589527
 30
0.0
 10
505.7995171961283
 20
485.2192035266889
 30
0.0
 10
505.7995171961283
 20
485.2192035266889
 30
0.0
 10
505.7995171961283
 20
485.2192035266889
 30
0.0
 10
529.7401920408155
 20
485.0478139381993
 30
0.0
 10
529.7401920408155
 20
485.0478139381993
 30
0.0
 10
529.7401920408155
 20
485.0478139381993
 30
0.0
 10
540.4297265854202
 20
484.9712425708458
 30
0.0
 10
540.4297265854202
 20
484.9712425708458
 30
0.0
  0
HATCH
  5
A5
330
70
100
AcDbEntity
  8
Layer 2
 62
    18
420
        0
440
 33554687
100
AcDbHatch
 10
0.0
 20
0.0
 30
0.0
210
0.0
220
0.0
230
1.0
  2
SOLID
 70
     1
 71
     1
 91
        1
 92
        1
 93
        1
 72
     4
 94
        3
 73
     0
 74
     0
 95
       23
 96
       19
 40
0.0
 40
0.0
 40
0.0
 40
0.0
 40
1.0
 40
1.0
 40
1.0
 40
2.0
 40
2.0
 40
2.0
 40
3.0
 40
3.0
 40
3.0
 40
4.0
 40
4.0
 40
4.0
 40
5.0
 40
5.0
 40
5.0
 40
6.0
 40
6.0
 40
6.0
 40
6.0
 10
540.4297265854202
 20
484.9712425708458
 10
540.4297265854202
 20
484.9712425708458
 10
540.4736400588826
 20
484.850591294009
 10
540.4736400588826
 20
484.850591294009
 10
540.4736400588826
 20
484.850591294009
 10
529.7841591982323
 20
484.9270151659148
 10
529.7841591982323
 20
484.9270151659148
 10
529.7841591982323
 20
484.9270151659148
 10
505.8435380374994
 20
485.0982572589527
 10
505.8435380374994
 20
485.0982572589527
 10
505.8435380374994
 20
485.0982572589527
 10
505.7995171961283
 20
485.2192035266889
 10
505.7995171961283
 20
485.2192035266889
 10
505.7995171961283
 20
485.2192035266889
 10
529.7401920408155
 20
485.0478139381993
 10
529.7401920408155
 20
485.0478139381993
 10
529.7401920408155
 20
485.0478139381993
 10
540.4297265854202
 20
484.9712425708458
 10
540.4297265854202
 20
484.9712425708458
 97
        0
 97
        1
330
A4
 75
     0
 76
     1
 98
        1
 10
0.0
 20
0.0
450
        0
451
        0
460
0.0
461
0.0
452
        0
462
0.0
453
        0
470

  0
SPLINE
  5
A6
330
70
100
AcDbEntity
  8
Layer 2
 62
    18
420
        0
370
     5
100
AcDbSpline
210
0.0
220
0.0
230
1.0
 70
    11
 71
     3
 72
    23
 73
    19
 74
     0
 42
0.0000000001
 43
0.0000000001
 40
0.0
 40
0.0
 40
0.0
 40
0.0
 40
1.0
 40
1.0
 40
1.0
 40
2.0
 40
2.0
 40
2.0
 40
3.0
 40
3.0
 40
3.0
 40
4.0
 40
4.0
 40
4.0
 40
5.0
 40
5.0
 40
5.0
 40
6.0
 40
6.0
 40
6.0
 40
6.0
 10
525.3623588960236
 20
526.3684950982824
 30
0.0
 10
525.3623588960236
 20
526.3684950982824
 30
0.0
 10
525.4063260534385
 20
526.2476963259941
 30
0.0
 10
525.4063260534385
 20
526.2476963259941
 30
0.0
 10
525.4063260534385
 20
526.2476963259941
 30
0.0
 10
514.7168988767425
 20
526.3239727024538
 30
0.0
 10
514.7168988767425
 20
526.3239727024538
 30
0.0
 10
514.7168988767425
 20
526.3239727024538
 30
0.0
 10
489.7386744697342
 20
526.5027403695112
 30
0.0
 10
489.7386744697342
 20
526.5027403695112
 30
0.0
 10
489.7386744697342
 20
526.5027403695112
 30
0.0
 10
489.6947073123137
 20
526.6235391417958
 30
0.0
 10
489.6947073123137
 20
526.6235391417958
 30
0.0
 10
489.6947073123137
 20
526.6235391417958
 30
0.0
 10
514.672878035375
 20
526.4449189701863
 30
0.0
 10
514.672878035375
 20
526.4449189701863
 30
0.0
 10
514.672878035375
 20
526.4449189701863
 30
0.0
 10
525.3623588960236
 20
526.3684950982824
 30
0.0
 10
525.3623588960236
 20
526.3684950982824
 30
0.0
  0
HATCH
  5
A7
330
70
100
AcDbEntity
  8
Layer 2
 62
    18
420
        0
440
 33554687
100
AcDbHatch
 10
0.0
 20
0.0
 30
0.0
210
0.0
220
0.0
230
1.0
  2
SOLID
 70
     1
 71
     1
 91
        1
 92
        1
 93
        1
 72
     4
 94
        3
 73
     0
 74
     0
 95
       23
 96
       19
 40
0.0
 40
0.0
 40
0.0
 40
0.0
 40
1.0
 40
1.0
 40
1.0
 40
2.0
 40
2.0
 40
2.0
 40
3.0
 40
3.0
 40
3.0
 40
4.0
 40
4.0
 40
4.0
 40
5.0
 40
5.0
 40
5.0
 40
6.0
 40
6.0
 40
6.0
 40
6.0
 10
525.3623588960236
 20
526.3684950982824
 10
525.3623588960236
 20
526.3684950982824
 10
525.4063260534385
 20
526.2476963259941
 10
525.4063260534385
 20
526.2476963259941
 10
525.4063260534385
 20
526.2476963259941
 10
514.7168988767425
 20
526.3239727024538
 10
514.7168988767425
 20
526.3239727024538
 10
514.7168988767425
 20
526.3239727024538
 10
489.7386744697342
 20
526.5027403695112
 10
489.7386744697342
 20
526.5027403695112
 10
489.7386744697342
 20
526.5027403695112
 10
489.6947073123137
 20
526.6235391417958
 10
489.6947073123137
 20
526.6235391417958
 10
489.6947073123137
 20
526.6235391417958
 10
514.672878035375
 20
526.4449189701863
 10
514.672878035375
 20
526.4449189701863
 10
514.672878035375
 20
526.4449189701863
 10
525.3623588960236
 20
526.3684950982824
 10
525.3623588960236
 20
526.3684950982824
 97
        0
 97
        1
330
A6
 75
     0
 76
     1
 98
        1
 10
0.0
 20
0.0
450
        0
451
        0
460
0.0
461
0.0
452
        0
462
0.0
453
        0
470

  0
SPLINE
  5
A8
330
70
100
AcDbEntity
  8
Layer 2
 62
    18
420
        0
370
     5
100
AcDbSpline
210
0.0
220
0.0
230
1.0
 70
    11
 71
     3
 72
    23
 73
    19
 74
     0
 42
0.0000000001
 43
0.0000000001
 40
0.0
 40
0.0
 40
0.0
 40
0.0
 40
1.0
 40
1.0
 40
1.0
 40
2.0
 40
2.0
 40
2.0
 40
3.0
 40
3.0
 40
3.0
 40
4.0
 40
4.0
 40
4.0
 40
5.0
 40
5.0
 40
5.0
 40
6.0
 40
6.0
 40
6.0
 40
6.0
 10
523.9995380679884
 20
530.1128145528018
 30
0.0
 10
523.9995380679884
 20
530.1128145528018
 30
0.0
 10
524.0434515414508
 20
529.9921632759651
 30
0.0
 10
524.0434515414508
 20
529.9921632759651
 30
0.0
 10
524.0434515414508
 20
529.9921632759651
 30
0.0
 10
513.354024364753
 20
530.0684396524211
 30
0.0
 10
513.354024364753
 20
530.0684396524211
 30
0.0
 10
513.354024364753
 20
530.0684396524211
 30
0.0
 10
486.9750098177373
 20
530.2571737311409
 30
0.0
 10
486.9750098177373
 20
530.2571737311409
 30
0.0
 10
486.9750098177373
 20
530.2571737311409
 30
0.0
 10
486.9310426603205
 20
530.3779725034273
 30
0.0
 10
486.9310426603205
 20
530.3779725034273
 30
0.0
 10
486.9310426603205
 20
530.3779725034273
 30
0.0
 10
513.3100035233874
 20
530.1893859201572
 30
0.0
 10
513.3100035233874
 20
530.1893859201572
 30
0.0
 10
513.3100035233874
 20
530.1893859201572
 30
0.0
 10
523.9995380679884
 20
530.1128145528018
 30
0.0
 10
523.9995380679884
 20
530.1128145528018
 30
0.0
  0
HATCH
  5
A9
330
70
100
AcDbEntity
  8
Layer 2
 62
    18
420
        0
440
 33554687
100
AcDbHatch
 10
0.0
 20
0.0
 30
0.0
210
0.0
220
0.0
230
1.0
  2
SOLID
 70
     1
 71
     1
 91
        1
 92
        1
 93
        1
 72
     4
 94
        3
 73
     0
 74
     0
 95
       23
 96
       19
 40
0.0
 40
0.0
 40
0.0
 40
0.0
 40
1.0
 40
1.0
 40
1.0
 40
2.0
 40
2.0
 40
2.0
 40
3.0
 40
3.0
 40
3.0
 40
4.0
 40
4.0
 40
4.0
 40
5.0
 40
5.0
 40
5.0
 40
6.0
 40
6.0
 40
6.0
 40
6.0
 10
523.9995380679884
 20
530.1128145528018
 10
523.9995380679884
 20
530.1128145528018
 10
524.0434515414508
 20
529.9921632759651
 10
524.0434515414508
 20
529.9921632759651
 10
524.0434515414508
 20
529.9921632759651
 10
513.354024364753
 20
530.0684396524211
 10
513.354024364753
 20
530.0684396524211
 10
513.354024364753
 20
530.0684396524211
 10
486.9750098177373
 20
530.2571737311409
 10
486.9750098177373
 20
530.2571737311409
 10
486.9750098177373
 20
530.2571737311409
 10
486.9310426603205
 20
530.3779725034273
 10
486.9310426603205
 20
530.3779725034273
 10
486.9310426603205
 20
530.3779725034273
 10
513.3100035233874
 20
530.1893859201572
 10
513.3100035233874
 20
530.1893859201572
 10
513.3100035233874
 20
530.1893859201572
 10
523.9995380679884
 20
530.1128145528018
 10
523.9995380679884
 20
530.1128145528018
 97
        0
 97
        1
330
A8
 75
     0
 76
     1
 98
        1
 10
0.0
 20
0.0
450
        0
451
        0
460
0.0
461
0.0
452
        0
462
0.0
453
        0
470

  0
SPLINE
  5
AA
330
70
100
AcDbEntity
  8
Layer 2
 62
    18
420
        0
370
     5
100
AcDbSpline
210
0.0
220
0.0
230
1.0
 70
    11
 71
     3
 72
    23
 73
    19
 74
     0
 42
0.0000000001
 43
0.0000000001
 40
0.0
 40
0.0
 40
0.0
 40
0.0
 40
1.0
 40
1.0
 40
1.0
 40
2.0
 40
2.0
 40
2.0
 40
3.0
 40
3.0
 40
3.0
 40
4.0
 40
4.0
 40
4.0
 40
5.0
 40
5.0
 40
5.0
 40
6.0
 40
6.0
 40
6.0
 40
6.0
 10
522.6366635559989
 20
533.8572815027728
 30
0.0
 10
522.6366635559989
 20
533.8572815027728
 30
0.0
 10
522.6806307134157
 20
533.7364827304863
 30
0.0
 10
522.6806307134157
 20
533.7364827304863
 30
0.0
 10
522.6806307134157
 20
533.7364827304863
 30
0.0
 10
511.9911498527653
 20
533.812906602392
 30
0.0
 10
511.9911498527653
 20
533.812906602392
 30
0.0
 10
511.9911498527653
 20
533.812906602392
 30
0.0
 10
484.7176921011523
 20
534.0079881448128
 30
0.0
 10
484.7176921011523
 20
534.0079881448128
 30
0.0
 10
484.7176921011523
 20
534.0079881448128
 30
0.0
 10
484.6737249437356
 20
534.1287869170992
 30
0.0
 10
484.6737249437356
 20
534.1287869170992
 30
0.0
 10
484.6737249437356
 20
534.1287869170992
 30
0.0
 10
511.9471290113978
 20
533.9338528701264
 30
0.0
 10
511.9471290113978
 20
533.9338528701264
 30
0.0
 10
511.9471290113978
 20
533.9338528701264
 30
0.0
 10
522.6366635559989
 20
533.8572815027728
 30
0.0
 10
522.6366635559989
 20
533.8572815027728
 30
0.0
  0
HATCH
  5
AB
330
70
100
AcDbEntity
  8
Layer 2
 62
    18
420
        0
440
 33554687
100
AcDbHatch
 10
0.0
 20
0.0
 30
0.0
210
0.0
220
0.0
230
1.0
  2
SOLID
 70
     1
 71
     1
 91
        1
 92
        1
 93
        1
 72
     4
 94
        3
 73
     0
 74
     0
 95
       23
 96
       19
 40
0.0
 40
0.0
 40
0.0
 40
0.0
 40
1.0
 40
1.0
 40
1.0
 40
2.0
 40
2.0
 40
2.0
 40
3.0
 40
3.0
 40
3.0
 40
4.0
 40
4.0
 40
4.0
 40
5.0
 40
5.0
 40
5.0
 40
6.0
 40
6.0
 40
6.0
 40
6.0
 10
522.6366635559989
 20
533.8572815027728
 10
522.6366635559989
 20
533.8572815027728
 10
522.6806307134157
 20
533.7364827304863
 10
522.6806307134157
 20
533.7364827304863
 10
522.6806307134157
 20
533.7364827304863
 10
511.9911498527653
 20
533.812906602392
 10
511.9911498527653
 20
533.812906602392
 10
511.9911498527653
 20
533.812906602392
 10
484.7176921011523
 20
534.0079881448128
 10
484.7176921011523
 20
534.0079881448128
 10
484.7176921011523
 20
534.0079881448128
 10
484.6737249437356
 20
534.1287869170992
 10
484.6737249437356
 20
534.1287869170992
 10
484.6737249437356
 20
534.1287869170992
 10
511.9471290113978
 20
533.9338528701264
 10
511.9471290113978
 20
533.9338528701264
 10
511.9471290113978
 20
533.9338528701264
 10
522.6366635559989
 20
533.8572815027728
 10
522.6366635559989
 20
533.8572815027728
 97
        0
 97
        1
330
AA
 75
     0
 76
     1
 98
        1
 10
0.0
 20
0.0
450
        0
451
        0
460
0.0
461
0.0
452
        0
462
0.0
453
        0
470

  0
SPLINE
  5
AC
330
70
100
AcDbEntity
  8
Layer 2
 62
    18
420
        0
370
     5
100
AcDbSpline
210
0.0
220
0.0
230
1.0
 70
    11
 71
     3
 72
    23
 73
    19
 74
     0
 42
0.0000000001
 43
0.0000000001
 40
0.0
 40
0.0
 40
0.0
 40
0.0
 40
1.0
 40
1.0
 40
1.0
 40
2.0
 40
2.0
 40
2.0
 40
3.0
 40
3.0
 40
3.0
 40
4.0
 40
4.0
 40
4.0
 40
5.0
 40
5.0
 40
5.0
 40
6.0
 40
6.0
 40
6.0
 40
6.0
 10
521.2737890440112
 20
537.6017484527401
 30
0.0
 10
521.2737890440112
 20
537.6017484527401
 30
0.0
 10
521.3178098853822
 20
537.4808021850058
 30
0.0
 10
521.3178098853822
 20
537.4808021850058
 30
0.0
 10
521.3178098853822
 20
537.4808021850058
 30
0.0
 10
510.6282753407758
 20
537.5573735523594
 30
0.0
 10
510.6282753407758
 20
537.5573735523594
 30
0.0
 10
510.6282753407758
 20
537.5573735523594
 30
0.0
 10
481.6728301206439
 20
537.7644708048274
 30
0.0
 10
481.6728301206439
 20
537.7644708048274
 30
0.0
 10
481.6728301206439
 20
537.7644708048274
 30
0.0
 10
481.6288629632309
 20
537.8852695771128
 30
0.0
 10
481.6288629632309
 20
537.8852695771128
 30
0.0
 10
481.6288629632309
 20
537.8852695771128
 30
0.0
 10
510.5843081833627
 20
537.6781723246458
 30
0.0
 10
510.5843081833627
 20
537.6781723246458
 30
0.0
 10
510.5843081833627
 20
537.6781723246458
 30
0.0
 10
521.2737890440112
 20
537.6017484527401
 30
0.0
 10
521.2737890440112
 20
537.6017484527401
 30
0.0
  0
HATCH
  5
AD
330
70
100
AcDbEntity
  8
Layer 2
 62
    18
420
        0
440
 33554687
100
AcDbHatch
 10
0.0
 20
0.0
 30
0.0
210
0.0
220
0.0
230
1.0
  2
SOLID
 70
     1
 71
     1
 91
        1
 92
        1
 93
        1
 72
     4
 94
        3
 73
     0
 74
     0
 95
       23
 96
       19
 40
0.0
 40
0.0
 40
0.0
 40
0.0
 40
1.0
 40
1.0
 40
1.0
 40
2.0
 40
2.0
 40
2.0
 40
3.0
 40
3.0
 40
3.0
 40
4.0
 40
4.0
 40
4.0
 40
5.0
 40
5.0
 40
5.0
 40
6.0
 40
6.0
 40
6.0
 40
6.0
 10
521.2737890440112
 20
537.6017484527401
 10
521.2737890440112
 20
537.6017484527401
 10
521.3178098853822
 20
537.4808021850058
 10
521.3178098853822
 20
537.4808021850058
 10
521.3178098853822
 20
537.4808021850058
 10
510.6282753407758
 20
537.5573735523594
 10
510.6282753407758
 20
537.5573735523594
 10
510.6282753407758
 20
537.5573735523594
 10
481.6728301206439
 20
537.7644708048274
 10
481.6728301206439
 20
537.7644708048274
 10
481.6728301206439
 20
537.7644708048274
 10
481.6288629632309
 20
537.8852695771128
 10
481.6288629632309
 20
537.8852695771128
 10
481.6288629632309
 20
537.8852695771128
 10
510.5843081833627
 20
537.6781723246458
 10
510.5843081833627
 20
537.6781723246458
 10
510.5843081833627
 20
537.6781723246458
 10
521.2737890440112
 20
537.6017484527401
 10
521.2737890440112
 20
537.6017484527401
 97
        0
 97
        1
330
AC
 75
     0
 76
     1
 98
        1
 10
0.0
 20
0.0
450
        0
451
        0
460
0.0
461
0.0
452
        0
462
0.0
453
        0
470

  0
SPLINE
  5
AE
330
70
100
AcDbEntity
  8
Layer 2
 62
    18
420
        0
370
     5
100
AcDbSpline
210
0.0
220
0.0
230
1.0
 70
    11
 71
     3
 72
    23
 73
    19
 74
     0
 42
0.0000000001
 43
0.0000000001
 40
0.0
 40
0.0
 40
0.0
 40
0.0
 40
1.0
 40
1.0
 40
1.0
 40
2.0
 40
2.0
 40
2.0
 40
3.0
 40
3.0
 40
3.0
 40
4.0
 40
4.0
 40
4.0
 40
5.0
 40
5.0
 40
5.0
 40
6.0
 40
6.0
 40
6.0
 40
6.0
 10
519.910968215976
 20
541.3460679072632
 30
0.0
 10
519.910968215976
 20
541.3460679072632
 30
0.0
 10
519.9549353733927
 20
541.2252691349768
 30
0.0
 10
519.9549353733927
 20
541.2252691349768
 30
0.0
 10
519.9549353733927
 20
541.2252691349768
 30
0.0
 10
509.26540082879
 20
541.3018405023303
 30
0.0
 10
509.26540082879
 20
541.3018405023303
 30
0.0
 10
509.26540082879
 20
541.3018405023303
 30
0.0
 10
480.281995463687
 20
541.5091172524681
 30
0.0
 10
480.281995463687
 20
541.5091172524681
 30
0.0
 10
480.281995463687
 20
541.5091172524681
 30
0.0
 10
480.2379746223196
 20
541.6300635202005
 30
0.0
 10
480.2379746223196
 20
541.6300635202005
 30
0.0
 10
480.2379746223196
 20
541.6300635202005
 30
0.0
 10
509.2214873553238
 20
541.4224917791653
 30
0.0
 10
509.2214873553238
 20
541.4224917791653
 30
0.0
 10
509.2214873553238
 20
541.4224917791653
 30
0.0
 10
519.910968215976
 20
541.3460679072632
 30
0.0
 10
519.910968215976
 20
541.3460679072632
 30
0.0
  0
HATCH
  5
AF
330
70
100
AcDbEntity
  8
Layer 2
 62
    18
420
        0
440
 33554687
100
AcDbHatch
 10
0.0
 20
0.0
 30
0.0
210
0.0
220
0.0
230
1.0
  2
SOLID
 70
     1
 71
     1
 91
        1
 92
        1
 93
        1
 72
     4
 94
        3
 73
     0
 74
     0
 95
       23
 96
       19
 40
0.0
 40
0.0
 40
0.0
 40
0.0
 40
1.0
 40
1.0
 40
1.0
 40
2.0
 40
2.0
 40
2.0
 40
3.0
 40
3.0
 40
3.0
 40
4.0
 40
4.0
 40
4.0
 40
5.0
 40
5.0
 40
5.0
 40
6.0
 40
6.0
 40
6.0
 40
6.0
 10
519.910968215976
 20
541.3460679072632
 10
519.910968215976
 20
541.3460679072632
 10
519.9549353733927
 20
541.2252691349768
 10
519.9549353733927
 20
541.2252691349768
 10
519.9549353733927
 20
541.2252691349768
 10
509.26540082879
 20
541.3018405023303
 10
509.26540082879
 20
541.3018405023303
 10
509.26540082879
 20
541.3018405023303
 10
480.281995463687
 20
541.5091172524681
 10
480.281995463687
 20
541.5091172524681
 10
480.281995463687
 20
541.5091172524681
 10
480.2379746223196
 20
541.6300635202005
 10
480.2379746223196
 20
541.6300635202005
 10
480.2379746223196
 20
541.6300635202005
 10
509.2214873553238
 20
541.4224917791653
 10
509.2214873553238
 20
541.4224917791653
 10
509.2214873553238
 20
541.4224917791653
 10
519.910968215976
 20
541.3460679072632
 10
519.910968215976
 20
541.3460679072632
 97
        0
 97
        1
330
AE
 75
     0
 76
     1
 98
        1
 10
0.0
 20
0.0
450
        0
451
        0
460
0.0
461
0.0
452
        0
462
0.0
453
        0
470

  0
SPLINE
  5
B0
330
70
100
AcDbEntity
  8
Layer 2
 62
    18
420
        0
370
     5
100
AcDbSpline
210
0.0
220
0.0
230
1.0
 70
    11
 71
     3
 72
    23
 73
    19
 74
     0
 42
0.0000000001
 43
0.0000000001
 40
0.0
 40
0.0
 40
0.0
 40
0.0
 40
1.0
 40
1.0
 40
1.0
 40
2.0
 40
2.0
 40
2.0
 40
3.0
 40
3.0
 40
3.0
 40
4.0
 40
4.0
 40
4.0
 40
5.0
 40
5.0
 40
5.0
 40
6.0
 40
6.0
 40
6.0
 40
6.0
 10
518.5480937039883
 20
545.0905348572304
 30
0.0
 10
518.5480937039883
 20
545.0905348572304
 30
0.0
 10
518.5920608614014
 20
544.969736084944
 30
0.0
 10
518.5920608614014
 20
544.969736084944
 30
0.0
 10
518.5920608614014
 20
544.969736084944
 30
0.0
 10
507.9025800007548
 20
545.0461599568516
 30
0.0
 10
507.9025800007548
 20
545.0461599568516
 30
0.0
 10
507.9025800007548
 20
545.0461599568516
 30
0.0
 10
481.0174934454553
 20
545.2384460140056
 30
0.0
 10
481.0174934454553
 20
545.2384460140056
 30
0.0
 10
481.0174934454553
 20
545.2384460140056
 30
0.0
 10
480.9734726040878
 20
545.3593922817399
 30
0.0
 10
480.9734726040878
 20
545.3593922817399
 30
0.0
 10
480.9734726040878
 20
545.3593922817399
 30
0.0
 10
507.8585591593873
 20
545.1671062245841
 30
0.0
 10
507.8585591593873
 20
545.1671062245841
 30
0.0
 10
507.8585591593873
 20
545.1671062245841
 30
0.0
 10
518.5480937039883
 20
545.0905348572304
 30
0.0
 10
518.5480937039883
 20
545.0905348572304
 30
0.0
  0
HATCH
  5
B1
330
70
100
AcDbEntity
  8
Layer 2
 62
    18
420
        0
440
 33554687
100
AcDbHatch
 10
0.0
 20
0.0
 30
0.0
210
0.0
220
0.0
230
1.0
  2
SOLID
 70
     1
 71
     1
 91
        1
 92
        1
 93
        1
 72
     4
 94
        3
 73
     0
 74
     0
 95
       23
 96
       19
 40
0.0
 40
0.0
 40
0.0
 40
0.0
 40
1.0
 40
1.0
 40
1.0
 40
2.0
 40
2.0
 40
2.0
 40
3.0
 40
3.0
 40
3.0
 40
4.0
 40
4.0
 40
4.0
 40
5.0
 40
5.0
 40
5.0
 40
6.0
 40
6.0
 40
6.0
 40
6.0
 10
518.5480937039883
 20
545.0905348572304
 10
518.5480937039883
 20
545.0905348572304
 10
518.5920608614014
 20
544.969736084944
 10
518.5920608614014
 20
544.969736084944
 10
518.5920608614014
 20
544.969736084944
 10
507.9025800007548
 20
545.0461599568516
 10
507.9025800007548
 20
545.0461599568516
 10
507.9025800007548
 20
545.0461599568516
 10
481.0174934454553
 20
545.2384460140056
 10
481.0174934454553
 20
545.2384460140056
 10
481.0174934454553
 20
545.2384460140056
 10
480.9734726040878
 20
545.3593922817399
 10
480.9734726040878
 20
545.3593922817399
 10
480.9734726040878
 20
545.3593922817399
 10
507.8585591593873
 20
545.1671062245841
 10
507.8585591593873
 20
545.1671062245841
 10
507.8585591593873
 20
545.1671062245841
 10
518.5480937039883
 20
545.0905348572304
 10
518.5480937039883
 20
545.0905348572304
 97
        0
 97
        1
330
B0
 75
     0
 76
     1
 98
        1
 10
0.0
 20
0.0
450
        0
451
        0
460
0.0
461
0.0
452
        0
462
0.0
453
        0
470

  0
SPLINE
  5
B2
330
70
100
AcDbEntity
  8
Layer 2
 62
    18
420
        0
370
     5
100
AcDbSpline
210
0.0
220
0.0
230
1.0
 70
    11
 71
     3
 72
    23
 73
    19
 74
     0
 42
0.0000000001
 43
0.0000000001
 40
0.0
 40
0.0
 40
0.0
 40
0.0
 40
1.0
 40
1.0
 40
1.0
 40
2.0
 40
2.0
 40
2.0
 40
3.0
 40
3.0
 40
3.0
 40
4.0
 40
4.0
 40
4.0
 40
5.0
 40
5.0
 40
5.0
 40
6.0
 40
6.0
 40
6.0
 40
6.0
 10
517.1852191920006
 20
548.8350018071996
 30
0.0
 10
517.1852191920006
 20
548.8350018071996
 30
0.0
 10
517.2292400333681
 20
548.7140555394671
 30
0.0
 10
517.2292400333681
 20
548.7140555394671
 30
0.0
 10
517.2292400333681
 20
548.7140555394671
 30
0.0
 10
506.5397591727178
 20
548.790479411371
 30
0.0
 10
506.5397591727178
 20
548.790479411371
 30
0.0
 10
506.5397591727178
 20
548.790479411371
 30
0.0
 10
478.9176308977021
 20
548.9882742738591
 30
0.0
 10
478.9176308977021
 20
548.9882742738591
 30
0.0
 10
478.9176308977021
 20
548.9882742738591
 30
0.0
 10
478.8737174242396
 20
549.1089255506958
 30
0.0
 10
478.8737174242396
 20
549.1089255506958
 30
0.0
 10
478.8737174242396
 20
549.1089255506958
 30
0.0
 10
506.4957383313504
 20
548.911425679109
 30
0.0
 10
506.4957383313504
 20
548.911425679109
 30
0.0
 10
506.4957383313504
 20
548.911425679109
 30
0.0
 10
517.1852191920006
 20
548.8350018071996
 30
0.0
 10
517.1852191920006
 20
548.8350018071996
 30
0.0
  0
HATCH
  5
B3
330
70
100
AcDbEntity
  8
Layer 2
 62
    18
420
        0
440
 33554687
100
AcDbHatch
 10
0.0
 20
0.0
 30
0.0
210
0.0
220
0.0
230
1.0
  2
SOLID
 70
     1
 71
     1
 91
        1
 92
        1
 93
        1
 72
     4
 94
        3
 73
     0
 74
     0
 95
       23
 96
       19
 40
0.0
 40
0.0
 40
0.0
 40
0.0
 40
1.0
 40
1.0
 40
1.0
 40
2.0
 40
2.0
 40
2.0
 40
3.0
 40
3.0
 40
3.0
 40
4.0
 40
4.0
 40
4.0
 40
5.0
 40
5.0
 40
5.0
 40
6.0
 40
6.0
 40
6.0
 40
6.0
 10
517.1852191920006
 20
548.8350018071996
 10
517.1852191920006
 20
548.8350018071996
 10
517.2292400333681
 20
548.7140555394671
 10
517.2292400333681
 20
548.7140555394671
 10
517.2292400333681
 20
548.7140555394671
 10
506.5397591727178
 20
548.790479411371
 10
506.5397591727178
 20
548.790479411371
 10
506.5397591727178
 20
548.790479411371
 10
478.9176308977021
 20
548.9882742738591
 10
478.9176308977021
 20
548.9882742738591
 10
478.9176308977021
 20
548.9882742738591
 10
478.8737174242396
 20
549.1089255506958
 10
478.8737174242396
 20
549.1089255506958
 10
478.8737174242396
 20
549.1089255506958
 10
506.4957383313504
 20
548.911425679109
 10
506.4957383313504
 20
548.911425679109
 10
506.4957383313504
 20
548.911425679109
 10
517.1852191920006
 20
548.8350018071996
 10
517.1852191920006
 20
548.8350018071996
 97
        0
 97
        1
330
B2
 75
     0
 76
     1
 98
        1
 10
0.0
 20
0.0
450
        0
451
        0
460
0.0
461
0.0
452
        0
462
0.0
453
        0
470

  0
SPLINE
  5
B4
330
70
100
AcDbEntity
  8
Layer 2
 62
    18
420
        0
370
     5
100
AcDbSpline
210
0.0
220
0.0
230
1.0
 70
    11
 71
     3
 72
    23
 73
    19
 74
     0
 42
0.0000000001
 43
0.0000000001
 40
0.0
 40
0.0
 40
0.0
 40
0.0
 40
1.0
 40
1.0
 40
1.0
 40
2.0
 40
2.0
 40
2.0
 40
3.0
 40
3.0
 40
3.0
 40
4.0
 40
4.0
 40
4.0
 40
5.0
 40
5.0
 40
5.0
 40
6.0
 40
6.0
 40
6.0
 40
6.0
 10
515.8223446800112
 20
552.5794687571687
 30
0.0
 10
515.8223446800112
 20
552.5794687571687
 30
0.0
 10
515.8663655213786
 20
552.4585224894353
 30
0.0
 10
515.8663655213786
 20
552.4585224894353
 30
0.0
 10
515.8663655213786
 20
552.4585224894353
 30
0.0
 10
505.1768309767794
 20
552.535093856788
 30
0.0
 10
505.1768309767794
 20
552.535093856788
 30
0.0
 10
505.1768309767794
 20
552.535093856788
 30
0.0
 10
475.6365224481069
 20
552.7462964913357
 30
0.0
 10
475.6365224481069
 20
552.7462964913357
 30
0.0
 10
475.6365224481069
 20
552.7462964913357
 30
0.0
 10
475.5925016067394
 20
552.8672427590699
 30
0.0
 10
475.5925016067394
 20
552.8672427590699
 30
0.0
 10
475.5925016067394
 20
552.8672427590699
 30
0.0
 10
505.132917503317
 20
552.6557451336284
 30
0.0
 10
505.132917503317
 20
552.6557451336284
 30
0.0
 10
505.132917503317
 20
552.6557451336284
 30
0.0
 10
515.8223446800112
 20
552.5794687571687
 30
0.0
 10
515.8223446800112
 20
552.5794687571687
 30
0.0
  0
HATCH
  5
B5
330
70
100
AcDbEntity
  8
Layer 2
 62
    18
420
        0
440
 33554687
100
AcDbHatch
 10
0.0
 20
0.0
 30
0.0
210
0.0
220
0.0
230
1.0
  2
SOLID
 70
     1
 71
     1
 91
        1
 92
        1
 93
        1
 72
     4
 94
        3
 73
     0
 74
     0
 95
       23
 96
       19
 40
0.0
 40
0.0
 40
0.0
 40
0.0
 40
1.0
 40
1.0
 40
1.0
 40
2.0
 40
2.0
 40
2.0
 40
3.0
 40
3.0
 40
3.0
 40
4.0
 40
4.0
 40
4.0
 40
5.0
 40
5.0
 40
5.0
 40
6.0
 40
6.0
 40
6.0
 40
6.0
 10
515.8223446800112
 20
552.5794687571687
 10
515.8223446800112
 20
552.5794687571687
 10
515.8663655213786
 20
552.4585224894353
 10
515.8663655213786
 20
552.4585224894353
 10
515.8663655213786
 20
552.4585224894353
 10
505.1768309767794
 20
552.535093856788
 10
505.1768309767794
 20
552.535093856788
 10
505.1768309767794
 20
552.535093856788
 10
475.6365224481069
 20
552.7462964913357
 10
475.6365224481069
 20
552.7462964913357
 10
475.6365224481069
 20
552.7462964913357
 10
475.5925016067394
 20
552.8672427590699
 10
475.5925016067394
 20
552.8672427590699
 10
475.5925016067394
 20
552.8672427590699
 10
505.132917503317
 20
552.6557451336284
 10
505.132917503317
 20
552.6557451336284
 10
505.132917503317
 20
552.6557451336284
 10
515.8223446800112
 20
552.5794687571687
 10
515.8223446800112
 20
552.5794687571687
 97
        0
 97
        1
330
B4
 75
     0
 76
     1
 98
        1
 10
0.0
 20
0.0
450
        0
451
        0
460
0.0
461
0.0
452
        0
462
0.0
453
        0
470

  0
SPLINE
  5
B6
330
70
100
AcDbEntity
  8
Layer 2
 62
    18
420
        0
370
     5
100
AcDbSpline
210
0.0
220
0.0
230
1.0
 70
    11
 71
     3
 72
    23
 73
    19
 74
     0
 42
0.0000000001
 43
0.0000000001
 40
0.0
 40
0.0
 40
0.0
 40
0.0
 40
1.0
 40
1.0
 40
1.0
 40
2.0
 40
2.0
 40
2.0
 40
3.0
 40
3.0
 40
3.0
 40
4.0
 40
4.0
 40
4.0
 40
5.0
 40
5.0
 40
5.0
 40
6.0
 40
6.0
 40
6.0
 40
6.0
 10
514.4594701680234
 20
556.3239357071397
 30
0.0
 10
514.4594701680234
 20
556.3239357071397
 30
0.0
 10
514.5034910093945
 20
556.2029894394054
 30
0.0
 10
514.5034910093945
 20
556.2029894394054
 30
0.0
 10
514.5034910093945
 20
556.2029894394054
 30
0.0
 10
503.8140101487461
 20
556.2794133113093
 30
0.0
 10
503.8140101487461
 20
556.2794133113093
 30
0.0
 10
503.8140101487461
 20
556.2794133113093
 30
0.0
 10
474.718214349501
 20
556.487541991175
 30
0.0
 10
474.718214349501
 20
556.487541991175
 30
0.0
 10
474.718214349501
 20
556.487541991175
 30
0.0
 10
474.6741935081336
 20
556.6084882589093
 30
0.0
 10
474.6741935081336
 20
556.6084882589093
 30
0.0
 10
474.6741935081336
 20
556.6084882589093
 30
0.0
 10
503.7700429913293
 20
556.4002120835976
 30
0.0
 10
503.7700429913293
 20
556.4002120835976
 30
0.0
 10
503.7700429913293
 20
556.4002120835976
 30
0.0
 10
514.4594701680234
 20
556.3239357071397
 30
0.0
 10
514.4594701680234
 20
556.3239357071397
 30
0.0
  0
HATCH
  5
B7
330
70
100
AcDbEntity
  8
Layer 2
 62
    18
420
        0
440
 33554687
100
AcDbHatch
 10
0.0
 20
0.0
 30
0.0
210
0.0
220
0.0
230
1.0
  2
SOLID
 70
     1
 71
     1
 91
        1
 92
        1
 93
        1
 72
     4
 94
        3
 73
     0
 74
     0
 95
       23
 96
       19
 40
0.0
 40
0.0
 40
0.0
 40
0.0
 40
1.0
 40
1.0
 40
1.0
 40
2.0
 40
2.0
 40
2.0
 40
3.0
 40
3.0
 40
3.0
 40
4.0
 40
4.0
 40
4.0
 40
5.0
 40
5.0
 40
5.0
 40
6.0
 40
6.0
 40
6.0
 40
6.0
 10
514.4594701680234
 20
556.3239357071397
 10
514.4594701680234
 20
556.3239357071397
 10
514.5034910093945
 20
556.2029894394054
 10
514.5034910093945
 20
556.2029894394054
 10
514.5034910093945
 20
556.2029894394054
 10
503.8140101487461
 20
556.2794133113093
 10
503.8140101487461
 20
556.2794133113093
 10
503.8140101487461
 20
556.2794133113093
 10
474.718214349501
 20
556.487541991175
 10
474.718214349501
 20
556.487541991175
 10
474.718214349501
 20
556.487541991175
 10
474.6741935081336
 20
556.6084882589093
 10
474.6741935081336
 20
556.6084882589093
 10
474.6741935081336
 20
556.6084882589093
 10
503.7700429913293
 20
556.4002120835976
 10
503.7700429913293
 20
556.4002120835976
 10
503.7700429913293
 20
556.4002120835976
 10
514.4594701680234
 20
556.3239357071397
 10
514.4594701680234
 20
556.3239357071397
 97
        0
 97
        1
330
B6
 75
     0
 76
     1
 98
        1
 10
0.0
 20
0.0
450
        0
451
        0
460
0.0
461
0.0
452
        0
462
0.0
453
        0
470

  0
SPLINE
  5
B8
330
70
100
AcDbEntity
  8
Layer 2
 62
    18
420
        0
370
     5
100
AcDbSpline
210
0.0
220
0.0
230
1.0
 70
    11
 71
     3
 72
    23
 73
    19
 74
     0
 42
0.0000000001
 43
0.0000000001
 40
0.0
 40
0.0
 40
0.0
 40
0.0
 40
1.0
 40
1.0
 40
1.0
 40
2.0
 40
2.0
 40
2.0
 40
3.0
 40
3.0
 40
3.0
 40
4.0
 40
4.0
 40
4.0
 40
5.0
 40
5.0
 40
5.0
 40
6.0
 40
6.0
 40
6.0
 40
6.0
 10
513.0966493399882
 20
560.0682551616592
 30
0.0
 10
513.0966493399882
 20
560.0682551616592
 30
0.0
 10
513.140616497405
 20
559.9474563893727
 30
0.0
 10
513.140616497405
 20
559.9474563893727
 30
0.0
 10
513.140616497405
 20
559.9474563893727
 30
0.0
 10
502.451189320709
 20
560.0237327658342
 30
0.0
 10
502.451189320709
 20
560.0237327658342
 30
0.0
 10
502.451189320709
 20
560.0237327658342
 30
0.0
 10
473.3272321970925
 20
560.2321347548622
 30
0.0
 10
473.3272321970925
 20
560.2321347548622
 30
0.0
 10
473.3272321970925
 20
560.2321347548622
 30
0.0
 10
473.2832113557269
 20
560.3530810225947
 30
0.0
 10
473.2832113557269
 20
560.3530810225947
 30
0.0
 10
473.2832113557269
 20
560.3530810225947
 30
0.0
 10
502.407168479338
 20
560.1446790335685
 30
0.0
 10
502.407168479338
 20
560.1446790335685
 30
0.0
 10
502.407168479338
 20
560.1446790335685
 30
0.0
 10
513.0966493399882
 20
560.0682551616592
 30
0.0
 10
513.0966493399882
 20
560.0682551616592
 30
0.0
  0
HATCH
  5
B9
330
70
100
AcDbEntity
  8
Layer 2
 62
    18
420
        0
440
 33554687
100
AcDbHatch
 10
0.0
 20
0.0
 30
0.0
210
0.0
220
0.0
230
1.0
  2
SOLID
 70
     1
 71
     1
 91
        1
 92
        1
 93
        1
 72
     4
 94
        3
 73
     0
 74
     0
 95
       23
 96
       19
 40
0.0
 40
0.0
 40
0.0
 40
0.0
 40
1.0
 40
1.0
 40
1.0
 40
2.0
 40
2.0
 40
2.0
 40
3.0
 40
3.0
 40
3.0
 40
4.0
 40
4.0
 40
4.0
 40
5.0
 40
5.0
 40
5.0
 40
6.0
 40
6.0
 40
6.0
 40
6.0
 10
513.0966493399882
 20
560.0682551616592
 10
513.0966493399882
 20
560.0682551616592
 10
513.140616497405
 20
559.9474563893727
 10
513.140616497405
 20
559.9474563893727
 10
513.140616497405
 20
559.9474563893727
 10
502.451189320709
 20
560.0237327658342
 10
502.451189320709
 20
560.0237327658342
 10
502.451189320709
 20
560.0237327658342
 10
473.3272321970925
 20
560.2321347548622
 10
473.3272321970925
 20
560.2321347548622
 10
473.3272321970925
 20
560.2321347548622
 10
473.2832113557269
 20
560.3530810225947
 10
473.2832113557269
 20
560.3530810225947
 10
473.2832113557269
 20
560.3530810225947
 10
502.407168479338
 20
560.1446790335685
 10
502.407168479338
 20
560.1446790335685
 10
502.407168479338
 20
560.1446790335685
 10
513.0966493399882
 20
560.0682551616592
 10
513.0966493399882
 20
560.0682551616592
 97
        0
 97
        1
330
B8
 75
     0
 76
     1
 98
        1
 10
0.0
 20
0.0
450
        0
451
        0
460
0.0
461
0.0
452
        0
462
0.0
453
        0
470

  0
SPLINE
  5
BA
330
70
100
AcDbEntity
  8
Layer 2
 62
    18
420
        0
370
     5
100
AcDbSpline
210
0.0
220
0.0
230
1.0
 70
    11
 71
     3
 72
    23
 73
    19
 74
     0
 42
0.0000000001
 43
0.0000000001
 40
0.0
 40
0.0
 40
0.0
 40
0.0
 40
1.0
 40
1.0
 40
1.0
 40
2.0
 40
2.0
 40
2.0
 40
3.0
 40
3.0
 40
3.0
 40
4.0
 40
4.0
 40
4.0
 40
5.0
 40
5.0
 40
5.0
 40
6.0
 40
6.0
 40
6.0
 40
6.0
 10
511.7338285119549
 20
563.8125746161803
 30
0.0
 10
511.7338285119549
 20
563.8125746161803
 30
0.0
 10
511.7777419854173
 20
563.6919233393419
 30
0.0
 10
511.7777419854173
 20
563.6919233393419
 30
0.0
 10
511.7777419854173
 20
563.6919233393419
 30
0.0
 10
501.088261124767
 20
563.7683472112512
 30
0.0
 10
501.088261124767
 20
563.7683472112512
 30
0.0
 10
501.088261124767
 20
563.7683472112512
 30
0.0
 10
473.8264300258252
 20
563.9631505693123
 30
0.0
 10
473.8264300258252
 20
563.9631505693123
 30
0.0
 10
473.8264300258252
 20
563.9631505693123
 30
0.0
 10
473.7824091844577
 20
564.0840968370467
 30
0.0
 10
473.7824091844577
 20
564.0840968370467
 30
0.0
 10
473.7824091844577
 20
564.0840968370467
 30
0.0
 10
501.0443476513046
 20
563.8889984880861
 30
0.0
 10
501.0443476513046
 20
563.8889984880861
 30
0.0
 10
501.0443476513046
 20
563.8889984880861
 30
0.0
 10
511.7338285119549
 20
563.8125746161803
 30
0.0
 10
511.7338285119549
 20
563.8125746161803
 30
0.0
  0
HATCH
  5
BB
330
70
100
AcDbEntity
  8
Layer 2
 62
    18
420
        0
440
 33554687
100
AcDbHatch
 10
0.0
 20
0.0
 30
0.0
210
0.0
220
0.0
230
1.0
  2
SOLID
 70
     1
 71
     1
 91
        1
 92
        1
 93
        1
 72
     4
 94
        3
 73
     0
 74
     0
 95
       23
 96
       19
 40
0.0
 40
0.0
 40
0.0
 40
0.0
 40
1.0
 40
1.0
 40
1.0
 40
2.0
 40
2.0
 40
2.0
 40
3.0
 40
3.0
 40
3.0
 40
4.0
 40
4.0
 40
4.0
 40
5.0
 40
5.0
 40
5.0
 40
6.0
 40
6.0
 40
6.0
 40
6.0
 10
511.7338285119549
 20
563.8125746161803
 10
511.7338285119549
 20
563.8125746161803
 10
511.7777419854173
 20
563.6919233393419
 10
511.7777419854173
 20
563.6919233393419
 10
511.7777419854173
 20
563.6919233393419
 10
501.088261124767
 20
563.7683472112512
 10
501.088261124767
 20
563.7683472112512
 10
501.088261124767
 20
563.7683472112512
 10
473.8264300258252
 20
563.9631505693123
 10
473.8264300258252
 20
563.9631505693123
 10
473.8264300258252
 20
563.9631505693123
 10
473.7824091844577
 20
564.0840968370467
 10
473.7824091844577
 20
564.0840968370467
 10
473.7824091844577
 20
564.0840968370467
 10
501.0443476513046
 20
563.8889984880861
 10
501.0443476513046
 20
563.8889984880861
 10
501.0443476513046
 20
563.8889984880861
 10
511.7338285119549
 20
563.8125746161803
 10
511.7338285119549
 20
563.8125746161803
 97
        0
 97
        1
330
BA
 75
     0
 76
     1
 98
        1
 10
0.0
 20
0.0
450
        0
451
        0
460
0.0
461
0.0
452
        0
462
0.0
453
        0
470

  0
SPLINE
  5
BC
330
70
100
AcDbEntity
  8
Layer 2
 62
    18
420
        0
370
     5
100
AcDbSpline
210
0.0
220
0.0
230
1.0
 70
    11
 71
     3
 72
    23
 73
    19
 74
     0
 42
0.0000000001
 43
0.0000000001
 40
0.0
 40
0.0
 40
0.0
 40
0.0
 40
1.0
 40
1.0
 40
1.0
 40
2.0
 40
2.0
 40
2.0
 40
3.0
 40
3.0
 40
3.0
 40
4.0
 40
4.0
 40
4.0
 40
5.0
 40
5.0
 40
5.0
 40
6.0
 40
6.0
 40
6.0
 40
6.0
 10
510.3709539999654
 20
567.5570415661513
 30
0.0
 10
510.3709539999654
 20
567.5570415661513
 30
0.0
 10
510.4149211573822
 20
567.4362427938649
 30
0.0
 10
510.4149211573822
 20
567.4362427938649
 30
0.0
 10
510.4149211573822
 20
567.4362427938649
 30
0.0
 10
499.7254402967301
 20
567.5126666657706
 30
0.0
 10
499.7254402967301
 20
567.5126666657706
 30
0.0
 10
499.7254402967301
 20
567.5126666657706
 30
0.0
 10
470.5452879560507
 20
567.7214946196663
 30
0.0
 10
470.5452879560507
 20
567.7214946196663
 30
0.0
 10
470.5452879560507
 20
567.7214946196663
 30
0.0
 10
470.5013207986339
 20
567.8422933919501
 30
0.0
 10
470.5013207986339
 20
567.8422933919501
 30
0.0
 10
470.5013207986339
 20
567.8422933919501
 30
0.0
 10
499.6814194553626
 20
567.633612933505
 30
0.0
 10
499.6814194553626
 20
567.633612933505
 30
0.0
 10
499.6814194553626
 20
567.633612933505
 30
0.0
 10
510.3709539999654
 20
567.5570415661513
 30
0.0
 10
510.3709539999654
 20
567.5570415661513
 30
0.0
  0
HATCH
  5
BD
330
70
100
AcDbEntity
  8
Layer 2
 62
    18
420
        0
440
 33554687
100
AcDbHatch
 10
0.0
 20
0.0
 30
0.0
210
0.0
220
0.0
230
1.0
  2
SOLID
 70
     1
 71
     1
 91
        1
 92
        1
 93
        1
 72
     4
 94
        3
 73
     0
 74
     0
 95
       23
 96
       19
 40
0.0
 40
0.0
 40
0.0
 40
0.0
 40
1.0
 40
1.0
 40
1.0
 40
2.0
 40
2.0
 40
2.0
 40
3.0
 40
3.0
 40
3.0
 40
4.0
 40
4.0
 40
4.0
 40
5.0
 40
5.0
 40
5.0
 40
6.0
 40
6.0
 40
6.0
 40
6.0
 10
510.3709539999654
 20
567.5570415661513
 10
510.3709539999654
 20
567.5570415661513
 10
510.4149211573822
 20
567.4362427938649
 10
510.4149211573822
 20
567.4362427938649
 10
510.4149211573822
 20
567.4362427938649
 10
499.7254402967301
 20
567.5126666657706
 10
499.7254402967301
 20
567.5126666657706
 10
499.7254402967301
 20
567.5126666657706
 10
470.5452879560507
 20
567.7214946196663
 10
470.5452879560507
 20
567.7214946196663
 10
470.5452879560507
 20
567.7214946196663
 10
470.5013207986339
 20
567.8422933919501
 10
470.5013207986339
 20
567.8422933919501
 10
470.5013207986339
 20
567.8422933919501
 10
499.6814194553626
 20
567.633612933505
 10
499.6814194553626
 20
567.633612933505
 10
499.6814194553626
 20
567.633612933505
 10
510.3709539999654
 20
567.5570415661513
 10
510.3709539999654
 20
567.5570415661513
 97
        0
 97
        1
330
BC
 75
     0
 76
     1
 98
        1
 10
0.0
 20
0.0
450
        0
451
        0
460
0.0
461
0.0
452
        0
462
0.0
453
        0
470

  0
SPLINE
  5
BE
330
70
100
AcDbEntity
  8
Layer 2
 62
    18
420
        0
370
     5
100
AcDbSpline
210
0.0
220
0.0
230
1.0
 70
    11
 71
     3
 72
    23
 73
    19
 74
     0
 42
0.0000000001
 43
0.0000000001
 40
0.0
 40
0.0
 40
0.0
 40
0.0
 40
1.0
 40
1.0
 40
1.0
 40
2.0
 40
2.0
 40
2.0
 40
3.0
 40
3.0
 40
3.0
 40
4.0
 40
4.0
 40
4.0
 40
5.0
 40
5.0
 40
5.0
 40
6.0
 40
6.0
 40
6.0
 40
6.0
 10
509.0080794879759
 20
571.3015085161205
 30
0.0
 10
509.0080794879759
 20
571.3015085161205
 30
0.0
 10
509.052100329347
 20
571.1805622483844
 30
0.0
 10
509.052100329347
 20
571.1805622483844
 30
0.0
 10
509.052100329347
 20
571.1805622483844
 30
0.0
 10
498.3625657847424
 20
571.2571336157379
 30
0.0
 10
498.3625657847424
 20
571.2571336157379
 30
0.0
 10
498.3625657847424
 20
571.2571336157379
 30
0.0
 10
468.9180056506029
 20
571.4677744362671
 30
0.0
 10
468.9180056506029
 20
571.4677744362671
 30
0.0
 10
468.9180056506029
 20
571.4677744362671
 30
0.0
 10
468.8740921771413
 20
571.5884257131038
 30
0.0
 10
468.8740921771413
 20
571.5884257131038
 30
0.0
 10
468.8740921771413
 20
571.5884257131038
 30
0.0
 10
498.3185986273293
 20
571.3779323880262
 30
0.0
 10
498.3185986273293
 20
571.3779323880262
 30
0.0
 10
498.3185986273293
 20
571.3779323880262
 30
0.0
 10
509.0080794879759
 20
571.3015085161205
 30
0.0
 10
509.0080794879759
 20
571.3015085161205
 30
0.0
  0
HATCH
  5
BF
330
70
100
AcDbEntity
  8
Layer 2
 62
    18
420
        0
440
 33554687
100
AcDbHatch
 10
0.0
 20
0.0
 30
0.0
210
0.0
220
0.0
230
1.0
  2
SOLID
 70
     1
 71
     1
 91
        1
 92
        1
 93
        1
 72
     4
 94
        3
 73
     0
 74
     0
 95
       23
 96
       19
 40
0.0
 40
0.0
 40
0.0
 40
0.0
 40
1.0
 40
1.0
 40
1.0
 40
2.0
 40
2.0
 40
2.0
 40
3.0
 40
3.0
 40
3.0
 40
4.0
 40
4.0
 40
4.0
 40
5.0
 40
5.0
 40
5.0
 40
6.0
 40
6.0
 40
6.0
 40
6.0
 10
509.0080794879759
 20
571.3015085161205
 10
509.0080794879759
 20
571.3015085161205
 10
509.052100329347
 20
571.1805622483844
 10
509.052100329347
 20
571.1805622483844
 10
509.052100329347
 20
571.1805622483844
 10
498.3625657847424
 20
571.2571336157379
 10
498.3625657847424
 20
571.2571336157379
 10
498.3625657847424
 20
571.2571336157379
 10
468.9180056506029
 20
571.4677744362671
 10
468.9180056506029
 20
571.4677744362671
 10
468.9180056506029
 20
571.4677744362671
 10
468.8740921771413
 20
571.5884257131038
 10
468.8740921771413
 20
571.5884257131038
 10
468.8740921771413
 20
571.5884257131038
 10
498.3185986273293
 20
571.3779323880262
 10
498.3185986273293
 20
571.3779323880262
 10
498.3185986273293
 20
571.3779323880262
 10
509.0080794879759
 20
571.3015085161205
 10
509.0080794879759
 20
571.3015085161205
 97
        0
 97
        1
330
BE
 75
     0
 76
     1
 98
        1
 10
0.0
 20
0.0
450
        0
451
        0
460
0.0
461
0.0
452
        0
462
0.0
453
        0
470

  0
SPLINE
  5
C0
330
70
100
AcDbEntity
  8
Layer 2
 62
    18
420
        0
370
     5
100
AcDbSpline
210
0.0
220
0.0
230
1.0
 70
    11
 71
     3
 72
    23
 73
    19
 74
     0
 42
0.0000000001
 43
0.0000000001
 40
0.0
 40
0.0
 40
0.0
 40
0.0
 40
1.0
 40
1.0
 40
1.0
 40
2.0
 40
2.0
 40
2.0
 40
3.0
 40
3.0
 40
3.0
 40
4.0
 40
4.0
 40
4.0
 40
5.0
 40
5.0
 40
5.0
 40
6.0
 40
6.0
 40
6.0
 40
6.0
 10
507.6452586599407
 20
575.0458279706418
 30
0.0
 10
507.6452586599407
 20
575.0458279706418
 30
0.0
 10
507.6892258173611
 20
574.9250291983553
 30
0.0
 10
507.6892258173611
 20
574.9250291983553
 30
0.0
 10
507.6892258173611
 20
574.9250291983553
 30
0.0
 10
496.9996912727583
 20
575.0016005657108
 30
0.0
 10
496.9996912727583
 20
575.0016005657108
 30
0.0
 10
496.9996912727583
 20
575.0016005657108
 30
0.0
 10
470.3624778392131
 20
575.1920688810368
 30
0.0
 10
470.3624778392131
 20
575.1920688810368
 30
0.0
 10
470.3624778392131
 20
575.1920688810368
 30
0.0
 10
470.3185106818
 20
575.3128676533251
 30
0.0
 10
470.3185106818
 20
575.3128676533251
 30
0.0
 10
470.3185106818
 20
575.3128676533251
 30
0.0
 10
496.9557241153416
 20
575.1223993379972
 30
0.0
 10
496.9557241153416
 20
575.1223993379972
 30
0.0
 10
496.9557241153416
 20
575.1223993379972
 30
0.0
 10
507.6452586599407
 20
575.0458279706418
 30
0.0
 10
507.6452586599407
 20
575.0458279706418
 30
0.0
  0
HATCH
  5
C1
330
70
100
AcDbEntity
  8
Layer 2
 62
    18
420
        0
440
 33554687
100
AcDbHatch
 10
0.0
 20
0.0
 30
0.0
210
0.0
220
0.0
230
1.0
  2
SOLID
 70
     1
 71
     1
 91
        1
 92
        1
 93
        1
 72
     4
 94
        3
 73
     0
 74
     0
 95
       23
 96
       19
 40
0.0
 40
0.0
 40
0.0
 40
0.0
 40
1.0
 40
1.0
 40
1.0
 40
2.0
 40
2.0
 40
2.0
 40
3.0
 40
3.0
 40
3.0
 40
4.0
 40
4.0
 40
4.0
 40
5.0
 40
5.0
 40
5.0
 40
6.0
 40
6.0
 40
6.0
 40
6.0
 10
507.6452586599407
 20
575.0458279706418
 10
507.6452586599407
 20
575.0458279706418
 10
507.6892258173611
 20
574.9250291983553
 10
507.6892258173611
 20
574.9250291983553
 10
507.6892258173611
 20
574.9250291983553
 10
496.9996912727583
 20
575.0016005657108
 10
496.9996912727583
 20
575.0016005657108
 10
496.9996912727583
 20
575.0016005657108
 10
470.3624778392131
 20
575.1920688810368
 10
470.3624778392131
 20
575.1920688810368
 10
470.3624778392131
 20
575.1920688810368
 10
470.3185106818
 20
575.3128676533251
 10
470.3185106818
 20
575.3128676533251
 10
470.3185106818
 20
575.3128676533251
 10
496.9557241153416
 20
575.1223993379972
 10
496.9557241153416
 20
575.1223993379972
 10
496.9557241153416
 20
575.1223993379972
 10
507.6452586599407
 20
575.0458279706418
 10
507.6452586599407
 20
575.0458279706418
 97
        0
 97
        1
330
C0
 75
     0
 76
     1
 98
        1
 10
0.0
 20
0.0
450
        0
451
        0
460
0.0
461
0.0
452
        0
462
0.0
453
        0
470

  0
SPLINE
  5
C2
330
70
100
AcDbEntity
  8
Layer 2
 62
    18
420
        0
370
     5
100
AcDbSpline
210
0.0
220
0.0
230
1.0
 70
    11
 71
     3
 72
    23
 73
    19
 74
     0
 42
0.0000000001
 43
0.0000000001
 40
0.0
 40
0.0
 40
0.0
 40
0.0
 40
1.0
 40
1.0
 40
1.0
 40
2.0
 40
2.0
 40
2.0
 40
3.0
 40
3.0
 40
3.0
 40
4.0
 40
4.0
 40
4.0
 40
5.0
 40
5.0
 40
5.0
 40
6.0
 40
6.0
 40
6.0
 40
6.0
 10
506.2823304640005
 20
578.7904424160587
 30
0.0
 10
506.2823304640005
 20
578.7904424160587
 30
0.0
 10
506.3263513053661
 20
578.6694961483253
 30
0.0
 10
506.3263513053661
 20
578.6694961483253
 30
0.0
 10
506.3263513053661
 20
578.6694961483253
 30
0.0
 10
495.6368704447195
 20
578.7459200202301
 30
0.0
 10
495.6368704447195
 20
578.7459200202301
 30
0.0
 10
495.6368704447195
 20
578.7459200202301
 30
0.0
 10
467.7900686693355
 20
578.9451237512712
 30
0.0
 10
467.7900686693355
 20
578.9451237512712
 30
0.0
 10
467.7900686693355
 20
578.9451237512712
 30
0.0
 10
467.7461015119188
 20
579.0659225235558
 30
0.0
 10
467.7461015119188
 20
579.0659225235558
 30
0.0
 10
467.7461015119188
 20
579.0659225235558
 30
0.0
 10
495.5928496033521
 20
578.8668662879644
 30
0.0
 10
495.5928496033521
 20
578.8668662879644
 30
0.0
 10
495.5928496033521
 20
578.8668662879644
 30
0.0
 10
506.2823304640005
 20
578.7904424160587
 30
0.0
 10
506.2823304640005
 20
578.7904424160587
 30
0.0
  0
HATCH
  5
C3
330
70
100
AcDbEntity
  8
Layer 2
 62
    18
420
        0
440
 33554687
100
AcDbHatch
 10
0.0
 20
0.0
 30
0.0
210
0.0
220
0.0
230
1.0
  2
SOLID
 70
     1
 71
     1
 91
        1
 92
        1
 93
        1
 72
     4
 94
        3
 73
     0
 74
     0
 95
       23
 96
       19
 40
0.0
 40
0.0
 40
0.0
 40
0.0
 40
1.0
 40
1.0
 40
1.0
 40
2.0
 40
2.0
 40
2.0
 40
3.0
 40
3.0
 40
3.0
 40
4.0
 40
4.0
 40
4.0
 40
5.0
 40
5.0
 40
5.0
 40
6.0
 40
6.0
 40
6.0
 40
6.0
 10
506.2823304640005
 20
578.7904424160587
 10
506.2823304640005
 20
578.7904424160587
 10
506.3263513053661
 20
578.6694961483253
 10
506.3263513053661
 20
578.6694961483253
 10
506.3263513053661
 20
578.6694961483253
 10
495.6368704447195
 20
578.7459200202301
 10
495.6368704447195
 20
578.7459200202301
 10
495.6368704447195
 20
578.7459200202301
 10
467.7900686693355
 20
578.9451237512712
 10
467.7900686693355
 20
578.9451237512712
 10
467.7900686693355
 20
578.9451237512712
 10
467.7461015119188
 20
579.0659225235558
 10
467.7461015119188
 20
579.0659225235558
 10
467.7461015119188
 20
579.0659225235558
 10
495.5928496033521
 20
578.8668662879644
 10
495.5928496033521
 20
578.8668662879644
 10
495.5928496033521
 20
578.8668662879644
 10
506.2823304640005
 20
578.7904424160587
 10
506.2823304640005
 20
578.7904424160587
 97
        0
 97
        1
330
C2
 75
     0
 76
     1
 98
        1
 10
0.0
 20
0.0
450
        0
451
        0
460
0.0
461
0.0
452
        0
462
0.0
453
        0
470

  0
SPLINE
  5
C4
330
70
100
AcDbEntity
  8
Layer 2
 62
    18
420
        0
370
     5
100
AcDbSpline
210
0.0
220
0.0
230
1.0
 70
     9
 71
     3
 72
    17
 73
    13
 74
     0
 42
0.0000000001
 43
0.0000000001
 40
0.0
 40
0.0
 40
0.0
 40
0.0
 40
1.0
 40
1.0
 40
1.0
 40
2.0
 40
2.0
 40
2.0
 40
3.0
 40
3.0
 40
3.0
 40
4.0
 40
4.0
 40
4.0
 40
4.0
 10
483.3258247916301
 20
587.5103136315956
 30
0.0
 10
484.8880885486614
 20
588.4018094234579
 30
0.0
 10
485.4319796593954
 20
590.390716824284
 30
0.0
 10
484.5406782687269
 20
591.9531348549663
 30
0.0
 10
483.6493568142896
 20
593.5153785482243
 30
0.0
 10
481.6602281702898
 20
594.0591891330277
 30
0.0
 10
480.0978570453535
 20
593.1679883320612
 30
0.0
 10
478.5356133520972
 20
592.2766668776239
 30
0.0
 10
477.9917021775936
 20
590.2875851393728
 30
0.0
 10
478.8830236320309
 20
588.7253414461156
 30
0.0
 10
479.7744725181456
 20
587.1629770993859
 30
0.0
 10
481.763433602925
 20
586.618938493204
 30
0.0
 10
483.3258247916301
 20
587.5103136315956
 30
0.0
  0
SPLINE
  5
C5
330
70
100
AcDbEntity
  8
Layer 2
 62
    18
420
        0
370
     5
100
AcDbSpline
210
0.0
220
0.0
230
1.0
 70
     9
 71
     3
 72
    17
 73
    13
 74
     0
 42
0.0000000001
 43
0.0000000001
 40
0.0
 40
0.0
 40
0.0
 40
0.0
 40
1.0
 40
1.0
 40
1.0
 40
2.0
 40
2.0
 40
2.0
 40
3.0
 40
3.0
 40
3.0
 40
4.0
 40
4.0
 40
4.0
 40
4.0
 10
483.3561003814202
 20
587.4571916783042
 30
0.0
 10
481.764500211625
 20
586.5490050522803
 30
0.0
 10
479.7379944932654
 20
587.1032645071282
 30
0.0
 10
478.8299084569471
 20
588.6948177711783
 30
0.0
 10
477.9217687366717
 20
590.2865185306727
 30
0.0
 10
478.4759276018221
 20
592.3130711547782
 30
0.0
 10
480.0675277716136
 20
593.2212577807986
 30
0.0
 10
481.659181625363
 20
594.129296911371
 30
0.0
 10
483.685761091444
 20
593.5750642985022
 30
0.0
 10
484.5939008117193
 20
591.9833635390059
 30
0.0
 10
485.5018393525933
 20
590.3917565910051
 30
0.0
 10
484.9478279828936
 20
588.365257650852
 30
0.0
 10
483.3561003814202
 20
587.4571916783042
 30
0.0
  0
HATCH
  5
C6
330
70
100
AcDbEntity
  8
Layer 2
 62
    18
420
        0
440
 33554687
100
AcDbHatch
 10
0.0
 20
0.0
 30
0.0
210
0.0
220
0.0
230
1.0
  2
SOLID
 70
     1
 71
     1
 91
        2
 92
        1
 93
        2
 72
     4
 94
        3
 73
     0
 74
     0
 95
       17
 96
       13
 40
0.0
 40
0.0
 40
0.0
 40
0.0
 40
1.0
 40
1.0
 40
1.0
 40
2.0
 40
2.0
 40
2.0
 40
3.0
 40
3.0
 40
3.0
 40
4.0
 40
4.0
 40
4.0
 40
4.0
 10
483.3258247916301
 20
587.5103136315956
 10
484.8880885486614
 20
588.4018094234579
 10
485.4319796593954
 20
590.390716824284
 10
484.5406782687269
 20
591.9531348549663
 10
483.6493568142896
 20
593.5153785482243
 10
481.6602281702898
 20
594.0591891330277
 10
480.0978570453535
 20
593.1679883320612
 10
478.5356133520972
 20
592.2766668776239
 10
477.9917021775936
 20
590.2875851393728
 10
478.8830236320309
 20
588.7253414461156
 10
479.7744725181456
 20
587.1629770993859
 10
481.763433602925
 20
586.618938493204
 10
483.3258247916301
 20
587.5103136315956
 97
        0
 72
     1
 10
483.3258247916301
 20
587.5103136315956
 11
483.3258247916301
 21
587.5103136315956
 97
        0
 92
        1
 93
        2
 72
     4
 94
        3
 73
     0
 74
     0
 95
       17
 96
       13
 40
0.0
 40
0.0
 40
0.0
 40
0.0
 40
1.0
 40
1.0
 40
1.0
 40
2.0
 40
2.0
 40
2.0
 40
3.0
 40
3.0
 40
3.0
 40
4.0
 40
4.0
 40
4.0
 40
4.0
 10
483.3561003814202
 20
587.4571916783042
 10
481.764500211625
 20
586.5490050522803
 10
479.7379944932654
 20
587.1032645071282
 10
478.8299084569471
 20
588.6948177711783
 10
477.9217687366717
 20
590.2865185306727
 10
478.4759276018221
 20
592.3130711547782
 10
480.0675277716136
 20
593.2212577807986
 10
481.659181625363
 20
594.129296911371
 10
483.685761091444
 20
593.5750642985022
 10
484.5939008117193
 20
591.9833635390059
 10
485.5018393525933
 20
590.3917565910051
 10
484.9478279828936
 20
588.365257650852
 10
483.3561003814202
 20
587.4571916783042
 97
        0
 72
     1
 10
483.3561003814202
 20
587.4571916783042
 11
483.3561003814202
 21
587.4571916783042
 97
        0
 75
     0
 76
     1
 98
        1
 10
0.0
 20
0.0
450
        0
451
        0
460
0.0
461
0.0
452
        0
462
0.0
453
        0
470

  0
SPLINE
  5
C7
330
70
100
AcDbEntity
  8
Layer 2
 62
    18
420
        0
370
     5
100
AcDbSpline
210
0.0
220
0.0
230
1.0
 70
     8
 71
     3
 72
    35
 73
    31
 74
     0
 42
0.0000000001
 43
0.0000000001
 40
0.0
 40
0.0
 40
0.0
 40
0.0
 40
1.0
 40
1.0
 40
1.0
 40
2.0
 40
2.0
 40
2.0
 40
3.0
 40
3.0
 40
3.0
 40
4.0
 40
4.0
 40
4.0
 40
5.0
 40
5.0
 40
5.0
 40
6.0
 40
6.0
 40
6.0
 40
7.0
 40
7.0
 40
7.0
 40
8.0
 40
8.0
 40
8.0
 40
9.0
 40
9.0
 40
9.0
 40
10.0
 40
10.0
 40
10.0
 40
10.0
 10
455.8359368361498
 20
590.7498110193009
 30
0.0
 10
455.8359368361498
 20
590.7498110193009
 30
0.0
 10
480.0224247937904
 20
590.5767159489768
 30
0.0
 10
480.0224247937904
 20
590.5767159489768
 30
0.0
 10
480.1850638127543
 20
591.7326622690215
 30
0.0
 10
481.4323602198956
 20
592.3874168751718
 30
0.0
 10
482.4760762314717
 20
591.8644752916661
 30
0.0
 10
483.5386965994103
 20
591.3320449198563
 30
0.0
 10
483.7452710968673
 20
589.9049208126943
 30
0.0
 10
482.8771517751619
 20
589.0931919057748
 30
0.0
 10
482.0112915200907
 20
588.2832874407195
 30
0.0
 10
480.6068162529727
 20
588.5798805870072
 30
0.0
 10
480.1421962235654
 20
589.6705492583041
 30
0.0
 10
480.0907192712984
 20
589.7917883501813
 30
0.0
 10
480.0541404427049
 20
589.9147751498094
 30
0.0
 10
480.0314793285324
 20
590.0444979313069
 30
0.0
 10
479.9954731548159
 20
590.249206147233
 30
0.0
 10
479.8215196073833
 20
590.127095980959
 30
0.0
 10
479.7017804302704
 20
590.1279457439214
 30
0.0
 10
479.7017804302704
 20
590.1279457439214
 30
0.0
 10
478.887563352865
 20
590.1339279685853
 30
0.0
 10
478.887563352865
 20
590.1339279685853
 30
0.0
 10
478.887563352865
 20
590.1339279685853
 30
0.0
 10
477.2591628182481
 20
590.1455705850422
 30
0.0
 10
477.2591628182481
 20
590.1455705850422
 30
0.0
 10
477.2591628182481
 20
590.1455705850422
 30
0.0
 10
464.2325821432523
 20
590.2386044196246
 30
0.0
 10
464.2325821432523
 20
590.2386044196246
 30
0.0
 10
464.2325821432523
 20
590.2386044196246
 30
0.0
 10
455.8476644075226
 20
590.2986126327923
 30
0.0
 10
455.8476644075226
 20
590.2986126327923
 30
0.0
  0
HATCH
  5
C8
330
70
100
AcDbEntity
  8
Layer 2
 62
    18
420
        0
440
 33554687
100
AcDbHatch
 10
0.0
 20
0.0
 30
0.0
210
0.0
220
0.0
230
1.0
  2
SOLID
 70
     1
 71
     1
 91
        1
 92
        1
 93
        2
 72
     4
 94
        3
 73
     0
 74
     0
 95
       35
 96
       31
 40
0.0
 40
0.0
 40
0.0
 40
0.0
 40
1.0
 40
1.0
 40
1.0
 40
2.0
 40
2.0
 40
2.0
 40
3.0
 40
3.0
 40
3.0
 40
4.0
 40
4.0
 40
4.0
 40
5.0
 40
5.0
 40
5.0
 40
6.0
 40
6.0
 40
6.0
 40
7.0
 40
7.0
 40
7.0
 40
8.0
 40
8.0
 40
8.0
 40
9.0
 40
9.0
 40
9.0
 40
10.0
 40
10.0
 40
10.0
 40
10.0
 10
455.8359368361498
 20
590.7498110193009
 10
455.8359368361498
 20
590.7498110193009
 10
480.0224247937904
 20
590.5767159489768
 10
480.0224247937904
 20
590.5767159489768
 10
480.1850638127543
 20
591.7326622690215
 10
481.4323602198956
 20
592.3874168751718
 10
482.4760762314717
 20
591.8644752916661
 10
483.5386965994103
 20
591.3320449198563
 10
483.7452710968673
 20
589.9049208126943
 10
482.8771517751619
 20
589.0931919057748
 10
482.0112915200907
 20
588.2832874407195
 10
480.6068162529727
 20
588.5798805870072
 10
480.1421962235654
 20
589.6705492583041
 10
480.0907192712984
 20
589.7917883501813
 10
480.0541404427049
 20
589.9147751498094
 10
480.0314793285324
 20
590.0444979313069
 10
479.9954731548159
 20
590.249206147233
 10
479.8215196073833
 20
590.127095980959
 10
479.7017804302704
 20
590.1279457439214
 10
479.7017804302704
 20
590.1279457439214
 10
478.887563352865
 20
590.1339279685853
 10
478.887563352865
 20
590.1339279685853
 10
478.887563352865
 20
590.1339279685853
 10
477.2591628182481
 20
590.1455705850422
 10
477.2591628182481
 20
590.1455705850422
 10
477.2591628182481
 20
590.1455705850422
 10
464.2325821432523
 20
590.2386044196246
 10
464.2325821432523
 20
590.2386044196246
 10
464.2325821432523
 20
590.2386044196246
 10
455.8476644075226
 20
590.2986126327923
 10
455.8476644075226
 20
590.2986126327923
 97
        0
 72
     1
 10
455.8476644075226
 20
590.2986126327923
 11
455.8359368361498
 21
590.7498110193009
 97
        0
 75
     0
 76
     1
 98
        1
 10
0.0
 20
0.0
450
        0
451
        0
460
0.0
461
0.0
452
        0
462
0.0
453
        0
470

  0
ENDSEC
  0
SECTION
  2
OBJECTS
  0
DICTIONARY
  5
C
330
0
100
AcDbDictionary
281
     1
  3
ACAD_COLOR
350
63
  3
ACAD_DETAILVIEWSTYLE
350
6A
  3
ACAD_GROUP
350
D
  3
ACAD_LAYOUT
350
62
  3
ACAD_MATERIAL
350
10
  3
ACAD_MLEADERSTYLE
350
66
  3
ACAD_MLINESTYLE
350
5F
  3
ACAD_PLOTSETTINGS
350
61
  3
ACAD_PLOTSTYLENAME
350
E
  3
ACAD_SCALELIST
350
42
  3
ACAD_SECTIONVIEWSTYLE
350
68
  3
ACAD_TABLESTYLE
350
64
  3
ACAD_VISUALSTYLE
350
29
  3
ACDB_RECOMPOSE_DATA
350
D1
  3
AcDbVariableDictionary
350
C9
  0
DICTIONARY
  5
63
102
{ACAD_REACTORS
330
C
102
}
330
C
100
AcDbDictionary
281
     1
  0
DICTIONARY
  5
6A
102
{ACAD_REACTORS
330
C
102
}
330
C
100
AcDbDictionary
281
     1
  3
Imperial24
350
6B
  0
DICTIONARY
  5
D
102
{ACAD_REACTORS
330
C
102
}
330
C
100
AcDbDictionary
281
     1
  0
DICTIONARY
  5
62
102
{ACAD_REACTORS
330
C
102
}
330
C
100
AcDbDictionary
281
     1
  3
Layout1
350
6F
  3
Layout2
350
77
  3
Model
350
73
  0
DICTIONARY
  5
10
102
{ACAD_REACTORS
330
C
102
}
330
C
100
AcDbDictionary
281
     1
  3
ByBlock
350
19
  3
ByLayer
350
11
  3
Global
350
21
  0
DICTIONARY
  5
66
102
{ACAD_REACTORS
330
C
102
}
330
C
100
AcDbDictionary
281
     1
  3
Standard
350
67
  0
DICTIONARY
  5
5F
102
{ACAD_REACTORS
330
C
102
}
330
C
100
AcDbDictionary
281
     1
  3
Standard
350
60
  0
DICTIONARY
  5
61
102
{ACAD_REACTORS
330
C
102
}
330
C
100
AcDbDictionary
281
     1
  0
ACDBDICTIONARYWDFLT
  5
E
102
{ACAD_REACTORS
330
C
102
}
330
C
100
AcDbDictionary
281
     1
  3
Normal
350
F
100
AcDbDictionaryWithDefault
340
F
  0
DICTIONARY
  5
42
102
{ACAD_REACTORS
330
C
102
}
330
C
100
AcDbDictionary
281
     1
  3
A0
350
43
  3
A1
350
44
  3
A2
350
45
  3
A3
350
46
  3
A4
350
47
  3
A5
350
48
  3
A6
350
49
  3
A7
350
4A
  3
A8
350
4B
  3
A9
350
4C
  3
B0
350
4D
  3
B1
350
4E
  3
B2
350
4F
  3
B3
350
50
  3
B4
350
51
  3
B5
350
52
  3
B6
350
53
  0
DICTIONARY
  5
68
102
{ACAD_REACTORS
330
C
102
}
330
C
100
AcDbDictionary
281
     1
  3
Imperial24
350
69
  0
DICTIONARY
  5
64
102
{ACAD_REACTORS
330
C
102
}
330
C
100
AcDbDictionary
281
     1
  3
Standard
350
65
  0
DICTIONARY
  5
29
102
{ACAD_REACTORS
330
C
102
}
330
C
100
AcDbDictionary
281
     1
  3
2dWireframe
350
2F
  3
Basic
350
2E
  3
Brighten
350
35
  3
ColorChange
350
39
  3
Conceptual
350
32
  3
Dim
350
34
  3
EdgeColorOff
350
41
  3
Facepattern
350
38
  3
Flat
350
2A
  3
FlatWithEdges
350
2B
  3
Gouraud
350
2C
  3
GouraudWithEdges
350
2D
  3
Hidden
350
31
  3
JitterOff
350
3F
  3
Linepattern
350
37
  3
OverhangOff
350
40
  3
Realistic
350
33
  3
Shaded
350
3E
  3
Shaded with edges
350
3D
  3
Shades of Gray
350
3A
  3
Sketchy
350
3B
  3
Thicken
350
36
  3
Wireframe
350
30
  3
X-Ray
350
3C
  0
XRECORD
  5
D1
102
{ACAD_REACTORS
330
C
102
}
330
C
100
AcDbXrecord
280
     1
 90
        1
330
65
  0
DICTIONARY
  5
C9
102
{ACAD_REACTORS
330
C
102
}
330
C
100
AcDbDictionary
281
     1
  3
CANNOSCALE
350
CE
  3
CMLEADERSTYLE
350
CB
  3
CTABLESTYLE
350
CA
  3
CVIEWDETAILSTYLE
350
CC
  3
CVIEWSECTIONSTYLE
350
CD
  0
ACDBDETAILVIEWSTYLE
  5
6B
102
{ACAD_REACTORS
330
6A
102
}
330
6A
100
AcDbModelDocViewStyle
 70
     0
  3
Imperial24
290
     1
300
Imperial24
 90
        0
100
AcDbDetailViewStyle
 70
     0
 71
     0
 90
        3
 71
     1
340
55
 62
   256
 40
0.24
340
0
 62
   256
 40
0.24
300

 40
0.36
280
     3
 71
     2
340
5D
 90
       25
 62
   256
 71
     3
340
55
 62
   256
 40
0.24
 90
        1
 40
0.75
 90
        1
300
%<\AcVar ViewType \f "%tc1">% %<\AcVar ViewDetailId>%\PSCALE %<\AcVar ViewScale \f "%sn">%
 71
     4
340
5D
 90
       25
 62
   256
340
5D
 90
       25
 62
   256
280
     0
  0
LAYOUT
  5
6F
102
{ACAD_REACTORS
330
62
102
}
330
62
100
AcDbPlotSettings
  1

  2

  4

  6

 40
0.0
 41
0.0
 42
0.0
 43
0.0
 44
0.0
 45
0.0
 46
0.0
 47
0.0
 48
0.0
 49
0.0
140
0.0
141
0.0
142
1.0
143
1.0
 70
   688
 72
     0
 73
     0
 74
     5
  7

 75
    16
147
1.0
 76
     0
 77
     2
 78
   300
148
0.0
149
0.0
100
AcDbLayout
  1
Layout1
 70
     1
 71
     1
 10
0.0
 20
0.0
 11
12.0
 21
9.0
 12
0.0
 22
0.0
 32
0.0
 14
0.0
 24
0.0
 34
0.0
 15
0.0
 25
0.0
 35
0.0
146
0.0
 13
0.0
 23
0.0
 33
0.0
 16
1.0
 26
0.0
 36
0.0
 17
0.0
 27
1.0
 37
0.0
 76
     0
330
6C
  0
LAYOUT
  5
77
102
{ACAD_REACTORS
330
62
102
}
330
62
100
AcDbPlotSettings
  1

  2

  4

  6

 40
0.0
 41
0.0
 42
0.0
 43
0.0
 44
0.0
 45
0.0
 46
0.0
 47
0.0
 48
0.0
 49
0.0
140
0.0
141
0.0
142
1.0
143
1.0
 70
   688
 72
     0
 73
     0
 74
     5
  7

 75
    16
147
1.0
 76
     0
 77
     2
 78
   300
148
0.0
149
0.0
100
AcDbLayout
  1
Layout2
 70
     1
 71
     2
 10
0.0
 20
0.0
 11
12.0
 21
9.0
 12
0.0
 22
0.0
 32
0.0
 14
0.0
 24
0.0
 34
0.0
 15
0.0
 25
0.0
 35
0.0
146
0.0
 13
0.0
 23
0.0
 33
0.0
 16
1.0
 26
0.0
 36
0.0
 17
0.0
 27
1.0
 37
0.0
 76
     0
330
74
  0
LAYOUT
  5
73
102
{ACAD_REACTORS
330
62
102
}
330
62
100
AcDbPlotSettings
  1

  2

  4

  6

 40
0.0
 41
0.0
 42
0.0
 43
0.0
 44
0.0
 45
0.0
 46
0.0
 47
0.0
 48
0.0
 49
0.0
140
0.0
141
0.0
142
1.0
143
1.0
 70
  1712
 72
     0
 73
     0
 74
     0
  7

 75
     0
147
1.0
 76
     0
 77
     2
 78
   300
148
0.0
149
0.0
100
AcDbLayout
  1
Model
 70
     1
 71
     0
 10
0.0
 20
0.0
 11
12.0
 21
9.0
 12
0.0
 22
0.0
 32
0.0
 14
0.0
 24
0.0
 34
0.0
 15
0.0
 25
0.0
 35
0.0
146
0.0
 13
0.0
 23
0.0
 33
0.0
 16
1.0
 26
0.0
 36
0.0
 17
0.0
 27
1.0
 37
0.0
 76
     0
330
70
  0
MATERIAL
  5
19
102
{ACAD_XDICTIONARY
360
1A
102
}
102
{ACAD_REACTORS
330
10
102
}
330
10
100
AcDbMaterial
  1
ByBlock
 72
     0
 43
0.0208333333333333
 43
0.0
 43
0.0
 43
0.0
 43
0.0
 43
0.0208333333333333
 43
0.0
 43
0.0
 43
0.0
 43
0.0
 43
1.0
 43
0.0
 43
0.0
 43
0.0
 43
0.0
 43
1.0
 77
     0
 47
0.0208333333333333
 47
0.0
 47
0.0
 47
0.0
 47
0.0
 47
0.0208333333333333
 47
0.0
 47
0.0
 47
0.0
 47
0.0
 47
1.0
 47
0.0
 47
0.0
 47
0.0
 47
0.0
 47
1.0
171
     0
 49
0.0208333333333333
 49
0.0
 49
0.0
 49
0.0
 49
0.0
 49
0.0208333333333333
 49
0.0
 49
0.0
 49
0.0
 49
0.0
 49
1.0
 49
0.0
 49
0.0
 49
0.0
 49
0.0
 49
1.0
175
     0
142
0.0208333333333333
142
0.0
142
0.0
142
0.0
142
0.0
142
0.0208333333333333
142
0.0
142
0.0
142
0.0
142
0.0
142
1.0
142
0.0
142
0.0
142
0.0
142
0.0
142
1.0
179
     0
144
0.0208333333333333
144
0.0
144
0.0
144
0.0
144
0.0
144
0.0208333333333333
144
0.0
144
0.0
144
0.0
144
0.0
144
1.0
144
0.0
144
0.0
144
0.0
144
0.0
144
1.0
147
0.0208333333333333
147
0.0
147
0.0
147
0.0
147
0.0
147
0.0208333333333333
147
0.0
147
0.0
147
0.0
147
0.0
147
1.0
147
0.0
147
0.0
147
0.0
147
0.0
147
1.0
  0
MATERIAL
  5
11
102
{ACAD_XDICTIONARY
360
12
102
}
102
{ACAD_REACTORS
330
10
102
}
330
10
100
AcDbMaterial
  1
ByLayer
 72
     0
 43
0.0208333333333333
 43
0.0
 43
0.0
 43
0.0
 43
0.0
 43
0.0208333333333333
 43
0.0
 43
0.0
 43
0.0
 43
0.0
 43
1.0
 43
0.0
 43
0.0
 43
0.0
 43
0.0
 43
1.0
 77
     0
 47
0.0208333333333333
 47
0.0
 47
0.0
 47
0.0
 47
0.0
 47
0.0208333333333333
 47
0.0
 47
0.0
 47
0.0
 47
0.0
 47
1.0
 47
0.0
 47
0.0
 47
0.0
 47
0.0
 47
1.0
171
     0
 49
0.0208333333333333
 49
0.0
 49
0.0
 49
0.0
 49
0.0
 49
0.0208333333333333
 49
0.0
 49
0.0
 49
0.0
 49
0.0
 49
1.0
 49
0.0
 49
0.0
 49
0.0
 49
0.0
 49
1.0
175
     0
142
0.0208333333333333
142
0.0
142
0.0
142
0.0
142
0.0
142
0.0208333333333333
142
0.0
142
0.0
142
0.0
142
0.0
142
1.0
142
0.0
142
0.0
142
0.0
142
0.0
142
1.0
179
     0
144
0.0208333333333333
144
0.0
144
0.0
144
0.0
144
0.0
144
0.0208333333333333
144
0.0
144
0.0
144
0.0
144
0.0
144
1.0
144
0.0
144
0.0
144
0.0
144
0.0
144
1.0
147
0.0208333333333333
147
0.0
147
0.0
147
0.0
147
0.0
147
0.0208333333333333
147
0.0
147
0.0
147
0.0
147
0.0
147
1.0
147
0.0
147
0.0
147
0.0
147
0.0
147
1.0
  0
MATERIAL
  5
21
102
{ACAD_XDICTIONARY
360
22
102
}
102
{ACAD_REACTORS
330
10
102
}
330
10
100
AcDbMaterial
  1
Global
 72
     0
 43
0.0208333333333333
 43
0.0
 43
0.0
 43
0.0
 43
0.0
 43
0.0208333333333333
 43
0.0
 43
0.0
 43
0.0
 43
0.0
 43
1.0
 43
0.0
 43
0.0
 43
0.0
 43
0.0
 43
1.0
 77
     0
 47
0.0208333333333333
 47
0.0
 47
0.0
 47
0.0
 47
0.0
 47
0.0208333333333333
 47
0.0
 47
0.0
 47
0.0
 47
0.0
 47
1.0
 47
0.0
 47
0.0
 47
0.0
 47
0.0
 47
1.0
171
     0
 49
0.0208333333333333
 49
0.0
 49
0.0
 49
0.0
 49
0.0
 49
0.0208333333333333
 49
0.0
 49
0.0
 49
0.0
 49
0.0
 49
1.0
 49
0.0
 49
0.0
 49
0.0
 49
0.0
 49
1.0
175
     0
142
0.0208333333333333
142
0.0
142
0.0
142
0.0
142
0.0
142
0.0208333333333333
142
0.0
142
0.0
142
0.0
142
0.0
142
1.0
142
0.0
142
0.0
142
0.0
142
0.0
142
1.0
179
     0
144
0.0208333333333333
144
0.0
144
0.0
144
0.0
144
0.0
144
0.0208333333333333
144
0.0
144
0.0
144
0.0
144
0.0
144
1.0
144
0.0
144
0.0
144
0.0
144
0.0
144
1.0
147
0.0208333333333333
147
0.0
147
0.0
147
0.0
147
0.0
147
0.0208333333333333
147
0.0
147
0.0
147
0.0
147
0.0
147
1.0
147
0.0
147
0.0
147
0.0
147
0.0
147
1.0
  0
MLEADERSTYLE
  5
67
102
{ACAD_REACTORS
330
66
102
}
330
66
100
AcDbMLeaderStyle
179
     2
170
     2
171
     1
172
     0
 90
        2
 40
0.0
 41
0.0
173
     1
 91
-1056964608
340
5B
 92
       -2
290
     1
 42
0.09
291
     1
 43
0.36
  3
Standard
 44
0.18
300

342
55
174
     1
178
     6
175
     1
176
     0
 93
-1056964608
 45
0.18
292
     0
297
     0
 46
0.18
 94
-1056964608
 47
1.0
 49
1.0
140
1.0
293
     1
141
0.0
294
     1
177
     0
142
1.0
295
     1
296
     0
143
0.125
271
     0
272
     9
273
     9
298
     1
  0
MLINESTYLE
  5
60
102
{ACAD_REACTORS
330
5F
102
}
330
5F
100
AcDbMlineStyle
  2
STANDARD
 70
     0
  3

 62
   256
 51
90.0
 52
90.0
 71
     2
 49
0.5
 62
   256
  6
BYLAYER
 49
-0.5
 62
   256
  6
BYLAYER
  0
ACDBPLACEHOLDER
  5
F
102
{ACAD_REACTORS
330
E
102
}
330
E
  0
SCALE
  5
43
102
{ACAD_REACTORS
330
42
102
}
330
42
100
AcDbScale
 70
     0
300
1:1
140
1.0
141
1.0
290
     1
  0
SCALE
  5
44
102
{ACAD_REACTORS
330
42
102
}
330
42
100
AcDbScale
 70
     0
300
1/128" = 1'-0"
140
0.0078125
141
12.0
290
     0
  0
SCALE
  5
45
102
{ACAD_REACTORS
330
42
102
}
330
42
100
AcDbScale
 70
     0
300
1/64" = 1'-0"
140
0.015625
141
12.0
290
     0
  0
SCALE
  5
46
102
{ACAD_REACTORS
330
42
102
}
330
42
100
AcDbScale
 70
     0
300
1/32" = 1'-0"
140
0.03125
141
12.0
290
     0
  0
SCALE
  5
47
102
{ACAD_REACTORS
330
42
102
}
330
42
100
AcDbScale
 70
     0
300
1/16" = 1'-0"
140
0.0625
141
12.0
290
     0
  0
SCALE
  5
48
102
{ACAD_REACTORS
330
42
102
}
330
42
100
AcDbScale
 70
     0
300
3/32" = 1'-0"
140
0.09375
141
12.0
290
     0
  0
SCALE
  5
49
102
{ACAD_REACTORS
330
42
102
}
330
42
100
AcDbScale
 70
     0
300
1/8" = 1'-0"
140
0.125
141
12.0
290
     0
  0
SCALE
  5
4A
102
{ACAD_REACTORS
330
42
102
}
330
42
100
AcDbScale
 70
     0
300
3/16" = 1'-0"
140
0.1875
141
12.0
290
     0
  0
SCALE
  5
4B
102
{ACAD_REACTORS
330
42
102
}
330
42
100
AcDbScale
 70
     0
300
1/4" = 1'-0"
140
0.25
141
12.0
290
     0
  0
SCALE
  5
4C
102
{ACAD_REACTORS
330
42
102
}
330
42
100
AcDbScale
 70
     0
300
3/8" = 1'-0"
140
0.375
141
12.0
290
     0
  0
SCALE
  5
4D
102
{ACAD_REACTORS
330
42
102
}
330
42
100
AcDbScale
 70
     0
300
1/2" = 1'-0"
140
0.5
141
12.0
290
     0
  0
SCALE
  5
4E
102
{ACAD_REACTORS
330
42
102
}
330
42
100
AcDbScale
 70
     0
300
3/4" = 1'-0"
140
0.75
141
12.0
290
     0
  0
SCALE
  5
4F
102
{ACAD_REACTORS
330
42
102
}
330
42
100
AcDbScale
 70
     0
300
1" = 1'-0"
140
1.0
141
12.0
290
     0
  0
SCALE
  5
50
102
{ACAD_REACTORS
330
42
102
}
330
42
100
AcDbScale
 70
     0
300
1-1/2" = 1'-0"
140
1.5
141
12.0
290
     0
  0
SCALE
  5
51
102
{ACAD_REACTORS
330
42
102
}
330
42
100
AcDbScale
 70
     0
300
3" = 1'-0"
140
3.0
141
12.0
290
     0
  0
SCALE
  5
52
102
{ACAD_REACTORS
330
42
102
}
330
42
100
AcDbScale
 70
     0
300
6" = 1'-0"
140
6.0
141
12.0
290
     0
  0
SCALE
  5
53
102
{ACAD_REACTORS
330
42
102
}
330
42
100
AcDbScale
 70
     0
300
1'-0" = 1'-0"
140
12.0
141
12.0
290
     0
  0
ACDBSECTIONVIEWSTYLE
  5
69
102
{ACAD_REACTORS
330
68
102
}
330
68
100
AcDbModelDocViewStyle
 70
     0
  3
Imperial24
290
     1
300
Imperial24
 90
        0
100
AcDbSectionViewStyle
 70
     0
 71
     0
 90
       78
 71
     1
340
55
 62
   256
 40
0.24
340
0
340
0
 62
   256
 40
0.24
300
I, O, Q, S, X, Z
 40
0.48
 90
        3
 40
0.18
 90
        1
 71
     2
340
5D
 90
       25
 62
   256
340
5D
 90
       50
 62
   256
 40
0.24
 40
0.0
 40
0.24
 71
     3
340
55
 62
   256
 40
0.24
 90
        1
 40
0.75
 90
        1
300
%<\AcVar ViewType \f "%tc1">% %<\AcVar ViewSectionStartId>%-%<\AcVar ViewSectionEndId>%\PSCALE %<\AcVar ViewScale \f "%sn">%
 71
     4
 62
   256
 62
   257
300
ANSI31
 40
1.0
 90
        0
290
     0
290
     0
 90
        6
 40
0.0
 40
1.570796326794896
 40
0.2617993877991494
 40
1.308996938995747
 40
-0.2617993877991494
 40
1.832595714594046
  0
TABLESTYLE
  5
65
102
{ACAD_XDICTIONARY
360
CF
102
}
102
{ACAD_REACTORS
330
64
102
}
330
64
100
AcDbTableStyle
280
     0
  3
Standard
 70
     0
 71
     0
 40
0.06
 41
0.06
280
     0
281
     0
  7
Standard
140
0.18
170
     2
 62
     0
 63
     7
283
     0
 90
      512
 91
        0
  1

274
    -2
284
     1
 64
     0
275
    -2
285
     1
 65
     0
276
    -2
286
     1
 66
     0
277
    -2
287
     1
 67
     0
278
    -2
288
     1
 68
     0
279
    -2
289
     1
 69
     0
  7
Standard
140
0.25
170
     5
 62
     0
 63
     7
283
     0
 90
      512
 91
        0
  1

274
    -2
284
     1
 64
     0
275
    -2
285
     1
 65
     0
276
    -2
286
     1
 66
     0
277
    -2
287
     1
 67
     0
278
    -2
288
     1
 68
     0
279
    -2
289
     1
 69
     0
  7
Standard
140
0.18
170
     5
 62
     0
 63
     7
283
     0
 90
      512
 91
        0
  1

274
    -2
284
     1
 64
     0
275
    -2
285
     1
 65
     0
276
    -2
286
     1
 66
     0
277
    -2
287
     1
 67
     0
278
    -2
288
     1
 68
     0
279
    -2
289
     1
 69
     0
  0
VISUALSTYLE
  5
2F
102
{ACAD_REACTORS
330
29
102
}
330
29
100
AcDbVisualStyle
  2
2dWireframe
 70
     4
177
     3
291
     0
 70
    58
 90
        0
176
     1
 90
        2
176
     1
 90
        0
176
     1
 90
        0
176
     1
 40
0.6
176
     1
 40
30.0
176
     1
 62
     7
420
 16777215
176
     1
 90
        1
176
     1
 90
        4
176
     1
 62
     7
176
     1
 62
   257
176
     1
 90
        1
176
     1
 90
        1
176
     1
 40
1.0
176
     1
 90
        0
176
     1
 62
   257
176
     1
 40
1.0
176
     1
 90
        1
176
     1
 90
        6
176
     1
 90
        2
176
     1
 62
     7
176
     1
 90
        5
176
     1
 90
        0
176
     1
 90
        0
176
     1
290
     0
176
     1
 90
        1
176
     1
 40
0.0
176
     1
 90
        0
176
     1
290
     1
176
     1
290
     1
176
     1
290
     0
176
     1
290
     0
176
     1
290
     0
176
     1
290
     0
176
     1
290
     0
176
     1
290
     0
176
     1
290
     0
176
     1
 90
       50
176
     1
 40
0.0
176
     1
 40
1.0
176
     1
 90
        0
176
     1
 62
    18
420
        0
176
     1
 90
       50
176
     1
 90
        3
176
     1
 62
     5
420
      255
176
     1
290
     0
176
     1
 90
       50
176
     1
 90
       50
176
     1
 90
       50
176
     1
290
     0
176
     1
 90
       50
176
     1
 62
   256
176
     0
 40
1.0
176
     0
 90
        2
176
     1
  1
strokes_ogs.tif
176
     1
290
     0
176
     1
 40
1.0
176
     1
 40
1.0
176
     1
  0
VISUALSTYLE
  5
2E
102
{ACAD_REACTORS
330
29
102
}
330
29
100
AcDbVisualStyle
  2
Basic
 70
     7
177
     3
291
     1
 70
    58
 90
        1
176
     1
 90
        0
176
     1
 90
        1
176
     1
 90
        0
176
     1
 40
0.6
176
     1
 40
30.0
176
     1
 62
     7
420
 16777215
176
     1
 90
        0
176
     1
 90
        4
176
     1
 62
     7
176
     1
 62
   257
176
     1
 90
        1
176
     1
 90
        1
176
     1
 40
1.0
176
     1
 90
        8
176
     1
 62
     7
176
     1
 40
1.0
176
     1
 90
        1
176
     1
 90
        6
176
     1
 90
        2
176
     1
 62
     7
176
     1
 90
        5
176
     1
 90
        0
176
     1
 90
        0
176
     1
290
     0
176
     1
 90
        1
176
     1
 40
0.0
176
     1
 90
        0
176
     1
290
     0
176
     1
290
     1
176
     1
290
     1
176
     1
290
     0
176
     1
290
     0
176
     1
290
     0
176
     1
290
     0
176
     1
290
     0
176
     1
290
     0
176
     1
 90
       50
176
     1
 40
0.0
176
     1
 40
1.0
176
     1
 90
        0
176
     1
 62
    18
420
        0
176
     1
 90
       50
176
     1
 90
        3
176
     1
 62
     5
420
      255
176
     1
290
     0
176
     1
 90
       50
176
     1
 90
       50
176
     1
 90
       50
176
     1
290
     0
176
     1
 90
       50
176
     1
 62
   256
176
     0
 40
1.0
176
     0
 90
        2
176
     1
  1
strokes_ogs.tif
176
     1
290
     0
176
     1
 40
1.0
176
     1
 40
1.0
176
     1
  0
VISUALSTYLE
  5
35
102
{ACAD_REACTORS
330
29
102
}
330
29
100
AcDbVisualStyle
  2
Brighten
 70
    12
177
     3
291
     1
 70
    58
 90
        2
176
     1
 90
        2
176
     1
 90
        0
176
     1
 90
        0
176
     1
 40
0.6
176
     1
 40
30.0
176
     1
 62
     7
420
 16777215
176
     1
 90
        1
176
     1
 90
        4
176
     1
 62
     7
176
     1
 62
   257
176
     1
 90
        1
176
     1
 90
        1
176
     1
 40
1.0
176
     1
 90
        8
176
     1
 62
     7
176
     1
 40
1.0
176
     1
 90
        1
176
     1
 90
        6
176
     1
 90
        2
176
     1
 62
     7
176
     1
 90
        5
176
     1
 90
        0
176
     1
 90
        0
176
     1
290
     0
176
     1
 90
        1
176
     1
 40
50.0
176
     1
 90
        0
176
     1
290
     0
176
     1
290
     1
176
     1
290
     1
176
     1
290
     0
176
     1
290
     0
176
     1
290
     0
176
     1
290
     0
176
     1
290
     0
176
     1
290
     0
176
     1
 90
       50
176
     1
 40
0.0
176
     1
 40
1.0
176
     1
 90
        0
176
     1
 62
    18
420
        0
176
     1
 90
       50
176
     1
 90
        3
176
     1
 62
     5
420
      255
176
     1
290
     0
176
     1
 90
       50
176
     1
 90
       50
176
     1
 90
       50
176
     1
290
     0
176
     1
 90
       50
176
     1
 62
   256
176
     0
 40
1.0
176
     0
 90
        2
176
     1
  1
strokes_ogs.tif
176
     1
290
     0
176
     1
 40
1.0
176
     1
 40
1.0
176
     1
  0
VISUALSTYLE
  5
39
102
{ACAD_REACTORS
330
29
102
}
330
29
100
AcDbVisualStyle
  2
ColorChange
 70
    16
177
     3
291
     1
 70
    58
 90
        2
176
     1
 90
        2
176
     1
 90
        3
176
     1
 90
        0
176
     1
 40
0.6
176
     1
 40
30.0
176
     1
 62
     8
420
  8421504
176
     1
 90
        1
176
     1
 90
        4
176
     1
 62
     7
176
     1
 62
   257
176
     1
 90
        1
176
     1
 90
        1
176
     1
 40
1.0
176
     1
 90
        8
176
     1
 62
     8
420
  8421504
176
     1
 40
1.0
176
     1
 90
        1
176
     1
 90
        6
176
     1
 90
        2
176
     1
 62
     7
176
     1
 90
        5
176
     1
 90
        0
176
     1
 90
        0
176
     1
290
     0
176
     1
 90
        1
176
     1
 40
0.0
176
     1
 90
        0
176
     1
290
     0
176
     1
290
     1
176
     1
290
     1
176
     1
290
     0
176
     1
290
     0
176
     1
290
     0
176
     1
290
     0
176
     1
290
     0
176
     1
290
     0
176
     1
 90
       50
176
     1
 40
0.0
176
     1
 40
1.0
176
     1
 90
        0
176
     1
 62
    18
420
        0
176
     1
 90
       50
176
     1
 90
        3
176
     1
 62
     5
420
      255
176
     1
290
     0
176
     1
 90
       50
176
     1
 90
       50
176
     1
 90
       50
176
     1
290
     0
176
     1
 90
       50
176
     1
 62
   256
176
     0
 40
1.0
176
     0
 90
        2
176
     1
  1
strokes_ogs.tif
176
     1
290
     0
176
     1
 40
1.0
176
     1
 40
1.0
176
     1
  0
VISUALSTYLE
  5
32
102
{ACAD_REACTORS
330
29
102
}
330
29
100
AcDbVisualStyle
  2
Conceptual
 70
     9
177
     3
291
     0
 70
    58
 90
        3
176
     1
 90
        2
176
     1
 90
        0
176
     1
 90
        0
176
     1
 40
0.6
176
     1
 40
30.0
176
     1
 62
     7
420
 16777215
176
     1
 90
        2
176
     1
 90
        2
176
     1
 62
     7
176
     1
 62
   257
176
     1
 90
        1
176
     1
 90
        1
176
     1
 40
179.0
176
     1
 90
        8
176
     1
 62
     7
176
     1
 40
1.0
176
     1
 90
        1
176
     1
 90
        6
176
     1
 90
        2
176
     1
 62
     7
176
     1
 90
        3
176
     1
 90
        0
176
     1
 90
        0
176
     1
290
     0
176
     1
 90
        1
176
     1
 40
0.0
176
     1
 90
        0
176
     1
290
     0
176
     1
290
     1
176
     1
290
     1
176
     1
290
     0
176
     1
290
     0
176
     1
290
     0
176
     1
290
     0
176
     1
290
     0
176
     1
290
     0
176
     1
 90
       50
176
     1
 40
0.0
176
     1
 40
1.0
176
     1
 90
        0
176
     1
 62
    18
420
        0
176
     1
 90
       50
176
     1
 90
        3
176
     1
 62
     5
420
      255
176
     1
290
     0
176
     1
 90
       50
176
     1
 90
       50
176
     1
 90
       50
176
     1
290
     0
176
     1
 90
       50
176
     1
 62
   256
176
     0
 40
1.0
176
     0
 90
        2
176
     1
  1
strokes_ogs.tif
176
     1
290
     0
176
     1
 40
1.0
176
     1
 40
1.0
176
     1
  0
VISUALSTYLE
  5
34
102
{ACAD_REACTORS
330
29
102
}
330
29
100
AcDbVisualStyle
  2
Dim
 70
    11
177
     3
291
     1
 70
    58
 90
        2
176
     1
 90
        2
176
     1
 90
        0
176
     1
 90
        0
176
     1
 40
0.6
176
     1
 40
30.0
176
     1
 62
     7
420
 16777215
176
     1
 90
        1
176
     1
 90
        4
176
     1
 62
     7
176
     1
 62
   257
176
     1
 90
        1
176
     1
 90
        1
176
     1
 40
1.0
176
     1
 90
        8
176
     1
 62
     7
176
     1
 40
1.0
176
     1
 90
        1
176
     1
 90
        6
176
     1
 90
        2
176
     1
 62
     7
176
     1
 90
        5
176
     1
 90
        0
176
     1
 90
        0
176
     1
290
     0
176
     1
 90
        1
176
     1
 40
-50.0
176
     1
 90
        0
176
     1
290
     0
176
     1
290
     1
176
     1
290
     1
176
     1
290
     0
176
     1
290
     0
176
     1
290
     0
176
     1
290
     0
176
     1
290
     0
176
     1
290
     0
176
     1
 90
       50
176
     1
 40
0.0
176
     1
 40
1.0
176
     1
 90
        0
176
     1
 62
    18
420
        0
176
     1
 90
       50
176
     1
 90
        3
176
     1
 62
     5
420
      255
176
     1
290
     0
176
     1
 90
       50
176
     1
 90
       50
176
     1
 90
       50
176
     1
290
     0
176
     1
 90
       50
176
     1
 62
   256
176
     0
 40
1.0
176
     0
 90
        2
176
     1
  1
strokes_ogs.tif
176
     1
290
     0
176
     1
 40
1.0
176
     1
 40
1.0
176
     1
  0
VISUALSTYLE
  5
41
102
{ACAD_REACTORS
330
29
102
}
330
29
100
AcDbVisualStyle
  2
EdgeColorOff
 70
    22
177
     3
291
     1
 70
    58
 90
        2
176
     0
 90
        2
176
     0
 90
        0
176
     0
 90
        0
176
     0
 40
0.6
176
     0
 40
30.0
176
     0
 62
     7
420
 16777215
176
     0
 90
        1
176
     0
 90
        4
176
     0
 62
     7
176
     0
 62
   257
176
     0
 90
        1
176
     0
 90
        1
176
     0
 40
1.0
176
     0
 90
        8
176
     2
 62
     7
176
     0
 40
1.0
176
     0
 90
        1
176
     0
 90
        6
176
     0
 90
        2
176
     0
 62
     7
176
     0
 90
        5
176
     0
 90
        0
176
     0
 90
        0
176
     0
290
     0
176
     0
 90
        1
176
     0
 40
0.0
176
     0
 90
        0
176
     0
290
     0
176
     0
290
     1
176
     0
290
     1
176
     0
290
     0
176
     0
290
     0
176
     0
290
     0
176
     0
290
     0
176
     0
290
     0
176
     0
290
     0
176
     0
 90
       50
176
     0
 40
0.0
176
     0
 40
1.0
176
     0
 90
        0
176
     0
 62
    18
420
        0
176
     0
 90
       50
176
     0
 90
        3
176
     0
 62
     5
420
      255
176
     0
290
     0
176
     0
 90
       50
176
     0
 90
       50
176
     0
 90
       50
176
     0
290
     0
176
     0
 90
       50
176
     0
 62
   256
176
     0
 40
1.0
176
     0
 90
        2
176
     0
  1
strokes_ogs.tif
176
     0
290
     0
176
     0
 40
1.0
176
     0
 40
1.0
176
     0
  0
VISUALSTYLE
  5
38
102
{ACAD_REACTORS
330
29
102
}
330
29
100
AcDbVisualStyle
  2
Facepattern
 70
    15
177
     3
291
     1
 70
    58
 90
        2
176
     1
 90
        2
176
     1
 90
        0
176
     1
 90
        0
176
     1
 40
0.6
176
     1
 40
30.0
176
     1
 62
     7
420
 16777215
176
     1
 90
        1
176
     1
 90
        4
176
     1
 62
     7
176
     1
 62
   257
176
     1
 90
        1
176
     1
 90
        1
176
     1
 40
1.0
176
     1
 90
        8
176
     1
 62
     7
176
     1
 40
1.0
176
     1
 90
        1
176
     1
 90
        6
176
     1
 90
        2
176
     1
 62
     7
176
     1
 90
        5
176
     1
 90
        0
176
     1
 90
        0
176
     1
290
     0
176
     1
 90
        1
176
     1
 40
0.0
176
     1
 90
        0
176
     1
290
     0
176
     1
290
     1
176
     1
290
     1
176
     1
290
     0
176
     1
290
     0
176
     1
290
     0
176
     1
290
     0
176
     1
290
     0
176
     1
290
     0
176
     1
 90
       50
176
     1
 40
0.0
176
     1
 40
1.0
176
     1
 90
        0
176
     1
 62
    18
420
        0
176
     1
 90
       50
176
     1
 90
        3
176
     1
 62
     5
420
      255
176
     1
290
     0
176
     1
 90
       50
176
     1
 90
       50
176
     1
 90
       50
176
     1
290
     0
176
     1
 90
       50
176
     1
 62
   256
176
     0
 40
1.0
176
     0
 90
        2
176
     1
  1
strokes_ogs.tif
176
     1
290
     0
176
     1
 40
1.0
176
     1
 40
1.0
176
     1
  0
VISUALSTYLE
  5
2A
102
{ACAD_REACTORS
330
29
102
}
330
29
100
AcDbVisualStyle
  2
Flat
 70
     0
177
     3
291
     1
 70
    58
 90
        2
176
     1
 90
        1
176
     1
 90
        1
176
     1
 90
        2
176
     1
 40
0.6
176
     1
 40
30.0
176
     1
 62
     7
420
 16777215
176
     1
 90
        0
176
     1
 90
        0
176
     1
 62
     7
176
     1
 62
   257
176
     1
 90
        1
176
     1
 90
        1
176
     1
 40
1.0
176
     1
 90
        8
176
     1
 62
     7
176
     1
 40
1.0
176
     1
 90
        1
176
     1
 90
        6
176
     1
 90
        2
176
     1
 62
     7
176
     1
 90
        5
176
     1
 90
        0
176
     1
 90
        0
176
     1
290
     0
176
     1
 90
       13
176
     1
 40
0.0
176
     1
 90
        0
176
     1
290
     0
176
     1
290
     1
176
     1
290
     1
176
     1
290
     0
176
     1
290
     0
176
     1
290
     0
176
     1
290
     0
176
     1
290
     0
176
     1
290
     0
176
     1
 90
       50
176
     1
 40
0.0
176
     1
 40
1.0
176
     1
 90
        0
176
     1
 62
    18
420
        0
176
     1
 90
       50
176
     1
 90
        3
176
     1
 62
     5
420
      255
176
     1
290
     0
176
     1
 90
       50
176
     1
 90
       50
176
     1
 90
       50
176
     1
290
     0
176
     1
 90
       50
176
     1
 62
   256
176
     0
 40
1.0
176
     0
 90
        2
176
     1
  1
strokes_ogs.tif
176
     1
290
     0
176
     1
 40
1.0
176
     1
 40
1.0
176
     1
  0
VISUALSTYLE
  5
2B
102
{ACAD_REACTORS
330
29
102
}
330
29
100
AcDbVisualStyle
  2
FlatWithEdges
 70
     1
177
     3
291
     1
 70
    58
 90
        2
176
     1
 90
        1
176
     1
 90
        1
176
     1
 90
        2
176
     1
 40
0.6
176
     1
 40
30.0
176
     1
 62
     7
420
 16777215
176
     1
 90
        1
176
     1
 90
        0
176
     1
 62
     7
176
     1
 62
   257
176
     1
 90
        1
176
     1
 90
        1
176
     1
 40
1.0
176
     1
 90
        0
176
     1
 62
   257
176
     1
 40
1.0
176
     1
 90
        1
176
     1
 90
        6
176
     1
 90
        2
176
     1
 62
     7
176
     1
 90
        5
176
     1
 90
        0
176
     1
 90
        0
176
     1
290
     0
176
     1
 90
       13
176
     1
 40
0.0
176
     1
 90
        0
176
     1
290
     0
176
     1
290
     1
176
     1
290
     1
176
     1
290
     0
176
     1
290
     0
176
     1
290
     0
176
     1
290
     0
176
     1
290
     0
176
     1
290
     0
176
     1
 90
       50
176
     1
 40
0.0
176
     1
 40
1.0
176
     1
 90
        0
176
     1
 62
    18
420
        0
176
     1
 90
       50
176
     1
 90
        3
176
     1
 62
     5
420
      255
176
     1
290
     0
176
     1
 90
       50
176
     1
 90
       50
176
     1
 90
       50
176
     1
290
     0
176
     1
 90
       50
176
     1
 62
   256
176
     0
 40
1.0
176
     0
 90
        2
176
     1
  1
strokes_ogs.tif
176
     1
290
     0
176
     1
 40
1.0
176
     1
 40
1.0
176
     1
  0
VISUALSTYLE
  5
2C
102
{ACAD_REACTORS
330
29
102
}
330
29
100
AcDbVisualStyle
  2
Gouraud
 70
     2
177
     3
291
     1
 70
    58
 90
        2
176
     1
 90
        2
176
     1
 90
        1
176
     1
 90
        2
176
     1
 40
0.6
176
     1
 40
30.0
176
     1
 62
     7
420
 16777215
176
     1
 90
        0
176
     1
 90
        0
176
     1
 62
     7
176
     1
 62
   257
176
     1
 90
        1
176
     1
 90
        1
176
     1
 40
1.0
176
     1
 90
        0
176
     1
 62
     7
176
     1
 40
1.0
176
     1
 90
        1
176
     1
 90
        6
176
     1
 90
        2
176
     1
 62
     7
176
     1
 90
        5
176
     1
 90
        0
176
     1
 90
        0
176
     1
290
     0
176
     1
 90
       13
176
     1
 40
0.0
176
     1
 90
        0
176
     1
290
     0
176
     1
290
     1
176
     1
290
     1
176
     1
290
     0
176
     1
290
     0
176
     1
290
     0
176
     1
290
     0
176
     1
290
     0
176
     1
290
     0
176
     1
 90
       50
176
     1
 40
0.0
176
     1
 40
1.0
176
     1
 90
        0
176
     1
 62
    18
420
        0
176
     1
 90
       50
176
     1
 90
        3
176
     1
 62
     5
420
      255
176
     1
290
     0
176
     1
 90
       50
176
     1
 90
       50
176
     1
 90
       50
176
     1
290
     0
176
     1
 90
       50
176
     1
 62
   256
176
     0
 40
1.0
176
     0
 90
        2
176
     1
  1
strokes_ogs.tif
176
     1
290
     0
176
     1
 40
1.0
176
     1
 40
1.0
176
     1
  0
VISUALSTYLE
  5
2D
102
{ACAD_REACTORS
330
29
102
}
330
29
100
AcDbVisualStyle
  2
GouraudWithEdges
 70
     3
177
     3
291
     1
 70
    58
 90
        2
176
     1
 90
        2
176
     1
 90
        1
176
     1
 90
        2
176
     1
 40
0.6
176
     1
 40
30.0
176
     1
 62
     7
420
 16777215
176
     1
 90
        1
176
     1
 90
        0
176
     1
 62
     7
176
     1
 62
   257
176
     1
 90
        1
176
     1
 90
        1
176
     1
 40
1.0
176
     1
 90
        0
176
     1
 62
   257
176
     1
 40
1.0
176
     1
 90
        1
176
     1
 90
        6
176
     1
 90
        2
176
     1
 62
     7
176
     1
 90
        5
176
     1
 90
        0
176
     1
 90
        0
176
     1
290
     0
176
     1
 90
       13
176
     1
 40
0.0
176
     1
 90
        0
176
     1
290
     0
176
     1
290
     1
176
     1
290
     1
176
     1
290
     0
176
     1
290
     0
176
     1
290
     0
176
     1
290
     0
176
     1
290
     0
176
     1
290
     0
176
     1
 90
       50
176
     1
 40
0.0
176
     1
 40
1.0
176
     1
 90
        0
176
     1
 62
    18
420
        0
176
     1
 90
       50
176
     1
 90
        3
176
     1
 62
     5
420
      255
176
     1
290
     0
176
     1
 90
       50
176
     1
 90
       50
176
     1
 90
       50
176
     1
290
     0
176
     1
 90
       50
176
     1
 62
   256
176
     0
 40
1.0
176
     0
 90
        2
176
     1
  1
strokes_ogs.tif
176
     1
290
     0
176
     1
 40
1.0
176
     1
 40
1.0
176
     1
  0
VISUALSTYLE
  5
31
102
{ACAD_REACTORS
330
29
102
}
330
29
100
AcDbVisualStyle
  2
Hidden
 70
     6
177
     3
291
     0
 70
    58
 90
        1
176
     1
 90
        2
176
     1
 90
        2
176
     1
 90
        0
176
     1
 40
0.6
176
     1
 40
30.0
176
     1
 62
     7
420
 16777215
176
     1
 90
        2
176
     1
 90
        2
176
     1
 62
     7
176
     1
 62
   257
176
     1
 90
        2
176
     1
 90
        1
176
     1
 40
40.0
176
     1
 90
        0
176
     1
 62
   257
176
     1
 40
1.0
176
     1
 90
        1
176
     1
 90
        6
176
     1
 90
        2
176
     1
 62
     7
176
     1
 90
        3
176
     1
 90
        0
176
     1
 90
        0
176
     1
290
     0
176
     1
 90
        1
176
     1
 40
0.0
176
     1
 90
        0
176
     1
290
     0
176
     1
290
     1
176
     1
290
     1
176
     1
290
     0
176
     1
290
     0
176
     1
290
     0
176
     1
290
     0
176
     1
290
     0
176
     1
290
     0
176
     1
 90
       50
176
     1
 40
0.0
176
     1
 40
1.0
176
     1
 90
        0
176
     1
 62
    18
420
        0
176
     1
 90
       50
176
     1
 90
        3
176
     1
 62
     5
420
      255
176
     1
290
     0
176
     1
 90
       50
176
     1
 90
       50
176
     1
 90
       50
176
     1
290
     0
176
     1
 90
       50
176
     1
 62
   256
176
     0
 40
1.0
176
     0
 90
        2
176
     1
  1
strokes_ogs.tif
176
     1
290
     0
176
     1
 40
1.0
176
     1
 40
1.0
176
     1
  0
VISUALSTYLE
  5
3F
102
{ACAD_REACTORS
330
29
102
}
330
29
100
AcDbVisualStyle
  2
JitterOff
 70
    20
177
     3
291
     1
 70
    58
 90
        2
176
     0
 90
        2
176
     0
 90
        0
176
     0
 90
        0
176
     0
 40
0.6
176
     0
 40
30.0
176
     0
 62
     7
420
 16777215
176
     0
 90
        1
176
     0
 90
        4
176
     0
 62
     7
176
     0
 62
   257
176
     0
 90
        1
176
     0
 90
        1
176
     0
 40
1.0
176
     0
 90
       10
176
     2
 62
     7
176
     0
 40
1.0
176
     0
 90
        1
176
     0
 90
        6
176
     0
 90
        2
176
     0
 62
     7
176
     0
 90
        5
176
     0
 90
        0
176
     0
 90
        0
176
     0
290
     0
176
     0
 90
        1
176
     0
 40
0.0
176
     0
 90
        0
176
     0
290
     0
176
     0
290
     1
176
     0
290
     1
176
     0
290
     0
176
     0
290
     0
176
     0
290
     0
176
     0
290
     0
176
     0
290
     0
176
     0
290
     0
176
     0
 90
       50
176
     0
 40
0.0
176
     0
 40
1.0
176
     0
 90
        0
176
     0
 62
    18
420
        0
176
     0
 90
       50
176
     0
 90
        3
176
     0
 62
     5
420
      255
176
     0
290
     0
176
     0
 90
       50
176
     0
 90
       50
176
     0
 90
       50
176
     0
290
     0
176
     0
 90
       50
176
     0
 62
   256
176
     0
 40
1.0
176
     0
 90
        2
176
     0
  1
strokes_ogs.tif
176
     0
290
     0
176
     0
 40
1.0
176
     0
 40
1.0
176
     0
  0
VISUALSTYLE
  5
37
102
{ACAD_REACTORS
330
29
102
}
330
29
100
AcDbVisualStyle
  2
Linepattern
 70
    14
177
     3
291
     1
 70
    58
 90
        2
176
     1
 90
        2
176
     1
 90
        0
176
     1
 90
        0
176
     1
 40
0.6
176
     1
 40
30.0
176
     1
 62
     7
420
 16777215
176
     1
 90
        1
176
     1
 90
        4
176
     1
 62
     7
176
     1
 62
   257
176
     1
 90
        7
176
     1
 90
        7
176
     1
 40
1.0
176
     1
 90
        8
176
     1
 62
     7
176
     1
 40
1.0
176
     1
 90
        1
176
     1
 90
        6
176
     1
 90
        2
176
     1
 62
     7
176
     1
 90
        5
176
     1
 90
        0
176
     1
 90
        0
176
     1
290
     0
176
     1
 90
        1
176
     1
 40
0.0
176
     1
 90
        0
176
     1
290
     0
176
     1
290
     1
176
     1
290
     1
176
     1
290
     0
176
     1
290
     0
176
     1
290
     0
176
     1
290
     0
176
     1
290
     0
176
     1
290
     0
176
     1
 90
       50
176
     1
 40
0.0
176
     1
 40
1.0
176
     1
 90
        0
176
     1
 62
    18
420
        0
176
     1
 90
       50
176
     1
 90
        3
176
     1
 62
     5
420
      255
176
     1
290
     0
176
     1
 90
       50
176
     1
 90
       50
176
     1
 90
       50
176
     1
290
     0
176
     1
 90
       50
176
     1
 62
   256
176
     0
 40
1.0
176
     0
 90
        2
176
     1
  1
strokes_ogs.tif
176
     1
290
     0
176
     1
 40
1.0
176
     1
 40
1.0
176
     1
  0
VISUALSTYLE
  5
40
102
{ACAD_REACTORS
330
29
102
}
330
29
100
AcDbVisualStyle
  2
OverhangOff
 70
    21
177
     3
291
     1
 70
    58
 90
        2
176
     0
 90
        2
176
     0
 90
        0
176
     0
 90
        0
176
     0
 40
0.6
176
     0
 40
30.0
176
     0
 62
     7
420
 16777215
176
     0
 90
        1
176
     0
 90
        4
176
     0
 62
     7
176
     0
 62
   257
176
     0
 90
        1
176
     0
 90
        1
176
     0
 40
1.0
176
     0
 90
        9
176
     2
 62
     7
176
     0
 40
1.0
176
     0
 90
        1
176
     0
 90
        6
176
     0
 90
        2
176
     0
 62
     7
176
     0
 90
        5
176
     0
 90
        0
176
     0
 90
        0
176
     0
290
     0
176
     0
 90
        1
176
     0
 40
0.0
176
     0
 90
        0
176
     0
290
     0
176
     0
290
     1
176
     0
290
     1
176
     0
290
     0
176
     0
290
     0
176
     0
290
     0
176
     0
290
     0
176
     0
290
     0
176
     0
290
     0
176
     0
 90
       50
176
     0
 40
0.0
176
     0
 40
1.0
176
     0
 90
        0
176
     0
 62
    18
420
        0
176
     0
 90
       50
176
     0
 90
        3
176
     0
 62
     5
420
      255
176
     0
290
     0
176
     0
 90
       50
176
     0
 90
       50
176
     0
 90
       50
176
     0
290
     0
176
     0
 90
       50
176
     0
 62
   256
176
     0
 40
1.0
176
     0
 90
        2
176
     0
  1
strokes_ogs.tif
176
     0
290
     0
176
     0
 40
1.0
176
     0
 40
1.0
176
     0
  0
VISUALSTYLE
  5
33
102
{ACAD_REACTORS
330
29
102
}
330
29
100
AcDbVisualStyle
  2
Realistic
 70
     8
177
     3
291
     0
 70
    58
 90
        2
176
     1
 90
        3
176
     1
 90
        0
176
     1
 90
        2
176
     1
 40
0.6
176
     1
 40
30.0
176
     1
 62
     7
420
 16777215
176
     1
 90
        0
176
     1
 90
        0
176
     1
 62
     7
176
     1
 62
   257
176
     1
 90
        1
176
     1
 90
        1
176
     1
 40
1.0
176
     1
 90
        8
176
     1
 62
   257
176
     1
 40
1.0
176
     1
 90
        1
176
     1
 90
        6
176
     1
 90
        2
176
     1
 62
     7
176
     1
 90
        3
176
     1
 90
        0
176
     1
 90
        0
176
     1
290
     0
176
     1
 90
       13
176
     1
 40
0.0
176
     1
 90
        0
176
     1
290
     0
176
     1
290
     1
176
     1
290
     1
176
     1
290
     0
176
     1
290
     0
176
     1
290
     0
176
     1
290
     0
176
     1
290
     0
176
     1
290
     0
176
     1
 90
       50
176
     1
 40
0.0
176
     1
 40
1.0
176
     1
 90
        0
176
     1
 62
    18
420
        0
176
     1
 90
       50
176
     1
 90
        3
176
     1
 62
     5
420
      255
176
     1
290
     0
176
     1
 90
       50
176
     1
 90
       50
176
     1
 90
       50
176
     1
290
     0
176
     1
 90
       50
176
     1
 62
   256
176
     0
 40
1.0
176
     0
 90
        2
176
     1
  1
strokes_ogs.tif
176
     1
290
     0
176
     1
 40
1.0
176
     1
 40
1.0
176
     1
  0
VISUALSTYLE
  5
3E
102
{ACAD_REACTORS
330
29
102
}
330
29
100
AcDbVisualStyle
  2
Shaded
 70
    27
177
     3
291
     0
 70
    58
 90
        2
176
     1
 90
        2
176
     1
 90
        1
176
     1
 90
        2
176
     1
 40
0.6
176
     1
 40
30.0
176
     1
 62
     7
420
 16777215
176
     1
 90
        0
176
     1
 90
        4
176
     1
 62
     7
176
     1
 62
   257
176
     1
 90
        1
176
     1
 90
        1
176
     1
 40
1.0
176
     1
 90
        8
176
     1
 62
   257
176
     1
 40
1.0
176
     1
 90
        1
176
     1
 90
        6
176
     1
 90
        2
176
     1
 62
     8
420
  7895160
176
     1
 90
        3
176
     1
 90
        0
176
     1
 90
        0
176
     1
290
     0
176
     1
 90
        5
176
     1
 40
0.0
176
     1
 90
        0
176
     1
290
     0
176
     1
290
     1
176
     1
290
     1
176
     1
290
     0
176
     1
290
     0
176
     1
290
     0
176
     1
290
     0
176
     1
290
     0
176
     1
290
     0
176
     1
 90
       50
176
     1
 40
0.0
176
     1
 40
1.0
176
     1
 90
        0
176
     1
 62
    18
420
        0
176
     1
 90
       50
176
     1
 90
        3
176
     1
 62
     5
420
      255
176
     1
290
     0
176
     1
 90
       50
176
     1
 90
       50
176
     1
 90
       50
176
     1
290
     0
176
     1
 90
       50
176
     1
 62
   256
176
     0
 40
1.0
176
     0
 90
        2
176
     1
  1
strokes_ogs.tif
176
     1
290
     0
176
     1
 40
1.0
176
     1
 40
1.0
176
     1
  0
VISUALSTYLE
  5
3D
102
{ACAD_REACTORS
330
29
102
}
330
29
100
AcDbVisualStyle
  2
Shaded with edges
 70
    26
177
     3
291
     0
 70
    58
 90
        2
176
     1
 90
        2
176
     1
 90
        1
176
     1
 90
        2
176
     1
 40
0.6
176
     1
 40
30.0
176
     1
 62
     7
420
 16777215
176
     1
 90
        1
176
     1
 90
        2
176
     1
 62
     7
176
     1
 62
   257
176
     1
 90
        2
176
     1
 90
        1
176
     1
 40
1.0
176
     1
 90
        8
176
     1
 62
   257
176
     1
 40
1.0
176
     1
 90
        1
176
     1
 90
        6
176
     1
 90
        2
176
     1
 62
     7
176
     1
 90
        3
176
     1
 90
        0
176
     1
 90
        0
176
     1
290
     0
176
     1
 90
        5
176
     1
 40
0.0
176
     1
 90
        0
176
     1
290
     0
176
     1
290
     1
176
     1
290
     1
176
     1
290
     0
176
     1
290
     0
176
     1
290
     0
176
     1
290
     0
176
     1
290
     0
176
     1
290
     0
176
     1
 90
       50
176
     1
 40
0.0
176
     1
 40
1.0
176
     1
 90
        0
176
     1
 62
    18
420
        0
176
     1
 90
       50
176
     1
 90
        3
176
     1
 62
     5
420
      255
176
     1
290
     0
176
     1
 90
       50
176
     1
 90
       50
176
     1
 90
       50
176
     1
290
     0
176
     1
 90
       50
176
     1
 62
   256
176
     0
 40
1.0
176
     0
 90
        2
176
     1
  1
strokes_ogs.tif
176
     1
290
     0
176
     1
 40
1.0
176
     1
 40
1.0
176
     1
  0
VISUALSTYLE
  5
3A
102
{ACAD_REACTORS
330
29
102
}
330
29
100
AcDbVisualStyle
  2
Shades of Gray
 70
    23
177
     3
291
     0
 70
    58
 90
        2
176
     1
 90
        2
176
     1
 90
        3
176
     1
 90
        0
176
     1
 40
0.6
176
     1
 40
30.0
176
     1
 62
     7
420
 16777215
176
     1
 90
        2
176
     1
 90
        2
176
     1
 62
     7
176
     1
 62
     7
176
     1
 90
        1
176
     1
 90
        1
176
     1
 40
40.0
176
     1
 90
        8
176
     1
 62
     7
176
     1
 40
1.0
176
     1
 90
        1
176
     1
 90
        6
176
     1
 90
        2
176
     1
 62
     7
176
     1
 90
        3
176
     1
 90
        0
176
     1
 90
        0
176
     1
290
     0
176
     1
 90
        1
176
     1
 40
0.0
176
     1
 90
        0
176
     1
290
     0
176
     1
290
     1
176
     1
290
     1
176
     1
290
     0
176
     1
290
     0
176
     1
290
     0
176
     1
290
     0
176
     1
290
     0
176
     1
290
     0
176
     1
 90
       50
176
     1
 40
0.0
176
     1
 40
1.0
176
     1
 90
        0
176
     1
 62
    18
420
        0
176
     1
 90
       50
176
     1
 90
        3
176
     1
 62
     5
420
      255
176
     1
290
     0
176
     1
 90
       50
176
     1
 90
       50
176
     1
 90
       50
176
     1
290
     0
176
     1
 90
       50
176
     1
 62
   256
176
     0
 40
1.0
176
     0
 90
        2
176
     1
  1
strokes_ogs.tif
176
     1
290
     0
176
     1
 40
1.0
176
     1
 40
1.0
176
     1
  0
VISUALSTYLE
  5
3B
102
{ACAD_REACTORS
330
29
102
}
330
29
100
AcDbVisualStyle
  2
Sketchy
 70
    24
177
     3
291
     0
 70
    58
 90
        1
176
     1
 90
        2
176
     1
 90
        2
176
     1
 90
        0
176
     1
 40
0.6
176
     1
 40
30.0
176
     1
 62
     7
420
 16777215
176
     1
 90
        2
176
     1
 90
        2
176
     1
 62
     7
176
     1
 62
     7
176
     1
 90
        1
176
     1
 90
        1
176
     1
 40
40.0
176
     1
 90
       11
176
     1
 62
     7
176
     1
 40
1.0
176
     1
 90
        1
176
     1
 90
        6
176
     1
 90
        2
176
     1
 62
     7
176
     1
 90
        6
176
     1
 90
        0
176
     1
 90
        0
176
     1
290
     0
176
     1
 90
        1
176
     1
 40
0.0
176
     1
 90
        0
176
     1
290
     0
176
     1
290
     1
176
     1
290
     1
176
     1
290
     0
176
     1
290
     0
176
     1
290
     0
176
     1
290
     0
176
     1
290
     0
176
     1
290
     0
176
     1
 90
       50
176
     1
 40
0.0
176
     1
 40
1.0
176
     1
 90
        0
176
     1
 62
    18
420
        0
176
     1
 90
       50
176
     1
 90
        3
176
     1
 62
     5
420
      255
176
     1
290
     0
176
     1
 90
       50
176
     1
 90
       50
176
     1
 90
       50
176
     1
290
     0
176
     1
 90
       50
176
     1
 62
   256
176
     0
 40
1.0
176
     0
 90
        2
176
     1
  1
strokes_ogs.tif
176
     1
290
     0
176
     1
 40
1.0
176
     1
 40
1.0
176
     1
  0
VISUALSTYLE
  5
36
102
{ACAD_REACTORS
330
29
102
}
330
29
100
AcDbVisualStyle
  2
Thicken
 70
    13
177
     3
291
     1
 70
    58
 90
        2
176
     1
 90
        2
176
     1
 90
        0
176
     1
 90
        0
176
     1
 40
0.6
176
     1
 40
30.0
176
     1
 62
     7
420
 16777215
176
     1
 90
        1
176
     1
 90
        4
176
     1
 62
     7
176
     1
 62
   257
176
     1
 90
        1
176
     1
 90
        1
176
     1
 40
1.0
176
     1
 90
       12
176
     1
 62
     7
176
     1
 40
1.0
176
     1
 90
        1
176
     1
 90
        6
176
     1
 90
        2
176
     1
 62
     7
176
     1
 90
        5
176
     1
 90
        0
176
     1
 90
        0
176
     1
290
     0
176
     1
 90
        1
176
     1
 40
0.0
176
     1
 90
        0
176
     1
290
     0
176
     1
290
     1
176
     1
290
     1
176
     1
290
     0
176
     1
290
     0
176
     1
290
     0
176
     1
290
     0
176
     1
290
     0
176
     1
290
     0
176
     1
 90
       50
176
     1
 40
0.0
176
     1
 40
1.0
176
     1
 90
        0
176
     1
 62
    18
420
        0
176
     1
 90
       50
176
     1
 90
        3
176
     1
 62
     5
420
      255
176
     1
290
     0
176
     1
 90
       50
176
     1
 90
       50
176
     1
 90
       50
176
     1
290
     0
176
     1
 90
       50
176
     1
 62
   256
176
     0
 40
1.0
176
     0
 90
        2
176
     1
  1
strokes_ogs.tif
176
     1
290
     0
176
     1
 40
1.0
176
     1
 40
1.0
176
     1
  0
VISUALSTYLE
  5
30
102
{ACAD_REACTORS
330
29
102
}
330
29
100
AcDbVisualStyle
  2
Wireframe
 70
     5
177
     3
291
     0
 70
    58
 90
        0
176
     1
 90
        2
176
     1
 90
        0
176
     1
 90
        0
176
     1
 40
0.6
176
     1
 40
30.0
176
     1
 62
     7
420
 16777215
176
     1
 90
        1
176
     1
 90
        4
176
     1
 62
     7
176
     1
 62
   257
176
     1
 90
        1
176
     1
 90
        1
176
     1
 40
1.0
176
     1
 90
        0
176
     1
 62
   257
176
     1
 40
1.0
176
     1
 90
        1
176
     1
 90
        6
176
     1
 90
        2
176
     1
 62
     7
176
     1
 90
        3
176
     1
 90
        0
176
     1
 90
        0
176
     1
290
     0
176
     1
 90
        1
176
     1
 40
0.0
176
     1
 90
        0
176
     1
290
     0
176
     1
290
     1
176
     1
290
     1
176
     1
290
     0
176
     1
290
     0
176
     1
290
     0
176
     1
290
     0
176
     1
290
     0
176
     1
290
     0
176
     1
 90
       50
176
     1
 40
0.0
176
     1
 40
1.0
176
     1
 90
        0
176
     1
 62
    18
420
        0
176
     1
 90
       50
176
     1
 90
        3
176
     1
 62
     5
420
      255
176
     1
290
     0
176
     1
 90
       50
176
     1
 90
       50
176
     1
 90
       50
176
     1
290
     0
176
     1
 90
       50
176
     1
 62
   256
176
     0
 40
1.0
176
     0
 90
        2
176
     1
  1
strokes_ogs.tif
176
     1
290
     0
176
     1
 40
1.0
176
     1
 40
1.0
176
     1
  0
VISUALSTYLE
  5
3C
102
{ACAD_REACTORS
330
29
102
}
330
29
100
AcDbVisualStyle
  2
X-Ray
 70
    25
177
     3
291
     0
 70
    58
 90
        2
176
     1
 90
        2
176
     1
 90
        1
176
     1
 90
        1
176
     1
 40
0.5
176
     1
 40
30.0
176
     1
 62
     7
420
 16777215
176
     1
 90
        1
176
     1
 90
        0
176
     1
 62
     7
176
     1
 62
   257
176
     1
 90
        1
176
     1
 90
        1
176
     1
 40
1.0
176
     1
 90
        8
176
     1
 62
     7
176
     1
 40
1.0
176
     1
 90
        1
176
     1
 90
        6
176
     1
 90
        2
176
     1
 62
     7
176
     1
 90
        3
176
     1
 90
        0
176
     1
 90
        0
176
     1
290
     0
176
     1
 90
       13
176
     1
 40
0.0
176
     1
 90
        0
176
     1
290
     0
176
     1
290
     1
176
     1
290
     1
176
     1
290
     0
176
     1
290
     0
176
     1
290
     0
176
     1
290
     0
176
     1
290
     0
176
     1
290
     0
176
     1
 90
       50
176
     1
 40
0.0
176
     1
 40
1.0
176
     1
 90
        0
176
     1
 62
    18
420
        0
176
     1
 90
       50
176
     1
 90
        3
176
     1
 62
     5
420
      255
176
     1
290
     0
176
     1
 90
       50
176
     1
 90
       50
176
     1
 90
       50
176
     1
290
     0
176
     1
 90
       50
176
     1
 62
   256
176
     0
 40
1.0
176
     0
 90
        2
176
     1
  1
strokes_ogs.tif
176
     1
290
     0
176
     1
 40
1.0
176
     1
 40
1.0
176
     1
  0
DICTIONARYVAR
  5
CE
102
{ACAD_REACTORS
330
C9
102
}
330
C9
100
DictionaryVariables
280
     0
  1
1:1
  0
DICTIONARYVAR
  5
CB
102
{ACAD_REACTORS
330
C9
102
}
330
C9
100
DictionaryVariables
280
     0
  1
STANDARD
  0
DICTIONARYVAR
  5
CA
102
{ACAD_REACTORS
330
C9
102
}
330
C9
100
DictionaryVariables
280
     0
  1
STANDARD
  0
DICTIONARYVAR
  5
CC
102
{ACAD_REACTORS
330
C9
102
}
330
C9
100
DictionaryVariables
280
     0
  1
Imperial24
  0
DICTIONARYVAR
  5
CD
102
{ACAD_REACTORS
330
C9
102
}
330
C9
100
DictionaryVariables
280
     0
  1
Imperial24
  0
DICTIONARY
  5
1A
330
19
100
AcDbDictionary
280
     1
281
     1
  3
BUMPTILE
360
1C
  3
DIFFUSETILE
360
1B
  3
OPACITYTILE
360
1F
  3
REFLECTIONTILE
360
1E
  3
REFRACTIONTILE
360
20
  3
SPECULARTILE
360
1D
  0
DICTIONARY
  5
12
330
11
100
AcDbDictionary
280
     1
281
     1
  3
BUMPTILE
360
14
  3
DIFFUSETILE
360
13
  3
OPACITYTILE
360
17
  3
REFLECTIONTILE
360
16
  3
REFRACTIONTILE
360
18
  3
SPECULARTILE
360
15
  0
DICTIONARY
  5
22
330
21
100
AcDbDictionary
280
     1
281
     1
  3
BUMPTILE
360
24
  3
DIFFUSETILE
360
23
  3
OPACITYTILE
360
27
  3
REFLECTIONTILE
360
26
  3
REFRACTIONTILE
360
28
  3
SPECULARTILE
360
25
  0
DICTIONARY
  5
CF
330
65
100
AcDbDictionary
280
     1
281
     1
  3
ACAD_ROUNDTRIP_2008_TABLESTYLE_CELLSTYLEMAP
360
D0
  0
XRECORD
  5
1C
102
{ACAD_REACTORS
330
1A
102
}
330
1A
100
AcDbXrecord
280
     1
270
     1
271
     1
  0
XRECORD
  5
1B
102
{ACAD_REACTORS
330
1A
102
}
330
1A
100
AcDbXrecord
280
     1
270
     1
271
     1
  0
XRECORD
  5
1F
102
{ACAD_REACTORS
330
1A
102
}
330
1A
100
AcDbXrecord
280
     1
270
     1
271
     1
  0
XRECORD
  5
1E
102
{ACAD_REACTORS
330
1A
102
}
330
1A
100
AcDbXrecord
280
     1
270
     1
271
     1
  0
XRECORD
  5
20
102
{ACAD_REACTORS
330
1A
102
}
330
1A
100
AcDbXrecord
280
     1
270
     1
271
     1
  0
XRECORD
  5
1D
102
{ACAD_REACTORS
330
1A
102
}
330
1A
100
AcDbXrecord
280
     1
270
     1
271
     1
  0
XRECORD
  5
14
102
{ACAD_REACTORS
330
12
102
}
330
12
100
AcDbXrecord
280
     1
270
     1
271
     1
  0
XRECORD
  5
13
102
{ACAD_REACTORS
330
12
102
}
330
12
100
AcDbXrecord
280
     1
270
     1
271
     1
  0
XRECORD
  5
17
102
{ACAD_REACTORS
330
12
102
}
330
12
100
AcDbXrecord
280
     1
270
     1
271
     1
  0
XRECORD
  5
16
102
{ACAD_REACTORS
330
12
102
}
330
12
100
AcDbXrecord
280
     1
270
     1
271
     1
  0
XRECORD
  5
18
102
{ACAD_REACTORS
330
12
102
}
330
12
100
AcDbXrecord
280
     1
270
     1
271
     1
  0
XRECORD
  5
15
102
{ACAD_REACTORS
330
12
102
}
330
12
100
AcDbXrecord
280
     1
270
     1
271
     1
  0
XRECORD
  5
24
102
{ACAD_REACTORS
330
22
102
}
330
22
100
AcDbXrecord
280
     1
270
     1
271
     1
  0
XRECORD
  5
23
102
{ACAD_REACTORS
330
22
102
}
330
22
100
AcDbXrecord
280
     1
270
     1
271
     1
  0
XRECORD
  5
27
102
{ACAD_REACTORS
330
22
102
}
330
22
100
AcDbXrecord
280
     1
270
     1
271
     1
  0
XRECORD
  5
26
102
{ACAD_REACTORS
330
22
102
}
330
22
100
AcDbXrecord
280
     1
270
     1
271
     1
  0
XRECORD
  5
28
102
{ACAD_REACTORS
330
22
102
}
330
22
100
AcDbXrecord
280
     1
270
     1
271
     1
  0
XRECORD
  5
25
102
{ACAD_REACTORS
330
22
102
}
330
22
100
AcDbXrecord
280
     1
270
     1
271
     1
  0
CELLSTYLEMAP
  5
D0
102
{ACAD_REACTORS
330
CF
102
}
330
CF
100
AcDbCellStyleMap
 90
        3
300
CELLSTYLE
  1
TABLEFORMAT_BEGIN
 90
        5
170
     1
 91
        0
 92
    32768
 62
   257
 93
        1
300
CONTENTFORMAT
  1
CONTENTFORMAT_BEGIN
 90
        0
 91
        0
 92
      512
 93
        0
300

 40
0.0
140
1.0
 94
        5
 62
     0
340
55
144
0.25
309
CONTENTFORMAT_END
171
     0
 94
        0
309
TABLEFORMAT_END
  1
CELLSTYLE_BEGIN
 90
        1
 91
        1
300
_TITLE
309
CELLSTYLE_END
300
CELLSTYLE
  1
TABLEFORMAT_BEGIN
 90
        5
170
     1
 91
        0
 92
        0
 62
   257
 93
        1
300
CONTENTFORMAT
  1
CONTENTFORMAT_BEGIN
 90
        0
 91
        0
 92
      512
 93
        0
300

 40
0.0
140
1.0
 94
        5
 62
     0
340
55
144
0.18
309
CONTENTFORMAT_END
171
     0
 94
        0
309
TABLEFORMAT_END
  1
CELLSTYLE_BEGIN
 90
        2
 91
        1
300
_HEADER
309
CELLSTYLE_END
300
CELLSTYLE
  1
TABLEFORMAT_BEGIN
 90
        5
170
     1
 91
        0
 92
        0
 62
   257
 93
        1
300
CONTENTFORMAT
  1
CONTENTFORMAT_BEGIN
 90
        0
 91
        0
 92
      512
 93
        0
300

 40
0.0
140
1.0
 94
        2
 62
     0
340
55
144
0.18
309
CONTENTFORMAT_END
171
     0
 94
        0
309
TABLEFORMAT_END
  1
CELLSTYLE_BEGIN
 90
        3
 91
        2
300
_DATA
309
CELLSTYLE_END
  0
ENDSEC
  0
EOF
