%TF.GenerationSoftware,KiCad,Pcbnew,(5.1.10)-1*%
%TF.CreationDate,2022-02-27T18:28:29-05:00*%
%TF.ProjectId,chunair,6368756e-6169-4722-9e6b-696361645f70,rev?*%
%TF.SameCoordinates,Original*%
%TF.FileFunction,Copper,L1,Top*%
%TF.FilePolarity,Positive*%
%FSLAX46Y46*%
G04 Gerber Fmt 4.6, Leading zero omitted, Abs format (unit mm)*
G04 Created by KiCad (PCBNEW (5.1.10)-1) date 2022-02-27 18:28:29*
%MOMM*%
%LPD*%
G01*
G04 APERTURE LIST*
%TA.AperFunction,ComponentPad*%
%ADD10O,1.600000X1.600000*%
%TD*%
%TA.AperFunction,ComponentPad*%
%ADD11C,1.600000*%
%TD*%
%TA.AperFunction,SMDPad,CuDef*%
%ADD12R,5.000000X1.500000*%
%TD*%
%TA.AperFunction,SMDPad,CuDef*%
%ADD13C,0.100000*%
%TD*%
%TA.AperFunction,ViaPad*%
%ADD14C,0.800000*%
%TD*%
%TA.AperFunction,Conductor*%
%ADD15C,0.381000*%
%TD*%
%TA.AperFunction,NonConductor*%
%ADD16C,0.254000*%
%TD*%
%TA.AperFunction,NonConductor*%
%ADD17C,0.100000*%
%TD*%
G04 APERTURE END LIST*
D10*
%TO.P,R6,2*%
%TO.N,/A10*%
X216620000Y-100000000D03*
D11*
%TO.P,R6,1*%
%TO.N,GND*%
X209000000Y-100000000D03*
%TD*%
D10*
%TO.P,R5,2*%
%TO.N,/6*%
X216620000Y-89000000D03*
D11*
%TO.P,R5,1*%
%TO.N,Net-(D5-Pad1)*%
X209000000Y-89000000D03*
%TD*%
D10*
%TO.P,R4,2*%
%TO.N,/A0*%
X216620000Y-103000000D03*
D11*
%TO.P,R4,1*%
%TO.N,GND*%
X209000000Y-103000000D03*
%TD*%
D10*
%TO.P,R3,2*%
%TO.N,/16*%
X216620000Y-92000000D03*
D11*
%TO.P,R3,1*%
%TO.N,Net-(D3-Pad1)*%
X209000000Y-92000000D03*
%TD*%
D10*
%TO.P,R2,2*%
%TO.N,/A2*%
X216620000Y-106000000D03*
D11*
%TO.P,R2,1*%
%TO.N,GND*%
X209000000Y-106000000D03*
%TD*%
D10*
%TO.P,R1,2*%
%TO.N,/14*%
X216620000Y-95000000D03*
D11*
%TO.P,R1,1*%
%TO.N,Net-(D1-Pad1)*%
X209000000Y-95000000D03*
%TD*%
D12*
%TO.P,J1,8*%
%TO.N,/A2*%
X225000000Y-105628000D03*
%TO.P,J1,7*%
%TO.N,/A0*%
X225000000Y-103596000D03*
%TO.P,J1,4*%
%TO.N,/14*%
X225000000Y-97500000D03*
%TO.P,J1,5*%
%TO.N,GND*%
X225000000Y-99532000D03*
%TO.P,J1,6*%
%TO.N,/A10*%
X225000000Y-101564000D03*
%TO.P,J1,2*%
%TO.N,/6*%
X225000000Y-93436000D03*
%TO.P,J1,3*%
%TO.N,/16*%
X225000000Y-95468000D03*
%TO.P,J1,1*%
%TO.N,+5V*%
X225000000Y-91404000D03*
%TD*%
%TA.AperFunction,SMDPad,CuDef*%
D13*
%TO.P,D6,2*%
%TO.N,+5V*%
G36*
X224057324Y-114337627D02*
G01*
X224074555Y-114251002D01*
X224100193Y-114166483D01*
X224133993Y-114084884D01*
X224175627Y-114006992D01*
X224224696Y-113933555D01*
X224280727Y-113865281D01*
X224343180Y-113802828D01*
X224411454Y-113746797D01*
X224484891Y-113697728D01*
X224562783Y-113656094D01*
X224644382Y-113622294D01*
X224728901Y-113596656D01*
X224815526Y-113579425D01*
X224903422Y-113570768D01*
X224929211Y-113570768D01*
X224937769Y-113569925D01*
X224957397Y-113569925D01*
X224965955Y-113570768D01*
X224991744Y-113570768D01*
X225079640Y-113579425D01*
X225166265Y-113596656D01*
X225250784Y-113622294D01*
X225332383Y-113656094D01*
X225410275Y-113697728D01*
X225483712Y-113746797D01*
X225551986Y-113802828D01*
X225614439Y-113865281D01*
X225670470Y-113933555D01*
X225719539Y-114006992D01*
X225761173Y-114084884D01*
X225794973Y-114166483D01*
X225820611Y-114251002D01*
X225837842Y-114337627D01*
X225846499Y-114425523D01*
X225846499Y-114513845D01*
X225837842Y-114601741D01*
X225820611Y-114688366D01*
X225794973Y-114772885D01*
X225761173Y-114854484D01*
X225719539Y-114932376D01*
X225670470Y-115005813D01*
X225614439Y-115074087D01*
X225551986Y-115136540D01*
X225483712Y-115192571D01*
X225410275Y-115241640D01*
X225332383Y-115283274D01*
X225250784Y-115317074D01*
X225166265Y-115342712D01*
X225079640Y-115359943D01*
X224991744Y-115368600D01*
X224923049Y-115368600D01*
X224923049Y-114969082D01*
X224972117Y-114969082D01*
X225020948Y-114964272D01*
X225069073Y-114954700D01*
X225116028Y-114940456D01*
X225161361Y-114921679D01*
X225204634Y-114898548D01*
X225245433Y-114871288D01*
X225283362Y-114840160D01*
X225318059Y-114805463D01*
X225349187Y-114767534D01*
X225376447Y-114726735D01*
X225399578Y-114683462D01*
X225418355Y-114638129D01*
X225432599Y-114591174D01*
X225442171Y-114543049D01*
X225446981Y-114494218D01*
X225446981Y-114445150D01*
X225442171Y-114396319D01*
X225432599Y-114348194D01*
X225418355Y-114301239D01*
X225399578Y-114255906D01*
X225376447Y-114212633D01*
X225349187Y-114171834D01*
X225318059Y-114133905D01*
X225283362Y-114099208D01*
X225245433Y-114068080D01*
X225204634Y-114040820D01*
X225161361Y-114017689D01*
X225116028Y-113998912D01*
X225069073Y-113984668D01*
X225020948Y-113975096D01*
X224972117Y-113970286D01*
X224923049Y-113970286D01*
X224874218Y-113975096D01*
X224826093Y-113984668D01*
X224779138Y-113998912D01*
X224733805Y-114017689D01*
X224690532Y-114040820D01*
X224649733Y-114068080D01*
X224611804Y-114099208D01*
X224577107Y-114133905D01*
X224545979Y-114171834D01*
X224518719Y-114212633D01*
X224495588Y-114255906D01*
X224476811Y-114301239D01*
X224462567Y-114348194D01*
X224452995Y-114396319D01*
X224448185Y-114445150D01*
X224448185Y-114494218D01*
X224452995Y-114543049D01*
X224462567Y-114591174D01*
X224476811Y-114638129D01*
X224495588Y-114683462D01*
X224518719Y-114726735D01*
X224545979Y-114767534D01*
X224577107Y-114805463D01*
X224611804Y-114840160D01*
X224649733Y-114871288D01*
X224690532Y-114898548D01*
X224733805Y-114921679D01*
X224779138Y-114940456D01*
X224826093Y-114954700D01*
X224874218Y-114964272D01*
X224923049Y-114969082D01*
X224923049Y-115368600D01*
X224903422Y-115368600D01*
X224815526Y-115359943D01*
X224728901Y-115342712D01*
X224644382Y-115317074D01*
X224562783Y-115283274D01*
X224484891Y-115241640D01*
X224411454Y-115192571D01*
X224343180Y-115136540D01*
X224280727Y-115074087D01*
X224224696Y-115005813D01*
X224175627Y-114932376D01*
X224133993Y-114854484D01*
X224100193Y-114772885D01*
X224074555Y-114688366D01*
X224057324Y-114601741D01*
X224048667Y-114513845D01*
X224048667Y-114425523D01*
X224057324Y-114337627D01*
G37*
%TD.AperFunction*%
%TA.AperFunction,SMDPad,CuDef*%
%TO.P,D6,1*%
%TO.N,/A10*%
G36*
X224057324Y-111797627D02*
G01*
X224074555Y-111711002D01*
X224100193Y-111626483D01*
X224133993Y-111544884D01*
X224175627Y-111466992D01*
X224224696Y-111393555D01*
X224280727Y-111325281D01*
X224343180Y-111262828D01*
X224411454Y-111206797D01*
X224484891Y-111157728D01*
X224562783Y-111116094D01*
X224644382Y-111082294D01*
X224728901Y-111056656D01*
X224815526Y-111039425D01*
X224903422Y-111030768D01*
X224929211Y-111030768D01*
X224937769Y-111029925D01*
X224957397Y-111029925D01*
X224965955Y-111030768D01*
X224991744Y-111030768D01*
X225079640Y-111039425D01*
X225166265Y-111056656D01*
X225250784Y-111082294D01*
X225332383Y-111116094D01*
X225410275Y-111157728D01*
X225483712Y-111206797D01*
X225551986Y-111262828D01*
X225614439Y-111325281D01*
X225670470Y-111393555D01*
X225719539Y-111466992D01*
X225761173Y-111544884D01*
X225794973Y-111626483D01*
X225820611Y-111711002D01*
X225837842Y-111797627D01*
X225846499Y-111885523D01*
X225846499Y-111973845D01*
X225837842Y-112061741D01*
X225820611Y-112148366D01*
X225794973Y-112232885D01*
X225761173Y-112314484D01*
X225719539Y-112392376D01*
X225670470Y-112465813D01*
X225614439Y-112534087D01*
X225551986Y-112596540D01*
X225483712Y-112652571D01*
X225410275Y-112701640D01*
X225332383Y-112743274D01*
X225250784Y-112777074D01*
X225166265Y-112802712D01*
X225079640Y-112819943D01*
X224991744Y-112828600D01*
X224923049Y-112828600D01*
X224923049Y-112429082D01*
X224972117Y-112429082D01*
X225020948Y-112424272D01*
X225069073Y-112414700D01*
X225116028Y-112400456D01*
X225161361Y-112381679D01*
X225204634Y-112358548D01*
X225245433Y-112331288D01*
X225283362Y-112300160D01*
X225318059Y-112265463D01*
X225349187Y-112227534D01*
X225376447Y-112186735D01*
X225399578Y-112143462D01*
X225418355Y-112098129D01*
X225432599Y-112051174D01*
X225442171Y-112003049D01*
X225446981Y-111954218D01*
X225446981Y-111905150D01*
X225442171Y-111856319D01*
X225432599Y-111808194D01*
X225418355Y-111761239D01*
X225399578Y-111715906D01*
X225376447Y-111672633D01*
X225349187Y-111631834D01*
X225318059Y-111593905D01*
X225283362Y-111559208D01*
X225245433Y-111528080D01*
X225204634Y-111500820D01*
X225161361Y-111477689D01*
X225116028Y-111458912D01*
X225069073Y-111444668D01*
X225020948Y-111435096D01*
X224972117Y-111430286D01*
X224923049Y-111430286D01*
X224874218Y-111435096D01*
X224826093Y-111444668D01*
X224779138Y-111458912D01*
X224733805Y-111477689D01*
X224690532Y-111500820D01*
X224649733Y-111528080D01*
X224611804Y-111559208D01*
X224577107Y-111593905D01*
X224545979Y-111631834D01*
X224518719Y-111672633D01*
X224495588Y-111715906D01*
X224476811Y-111761239D01*
X224462567Y-111808194D01*
X224452995Y-111856319D01*
X224448185Y-111905150D01*
X224448185Y-111954218D01*
X224452995Y-112003049D01*
X224462567Y-112051174D01*
X224476811Y-112098129D01*
X224495588Y-112143462D01*
X224518719Y-112186735D01*
X224545979Y-112227534D01*
X224577107Y-112265463D01*
X224611804Y-112300160D01*
X224649733Y-112331288D01*
X224690532Y-112358548D01*
X224733805Y-112381679D01*
X224779138Y-112400456D01*
X224826093Y-112414700D01*
X224874218Y-112424272D01*
X224923049Y-112429082D01*
X224923049Y-112828600D01*
X224903422Y-112828600D01*
X224815526Y-112819943D01*
X224728901Y-112802712D01*
X224644382Y-112777074D01*
X224562783Y-112743274D01*
X224484891Y-112701640D01*
X224411454Y-112652571D01*
X224343180Y-112596540D01*
X224280727Y-112534087D01*
X224224696Y-112465813D01*
X224175627Y-112392376D01*
X224133993Y-112314484D01*
X224100193Y-112232885D01*
X224074555Y-112148366D01*
X224057324Y-112061741D01*
X224048667Y-111973845D01*
X224048667Y-111885523D01*
X224057324Y-111797627D01*
G37*
%TD.AperFunction*%
%TD*%
%TA.AperFunction,SMDPad,CuDef*%
%TO.P,D5,2*%
%TO.N,GND*%
G36*
X188057324Y-114337627D02*
G01*
X188074555Y-114251002D01*
X188100193Y-114166483D01*
X188133993Y-114084884D01*
X188175627Y-114006992D01*
X188224696Y-113933555D01*
X188280727Y-113865281D01*
X188343180Y-113802828D01*
X188411454Y-113746797D01*
X188484891Y-113697728D01*
X188562783Y-113656094D01*
X188644382Y-113622294D01*
X188728901Y-113596656D01*
X188815526Y-113579425D01*
X188903422Y-113570768D01*
X188929211Y-113570768D01*
X188937769Y-113569925D01*
X188957397Y-113569925D01*
X188965955Y-113570768D01*
X188991744Y-113570768D01*
X189079640Y-113579425D01*
X189166265Y-113596656D01*
X189250784Y-113622294D01*
X189332383Y-113656094D01*
X189410275Y-113697728D01*
X189483712Y-113746797D01*
X189551986Y-113802828D01*
X189614439Y-113865281D01*
X189670470Y-113933555D01*
X189719539Y-114006992D01*
X189761173Y-114084884D01*
X189794973Y-114166483D01*
X189820611Y-114251002D01*
X189837842Y-114337627D01*
X189846499Y-114425523D01*
X189846499Y-114513845D01*
X189837842Y-114601741D01*
X189820611Y-114688366D01*
X189794973Y-114772885D01*
X189761173Y-114854484D01*
X189719539Y-114932376D01*
X189670470Y-115005813D01*
X189614439Y-115074087D01*
X189551986Y-115136540D01*
X189483712Y-115192571D01*
X189410275Y-115241640D01*
X189332383Y-115283274D01*
X189250784Y-115317074D01*
X189166265Y-115342712D01*
X189079640Y-115359943D01*
X188991744Y-115368600D01*
X188923049Y-115368600D01*
X188923049Y-114969082D01*
X188972117Y-114969082D01*
X189020948Y-114964272D01*
X189069073Y-114954700D01*
X189116028Y-114940456D01*
X189161361Y-114921679D01*
X189204634Y-114898548D01*
X189245433Y-114871288D01*
X189283362Y-114840160D01*
X189318059Y-114805463D01*
X189349187Y-114767534D01*
X189376447Y-114726735D01*
X189399578Y-114683462D01*
X189418355Y-114638129D01*
X189432599Y-114591174D01*
X189442171Y-114543049D01*
X189446981Y-114494218D01*
X189446981Y-114445150D01*
X189442171Y-114396319D01*
X189432599Y-114348194D01*
X189418355Y-114301239D01*
X189399578Y-114255906D01*
X189376447Y-114212633D01*
X189349187Y-114171834D01*
X189318059Y-114133905D01*
X189283362Y-114099208D01*
X189245433Y-114068080D01*
X189204634Y-114040820D01*
X189161361Y-114017689D01*
X189116028Y-113998912D01*
X189069073Y-113984668D01*
X189020948Y-113975096D01*
X188972117Y-113970286D01*
X188923049Y-113970286D01*
X188874218Y-113975096D01*
X188826093Y-113984668D01*
X188779138Y-113998912D01*
X188733805Y-114017689D01*
X188690532Y-114040820D01*
X188649733Y-114068080D01*
X188611804Y-114099208D01*
X188577107Y-114133905D01*
X188545979Y-114171834D01*
X188518719Y-114212633D01*
X188495588Y-114255906D01*
X188476811Y-114301239D01*
X188462567Y-114348194D01*
X188452995Y-114396319D01*
X188448185Y-114445150D01*
X188448185Y-114494218D01*
X188452995Y-114543049D01*
X188462567Y-114591174D01*
X188476811Y-114638129D01*
X188495588Y-114683462D01*
X188518719Y-114726735D01*
X188545979Y-114767534D01*
X188577107Y-114805463D01*
X188611804Y-114840160D01*
X188649733Y-114871288D01*
X188690532Y-114898548D01*
X188733805Y-114921679D01*
X188779138Y-114940456D01*
X188826093Y-114954700D01*
X188874218Y-114964272D01*
X188923049Y-114969082D01*
X188923049Y-115368600D01*
X188903422Y-115368600D01*
X188815526Y-115359943D01*
X188728901Y-115342712D01*
X188644382Y-115317074D01*
X188562783Y-115283274D01*
X188484891Y-115241640D01*
X188411454Y-115192571D01*
X188343180Y-115136540D01*
X188280727Y-115074087D01*
X188224696Y-115005813D01*
X188175627Y-114932376D01*
X188133993Y-114854484D01*
X188100193Y-114772885D01*
X188074555Y-114688366D01*
X188057324Y-114601741D01*
X188048667Y-114513845D01*
X188048667Y-114425523D01*
X188057324Y-114337627D01*
G37*
%TD.AperFunction*%
%TA.AperFunction,SMDPad,CuDef*%
%TO.P,D5,1*%
%TO.N,Net-(D5-Pad1)*%
G36*
X188057324Y-111797627D02*
G01*
X188074555Y-111711002D01*
X188100193Y-111626483D01*
X188133993Y-111544884D01*
X188175627Y-111466992D01*
X188224696Y-111393555D01*
X188280727Y-111325281D01*
X188343180Y-111262828D01*
X188411454Y-111206797D01*
X188484891Y-111157728D01*
X188562783Y-111116094D01*
X188644382Y-111082294D01*
X188728901Y-111056656D01*
X188815526Y-111039425D01*
X188903422Y-111030768D01*
X188929211Y-111030768D01*
X188937769Y-111029925D01*
X188957397Y-111029925D01*
X188965955Y-111030768D01*
X188991744Y-111030768D01*
X189079640Y-111039425D01*
X189166265Y-111056656D01*
X189250784Y-111082294D01*
X189332383Y-111116094D01*
X189410275Y-111157728D01*
X189483712Y-111206797D01*
X189551986Y-111262828D01*
X189614439Y-111325281D01*
X189670470Y-111393555D01*
X189719539Y-111466992D01*
X189761173Y-111544884D01*
X189794973Y-111626483D01*
X189820611Y-111711002D01*
X189837842Y-111797627D01*
X189846499Y-111885523D01*
X189846499Y-111973845D01*
X189837842Y-112061741D01*
X189820611Y-112148366D01*
X189794973Y-112232885D01*
X189761173Y-112314484D01*
X189719539Y-112392376D01*
X189670470Y-112465813D01*
X189614439Y-112534087D01*
X189551986Y-112596540D01*
X189483712Y-112652571D01*
X189410275Y-112701640D01*
X189332383Y-112743274D01*
X189250784Y-112777074D01*
X189166265Y-112802712D01*
X189079640Y-112819943D01*
X188991744Y-112828600D01*
X188923049Y-112828600D01*
X188923049Y-112429082D01*
X188972117Y-112429082D01*
X189020948Y-112424272D01*
X189069073Y-112414700D01*
X189116028Y-112400456D01*
X189161361Y-112381679D01*
X189204634Y-112358548D01*
X189245433Y-112331288D01*
X189283362Y-112300160D01*
X189318059Y-112265463D01*
X189349187Y-112227534D01*
X189376447Y-112186735D01*
X189399578Y-112143462D01*
X189418355Y-112098129D01*
X189432599Y-112051174D01*
X189442171Y-112003049D01*
X189446981Y-111954218D01*
X189446981Y-111905150D01*
X189442171Y-111856319D01*
X189432599Y-111808194D01*
X189418355Y-111761239D01*
X189399578Y-111715906D01*
X189376447Y-111672633D01*
X189349187Y-111631834D01*
X189318059Y-111593905D01*
X189283362Y-111559208D01*
X189245433Y-111528080D01*
X189204634Y-111500820D01*
X189161361Y-111477689D01*
X189116028Y-111458912D01*
X189069073Y-111444668D01*
X189020948Y-111435096D01*
X188972117Y-111430286D01*
X188923049Y-111430286D01*
X188874218Y-111435096D01*
X188826093Y-111444668D01*
X188779138Y-111458912D01*
X188733805Y-111477689D01*
X188690532Y-111500820D01*
X188649733Y-111528080D01*
X188611804Y-111559208D01*
X188577107Y-111593905D01*
X188545979Y-111631834D01*
X188518719Y-111672633D01*
X188495588Y-111715906D01*
X188476811Y-111761239D01*
X188462567Y-111808194D01*
X188452995Y-111856319D01*
X188448185Y-111905150D01*
X188448185Y-111954218D01*
X188452995Y-112003049D01*
X188462567Y-112051174D01*
X188476811Y-112098129D01*
X188495588Y-112143462D01*
X188518719Y-112186735D01*
X188545979Y-112227534D01*
X188577107Y-112265463D01*
X188611804Y-112300160D01*
X188649733Y-112331288D01*
X188690532Y-112358548D01*
X188733805Y-112381679D01*
X188779138Y-112400456D01*
X188826093Y-112414700D01*
X188874218Y-112424272D01*
X188923049Y-112429082D01*
X188923049Y-112828600D01*
X188903422Y-112828600D01*
X188815526Y-112819943D01*
X188728901Y-112802712D01*
X188644382Y-112777074D01*
X188562783Y-112743274D01*
X188484891Y-112701640D01*
X188411454Y-112652571D01*
X188343180Y-112596540D01*
X188280727Y-112534087D01*
X188224696Y-112465813D01*
X188175627Y-112392376D01*
X188133993Y-112314484D01*
X188100193Y-112232885D01*
X188074555Y-112148366D01*
X188057324Y-112061741D01*
X188048667Y-111973845D01*
X188048667Y-111885523D01*
X188057324Y-111797627D01*
G37*
%TD.AperFunction*%
%TD*%
%TA.AperFunction,SMDPad,CuDef*%
%TO.P,D4,2*%
%TO.N,+5V*%
G36*
X152057324Y-114337627D02*
G01*
X152074555Y-114251002D01*
X152100193Y-114166483D01*
X152133993Y-114084884D01*
X152175627Y-114006992D01*
X152224696Y-113933555D01*
X152280727Y-113865281D01*
X152343180Y-113802828D01*
X152411454Y-113746797D01*
X152484891Y-113697728D01*
X152562783Y-113656094D01*
X152644382Y-113622294D01*
X152728901Y-113596656D01*
X152815526Y-113579425D01*
X152903422Y-113570768D01*
X152929211Y-113570768D01*
X152937769Y-113569925D01*
X152957397Y-113569925D01*
X152965955Y-113570768D01*
X152991744Y-113570768D01*
X153079640Y-113579425D01*
X153166265Y-113596656D01*
X153250784Y-113622294D01*
X153332383Y-113656094D01*
X153410275Y-113697728D01*
X153483712Y-113746797D01*
X153551986Y-113802828D01*
X153614439Y-113865281D01*
X153670470Y-113933555D01*
X153719539Y-114006992D01*
X153761173Y-114084884D01*
X153794973Y-114166483D01*
X153820611Y-114251002D01*
X153837842Y-114337627D01*
X153846499Y-114425523D01*
X153846499Y-114513845D01*
X153837842Y-114601741D01*
X153820611Y-114688366D01*
X153794973Y-114772885D01*
X153761173Y-114854484D01*
X153719539Y-114932376D01*
X153670470Y-115005813D01*
X153614439Y-115074087D01*
X153551986Y-115136540D01*
X153483712Y-115192571D01*
X153410275Y-115241640D01*
X153332383Y-115283274D01*
X153250784Y-115317074D01*
X153166265Y-115342712D01*
X153079640Y-115359943D01*
X152991744Y-115368600D01*
X152923049Y-115368600D01*
X152923049Y-114969082D01*
X152972117Y-114969082D01*
X153020948Y-114964272D01*
X153069073Y-114954700D01*
X153116028Y-114940456D01*
X153161361Y-114921679D01*
X153204634Y-114898548D01*
X153245433Y-114871288D01*
X153283362Y-114840160D01*
X153318059Y-114805463D01*
X153349187Y-114767534D01*
X153376447Y-114726735D01*
X153399578Y-114683462D01*
X153418355Y-114638129D01*
X153432599Y-114591174D01*
X153442171Y-114543049D01*
X153446981Y-114494218D01*
X153446981Y-114445150D01*
X153442171Y-114396319D01*
X153432599Y-114348194D01*
X153418355Y-114301239D01*
X153399578Y-114255906D01*
X153376447Y-114212633D01*
X153349187Y-114171834D01*
X153318059Y-114133905D01*
X153283362Y-114099208D01*
X153245433Y-114068080D01*
X153204634Y-114040820D01*
X153161361Y-114017689D01*
X153116028Y-113998912D01*
X153069073Y-113984668D01*
X153020948Y-113975096D01*
X152972117Y-113970286D01*
X152923049Y-113970286D01*
X152874218Y-113975096D01*
X152826093Y-113984668D01*
X152779138Y-113998912D01*
X152733805Y-114017689D01*
X152690532Y-114040820D01*
X152649733Y-114068080D01*
X152611804Y-114099208D01*
X152577107Y-114133905D01*
X152545979Y-114171834D01*
X152518719Y-114212633D01*
X152495588Y-114255906D01*
X152476811Y-114301239D01*
X152462567Y-114348194D01*
X152452995Y-114396319D01*
X152448185Y-114445150D01*
X152448185Y-114494218D01*
X152452995Y-114543049D01*
X152462567Y-114591174D01*
X152476811Y-114638129D01*
X152495588Y-114683462D01*
X152518719Y-114726735D01*
X152545979Y-114767534D01*
X152577107Y-114805463D01*
X152611804Y-114840160D01*
X152649733Y-114871288D01*
X152690532Y-114898548D01*
X152733805Y-114921679D01*
X152779138Y-114940456D01*
X152826093Y-114954700D01*
X152874218Y-114964272D01*
X152923049Y-114969082D01*
X152923049Y-115368600D01*
X152903422Y-115368600D01*
X152815526Y-115359943D01*
X152728901Y-115342712D01*
X152644382Y-115317074D01*
X152562783Y-115283274D01*
X152484891Y-115241640D01*
X152411454Y-115192571D01*
X152343180Y-115136540D01*
X152280727Y-115074087D01*
X152224696Y-115005813D01*
X152175627Y-114932376D01*
X152133993Y-114854484D01*
X152100193Y-114772885D01*
X152074555Y-114688366D01*
X152057324Y-114601741D01*
X152048667Y-114513845D01*
X152048667Y-114425523D01*
X152057324Y-114337627D01*
G37*
%TD.AperFunction*%
%TA.AperFunction,SMDPad,CuDef*%
%TO.P,D4,1*%
%TO.N,/A0*%
G36*
X152057324Y-111797627D02*
G01*
X152074555Y-111711002D01*
X152100193Y-111626483D01*
X152133993Y-111544884D01*
X152175627Y-111466992D01*
X152224696Y-111393555D01*
X152280727Y-111325281D01*
X152343180Y-111262828D01*
X152411454Y-111206797D01*
X152484891Y-111157728D01*
X152562783Y-111116094D01*
X152644382Y-111082294D01*
X152728901Y-111056656D01*
X152815526Y-111039425D01*
X152903422Y-111030768D01*
X152929211Y-111030768D01*
X152937769Y-111029925D01*
X152957397Y-111029925D01*
X152965955Y-111030768D01*
X152991744Y-111030768D01*
X153079640Y-111039425D01*
X153166265Y-111056656D01*
X153250784Y-111082294D01*
X153332383Y-111116094D01*
X153410275Y-111157728D01*
X153483712Y-111206797D01*
X153551986Y-111262828D01*
X153614439Y-111325281D01*
X153670470Y-111393555D01*
X153719539Y-111466992D01*
X153761173Y-111544884D01*
X153794973Y-111626483D01*
X153820611Y-111711002D01*
X153837842Y-111797627D01*
X153846499Y-111885523D01*
X153846499Y-111973845D01*
X153837842Y-112061741D01*
X153820611Y-112148366D01*
X153794973Y-112232885D01*
X153761173Y-112314484D01*
X153719539Y-112392376D01*
X153670470Y-112465813D01*
X153614439Y-112534087D01*
X153551986Y-112596540D01*
X153483712Y-112652571D01*
X153410275Y-112701640D01*
X153332383Y-112743274D01*
X153250784Y-112777074D01*
X153166265Y-112802712D01*
X153079640Y-112819943D01*
X152991744Y-112828600D01*
X152923049Y-112828600D01*
X152923049Y-112429082D01*
X152972117Y-112429082D01*
X153020948Y-112424272D01*
X153069073Y-112414700D01*
X153116028Y-112400456D01*
X153161361Y-112381679D01*
X153204634Y-112358548D01*
X153245433Y-112331288D01*
X153283362Y-112300160D01*
X153318059Y-112265463D01*
X153349187Y-112227534D01*
X153376447Y-112186735D01*
X153399578Y-112143462D01*
X153418355Y-112098129D01*
X153432599Y-112051174D01*
X153442171Y-112003049D01*
X153446981Y-111954218D01*
X153446981Y-111905150D01*
X153442171Y-111856319D01*
X153432599Y-111808194D01*
X153418355Y-111761239D01*
X153399578Y-111715906D01*
X153376447Y-111672633D01*
X153349187Y-111631834D01*
X153318059Y-111593905D01*
X153283362Y-111559208D01*
X153245433Y-111528080D01*
X153204634Y-111500820D01*
X153161361Y-111477689D01*
X153116028Y-111458912D01*
X153069073Y-111444668D01*
X153020948Y-111435096D01*
X152972117Y-111430286D01*
X152923049Y-111430286D01*
X152874218Y-111435096D01*
X152826093Y-111444668D01*
X152779138Y-111458912D01*
X152733805Y-111477689D01*
X152690532Y-111500820D01*
X152649733Y-111528080D01*
X152611804Y-111559208D01*
X152577107Y-111593905D01*
X152545979Y-111631834D01*
X152518719Y-111672633D01*
X152495588Y-111715906D01*
X152476811Y-111761239D01*
X152462567Y-111808194D01*
X152452995Y-111856319D01*
X152448185Y-111905150D01*
X152448185Y-111954218D01*
X152452995Y-112003049D01*
X152462567Y-112051174D01*
X152476811Y-112098129D01*
X152495588Y-112143462D01*
X152518719Y-112186735D01*
X152545979Y-112227534D01*
X152577107Y-112265463D01*
X152611804Y-112300160D01*
X152649733Y-112331288D01*
X152690532Y-112358548D01*
X152733805Y-112381679D01*
X152779138Y-112400456D01*
X152826093Y-112414700D01*
X152874218Y-112424272D01*
X152923049Y-112429082D01*
X152923049Y-112828600D01*
X152903422Y-112828600D01*
X152815526Y-112819943D01*
X152728901Y-112802712D01*
X152644382Y-112777074D01*
X152562783Y-112743274D01*
X152484891Y-112701640D01*
X152411454Y-112652571D01*
X152343180Y-112596540D01*
X152280727Y-112534087D01*
X152224696Y-112465813D01*
X152175627Y-112392376D01*
X152133993Y-112314484D01*
X152100193Y-112232885D01*
X152074555Y-112148366D01*
X152057324Y-112061741D01*
X152048667Y-111973845D01*
X152048667Y-111885523D01*
X152057324Y-111797627D01*
G37*
%TD.AperFunction*%
%TD*%
%TA.AperFunction,SMDPad,CuDef*%
%TO.P,D3,2*%
%TO.N,GND*%
G36*
X116057323Y-114337627D02*
G01*
X116074554Y-114251002D01*
X116100192Y-114166483D01*
X116133992Y-114084884D01*
X116175626Y-114006992D01*
X116224695Y-113933555D01*
X116280726Y-113865281D01*
X116343179Y-113802828D01*
X116411453Y-113746797D01*
X116484890Y-113697728D01*
X116562782Y-113656094D01*
X116644381Y-113622294D01*
X116728900Y-113596656D01*
X116815525Y-113579425D01*
X116903421Y-113570768D01*
X116929210Y-113570768D01*
X116937768Y-113569925D01*
X116957396Y-113569925D01*
X116965954Y-113570768D01*
X116991743Y-113570768D01*
X117079639Y-113579425D01*
X117166264Y-113596656D01*
X117250783Y-113622294D01*
X117332382Y-113656094D01*
X117410274Y-113697728D01*
X117483711Y-113746797D01*
X117551985Y-113802828D01*
X117614438Y-113865281D01*
X117670469Y-113933555D01*
X117719538Y-114006992D01*
X117761172Y-114084884D01*
X117794972Y-114166483D01*
X117820610Y-114251002D01*
X117837841Y-114337627D01*
X117846498Y-114425523D01*
X117846498Y-114513845D01*
X117837841Y-114601741D01*
X117820610Y-114688366D01*
X117794972Y-114772885D01*
X117761172Y-114854484D01*
X117719538Y-114932376D01*
X117670469Y-115005813D01*
X117614438Y-115074087D01*
X117551985Y-115136540D01*
X117483711Y-115192571D01*
X117410274Y-115241640D01*
X117332382Y-115283274D01*
X117250783Y-115317074D01*
X117166264Y-115342712D01*
X117079639Y-115359943D01*
X116991743Y-115368600D01*
X116923048Y-115368600D01*
X116923048Y-114969082D01*
X116972116Y-114969082D01*
X117020947Y-114964272D01*
X117069072Y-114954700D01*
X117116027Y-114940456D01*
X117161360Y-114921679D01*
X117204633Y-114898548D01*
X117245432Y-114871288D01*
X117283361Y-114840160D01*
X117318058Y-114805463D01*
X117349186Y-114767534D01*
X117376446Y-114726735D01*
X117399577Y-114683462D01*
X117418354Y-114638129D01*
X117432598Y-114591174D01*
X117442170Y-114543049D01*
X117446980Y-114494218D01*
X117446980Y-114445150D01*
X117442170Y-114396319D01*
X117432598Y-114348194D01*
X117418354Y-114301239D01*
X117399577Y-114255906D01*
X117376446Y-114212633D01*
X117349186Y-114171834D01*
X117318058Y-114133905D01*
X117283361Y-114099208D01*
X117245432Y-114068080D01*
X117204633Y-114040820D01*
X117161360Y-114017689D01*
X117116027Y-113998912D01*
X117069072Y-113984668D01*
X117020947Y-113975096D01*
X116972116Y-113970286D01*
X116923048Y-113970286D01*
X116874217Y-113975096D01*
X116826092Y-113984668D01*
X116779137Y-113998912D01*
X116733804Y-114017689D01*
X116690531Y-114040820D01*
X116649732Y-114068080D01*
X116611803Y-114099208D01*
X116577106Y-114133905D01*
X116545978Y-114171834D01*
X116518718Y-114212633D01*
X116495587Y-114255906D01*
X116476810Y-114301239D01*
X116462566Y-114348194D01*
X116452994Y-114396319D01*
X116448184Y-114445150D01*
X116448184Y-114494218D01*
X116452994Y-114543049D01*
X116462566Y-114591174D01*
X116476810Y-114638129D01*
X116495587Y-114683462D01*
X116518718Y-114726735D01*
X116545978Y-114767534D01*
X116577106Y-114805463D01*
X116611803Y-114840160D01*
X116649732Y-114871288D01*
X116690531Y-114898548D01*
X116733804Y-114921679D01*
X116779137Y-114940456D01*
X116826092Y-114954700D01*
X116874217Y-114964272D01*
X116923048Y-114969082D01*
X116923048Y-115368600D01*
X116903421Y-115368600D01*
X116815525Y-115359943D01*
X116728900Y-115342712D01*
X116644381Y-115317074D01*
X116562782Y-115283274D01*
X116484890Y-115241640D01*
X116411453Y-115192571D01*
X116343179Y-115136540D01*
X116280726Y-115074087D01*
X116224695Y-115005813D01*
X116175626Y-114932376D01*
X116133992Y-114854484D01*
X116100192Y-114772885D01*
X116074554Y-114688366D01*
X116057323Y-114601741D01*
X116048666Y-114513845D01*
X116048666Y-114425523D01*
X116057323Y-114337627D01*
G37*
%TD.AperFunction*%
%TA.AperFunction,SMDPad,CuDef*%
%TO.P,D3,1*%
%TO.N,Net-(D3-Pad1)*%
G36*
X116057323Y-111797627D02*
G01*
X116074554Y-111711002D01*
X116100192Y-111626483D01*
X116133992Y-111544884D01*
X116175626Y-111466992D01*
X116224695Y-111393555D01*
X116280726Y-111325281D01*
X116343179Y-111262828D01*
X116411453Y-111206797D01*
X116484890Y-111157728D01*
X116562782Y-111116094D01*
X116644381Y-111082294D01*
X116728900Y-111056656D01*
X116815525Y-111039425D01*
X116903421Y-111030768D01*
X116929210Y-111030768D01*
X116937768Y-111029925D01*
X116957396Y-111029925D01*
X116965954Y-111030768D01*
X116991743Y-111030768D01*
X117079639Y-111039425D01*
X117166264Y-111056656D01*
X117250783Y-111082294D01*
X117332382Y-111116094D01*
X117410274Y-111157728D01*
X117483711Y-111206797D01*
X117551985Y-111262828D01*
X117614438Y-111325281D01*
X117670469Y-111393555D01*
X117719538Y-111466992D01*
X117761172Y-111544884D01*
X117794972Y-111626483D01*
X117820610Y-111711002D01*
X117837841Y-111797627D01*
X117846498Y-111885523D01*
X117846498Y-111973845D01*
X117837841Y-112061741D01*
X117820610Y-112148366D01*
X117794972Y-112232885D01*
X117761172Y-112314484D01*
X117719538Y-112392376D01*
X117670469Y-112465813D01*
X117614438Y-112534087D01*
X117551985Y-112596540D01*
X117483711Y-112652571D01*
X117410274Y-112701640D01*
X117332382Y-112743274D01*
X117250783Y-112777074D01*
X117166264Y-112802712D01*
X117079639Y-112819943D01*
X116991743Y-112828600D01*
X116923048Y-112828600D01*
X116923048Y-112429082D01*
X116972116Y-112429082D01*
X117020947Y-112424272D01*
X117069072Y-112414700D01*
X117116027Y-112400456D01*
X117161360Y-112381679D01*
X117204633Y-112358548D01*
X117245432Y-112331288D01*
X117283361Y-112300160D01*
X117318058Y-112265463D01*
X117349186Y-112227534D01*
X117376446Y-112186735D01*
X117399577Y-112143462D01*
X117418354Y-112098129D01*
X117432598Y-112051174D01*
X117442170Y-112003049D01*
X117446980Y-111954218D01*
X117446980Y-111905150D01*
X117442170Y-111856319D01*
X117432598Y-111808194D01*
X117418354Y-111761239D01*
X117399577Y-111715906D01*
X117376446Y-111672633D01*
X117349186Y-111631834D01*
X117318058Y-111593905D01*
X117283361Y-111559208D01*
X117245432Y-111528080D01*
X117204633Y-111500820D01*
X117161360Y-111477689D01*
X117116027Y-111458912D01*
X117069072Y-111444668D01*
X117020947Y-111435096D01*
X116972116Y-111430286D01*
X116923048Y-111430286D01*
X116874217Y-111435096D01*
X116826092Y-111444668D01*
X116779137Y-111458912D01*
X116733804Y-111477689D01*
X116690531Y-111500820D01*
X116649732Y-111528080D01*
X116611803Y-111559208D01*
X116577106Y-111593905D01*
X116545978Y-111631834D01*
X116518718Y-111672633D01*
X116495587Y-111715906D01*
X116476810Y-111761239D01*
X116462566Y-111808194D01*
X116452994Y-111856319D01*
X116448184Y-111905150D01*
X116448184Y-111954218D01*
X116452994Y-112003049D01*
X116462566Y-112051174D01*
X116476810Y-112098129D01*
X116495587Y-112143462D01*
X116518718Y-112186735D01*
X116545978Y-112227534D01*
X116577106Y-112265463D01*
X116611803Y-112300160D01*
X116649732Y-112331288D01*
X116690531Y-112358548D01*
X116733804Y-112381679D01*
X116779137Y-112400456D01*
X116826092Y-112414700D01*
X116874217Y-112424272D01*
X116923048Y-112429082D01*
X116923048Y-112828600D01*
X116903421Y-112828600D01*
X116815525Y-112819943D01*
X116728900Y-112802712D01*
X116644381Y-112777074D01*
X116562782Y-112743274D01*
X116484890Y-112701640D01*
X116411453Y-112652571D01*
X116343179Y-112596540D01*
X116280726Y-112534087D01*
X116224695Y-112465813D01*
X116175626Y-112392376D01*
X116133992Y-112314484D01*
X116100192Y-112232885D01*
X116074554Y-112148366D01*
X116057323Y-112061741D01*
X116048666Y-111973845D01*
X116048666Y-111885523D01*
X116057323Y-111797627D01*
G37*
%TD.AperFunction*%
%TD*%
%TA.AperFunction,SMDPad,CuDef*%
%TO.P,D2,2*%
%TO.N,+5V*%
G36*
X80057324Y-114337627D02*
G01*
X80074555Y-114251002D01*
X80100193Y-114166483D01*
X80133993Y-114084884D01*
X80175627Y-114006992D01*
X80224696Y-113933555D01*
X80280727Y-113865281D01*
X80343180Y-113802828D01*
X80411454Y-113746797D01*
X80484891Y-113697728D01*
X80562783Y-113656094D01*
X80644382Y-113622294D01*
X80728901Y-113596656D01*
X80815526Y-113579425D01*
X80903422Y-113570768D01*
X80929211Y-113570768D01*
X80937769Y-113569925D01*
X80957397Y-113569925D01*
X80965955Y-113570768D01*
X80991744Y-113570768D01*
X81079640Y-113579425D01*
X81166265Y-113596656D01*
X81250784Y-113622294D01*
X81332383Y-113656094D01*
X81410275Y-113697728D01*
X81483712Y-113746797D01*
X81551986Y-113802828D01*
X81614439Y-113865281D01*
X81670470Y-113933555D01*
X81719539Y-114006992D01*
X81761173Y-114084884D01*
X81794973Y-114166483D01*
X81820611Y-114251002D01*
X81837842Y-114337627D01*
X81846499Y-114425523D01*
X81846499Y-114513845D01*
X81837842Y-114601741D01*
X81820611Y-114688366D01*
X81794973Y-114772885D01*
X81761173Y-114854484D01*
X81719539Y-114932376D01*
X81670470Y-115005813D01*
X81614439Y-115074087D01*
X81551986Y-115136540D01*
X81483712Y-115192571D01*
X81410275Y-115241640D01*
X81332383Y-115283274D01*
X81250784Y-115317074D01*
X81166265Y-115342712D01*
X81079640Y-115359943D01*
X80991744Y-115368600D01*
X80923049Y-115368600D01*
X80923049Y-114969082D01*
X80972117Y-114969082D01*
X81020948Y-114964272D01*
X81069073Y-114954700D01*
X81116028Y-114940456D01*
X81161361Y-114921679D01*
X81204634Y-114898548D01*
X81245433Y-114871288D01*
X81283362Y-114840160D01*
X81318059Y-114805463D01*
X81349187Y-114767534D01*
X81376447Y-114726735D01*
X81399578Y-114683462D01*
X81418355Y-114638129D01*
X81432599Y-114591174D01*
X81442171Y-114543049D01*
X81446981Y-114494218D01*
X81446981Y-114445150D01*
X81442171Y-114396319D01*
X81432599Y-114348194D01*
X81418355Y-114301239D01*
X81399578Y-114255906D01*
X81376447Y-114212633D01*
X81349187Y-114171834D01*
X81318059Y-114133905D01*
X81283362Y-114099208D01*
X81245433Y-114068080D01*
X81204634Y-114040820D01*
X81161361Y-114017689D01*
X81116028Y-113998912D01*
X81069073Y-113984668D01*
X81020948Y-113975096D01*
X80972117Y-113970286D01*
X80923049Y-113970286D01*
X80874218Y-113975096D01*
X80826093Y-113984668D01*
X80779138Y-113998912D01*
X80733805Y-114017689D01*
X80690532Y-114040820D01*
X80649733Y-114068080D01*
X80611804Y-114099208D01*
X80577107Y-114133905D01*
X80545979Y-114171834D01*
X80518719Y-114212633D01*
X80495588Y-114255906D01*
X80476811Y-114301239D01*
X80462567Y-114348194D01*
X80452995Y-114396319D01*
X80448185Y-114445150D01*
X80448185Y-114494218D01*
X80452995Y-114543049D01*
X80462567Y-114591174D01*
X80476811Y-114638129D01*
X80495588Y-114683462D01*
X80518719Y-114726735D01*
X80545979Y-114767534D01*
X80577107Y-114805463D01*
X80611804Y-114840160D01*
X80649733Y-114871288D01*
X80690532Y-114898548D01*
X80733805Y-114921679D01*
X80779138Y-114940456D01*
X80826093Y-114954700D01*
X80874218Y-114964272D01*
X80923049Y-114969082D01*
X80923049Y-115368600D01*
X80903422Y-115368600D01*
X80815526Y-115359943D01*
X80728901Y-115342712D01*
X80644382Y-115317074D01*
X80562783Y-115283274D01*
X80484891Y-115241640D01*
X80411454Y-115192571D01*
X80343180Y-115136540D01*
X80280727Y-115074087D01*
X80224696Y-115005813D01*
X80175627Y-114932376D01*
X80133993Y-114854484D01*
X80100193Y-114772885D01*
X80074555Y-114688366D01*
X80057324Y-114601741D01*
X80048667Y-114513845D01*
X80048667Y-114425523D01*
X80057324Y-114337627D01*
G37*
%TD.AperFunction*%
%TA.AperFunction,SMDPad,CuDef*%
%TO.P,D2,1*%
%TO.N,/A2*%
G36*
X80057324Y-111797627D02*
G01*
X80074555Y-111711002D01*
X80100193Y-111626483D01*
X80133993Y-111544884D01*
X80175627Y-111466992D01*
X80224696Y-111393555D01*
X80280727Y-111325281D01*
X80343180Y-111262828D01*
X80411454Y-111206797D01*
X80484891Y-111157728D01*
X80562783Y-111116094D01*
X80644382Y-111082294D01*
X80728901Y-111056656D01*
X80815526Y-111039425D01*
X80903422Y-111030768D01*
X80929211Y-111030768D01*
X80937769Y-111029925D01*
X80957397Y-111029925D01*
X80965955Y-111030768D01*
X80991744Y-111030768D01*
X81079640Y-111039425D01*
X81166265Y-111056656D01*
X81250784Y-111082294D01*
X81332383Y-111116094D01*
X81410275Y-111157728D01*
X81483712Y-111206797D01*
X81551986Y-111262828D01*
X81614439Y-111325281D01*
X81670470Y-111393555D01*
X81719539Y-111466992D01*
X81761173Y-111544884D01*
X81794973Y-111626483D01*
X81820611Y-111711002D01*
X81837842Y-111797627D01*
X81846499Y-111885523D01*
X81846499Y-111973845D01*
X81837842Y-112061741D01*
X81820611Y-112148366D01*
X81794973Y-112232885D01*
X81761173Y-112314484D01*
X81719539Y-112392376D01*
X81670470Y-112465813D01*
X81614439Y-112534087D01*
X81551986Y-112596540D01*
X81483712Y-112652571D01*
X81410275Y-112701640D01*
X81332383Y-112743274D01*
X81250784Y-112777074D01*
X81166265Y-112802712D01*
X81079640Y-112819943D01*
X80991744Y-112828600D01*
X80923049Y-112828600D01*
X80923049Y-112429082D01*
X80972117Y-112429082D01*
X81020948Y-112424272D01*
X81069073Y-112414700D01*
X81116028Y-112400456D01*
X81161361Y-112381679D01*
X81204634Y-112358548D01*
X81245433Y-112331288D01*
X81283362Y-112300160D01*
X81318059Y-112265463D01*
X81349187Y-112227534D01*
X81376447Y-112186735D01*
X81399578Y-112143462D01*
X81418355Y-112098129D01*
X81432599Y-112051174D01*
X81442171Y-112003049D01*
X81446981Y-111954218D01*
X81446981Y-111905150D01*
X81442171Y-111856319D01*
X81432599Y-111808194D01*
X81418355Y-111761239D01*
X81399578Y-111715906D01*
X81376447Y-111672633D01*
X81349187Y-111631834D01*
X81318059Y-111593905D01*
X81283362Y-111559208D01*
X81245433Y-111528080D01*
X81204634Y-111500820D01*
X81161361Y-111477689D01*
X81116028Y-111458912D01*
X81069073Y-111444668D01*
X81020948Y-111435096D01*
X80972117Y-111430286D01*
X80923049Y-111430286D01*
X80874218Y-111435096D01*
X80826093Y-111444668D01*
X80779138Y-111458912D01*
X80733805Y-111477689D01*
X80690532Y-111500820D01*
X80649733Y-111528080D01*
X80611804Y-111559208D01*
X80577107Y-111593905D01*
X80545979Y-111631834D01*
X80518719Y-111672633D01*
X80495588Y-111715906D01*
X80476811Y-111761239D01*
X80462567Y-111808194D01*
X80452995Y-111856319D01*
X80448185Y-111905150D01*
X80448185Y-111954218D01*
X80452995Y-112003049D01*
X80462567Y-112051174D01*
X80476811Y-112098129D01*
X80495588Y-112143462D01*
X80518719Y-112186735D01*
X80545979Y-112227534D01*
X80577107Y-112265463D01*
X80611804Y-112300160D01*
X80649733Y-112331288D01*
X80690532Y-112358548D01*
X80733805Y-112381679D01*
X80779138Y-112400456D01*
X80826093Y-112414700D01*
X80874218Y-112424272D01*
X80923049Y-112429082D01*
X80923049Y-112828600D01*
X80903422Y-112828600D01*
X80815526Y-112819943D01*
X80728901Y-112802712D01*
X80644382Y-112777074D01*
X80562783Y-112743274D01*
X80484891Y-112701640D01*
X80411454Y-112652571D01*
X80343180Y-112596540D01*
X80280727Y-112534087D01*
X80224696Y-112465813D01*
X80175627Y-112392376D01*
X80133993Y-112314484D01*
X80100193Y-112232885D01*
X80074555Y-112148366D01*
X80057324Y-112061741D01*
X80048667Y-111973845D01*
X80048667Y-111885523D01*
X80057324Y-111797627D01*
G37*
%TD.AperFunction*%
%TD*%
%TA.AperFunction,SMDPad,CuDef*%
%TO.P,D1,2*%
%TO.N,GND*%
G36*
X44057324Y-114337627D02*
G01*
X44074555Y-114251002D01*
X44100193Y-114166483D01*
X44133993Y-114084884D01*
X44175627Y-114006992D01*
X44224696Y-113933555D01*
X44280727Y-113865281D01*
X44343180Y-113802828D01*
X44411454Y-113746797D01*
X44484891Y-113697728D01*
X44562783Y-113656094D01*
X44644382Y-113622294D01*
X44728901Y-113596656D01*
X44815526Y-113579425D01*
X44903422Y-113570768D01*
X44929211Y-113570768D01*
X44937769Y-113569925D01*
X44957397Y-113569925D01*
X44965955Y-113570768D01*
X44991744Y-113570768D01*
X45079640Y-113579425D01*
X45166265Y-113596656D01*
X45250784Y-113622294D01*
X45332383Y-113656094D01*
X45410275Y-113697728D01*
X45483712Y-113746797D01*
X45551986Y-113802828D01*
X45614439Y-113865281D01*
X45670470Y-113933555D01*
X45719539Y-114006992D01*
X45761173Y-114084884D01*
X45794973Y-114166483D01*
X45820611Y-114251002D01*
X45837842Y-114337627D01*
X45846499Y-114425523D01*
X45846499Y-114513845D01*
X45837842Y-114601741D01*
X45820611Y-114688366D01*
X45794973Y-114772885D01*
X45761173Y-114854484D01*
X45719539Y-114932376D01*
X45670470Y-115005813D01*
X45614439Y-115074087D01*
X45551986Y-115136540D01*
X45483712Y-115192571D01*
X45410275Y-115241640D01*
X45332383Y-115283274D01*
X45250784Y-115317074D01*
X45166265Y-115342712D01*
X45079640Y-115359943D01*
X44991744Y-115368600D01*
X44923049Y-115368600D01*
X44923049Y-114969082D01*
X44972117Y-114969082D01*
X45020948Y-114964272D01*
X45069073Y-114954700D01*
X45116028Y-114940456D01*
X45161361Y-114921679D01*
X45204634Y-114898548D01*
X45245433Y-114871288D01*
X45283362Y-114840160D01*
X45318059Y-114805463D01*
X45349187Y-114767534D01*
X45376447Y-114726735D01*
X45399578Y-114683462D01*
X45418355Y-114638129D01*
X45432599Y-114591174D01*
X45442171Y-114543049D01*
X45446981Y-114494218D01*
X45446981Y-114445150D01*
X45442171Y-114396319D01*
X45432599Y-114348194D01*
X45418355Y-114301239D01*
X45399578Y-114255906D01*
X45376447Y-114212633D01*
X45349187Y-114171834D01*
X45318059Y-114133905D01*
X45283362Y-114099208D01*
X45245433Y-114068080D01*
X45204634Y-114040820D01*
X45161361Y-114017689D01*
X45116028Y-113998912D01*
X45069073Y-113984668D01*
X45020948Y-113975096D01*
X44972117Y-113970286D01*
X44923049Y-113970286D01*
X44874218Y-113975096D01*
X44826093Y-113984668D01*
X44779138Y-113998912D01*
X44733805Y-114017689D01*
X44690532Y-114040820D01*
X44649733Y-114068080D01*
X44611804Y-114099208D01*
X44577107Y-114133905D01*
X44545979Y-114171834D01*
X44518719Y-114212633D01*
X44495588Y-114255906D01*
X44476811Y-114301239D01*
X44462567Y-114348194D01*
X44452995Y-114396319D01*
X44448185Y-114445150D01*
X44448185Y-114494218D01*
X44452995Y-114543049D01*
X44462567Y-114591174D01*
X44476811Y-114638129D01*
X44495588Y-114683462D01*
X44518719Y-114726735D01*
X44545979Y-114767534D01*
X44577107Y-114805463D01*
X44611804Y-114840160D01*
X44649733Y-114871288D01*
X44690532Y-114898548D01*
X44733805Y-114921679D01*
X44779138Y-114940456D01*
X44826093Y-114954700D01*
X44874218Y-114964272D01*
X44923049Y-114969082D01*
X44923049Y-115368600D01*
X44903422Y-115368600D01*
X44815526Y-115359943D01*
X44728901Y-115342712D01*
X44644382Y-115317074D01*
X44562783Y-115283274D01*
X44484891Y-115241640D01*
X44411454Y-115192571D01*
X44343180Y-115136540D01*
X44280727Y-115074087D01*
X44224696Y-115005813D01*
X44175627Y-114932376D01*
X44133993Y-114854484D01*
X44100193Y-114772885D01*
X44074555Y-114688366D01*
X44057324Y-114601741D01*
X44048667Y-114513845D01*
X44048667Y-114425523D01*
X44057324Y-114337627D01*
G37*
%TD.AperFunction*%
%TA.AperFunction,SMDPad,CuDef*%
%TO.P,D1,1*%
%TO.N,Net-(D1-Pad1)*%
G36*
X44057324Y-111797627D02*
G01*
X44074555Y-111711002D01*
X44100193Y-111626483D01*
X44133993Y-111544884D01*
X44175627Y-111466992D01*
X44224696Y-111393555D01*
X44280727Y-111325281D01*
X44343180Y-111262828D01*
X44411454Y-111206797D01*
X44484891Y-111157728D01*
X44562783Y-111116094D01*
X44644382Y-111082294D01*
X44728901Y-111056656D01*
X44815526Y-111039425D01*
X44903422Y-111030768D01*
X44929211Y-111030768D01*
X44937769Y-111029925D01*
X44957397Y-111029925D01*
X44965955Y-111030768D01*
X44991744Y-111030768D01*
X45079640Y-111039425D01*
X45166265Y-111056656D01*
X45250784Y-111082294D01*
X45332383Y-111116094D01*
X45410275Y-111157728D01*
X45483712Y-111206797D01*
X45551986Y-111262828D01*
X45614439Y-111325281D01*
X45670470Y-111393555D01*
X45719539Y-111466992D01*
X45761173Y-111544884D01*
X45794973Y-111626483D01*
X45820611Y-111711002D01*
X45837842Y-111797627D01*
X45846499Y-111885523D01*
X45846499Y-111973845D01*
X45837842Y-112061741D01*
X45820611Y-112148366D01*
X45794973Y-112232885D01*
X45761173Y-112314484D01*
X45719539Y-112392376D01*
X45670470Y-112465813D01*
X45614439Y-112534087D01*
X45551986Y-112596540D01*
X45483712Y-112652571D01*
X45410275Y-112701640D01*
X45332383Y-112743274D01*
X45250784Y-112777074D01*
X45166265Y-112802712D01*
X45079640Y-112819943D01*
X44991744Y-112828600D01*
X44923049Y-112828600D01*
X44923049Y-112429082D01*
X44972117Y-112429082D01*
X45020948Y-112424272D01*
X45069073Y-112414700D01*
X45116028Y-112400456D01*
X45161361Y-112381679D01*
X45204634Y-112358548D01*
X45245433Y-112331288D01*
X45283362Y-112300160D01*
X45318059Y-112265463D01*
X45349187Y-112227534D01*
X45376447Y-112186735D01*
X45399578Y-112143462D01*
X45418355Y-112098129D01*
X45432599Y-112051174D01*
X45442171Y-112003049D01*
X45446981Y-111954218D01*
X45446981Y-111905150D01*
X45442171Y-111856319D01*
X45432599Y-111808194D01*
X45418355Y-111761239D01*
X45399578Y-111715906D01*
X45376447Y-111672633D01*
X45349187Y-111631834D01*
X45318059Y-111593905D01*
X45283362Y-111559208D01*
X45245433Y-111528080D01*
X45204634Y-111500820D01*
X45161361Y-111477689D01*
X45116028Y-111458912D01*
X45069073Y-111444668D01*
X45020948Y-111435096D01*
X44972117Y-111430286D01*
X44923049Y-111430286D01*
X44874218Y-111435096D01*
X44826093Y-111444668D01*
X44779138Y-111458912D01*
X44733805Y-111477689D01*
X44690532Y-111500820D01*
X44649733Y-111528080D01*
X44611804Y-111559208D01*
X44577107Y-111593905D01*
X44545979Y-111631834D01*
X44518719Y-111672633D01*
X44495588Y-111715906D01*
X44476811Y-111761239D01*
X44462567Y-111808194D01*
X44452995Y-111856319D01*
X44448185Y-111905150D01*
X44448185Y-111954218D01*
X44452995Y-112003049D01*
X44462567Y-112051174D01*
X44476811Y-112098129D01*
X44495588Y-112143462D01*
X44518719Y-112186735D01*
X44545979Y-112227534D01*
X44577107Y-112265463D01*
X44611804Y-112300160D01*
X44649733Y-112331288D01*
X44690532Y-112358548D01*
X44733805Y-112381679D01*
X44779138Y-112400456D01*
X44826093Y-112414700D01*
X44874218Y-112424272D01*
X44923049Y-112429082D01*
X44923049Y-112828600D01*
X44903422Y-112828600D01*
X44815526Y-112819943D01*
X44728901Y-112802712D01*
X44644382Y-112777074D01*
X44562783Y-112743274D01*
X44484891Y-112701640D01*
X44411454Y-112652571D01*
X44343180Y-112596540D01*
X44280727Y-112534087D01*
X44224696Y-112465813D01*
X44175627Y-112392376D01*
X44133993Y-112314484D01*
X44100193Y-112232885D01*
X44074555Y-112148366D01*
X44057324Y-112061741D01*
X44048667Y-111973845D01*
X44048667Y-111885523D01*
X44057324Y-111797627D01*
G37*
%TD.AperFunction*%
%TD*%
D14*
%TO.N,+5V*%
X155000000Y-116546360D03*
X155000000Y-114965360D03*
X219000000Y-89000000D03*
X216000000Y-86000000D03*
X195000000Y-94000000D03*
X195000000Y-99000000D03*
X195000000Y-104000000D03*
X195000000Y-110000000D03*
X195000000Y-113000000D03*
%TO.N,GND*%
X188000000Y-107000000D03*
X188000000Y-110000000D03*
X78000000Y-114000000D03*
X150000000Y-114000000D03*
X201000000Y-116546361D03*
X208000000Y-116000000D03*
%TO.N,Net-(D5-Pad1)*%
X189000000Y-105000000D03*
X189000000Y-110000000D03*
%TD*%
D15*
%TO.N,+5V*%
X228471510Y-91994510D02*
X228471510Y-112189699D01*
X227881000Y-91404000D02*
X228471510Y-91994510D01*
X225000000Y-91404000D02*
X227881000Y-91404000D01*
X81351024Y-113629183D02*
X80947583Y-113629183D01*
X86431015Y-118709174D02*
X81351024Y-113629183D01*
X155709174Y-117255534D02*
X155000000Y-116546360D01*
X155709174Y-118709174D02*
X155709174Y-117255534D01*
X221952035Y-118709174D02*
X155709174Y-118709174D01*
X155709174Y-118709174D02*
X86431015Y-118709174D01*
X153663823Y-113629183D02*
X152947583Y-113629183D01*
X155000000Y-114965360D02*
X153663823Y-113629183D01*
X225351024Y-113629183D02*
X224947583Y-113629183D01*
X225552446Y-113830605D02*
X225351024Y-113629183D01*
X226830605Y-113830605D02*
X225552446Y-113830605D01*
X228471510Y-112189699D02*
X226830605Y-113830605D01*
X226830605Y-113830605D02*
X221952035Y-118709174D01*
X219000000Y-89000000D02*
X216000000Y-86000000D01*
X216000000Y-86000000D02*
X215000000Y-87000000D01*
X202000000Y-87000000D02*
X195000000Y-94000000D01*
X215000000Y-87000000D02*
X202000000Y-87000000D01*
X195000000Y-99000000D02*
X195000000Y-104000000D01*
X195000000Y-110000000D02*
X195000000Y-113000000D01*
X222596000Y-89000000D02*
X225000000Y-91404000D01*
X219000000Y-89000000D02*
X222596000Y-89000000D01*
%TO.N,GND*%
X209000000Y-106000000D02*
X209000000Y-103000000D01*
X209000000Y-103000000D02*
X209000000Y-100000000D01*
X224277499Y-98809499D02*
X225000000Y-99532000D01*
X210190501Y-98809499D02*
X224277499Y-98809499D01*
X209000000Y-100000000D02*
X210190501Y-98809499D01*
X45351024Y-113629183D02*
X44947583Y-113629183D01*
X84712696Y-113629183D02*
X81591686Y-110508173D01*
X117088083Y-113629183D02*
X84712696Y-113629183D01*
X48472034Y-110508173D02*
X45351024Y-113629183D01*
X124717266Y-106000000D02*
X117088083Y-113629183D01*
X188000000Y-106000000D02*
X188000000Y-107000000D01*
X209000000Y-106000000D02*
X188000000Y-106000000D01*
X188629183Y-113629183D02*
X188947583Y-113629183D01*
X187600001Y-112600001D02*
X188629183Y-113629183D01*
X187600001Y-110399999D02*
X187600001Y-112600001D01*
X188000000Y-110000000D02*
X187600001Y-110399999D01*
X77491827Y-110508173D02*
X77491827Y-113491827D01*
X77491827Y-113491827D02*
X78000000Y-114000000D01*
X81591686Y-110508173D02*
X77491827Y-110508173D01*
X77491827Y-110508173D02*
X48472034Y-110508173D01*
X149000000Y-113000000D02*
X150000000Y-114000000D01*
X149000000Y-106000000D02*
X149000000Y-113000000D01*
X188000000Y-106000000D02*
X149000000Y-106000000D01*
X149000000Y-106000000D02*
X124717266Y-106000000D01*
X207453639Y-116546361D02*
X208000000Y-116000000D01*
X201000000Y-116546361D02*
X207453639Y-116546361D01*
%TO.N,Net-(D1-Pad1)*%
X61036766Y-95000000D02*
X44947583Y-111089183D01*
X209000000Y-95000000D02*
X61036766Y-95000000D01*
%TO.N,/A2*%
X224628000Y-106000000D02*
X225000000Y-105628000D01*
X216620000Y-106000000D02*
X224628000Y-106000000D01*
X81351024Y-111089183D02*
X80947583Y-111089183D01*
X86017701Y-115755860D02*
X81351024Y-111089183D01*
X206864140Y-115755860D02*
X86017701Y-115755860D01*
X216620000Y-106000000D02*
X206864140Y-115755860D01*
%TO.N,Net-(D3-Pad1)*%
X209571441Y-96190501D02*
X129190501Y-96190501D01*
X210190501Y-95571441D02*
X209571441Y-96190501D01*
X210190501Y-93190501D02*
X210190501Y-95571441D01*
X209000000Y-92000000D02*
X210190501Y-93190501D01*
X116947582Y-108433420D02*
X116947582Y-111089183D01*
X129190501Y-96190501D02*
X116947582Y-108433420D01*
%TO.N,/A0*%
X224404000Y-103000000D02*
X225000000Y-103596000D01*
X216620000Y-103000000D02*
X224404000Y-103000000D01*
X216620000Y-103000000D02*
X210620000Y-109000000D01*
X153088084Y-111089183D02*
X152947583Y-111089183D01*
X155177267Y-109000000D02*
X153088084Y-111089183D01*
X210620000Y-109000000D02*
X155177267Y-109000000D01*
%TO.N,/A10*%
X218184000Y-101564000D02*
X225000000Y-101564000D01*
X216620000Y-100000000D02*
X218184000Y-101564000D01*
X225088084Y-111089183D02*
X224947583Y-111089183D01*
X227890501Y-108286766D02*
X225088084Y-111089183D01*
X227890501Y-101573501D02*
X227890501Y-108286766D01*
X227881000Y-101564000D02*
X227890501Y-101573501D01*
X225000000Y-101564000D02*
X227881000Y-101564000D01*
%TO.N,Net-(D5-Pad1)*%
X201583614Y-105000000D02*
X189000000Y-105000000D01*
X210771510Y-95812104D02*
X201583614Y-105000000D01*
X210771510Y-90771510D02*
X210771510Y-95812104D01*
X209000000Y-89000000D02*
X210771510Y-90771510D01*
X189000000Y-111036766D02*
X188947583Y-111089183D01*
X189000000Y-110000000D02*
X189000000Y-111036766D01*
%TO.N,/14*%
X219120000Y-97500000D02*
X225000000Y-97500000D01*
X216620000Y-95000000D02*
X219120000Y-97500000D01*
%TO.N,/6*%
X221056000Y-93436000D02*
X225000000Y-93436000D01*
X216620000Y-89000000D02*
X221056000Y-93436000D01*
%TO.N,/16*%
X220088000Y-95468000D02*
X225000000Y-95468000D01*
X216620000Y-92000000D02*
X220088000Y-95468000D01*
%TD*%
D16*
X241599810Y-117927551D02*
X241519990Y-118094148D01*
X241430964Y-118213151D01*
X241320527Y-118312590D01*
X241192869Y-118388689D01*
X241052868Y-118438541D01*
X240879032Y-118464210D01*
X240859650Y-118464684D01*
X223363958Y-118464684D01*
X227385646Y-114442997D01*
X227417146Y-114417146D01*
X227443003Y-114385639D01*
X229026555Y-112802088D01*
X229058051Y-112776240D01*
X229083899Y-112744744D01*
X229083902Y-112744741D01*
X229161209Y-112650542D01*
X229237863Y-112507133D01*
X229266278Y-112413460D01*
X229285066Y-112351525D01*
X229297010Y-112230252D01*
X229297010Y-112230249D01*
X229301004Y-112189699D01*
X229297010Y-112149149D01*
X229297010Y-108070992D01*
X235673020Y-108070992D01*
X235673020Y-108511248D01*
X235758910Y-108943045D01*
X235927389Y-109349789D01*
X236171982Y-109715849D01*
X236483291Y-110027158D01*
X236849351Y-110271751D01*
X237256095Y-110440230D01*
X237687892Y-110526120D01*
X238128148Y-110526120D01*
X238559945Y-110440230D01*
X238966689Y-110271751D01*
X239332749Y-110027158D01*
X239644058Y-109715849D01*
X239888651Y-109349789D01*
X240057130Y-108943045D01*
X240143020Y-108511248D01*
X240143020Y-108070992D01*
X240057130Y-107639195D01*
X239888651Y-107232451D01*
X239644058Y-106866391D01*
X239332749Y-106555082D01*
X238966689Y-106310489D01*
X238559945Y-106142010D01*
X238128148Y-106056120D01*
X237687892Y-106056120D01*
X237256095Y-106142010D01*
X236849351Y-106310489D01*
X236483291Y-106555082D01*
X236171982Y-106866391D01*
X235927389Y-107232451D01*
X235758910Y-107639195D01*
X235673020Y-108070992D01*
X229297010Y-108070992D01*
X229297010Y-92035060D01*
X229301004Y-91994509D01*
X229297010Y-91953957D01*
X229285066Y-91832684D01*
X229237863Y-91677076D01*
X229178398Y-91565826D01*
X229161209Y-91533667D01*
X229083901Y-91439468D01*
X229058051Y-91407969D01*
X229026550Y-91382117D01*
X228493398Y-90848966D01*
X228467541Y-90817459D01*
X228341842Y-90714301D01*
X228198434Y-90637647D01*
X228134553Y-90618269D01*
X228125812Y-90529518D01*
X228089502Y-90409820D01*
X228030537Y-90299506D01*
X227951185Y-90202815D01*
X227854494Y-90123463D01*
X227744180Y-90064498D01*
X227624482Y-90028188D01*
X227500000Y-90015928D01*
X224779361Y-90015928D01*
X224040572Y-89277139D01*
X242513423Y-89277139D01*
X242513423Y-89717395D01*
X242599313Y-90149192D01*
X242767792Y-90555936D01*
X243012385Y-90921996D01*
X243323694Y-91233305D01*
X243689754Y-91477898D01*
X244096498Y-91646377D01*
X244528295Y-91732267D01*
X244968551Y-91732267D01*
X245400348Y-91646377D01*
X245807092Y-91477898D01*
X246173152Y-91233305D01*
X246484461Y-90921996D01*
X246729054Y-90555936D01*
X246897533Y-90149192D01*
X246983423Y-89717395D01*
X246983423Y-89277139D01*
X246897533Y-88845342D01*
X246729054Y-88438598D01*
X246484461Y-88072538D01*
X246173152Y-87761229D01*
X245807092Y-87516636D01*
X245400348Y-87348157D01*
X244968551Y-87262267D01*
X244528295Y-87262267D01*
X244096498Y-87348157D01*
X243689754Y-87516636D01*
X243323694Y-87761229D01*
X243012385Y-88072538D01*
X242767792Y-88438598D01*
X242599313Y-88845342D01*
X242513423Y-89277139D01*
X224040572Y-89277139D01*
X223208398Y-88444966D01*
X223182541Y-88413459D01*
X223056842Y-88310301D01*
X222913434Y-88233647D01*
X222757826Y-88186444D01*
X222636553Y-88174500D01*
X222636550Y-88174500D01*
X222596000Y-88170506D01*
X222555450Y-88174500D01*
X219627503Y-88174500D01*
X219490256Y-88082795D01*
X219301898Y-88004774D01*
X219140006Y-87972572D01*
X217027428Y-85859996D01*
X216995226Y-85698102D01*
X216917205Y-85509744D01*
X216803937Y-85340226D01*
X216659774Y-85196063D01*
X216490256Y-85082795D01*
X216301898Y-85004774D01*
X216101939Y-84965000D01*
X215898061Y-84965000D01*
X215698102Y-85004774D01*
X215509744Y-85082795D01*
X215340226Y-85196063D01*
X215196063Y-85340226D01*
X215082795Y-85509744D01*
X215004774Y-85698102D01*
X214972572Y-85859995D01*
X214658067Y-86174500D01*
X202040550Y-86174500D01*
X202000000Y-86170506D01*
X201959449Y-86174500D01*
X201959447Y-86174500D01*
X201838174Y-86186444D01*
X201682566Y-86233647D01*
X201539157Y-86310301D01*
X201530466Y-86317434D01*
X201413459Y-86413459D01*
X201387608Y-86444959D01*
X194859996Y-92972571D01*
X194698102Y-93004774D01*
X194509744Y-93082795D01*
X194340226Y-93196063D01*
X194196063Y-93340226D01*
X194082795Y-93509744D01*
X194004774Y-93698102D01*
X193965000Y-93898061D01*
X193965000Y-94101939D01*
X193979433Y-94174500D01*
X61077316Y-94174500D01*
X61036766Y-94170506D01*
X60996215Y-94174500D01*
X60996213Y-94174500D01*
X60874940Y-94186444D01*
X60719332Y-94233647D01*
X60575923Y-94310301D01*
X60481724Y-94387608D01*
X60481723Y-94387609D01*
X60450225Y-94413459D01*
X60424377Y-94444955D01*
X44353805Y-110515529D01*
X44279147Y-110546453D01*
X44168832Y-110605418D01*
X44022135Y-110703438D01*
X43925444Y-110782790D01*
X43800689Y-110907545D01*
X43721337Y-111004236D01*
X43623317Y-111150933D01*
X43564352Y-111261248D01*
X43496835Y-111424249D01*
X43460525Y-111543946D01*
X43426105Y-111716987D01*
X43413845Y-111841469D01*
X43413845Y-112017899D01*
X43426105Y-112142381D01*
X43460525Y-112315422D01*
X43496835Y-112435119D01*
X43564352Y-112598120D01*
X43623317Y-112708435D01*
X43721337Y-112855132D01*
X43800689Y-112951823D01*
X43925444Y-113076578D01*
X44022135Y-113155930D01*
X44087617Y-113199684D01*
X44022135Y-113243438D01*
X43925444Y-113322790D01*
X43800689Y-113447545D01*
X43721337Y-113544236D01*
X43623317Y-113690933D01*
X43564352Y-113801248D01*
X43496835Y-113964249D01*
X43460525Y-114083946D01*
X43426105Y-114256987D01*
X43413845Y-114381469D01*
X43413845Y-114557899D01*
X43426105Y-114682381D01*
X43460525Y-114855422D01*
X43496835Y-114975119D01*
X43564352Y-115138120D01*
X43623317Y-115248435D01*
X43721337Y-115395132D01*
X43800689Y-115491823D01*
X43925444Y-115616578D01*
X44022135Y-115695930D01*
X44168832Y-115793950D01*
X44279147Y-115852915D01*
X44442148Y-115920432D01*
X44561845Y-115956742D01*
X44734886Y-115991162D01*
X44859368Y-116003422D01*
X45035798Y-116003422D01*
X45160280Y-115991162D01*
X45333321Y-115956742D01*
X45453018Y-115920432D01*
X45616019Y-115852915D01*
X45726334Y-115793950D01*
X45873031Y-115695930D01*
X45969722Y-115616578D01*
X46094477Y-115491823D01*
X46173829Y-115395132D01*
X46271849Y-115248435D01*
X46330814Y-115138120D01*
X46398331Y-114975119D01*
X46434641Y-114855422D01*
X46469061Y-114682381D01*
X46481321Y-114557899D01*
X46481321Y-114381469D01*
X46469061Y-114256987D01*
X46434641Y-114083946D01*
X46398331Y-113964249D01*
X46335376Y-113812263D01*
X48813968Y-111333673D01*
X76666327Y-111333673D01*
X76666328Y-113451267D01*
X76662333Y-113491827D01*
X76678272Y-113653653D01*
X76725474Y-113809260D01*
X76802128Y-113952669D01*
X76840972Y-114000000D01*
X76905287Y-114078368D01*
X76936788Y-114104220D01*
X76972571Y-114140003D01*
X77004774Y-114301898D01*
X77082795Y-114490256D01*
X77196063Y-114659774D01*
X77340226Y-114803937D01*
X77509744Y-114917205D01*
X77698102Y-114995226D01*
X77898061Y-115035000D01*
X78101939Y-115035000D01*
X78301898Y-114995226D01*
X78490256Y-114917205D01*
X78659774Y-114803937D01*
X78803937Y-114659774D01*
X78917205Y-114490256D01*
X78995226Y-114301898D01*
X79035000Y-114101939D01*
X79035000Y-113898061D01*
X78995226Y-113698102D01*
X78917205Y-113509744D01*
X78803937Y-113340226D01*
X78659774Y-113196063D01*
X78490256Y-113082795D01*
X78317327Y-113011165D01*
X78317327Y-111333673D01*
X79534353Y-111333673D01*
X79496835Y-111424249D01*
X79460525Y-111543946D01*
X79426105Y-111716987D01*
X79413845Y-111841469D01*
X79413845Y-112017899D01*
X79426105Y-112142381D01*
X79460525Y-112315422D01*
X79496835Y-112435119D01*
X79564352Y-112598120D01*
X79623317Y-112708435D01*
X79721337Y-112855132D01*
X79800689Y-112951823D01*
X79925444Y-113076578D01*
X80022135Y-113155930D01*
X80087617Y-113199684D01*
X80022135Y-113243438D01*
X79925444Y-113322790D01*
X79800689Y-113447545D01*
X79721337Y-113544236D01*
X79623317Y-113690933D01*
X79564352Y-113801248D01*
X79496835Y-113964249D01*
X79460525Y-114083946D01*
X79426105Y-114256987D01*
X79413845Y-114381469D01*
X79413845Y-114557899D01*
X79426105Y-114682381D01*
X79460525Y-114855422D01*
X79496835Y-114975119D01*
X79564352Y-115138120D01*
X79623317Y-115248435D01*
X79721337Y-115395132D01*
X79800689Y-115491823D01*
X79925444Y-115616578D01*
X80022135Y-115695930D01*
X80168832Y-115793950D01*
X80279147Y-115852915D01*
X80442148Y-115920432D01*
X80561845Y-115956742D01*
X80734886Y-115991162D01*
X80859368Y-116003422D01*
X81035798Y-116003422D01*
X81160280Y-115991162D01*
X81333321Y-115956742D01*
X81453018Y-115920432D01*
X81616019Y-115852915D01*
X81726334Y-115793950D01*
X81873031Y-115695930D01*
X81969722Y-115616578D01*
X82070354Y-115515946D01*
X85019092Y-118464684D01*
X38556862Y-118464684D01*
X38373015Y-118446658D01*
X38230739Y-118403702D01*
X38099525Y-118333934D01*
X37984356Y-118240005D01*
X37889625Y-118125494D01*
X37818942Y-117994769D01*
X37774995Y-117852800D01*
X37759461Y-117704998D01*
X37773516Y-117550554D01*
X37812150Y-117410293D01*
X44229098Y-99779872D01*
X47765000Y-99779872D01*
X47765000Y-100220128D01*
X47850890Y-100651925D01*
X48019369Y-101058669D01*
X48263962Y-101424729D01*
X48575271Y-101736038D01*
X48941331Y-101980631D01*
X49348075Y-102149110D01*
X49779872Y-102235000D01*
X50220128Y-102235000D01*
X50651925Y-102149110D01*
X51058669Y-101980631D01*
X51424729Y-101736038D01*
X51736038Y-101424729D01*
X51980631Y-101058669D01*
X52149110Y-100651925D01*
X52235000Y-100220128D01*
X52235000Y-99779872D01*
X52149110Y-99348075D01*
X51980631Y-98941331D01*
X51736038Y-98575271D01*
X51424729Y-98263962D01*
X51058669Y-98019369D01*
X50651925Y-97850890D01*
X50220128Y-97765000D01*
X49779872Y-97765000D01*
X49348075Y-97850890D01*
X48941331Y-98019369D01*
X48575271Y-98263962D01*
X48263962Y-98575271D01*
X48019369Y-98941331D01*
X47850890Y-99348075D01*
X47765000Y-99779872D01*
X44229098Y-99779872D01*
X50387121Y-82860845D01*
X50466944Y-82694242D01*
X50555970Y-82575238D01*
X50666408Y-82475798D01*
X50794065Y-82399700D01*
X50934066Y-82349847D01*
X51107901Y-82324178D01*
X51127284Y-82323704D01*
X254558549Y-82323704D01*
X241599810Y-117927551D01*
%TA.AperFunction,NonConductor*%
D17*
G36*
X241599810Y-117927551D02*
G01*
X241519990Y-118094148D01*
X241430964Y-118213151D01*
X241320527Y-118312590D01*
X241192869Y-118388689D01*
X241052868Y-118438541D01*
X240879032Y-118464210D01*
X240859650Y-118464684D01*
X223363958Y-118464684D01*
X227385646Y-114442997D01*
X227417146Y-114417146D01*
X227443003Y-114385639D01*
X229026555Y-112802088D01*
X229058051Y-112776240D01*
X229083899Y-112744744D01*
X229083902Y-112744741D01*
X229161209Y-112650542D01*
X229237863Y-112507133D01*
X229266278Y-112413460D01*
X229285066Y-112351525D01*
X229297010Y-112230252D01*
X229297010Y-112230249D01*
X229301004Y-112189699D01*
X229297010Y-112149149D01*
X229297010Y-108070992D01*
X235673020Y-108070992D01*
X235673020Y-108511248D01*
X235758910Y-108943045D01*
X235927389Y-109349789D01*
X236171982Y-109715849D01*
X236483291Y-110027158D01*
X236849351Y-110271751D01*
X237256095Y-110440230D01*
X237687892Y-110526120D01*
X238128148Y-110526120D01*
X238559945Y-110440230D01*
X238966689Y-110271751D01*
X239332749Y-110027158D01*
X239644058Y-109715849D01*
X239888651Y-109349789D01*
X240057130Y-108943045D01*
X240143020Y-108511248D01*
X240143020Y-108070992D01*
X240057130Y-107639195D01*
X239888651Y-107232451D01*
X239644058Y-106866391D01*
X239332749Y-106555082D01*
X238966689Y-106310489D01*
X238559945Y-106142010D01*
X238128148Y-106056120D01*
X237687892Y-106056120D01*
X237256095Y-106142010D01*
X236849351Y-106310489D01*
X236483291Y-106555082D01*
X236171982Y-106866391D01*
X235927389Y-107232451D01*
X235758910Y-107639195D01*
X235673020Y-108070992D01*
X229297010Y-108070992D01*
X229297010Y-92035060D01*
X229301004Y-91994509D01*
X229297010Y-91953957D01*
X229285066Y-91832684D01*
X229237863Y-91677076D01*
X229178398Y-91565826D01*
X229161209Y-91533667D01*
X229083901Y-91439468D01*
X229058051Y-91407969D01*
X229026550Y-91382117D01*
X228493398Y-90848966D01*
X228467541Y-90817459D01*
X228341842Y-90714301D01*
X228198434Y-90637647D01*
X228134553Y-90618269D01*
X228125812Y-90529518D01*
X228089502Y-90409820D01*
X228030537Y-90299506D01*
X227951185Y-90202815D01*
X227854494Y-90123463D01*
X227744180Y-90064498D01*
X227624482Y-90028188D01*
X227500000Y-90015928D01*
X224779361Y-90015928D01*
X224040572Y-89277139D01*
X242513423Y-89277139D01*
X242513423Y-89717395D01*
X242599313Y-90149192D01*
X242767792Y-90555936D01*
X243012385Y-90921996D01*
X243323694Y-91233305D01*
X243689754Y-91477898D01*
X244096498Y-91646377D01*
X244528295Y-91732267D01*
X244968551Y-91732267D01*
X245400348Y-91646377D01*
X245807092Y-91477898D01*
X246173152Y-91233305D01*
X246484461Y-90921996D01*
X246729054Y-90555936D01*
X246897533Y-90149192D01*
X246983423Y-89717395D01*
X246983423Y-89277139D01*
X246897533Y-88845342D01*
X246729054Y-88438598D01*
X246484461Y-88072538D01*
X246173152Y-87761229D01*
X245807092Y-87516636D01*
X245400348Y-87348157D01*
X244968551Y-87262267D01*
X244528295Y-87262267D01*
X244096498Y-87348157D01*
X243689754Y-87516636D01*
X243323694Y-87761229D01*
X243012385Y-88072538D01*
X242767792Y-88438598D01*
X242599313Y-88845342D01*
X242513423Y-89277139D01*
X224040572Y-89277139D01*
X223208398Y-88444966D01*
X223182541Y-88413459D01*
X223056842Y-88310301D01*
X222913434Y-88233647D01*
X222757826Y-88186444D01*
X222636553Y-88174500D01*
X222636550Y-88174500D01*
X222596000Y-88170506D01*
X222555450Y-88174500D01*
X219627503Y-88174500D01*
X219490256Y-88082795D01*
X219301898Y-88004774D01*
X219140006Y-87972572D01*
X217027428Y-85859996D01*
X216995226Y-85698102D01*
X216917205Y-85509744D01*
X216803937Y-85340226D01*
X216659774Y-85196063D01*
X216490256Y-85082795D01*
X216301898Y-85004774D01*
X216101939Y-84965000D01*
X215898061Y-84965000D01*
X215698102Y-85004774D01*
X215509744Y-85082795D01*
X215340226Y-85196063D01*
X215196063Y-85340226D01*
X215082795Y-85509744D01*
X215004774Y-85698102D01*
X214972572Y-85859995D01*
X214658067Y-86174500D01*
X202040550Y-86174500D01*
X202000000Y-86170506D01*
X201959449Y-86174500D01*
X201959447Y-86174500D01*
X201838174Y-86186444D01*
X201682566Y-86233647D01*
X201539157Y-86310301D01*
X201530466Y-86317434D01*
X201413459Y-86413459D01*
X201387608Y-86444959D01*
X194859996Y-92972571D01*
X194698102Y-93004774D01*
X194509744Y-93082795D01*
X194340226Y-93196063D01*
X194196063Y-93340226D01*
X194082795Y-93509744D01*
X194004774Y-93698102D01*
X193965000Y-93898061D01*
X193965000Y-94101939D01*
X193979433Y-94174500D01*
X61077316Y-94174500D01*
X61036766Y-94170506D01*
X60996215Y-94174500D01*
X60996213Y-94174500D01*
X60874940Y-94186444D01*
X60719332Y-94233647D01*
X60575923Y-94310301D01*
X60481724Y-94387608D01*
X60481723Y-94387609D01*
X60450225Y-94413459D01*
X60424377Y-94444955D01*
X44353805Y-110515529D01*
X44279147Y-110546453D01*
X44168832Y-110605418D01*
X44022135Y-110703438D01*
X43925444Y-110782790D01*
X43800689Y-110907545D01*
X43721337Y-111004236D01*
X43623317Y-111150933D01*
X43564352Y-111261248D01*
X43496835Y-111424249D01*
X43460525Y-111543946D01*
X43426105Y-111716987D01*
X43413845Y-111841469D01*
X43413845Y-112017899D01*
X43426105Y-112142381D01*
X43460525Y-112315422D01*
X43496835Y-112435119D01*
X43564352Y-112598120D01*
X43623317Y-112708435D01*
X43721337Y-112855132D01*
X43800689Y-112951823D01*
X43925444Y-113076578D01*
X44022135Y-113155930D01*
X44087617Y-113199684D01*
X44022135Y-113243438D01*
X43925444Y-113322790D01*
X43800689Y-113447545D01*
X43721337Y-113544236D01*
X43623317Y-113690933D01*
X43564352Y-113801248D01*
X43496835Y-113964249D01*
X43460525Y-114083946D01*
X43426105Y-114256987D01*
X43413845Y-114381469D01*
X43413845Y-114557899D01*
X43426105Y-114682381D01*
X43460525Y-114855422D01*
X43496835Y-114975119D01*
X43564352Y-115138120D01*
X43623317Y-115248435D01*
X43721337Y-115395132D01*
X43800689Y-115491823D01*
X43925444Y-115616578D01*
X44022135Y-115695930D01*
X44168832Y-115793950D01*
X44279147Y-115852915D01*
X44442148Y-115920432D01*
X44561845Y-115956742D01*
X44734886Y-115991162D01*
X44859368Y-116003422D01*
X45035798Y-116003422D01*
X45160280Y-115991162D01*
X45333321Y-115956742D01*
X45453018Y-115920432D01*
X45616019Y-115852915D01*
X45726334Y-115793950D01*
X45873031Y-115695930D01*
X45969722Y-115616578D01*
X46094477Y-115491823D01*
X46173829Y-115395132D01*
X46271849Y-115248435D01*
X46330814Y-115138120D01*
X46398331Y-114975119D01*
X46434641Y-114855422D01*
X46469061Y-114682381D01*
X46481321Y-114557899D01*
X46481321Y-114381469D01*
X46469061Y-114256987D01*
X46434641Y-114083946D01*
X46398331Y-113964249D01*
X46335376Y-113812263D01*
X48813968Y-111333673D01*
X76666327Y-111333673D01*
X76666328Y-113451267D01*
X76662333Y-113491827D01*
X76678272Y-113653653D01*
X76725474Y-113809260D01*
X76802128Y-113952669D01*
X76840972Y-114000000D01*
X76905287Y-114078368D01*
X76936788Y-114104220D01*
X76972571Y-114140003D01*
X77004774Y-114301898D01*
X77082795Y-114490256D01*
X77196063Y-114659774D01*
X77340226Y-114803937D01*
X77509744Y-114917205D01*
X77698102Y-114995226D01*
X77898061Y-115035000D01*
X78101939Y-115035000D01*
X78301898Y-114995226D01*
X78490256Y-114917205D01*
X78659774Y-114803937D01*
X78803937Y-114659774D01*
X78917205Y-114490256D01*
X78995226Y-114301898D01*
X79035000Y-114101939D01*
X79035000Y-113898061D01*
X78995226Y-113698102D01*
X78917205Y-113509744D01*
X78803937Y-113340226D01*
X78659774Y-113196063D01*
X78490256Y-113082795D01*
X78317327Y-113011165D01*
X78317327Y-111333673D01*
X79534353Y-111333673D01*
X79496835Y-111424249D01*
X79460525Y-111543946D01*
X79426105Y-111716987D01*
X79413845Y-111841469D01*
X79413845Y-112017899D01*
X79426105Y-112142381D01*
X79460525Y-112315422D01*
X79496835Y-112435119D01*
X79564352Y-112598120D01*
X79623317Y-112708435D01*
X79721337Y-112855132D01*
X79800689Y-112951823D01*
X79925444Y-113076578D01*
X80022135Y-113155930D01*
X80087617Y-113199684D01*
X80022135Y-113243438D01*
X79925444Y-113322790D01*
X79800689Y-113447545D01*
X79721337Y-113544236D01*
X79623317Y-113690933D01*
X79564352Y-113801248D01*
X79496835Y-113964249D01*
X79460525Y-114083946D01*
X79426105Y-114256987D01*
X79413845Y-114381469D01*
X79413845Y-114557899D01*
X79426105Y-114682381D01*
X79460525Y-114855422D01*
X79496835Y-114975119D01*
X79564352Y-115138120D01*
X79623317Y-115248435D01*
X79721337Y-115395132D01*
X79800689Y-115491823D01*
X79925444Y-115616578D01*
X80022135Y-115695930D01*
X80168832Y-115793950D01*
X80279147Y-115852915D01*
X80442148Y-115920432D01*
X80561845Y-115956742D01*
X80734886Y-115991162D01*
X80859368Y-116003422D01*
X81035798Y-116003422D01*
X81160280Y-115991162D01*
X81333321Y-115956742D01*
X81453018Y-115920432D01*
X81616019Y-115852915D01*
X81726334Y-115793950D01*
X81873031Y-115695930D01*
X81969722Y-115616578D01*
X82070354Y-115515946D01*
X85019092Y-118464684D01*
X38556862Y-118464684D01*
X38373015Y-118446658D01*
X38230739Y-118403702D01*
X38099525Y-118333934D01*
X37984356Y-118240005D01*
X37889625Y-118125494D01*
X37818942Y-117994769D01*
X37774995Y-117852800D01*
X37759461Y-117704998D01*
X37773516Y-117550554D01*
X37812150Y-117410293D01*
X44229098Y-99779872D01*
X47765000Y-99779872D01*
X47765000Y-100220128D01*
X47850890Y-100651925D01*
X48019369Y-101058669D01*
X48263962Y-101424729D01*
X48575271Y-101736038D01*
X48941331Y-101980631D01*
X49348075Y-102149110D01*
X49779872Y-102235000D01*
X50220128Y-102235000D01*
X50651925Y-102149110D01*
X51058669Y-101980631D01*
X51424729Y-101736038D01*
X51736038Y-101424729D01*
X51980631Y-101058669D01*
X52149110Y-100651925D01*
X52235000Y-100220128D01*
X52235000Y-99779872D01*
X52149110Y-99348075D01*
X51980631Y-98941331D01*
X51736038Y-98575271D01*
X51424729Y-98263962D01*
X51058669Y-98019369D01*
X50651925Y-97850890D01*
X50220128Y-97765000D01*
X49779872Y-97765000D01*
X49348075Y-97850890D01*
X48941331Y-98019369D01*
X48575271Y-98263962D01*
X48263962Y-98575271D01*
X48019369Y-98941331D01*
X47850890Y-99348075D01*
X47765000Y-99779872D01*
X44229098Y-99779872D01*
X50387121Y-82860845D01*
X50466944Y-82694242D01*
X50555970Y-82575238D01*
X50666408Y-82475798D01*
X50794065Y-82399700D01*
X50934066Y-82349847D01*
X51107901Y-82324178D01*
X51127284Y-82323704D01*
X254558549Y-82323704D01*
X241599810Y-117927551D01*
G37*
%TD.AperFunction*%
D16*
X222048815Y-106829185D02*
X222145506Y-106908537D01*
X222255820Y-106967502D01*
X222375518Y-107003812D01*
X222500000Y-107016072D01*
X227065002Y-107016072D01*
X227065002Y-107944832D01*
X224711762Y-110298073D01*
X224630149Y-110322830D01*
X224486741Y-110399484D01*
X224361042Y-110502642D01*
X224348747Y-110517624D01*
X224279147Y-110546453D01*
X224168832Y-110605418D01*
X224022135Y-110703438D01*
X223925444Y-110782790D01*
X223800689Y-110907545D01*
X223721337Y-111004236D01*
X223623317Y-111150933D01*
X223564352Y-111261248D01*
X223496835Y-111424249D01*
X223460525Y-111543946D01*
X223426105Y-111716987D01*
X223413845Y-111841469D01*
X223413845Y-112017899D01*
X223426105Y-112142381D01*
X223460525Y-112315422D01*
X223496835Y-112435119D01*
X223564352Y-112598120D01*
X223623317Y-112708435D01*
X223721337Y-112855132D01*
X223800689Y-112951823D01*
X223925444Y-113076578D01*
X224022135Y-113155930D01*
X224087617Y-113199684D01*
X224022135Y-113243438D01*
X223925444Y-113322790D01*
X223800689Y-113447545D01*
X223721337Y-113544236D01*
X223623317Y-113690933D01*
X223564352Y-113801248D01*
X223496835Y-113964249D01*
X223460525Y-114083946D01*
X223426105Y-114256987D01*
X223413845Y-114381469D01*
X223413845Y-114557899D01*
X223426105Y-114682381D01*
X223460525Y-114855422D01*
X223496835Y-114975119D01*
X223564352Y-115138120D01*
X223623317Y-115248435D01*
X223721337Y-115395132D01*
X223800689Y-115491823D01*
X223901322Y-115592456D01*
X221610103Y-117883674D01*
X156534674Y-117883674D01*
X156534674Y-117296073D01*
X156538667Y-117255533D01*
X156534674Y-117214993D01*
X156534674Y-117214981D01*
X156522730Y-117093708D01*
X156475527Y-116938100D01*
X156398873Y-116794692D01*
X156398872Y-116794690D01*
X156328001Y-116708334D01*
X156295715Y-116668993D01*
X156264213Y-116643140D01*
X156202433Y-116581360D01*
X199965000Y-116581360D01*
X199965000Y-116648300D01*
X200004774Y-116848259D01*
X200082795Y-117036617D01*
X200196063Y-117206135D01*
X200340226Y-117350298D01*
X200509744Y-117463566D01*
X200698102Y-117541587D01*
X200898061Y-117581361D01*
X201101939Y-117581361D01*
X201301898Y-117541587D01*
X201490256Y-117463566D01*
X201627503Y-117371861D01*
X207413089Y-117371861D01*
X207453639Y-117375855D01*
X207494189Y-117371861D01*
X207494192Y-117371861D01*
X207615465Y-117359917D01*
X207771073Y-117312714D01*
X207914481Y-117236060D01*
X208040180Y-117132902D01*
X208066037Y-117101395D01*
X208140003Y-117027429D01*
X208301898Y-116995226D01*
X208490256Y-116917205D01*
X208659774Y-116803937D01*
X208803937Y-116659774D01*
X208917205Y-116490256D01*
X208995226Y-116301898D01*
X209035000Y-116101939D01*
X209035000Y-115898061D01*
X208995226Y-115698102D01*
X208917205Y-115509744D01*
X208803937Y-115340226D01*
X208659774Y-115196063D01*
X208618768Y-115168664D01*
X216373377Y-107414057D01*
X216478665Y-107435000D01*
X216761335Y-107435000D01*
X217038574Y-107379853D01*
X217299727Y-107271680D01*
X217534759Y-107114637D01*
X217734637Y-106914759D01*
X217794278Y-106825500D01*
X222045791Y-106825500D01*
X222048815Y-106829185D01*
%TA.AperFunction,NonConductor*%
D17*
G36*
X222048815Y-106829185D02*
G01*
X222145506Y-106908537D01*
X222255820Y-106967502D01*
X222375518Y-107003812D01*
X222500000Y-107016072D01*
X227065002Y-107016072D01*
X227065002Y-107944832D01*
X224711762Y-110298073D01*
X224630149Y-110322830D01*
X224486741Y-110399484D01*
X224361042Y-110502642D01*
X224348747Y-110517624D01*
X224279147Y-110546453D01*
X224168832Y-110605418D01*
X224022135Y-110703438D01*
X223925444Y-110782790D01*
X223800689Y-110907545D01*
X223721337Y-111004236D01*
X223623317Y-111150933D01*
X223564352Y-111261248D01*
X223496835Y-111424249D01*
X223460525Y-111543946D01*
X223426105Y-111716987D01*
X223413845Y-111841469D01*
X223413845Y-112017899D01*
X223426105Y-112142381D01*
X223460525Y-112315422D01*
X223496835Y-112435119D01*
X223564352Y-112598120D01*
X223623317Y-112708435D01*
X223721337Y-112855132D01*
X223800689Y-112951823D01*
X223925444Y-113076578D01*
X224022135Y-113155930D01*
X224087617Y-113199684D01*
X224022135Y-113243438D01*
X223925444Y-113322790D01*
X223800689Y-113447545D01*
X223721337Y-113544236D01*
X223623317Y-113690933D01*
X223564352Y-113801248D01*
X223496835Y-113964249D01*
X223460525Y-114083946D01*
X223426105Y-114256987D01*
X223413845Y-114381469D01*
X223413845Y-114557899D01*
X223426105Y-114682381D01*
X223460525Y-114855422D01*
X223496835Y-114975119D01*
X223564352Y-115138120D01*
X223623317Y-115248435D01*
X223721337Y-115395132D01*
X223800689Y-115491823D01*
X223901322Y-115592456D01*
X221610103Y-117883674D01*
X156534674Y-117883674D01*
X156534674Y-117296073D01*
X156538667Y-117255533D01*
X156534674Y-117214993D01*
X156534674Y-117214981D01*
X156522730Y-117093708D01*
X156475527Y-116938100D01*
X156398873Y-116794692D01*
X156398872Y-116794690D01*
X156328001Y-116708334D01*
X156295715Y-116668993D01*
X156264213Y-116643140D01*
X156202433Y-116581360D01*
X199965000Y-116581360D01*
X199965000Y-116648300D01*
X200004774Y-116848259D01*
X200082795Y-117036617D01*
X200196063Y-117206135D01*
X200340226Y-117350298D01*
X200509744Y-117463566D01*
X200698102Y-117541587D01*
X200898061Y-117581361D01*
X201101939Y-117581361D01*
X201301898Y-117541587D01*
X201490256Y-117463566D01*
X201627503Y-117371861D01*
X207413089Y-117371861D01*
X207453639Y-117375855D01*
X207494189Y-117371861D01*
X207494192Y-117371861D01*
X207615465Y-117359917D01*
X207771073Y-117312714D01*
X207914481Y-117236060D01*
X208040180Y-117132902D01*
X208066037Y-117101395D01*
X208140003Y-117027429D01*
X208301898Y-116995226D01*
X208490256Y-116917205D01*
X208659774Y-116803937D01*
X208803937Y-116659774D01*
X208917205Y-116490256D01*
X208995226Y-116301898D01*
X209035000Y-116101939D01*
X209035000Y-115898061D01*
X208995226Y-115698102D01*
X208917205Y-115509744D01*
X208803937Y-115340226D01*
X208659774Y-115196063D01*
X208618768Y-115168664D01*
X216373377Y-107414057D01*
X216478665Y-107435000D01*
X216761335Y-107435000D01*
X217038574Y-107379853D01*
X217299727Y-107271680D01*
X217534759Y-107114637D01*
X217734637Y-106914759D01*
X217794278Y-106825500D01*
X222045791Y-106825500D01*
X222048815Y-106829185D01*
G37*
%TD.AperFunction*%
D16*
X85405312Y-116310905D02*
X85431160Y-116342401D01*
X85462656Y-116368249D01*
X85462659Y-116368252D01*
X85556858Y-116445559D01*
X85638469Y-116489181D01*
X85700267Y-116522213D01*
X85855875Y-116569416D01*
X85977148Y-116581360D01*
X85977150Y-116581360D01*
X86017701Y-116585354D01*
X86058251Y-116581360D01*
X153965000Y-116581360D01*
X153965000Y-116648299D01*
X154004774Y-116848258D01*
X154082795Y-117036616D01*
X154196063Y-117206134D01*
X154340226Y-117350297D01*
X154509744Y-117463565D01*
X154698102Y-117541586D01*
X154859996Y-117573788D01*
X154883675Y-117597467D01*
X154883675Y-117883674D01*
X86772948Y-117883674D01*
X81967596Y-113078323D01*
X81969722Y-113076578D01*
X82070354Y-112975946D01*
X85405312Y-116310905D01*
%TA.AperFunction,NonConductor*%
D17*
G36*
X85405312Y-116310905D02*
G01*
X85431160Y-116342401D01*
X85462656Y-116368249D01*
X85462659Y-116368252D01*
X85556858Y-116445559D01*
X85638469Y-116489181D01*
X85700267Y-116522213D01*
X85855875Y-116569416D01*
X85977148Y-116581360D01*
X85977150Y-116581360D01*
X86017701Y-116585354D01*
X86058251Y-116581360D01*
X153965000Y-116581360D01*
X153965000Y-116648299D01*
X154004774Y-116848258D01*
X154082795Y-117036616D01*
X154196063Y-117206134D01*
X154340226Y-117350297D01*
X154509744Y-117463565D01*
X154698102Y-117541586D01*
X154859996Y-117573788D01*
X154883675Y-117597467D01*
X154883675Y-117883674D01*
X86772948Y-117883674D01*
X81967596Y-113078323D01*
X81969722Y-113076578D01*
X82070354Y-112975946D01*
X85405312Y-116310905D01*
G37*
%TD.AperFunction*%
D16*
X115413844Y-114557899D02*
X115426104Y-114682381D01*
X115460524Y-114855422D01*
X115483256Y-114930360D01*
X86359635Y-114930360D01*
X85883958Y-114454683D01*
X115413844Y-114454683D01*
X115413844Y-114557899D01*
%TA.AperFunction,NonConductor*%
D17*
G36*
X115413844Y-114557899D02*
G01*
X115426104Y-114682381D01*
X115460524Y-114855422D01*
X115483256Y-114930360D01*
X86359635Y-114930360D01*
X85883958Y-114454683D01*
X115413844Y-114454683D01*
X115413844Y-114557899D01*
G37*
%TD.AperFunction*%
D16*
X215240147Y-105581426D02*
X215185000Y-105858665D01*
X215185000Y-106141335D01*
X215205943Y-106246623D01*
X206522208Y-114930360D01*
X190411909Y-114930360D01*
X190434641Y-114855422D01*
X190469061Y-114682381D01*
X190481321Y-114557899D01*
X190481321Y-114381469D01*
X190469061Y-114256987D01*
X190434641Y-114083946D01*
X190398331Y-113964249D01*
X190330814Y-113801248D01*
X190271849Y-113690933D01*
X190173829Y-113544236D01*
X190094477Y-113447545D01*
X189969722Y-113322790D01*
X189873031Y-113243438D01*
X189807549Y-113199684D01*
X189873031Y-113155930D01*
X189969722Y-113076578D01*
X190094477Y-112951823D01*
X190173829Y-112855132D01*
X190271849Y-112708435D01*
X190330814Y-112598120D01*
X190398331Y-112435119D01*
X190434641Y-112315422D01*
X190469061Y-112142381D01*
X190481321Y-112017899D01*
X190481321Y-111841469D01*
X190469061Y-111716987D01*
X190434641Y-111543946D01*
X190398331Y-111424249D01*
X190330814Y-111261248D01*
X190271849Y-111150933D01*
X190173829Y-111004236D01*
X190094477Y-110907545D01*
X189969722Y-110782790D01*
X189873031Y-110703438D01*
X189825500Y-110671679D01*
X189825500Y-110627503D01*
X189917205Y-110490256D01*
X189995226Y-110301898D01*
X190035000Y-110101939D01*
X190035000Y-109898061D01*
X190020567Y-109825500D01*
X193979433Y-109825500D01*
X193965000Y-109898061D01*
X193965000Y-110101939D01*
X194004774Y-110301898D01*
X194082795Y-110490256D01*
X194174500Y-110627503D01*
X194174501Y-112372496D01*
X194082795Y-112509744D01*
X194004774Y-112698102D01*
X193965000Y-112898061D01*
X193965000Y-113101939D01*
X194004774Y-113301898D01*
X194082795Y-113490256D01*
X194196063Y-113659774D01*
X194340226Y-113803937D01*
X194509744Y-113917205D01*
X194698102Y-113995226D01*
X194898061Y-114035000D01*
X195101939Y-114035000D01*
X195301898Y-113995226D01*
X195490256Y-113917205D01*
X195659774Y-113803937D01*
X195803937Y-113659774D01*
X195917205Y-113490256D01*
X195995226Y-113301898D01*
X196035000Y-113101939D01*
X196035000Y-112898061D01*
X195995226Y-112698102D01*
X195917205Y-112509744D01*
X195825500Y-112372497D01*
X195825500Y-110627503D01*
X195917205Y-110490256D01*
X195995226Y-110301898D01*
X196035000Y-110101939D01*
X196035000Y-109898061D01*
X196020567Y-109825500D01*
X210579450Y-109825500D01*
X210620000Y-109829494D01*
X210660550Y-109825500D01*
X210660553Y-109825500D01*
X210781826Y-109813556D01*
X210937434Y-109766353D01*
X211080842Y-109689699D01*
X211206541Y-109586541D01*
X211232398Y-109555034D01*
X215264288Y-105523145D01*
X215240147Y-105581426D01*
%TA.AperFunction,NonConductor*%
D17*
G36*
X215240147Y-105581426D02*
G01*
X215185000Y-105858665D01*
X215185000Y-106141335D01*
X215205943Y-106246623D01*
X206522208Y-114930360D01*
X190411909Y-114930360D01*
X190434641Y-114855422D01*
X190469061Y-114682381D01*
X190481321Y-114557899D01*
X190481321Y-114381469D01*
X190469061Y-114256987D01*
X190434641Y-114083946D01*
X190398331Y-113964249D01*
X190330814Y-113801248D01*
X190271849Y-113690933D01*
X190173829Y-113544236D01*
X190094477Y-113447545D01*
X189969722Y-113322790D01*
X189873031Y-113243438D01*
X189807549Y-113199684D01*
X189873031Y-113155930D01*
X189969722Y-113076578D01*
X190094477Y-112951823D01*
X190173829Y-112855132D01*
X190271849Y-112708435D01*
X190330814Y-112598120D01*
X190398331Y-112435119D01*
X190434641Y-112315422D01*
X190469061Y-112142381D01*
X190481321Y-112017899D01*
X190481321Y-111841469D01*
X190469061Y-111716987D01*
X190434641Y-111543946D01*
X190398331Y-111424249D01*
X190330814Y-111261248D01*
X190271849Y-111150933D01*
X190173829Y-111004236D01*
X190094477Y-110907545D01*
X189969722Y-110782790D01*
X189873031Y-110703438D01*
X189825500Y-110671679D01*
X189825500Y-110627503D01*
X189917205Y-110490256D01*
X189995226Y-110301898D01*
X190035000Y-110101939D01*
X190035000Y-109898061D01*
X190020567Y-109825500D01*
X193979433Y-109825500D01*
X193965000Y-109898061D01*
X193965000Y-110101939D01*
X194004774Y-110301898D01*
X194082795Y-110490256D01*
X194174500Y-110627503D01*
X194174501Y-112372496D01*
X194082795Y-112509744D01*
X194004774Y-112698102D01*
X193965000Y-112898061D01*
X193965000Y-113101939D01*
X194004774Y-113301898D01*
X194082795Y-113490256D01*
X194196063Y-113659774D01*
X194340226Y-113803937D01*
X194509744Y-113917205D01*
X194698102Y-113995226D01*
X194898061Y-114035000D01*
X195101939Y-114035000D01*
X195301898Y-113995226D01*
X195490256Y-113917205D01*
X195659774Y-113803937D01*
X195803937Y-113659774D01*
X195917205Y-113490256D01*
X195995226Y-113301898D01*
X196035000Y-113101939D01*
X196035000Y-112898061D01*
X195995226Y-112698102D01*
X195917205Y-112509744D01*
X195825500Y-112372497D01*
X195825500Y-110627503D01*
X195917205Y-110490256D01*
X195995226Y-110301898D01*
X196035000Y-110101939D01*
X196035000Y-109898061D01*
X196020567Y-109825500D01*
X210579450Y-109825500D01*
X210620000Y-109829494D01*
X210660550Y-109825500D01*
X210660553Y-109825500D01*
X210781826Y-109813556D01*
X210937434Y-109766353D01*
X211080842Y-109689699D01*
X211206541Y-109586541D01*
X211232398Y-109555034D01*
X215264288Y-105523145D01*
X215240147Y-105581426D01*
G37*
%TD.AperFunction*%
D16*
X186971709Y-109864332D02*
X186945900Y-109895781D01*
X186910302Y-109939157D01*
X186852482Y-110047331D01*
X186833648Y-110082566D01*
X186786445Y-110238174D01*
X186774501Y-110359446D01*
X186770507Y-110399999D01*
X186774501Y-110440550D01*
X186774502Y-112559441D01*
X186770507Y-112600001D01*
X186786446Y-112761827D01*
X186833648Y-112917434D01*
X186910302Y-113060843D01*
X186923216Y-113076578D01*
X187013461Y-113186542D01*
X187044962Y-113212394D01*
X187588548Y-113755981D01*
X187564352Y-113801248D01*
X187496835Y-113964249D01*
X187460525Y-114083946D01*
X187426105Y-114256987D01*
X187413845Y-114381469D01*
X187413845Y-114557899D01*
X187426105Y-114682381D01*
X187460525Y-114855422D01*
X187483257Y-114930360D01*
X156035000Y-114930360D01*
X156035000Y-114863421D01*
X155995226Y-114663462D01*
X155917205Y-114475104D01*
X155803937Y-114305586D01*
X155659774Y-114161423D01*
X155490256Y-114048155D01*
X155301898Y-113970134D01*
X155140005Y-113937932D01*
X154276221Y-113074149D01*
X154250364Y-113042642D01*
X154124665Y-112939484D01*
X154110720Y-112932030D01*
X154173829Y-112855132D01*
X154271849Y-112708435D01*
X154330814Y-112598120D01*
X154398331Y-112435119D01*
X154434641Y-112315422D01*
X154469061Y-112142381D01*
X154481321Y-112017899D01*
X154481321Y-111841469D01*
X154469061Y-111716987D01*
X154434641Y-111543946D01*
X154398331Y-111424249D01*
X154330814Y-111261248D01*
X154271849Y-111150933D01*
X154240573Y-111104126D01*
X155519200Y-109825500D01*
X186979433Y-109825500D01*
X186971709Y-109864332D01*
%TA.AperFunction,NonConductor*%
D17*
G36*
X186971709Y-109864332D02*
G01*
X186945900Y-109895781D01*
X186910302Y-109939157D01*
X186852482Y-110047331D01*
X186833648Y-110082566D01*
X186786445Y-110238174D01*
X186774501Y-110359446D01*
X186770507Y-110399999D01*
X186774501Y-110440550D01*
X186774502Y-112559441D01*
X186770507Y-112600001D01*
X186786446Y-112761827D01*
X186833648Y-112917434D01*
X186910302Y-113060843D01*
X186923216Y-113076578D01*
X187013461Y-113186542D01*
X187044962Y-113212394D01*
X187588548Y-113755981D01*
X187564352Y-113801248D01*
X187496835Y-113964249D01*
X187460525Y-114083946D01*
X187426105Y-114256987D01*
X187413845Y-114381469D01*
X187413845Y-114557899D01*
X187426105Y-114682381D01*
X187460525Y-114855422D01*
X187483257Y-114930360D01*
X156035000Y-114930360D01*
X156035000Y-114863421D01*
X155995226Y-114663462D01*
X155917205Y-114475104D01*
X155803937Y-114305586D01*
X155659774Y-114161423D01*
X155490256Y-114048155D01*
X155301898Y-113970134D01*
X155140005Y-113937932D01*
X154276221Y-113074149D01*
X154250364Y-113042642D01*
X154124665Y-112939484D01*
X154110720Y-112932030D01*
X154173829Y-112855132D01*
X154271849Y-112708435D01*
X154330814Y-112598120D01*
X154398331Y-112435119D01*
X154434641Y-112315422D01*
X154469061Y-112142381D01*
X154481321Y-112017899D01*
X154481321Y-111841469D01*
X154469061Y-111716987D01*
X154434641Y-111543946D01*
X154398331Y-111424249D01*
X154330814Y-111261248D01*
X154271849Y-111150933D01*
X154240573Y-111104126D01*
X155519200Y-109825500D01*
X186979433Y-109825500D01*
X186971709Y-109864332D01*
G37*
%TD.AperFunction*%
D16*
X148174501Y-112959440D02*
X148170506Y-113000000D01*
X148186445Y-113161826D01*
X148233647Y-113317433D01*
X148310301Y-113460842D01*
X148353247Y-113513171D01*
X148413460Y-113586541D01*
X148444961Y-113612393D01*
X148972572Y-114140005D01*
X149004774Y-114301898D01*
X149082795Y-114490256D01*
X149196063Y-114659774D01*
X149340226Y-114803937D01*
X149509744Y-114917205D01*
X149541503Y-114930360D01*
X118411908Y-114930360D01*
X118434640Y-114855422D01*
X118469060Y-114682381D01*
X118481320Y-114557899D01*
X118481320Y-114381469D01*
X118469060Y-114256987D01*
X118434640Y-114083946D01*
X118398330Y-113964249D01*
X118330813Y-113801248D01*
X118271848Y-113690933D01*
X118240572Y-113644126D01*
X125059199Y-106825500D01*
X148174500Y-106825500D01*
X148174501Y-112959440D01*
%TA.AperFunction,NonConductor*%
D17*
G36*
X148174501Y-112959440D02*
G01*
X148170506Y-113000000D01*
X148186445Y-113161826D01*
X148233647Y-113317433D01*
X148310301Y-113460842D01*
X148353247Y-113513171D01*
X148413460Y-113586541D01*
X148444961Y-113612393D01*
X148972572Y-114140005D01*
X149004774Y-114301898D01*
X149082795Y-114490256D01*
X149196063Y-114659774D01*
X149340226Y-114803937D01*
X149509744Y-114917205D01*
X149541503Y-114930360D01*
X118411908Y-114930360D01*
X118434640Y-114855422D01*
X118469060Y-114682381D01*
X118481320Y-114557899D01*
X118481320Y-114381469D01*
X118469060Y-114256987D01*
X118434640Y-114083946D01*
X118398330Y-113964249D01*
X118330813Y-113801248D01*
X118271848Y-113690933D01*
X118240572Y-113644126D01*
X125059199Y-106825500D01*
X148174500Y-106825500D01*
X148174501Y-112959440D01*
G37*
%TD.AperFunction*%
D16*
X215185000Y-99858665D02*
X215185000Y-100141335D01*
X215240147Y-100418574D01*
X215348320Y-100679727D01*
X215505363Y-100914759D01*
X215705241Y-101114637D01*
X215940273Y-101271680D01*
X216201426Y-101379853D01*
X216478665Y-101435000D01*
X216761335Y-101435000D01*
X216866624Y-101414056D01*
X217096855Y-101644288D01*
X217038574Y-101620147D01*
X216761335Y-101565000D01*
X216478665Y-101565000D01*
X216201426Y-101620147D01*
X215940273Y-101728320D01*
X215705241Y-101885363D01*
X215505363Y-102085241D01*
X215348320Y-102320273D01*
X215240147Y-102581426D01*
X215185000Y-102858665D01*
X215185000Y-103141335D01*
X215205943Y-103246624D01*
X210278068Y-108174500D01*
X155217817Y-108174500D01*
X155177267Y-108170506D01*
X155136716Y-108174500D01*
X155136714Y-108174500D01*
X155015441Y-108186444D01*
X154859833Y-108233647D01*
X154716424Y-108310301D01*
X154695688Y-108327319D01*
X154590726Y-108413459D01*
X154564875Y-108444959D01*
X152711762Y-110298073D01*
X152630149Y-110322830D01*
X152486741Y-110399484D01*
X152361042Y-110502642D01*
X152348747Y-110517624D01*
X152279147Y-110546453D01*
X152168832Y-110605418D01*
X152022135Y-110703438D01*
X151925444Y-110782790D01*
X151800689Y-110907545D01*
X151721337Y-111004236D01*
X151623317Y-111150933D01*
X151564352Y-111261248D01*
X151496835Y-111424249D01*
X151460525Y-111543946D01*
X151426105Y-111716987D01*
X151413845Y-111841469D01*
X151413845Y-112017899D01*
X151426105Y-112142381D01*
X151460525Y-112315422D01*
X151496835Y-112435119D01*
X151564352Y-112598120D01*
X151623317Y-112708435D01*
X151721337Y-112855132D01*
X151800689Y-112951823D01*
X151925444Y-113076578D01*
X152022135Y-113155930D01*
X152087617Y-113199684D01*
X152022135Y-113243438D01*
X151925444Y-113322790D01*
X151800689Y-113447545D01*
X151721337Y-113544236D01*
X151623317Y-113690933D01*
X151564352Y-113801248D01*
X151496835Y-113964249D01*
X151460525Y-114083946D01*
X151426105Y-114256987D01*
X151413845Y-114381469D01*
X151413845Y-114557899D01*
X151426105Y-114682381D01*
X151460525Y-114855422D01*
X151483257Y-114930360D01*
X150458497Y-114930360D01*
X150490256Y-114917205D01*
X150659774Y-114803937D01*
X150803937Y-114659774D01*
X150917205Y-114490256D01*
X150995226Y-114301898D01*
X151035000Y-114101939D01*
X151035000Y-113898061D01*
X150995226Y-113698102D01*
X150917205Y-113509744D01*
X150803937Y-113340226D01*
X150659774Y-113196063D01*
X150490256Y-113082795D01*
X150301898Y-113004774D01*
X150140005Y-112972572D01*
X149825500Y-112658067D01*
X149825500Y-106825500D01*
X186979433Y-106825500D01*
X186965000Y-106898061D01*
X186965000Y-107101939D01*
X187004774Y-107301898D01*
X187082795Y-107490256D01*
X187196063Y-107659774D01*
X187340226Y-107803937D01*
X187509744Y-107917205D01*
X187698102Y-107995226D01*
X187898061Y-108035000D01*
X188101939Y-108035000D01*
X188301898Y-107995226D01*
X188490256Y-107917205D01*
X188659774Y-107803937D01*
X188803937Y-107659774D01*
X188917205Y-107490256D01*
X188995226Y-107301898D01*
X189035000Y-107101939D01*
X189035000Y-106898061D01*
X189020567Y-106825500D01*
X207825722Y-106825500D01*
X207885363Y-106914759D01*
X208085241Y-107114637D01*
X208320273Y-107271680D01*
X208581426Y-107379853D01*
X208858665Y-107435000D01*
X209141335Y-107435000D01*
X209418574Y-107379853D01*
X209679727Y-107271680D01*
X209914759Y-107114637D01*
X210114637Y-106914759D01*
X210271680Y-106679727D01*
X210379853Y-106418574D01*
X210435000Y-106141335D01*
X210435000Y-105858665D01*
X210379853Y-105581426D01*
X210271680Y-105320273D01*
X210114637Y-105085241D01*
X209914759Y-104885363D01*
X209825500Y-104825722D01*
X209825500Y-104174278D01*
X209914759Y-104114637D01*
X210114637Y-103914759D01*
X210271680Y-103679727D01*
X210379853Y-103418574D01*
X210435000Y-103141335D01*
X210435000Y-102858665D01*
X210379853Y-102581426D01*
X210271680Y-102320273D01*
X210114637Y-102085241D01*
X209914759Y-101885363D01*
X209825500Y-101825722D01*
X209825500Y-101174278D01*
X209914759Y-101114637D01*
X210114637Y-100914759D01*
X210271680Y-100679727D01*
X210379853Y-100418574D01*
X210435000Y-100141335D01*
X210435000Y-99858665D01*
X210414057Y-99753377D01*
X210532435Y-99634999D01*
X215229491Y-99634999D01*
X215185000Y-99858665D01*
%TA.AperFunction,NonConductor*%
D17*
G36*
X215185000Y-99858665D02*
G01*
X215185000Y-100141335D01*
X215240147Y-100418574D01*
X215348320Y-100679727D01*
X215505363Y-100914759D01*
X215705241Y-101114637D01*
X215940273Y-101271680D01*
X216201426Y-101379853D01*
X216478665Y-101435000D01*
X216761335Y-101435000D01*
X216866624Y-101414056D01*
X217096855Y-101644288D01*
X217038574Y-101620147D01*
X216761335Y-101565000D01*
X216478665Y-101565000D01*
X216201426Y-101620147D01*
X215940273Y-101728320D01*
X215705241Y-101885363D01*
X215505363Y-102085241D01*
X215348320Y-102320273D01*
X215240147Y-102581426D01*
X215185000Y-102858665D01*
X215185000Y-103141335D01*
X215205943Y-103246624D01*
X210278068Y-108174500D01*
X155217817Y-108174500D01*
X155177267Y-108170506D01*
X155136716Y-108174500D01*
X155136714Y-108174500D01*
X155015441Y-108186444D01*
X154859833Y-108233647D01*
X154716424Y-108310301D01*
X154695688Y-108327319D01*
X154590726Y-108413459D01*
X154564875Y-108444959D01*
X152711762Y-110298073D01*
X152630149Y-110322830D01*
X152486741Y-110399484D01*
X152361042Y-110502642D01*
X152348747Y-110517624D01*
X152279147Y-110546453D01*
X152168832Y-110605418D01*
X152022135Y-110703438D01*
X151925444Y-110782790D01*
X151800689Y-110907545D01*
X151721337Y-111004236D01*
X151623317Y-111150933D01*
X151564352Y-111261248D01*
X151496835Y-111424249D01*
X151460525Y-111543946D01*
X151426105Y-111716987D01*
X151413845Y-111841469D01*
X151413845Y-112017899D01*
X151426105Y-112142381D01*
X151460525Y-112315422D01*
X151496835Y-112435119D01*
X151564352Y-112598120D01*
X151623317Y-112708435D01*
X151721337Y-112855132D01*
X151800689Y-112951823D01*
X151925444Y-113076578D01*
X152022135Y-113155930D01*
X152087617Y-113199684D01*
X152022135Y-113243438D01*
X151925444Y-113322790D01*
X151800689Y-113447545D01*
X151721337Y-113544236D01*
X151623317Y-113690933D01*
X151564352Y-113801248D01*
X151496835Y-113964249D01*
X151460525Y-114083946D01*
X151426105Y-114256987D01*
X151413845Y-114381469D01*
X151413845Y-114557899D01*
X151426105Y-114682381D01*
X151460525Y-114855422D01*
X151483257Y-114930360D01*
X150458497Y-114930360D01*
X150490256Y-114917205D01*
X150659774Y-114803937D01*
X150803937Y-114659774D01*
X150917205Y-114490256D01*
X150995226Y-114301898D01*
X151035000Y-114101939D01*
X151035000Y-113898061D01*
X150995226Y-113698102D01*
X150917205Y-113509744D01*
X150803937Y-113340226D01*
X150659774Y-113196063D01*
X150490256Y-113082795D01*
X150301898Y-113004774D01*
X150140005Y-112972572D01*
X149825500Y-112658067D01*
X149825500Y-106825500D01*
X186979433Y-106825500D01*
X186965000Y-106898061D01*
X186965000Y-107101939D01*
X187004774Y-107301898D01*
X187082795Y-107490256D01*
X187196063Y-107659774D01*
X187340226Y-107803937D01*
X187509744Y-107917205D01*
X187698102Y-107995226D01*
X187898061Y-108035000D01*
X188101939Y-108035000D01*
X188301898Y-107995226D01*
X188490256Y-107917205D01*
X188659774Y-107803937D01*
X188803937Y-107659774D01*
X188917205Y-107490256D01*
X188995226Y-107301898D01*
X189035000Y-107101939D01*
X189035000Y-106898061D01*
X189020567Y-106825500D01*
X207825722Y-106825500D01*
X207885363Y-106914759D01*
X208085241Y-107114637D01*
X208320273Y-107271680D01*
X208581426Y-107379853D01*
X208858665Y-107435000D01*
X209141335Y-107435000D01*
X209418574Y-107379853D01*
X209679727Y-107271680D01*
X209914759Y-107114637D01*
X210114637Y-106914759D01*
X210271680Y-106679727D01*
X210379853Y-106418574D01*
X210435000Y-106141335D01*
X210435000Y-105858665D01*
X210379853Y-105581426D01*
X210271680Y-105320273D01*
X210114637Y-105085241D01*
X209914759Y-104885363D01*
X209825500Y-104825722D01*
X209825500Y-104174278D01*
X209914759Y-104114637D01*
X210114637Y-103914759D01*
X210271680Y-103679727D01*
X210379853Y-103418574D01*
X210435000Y-103141335D01*
X210435000Y-102858665D01*
X210379853Y-102581426D01*
X210271680Y-102320273D01*
X210114637Y-102085241D01*
X209914759Y-101885363D01*
X209825500Y-101825722D01*
X209825500Y-101174278D01*
X209914759Y-101114637D01*
X210114637Y-100914759D01*
X210271680Y-100679727D01*
X210379853Y-100418574D01*
X210435000Y-100141335D01*
X210435000Y-99858665D01*
X210414057Y-99753377D01*
X210532435Y-99634999D01*
X215229491Y-99634999D01*
X215185000Y-99858665D01*
G37*
%TD.AperFunction*%
D16*
X227646011Y-111847765D02*
X226488672Y-113005105D01*
X226041195Y-113005105D01*
X226094477Y-112951823D01*
X226173829Y-112855132D01*
X226271849Y-112708435D01*
X226330814Y-112598120D01*
X226398331Y-112435119D01*
X226434641Y-112315422D01*
X226469061Y-112142381D01*
X226481321Y-112017899D01*
X226481321Y-111841469D01*
X226469061Y-111716987D01*
X226434641Y-111543946D01*
X226398331Y-111424249D01*
X226330814Y-111261248D01*
X226271849Y-111150933D01*
X226240573Y-111104126D01*
X227646011Y-109698689D01*
X227646011Y-111847765D01*
%TA.AperFunction,NonConductor*%
D17*
G36*
X227646011Y-111847765D02*
G01*
X226488672Y-113005105D01*
X226041195Y-113005105D01*
X226094477Y-112951823D01*
X226173829Y-112855132D01*
X226271849Y-112708435D01*
X226330814Y-112598120D01*
X226398331Y-112435119D01*
X226434641Y-112315422D01*
X226469061Y-112142381D01*
X226481321Y-112017899D01*
X226481321Y-111841469D01*
X226469061Y-111716987D01*
X226434641Y-111543946D01*
X226398331Y-111424249D01*
X226330814Y-111261248D01*
X226271849Y-111150933D01*
X226240573Y-111104126D01*
X227646011Y-109698689D01*
X227646011Y-111847765D01*
G37*
%TD.AperFunction*%
D16*
X116392548Y-107821022D02*
X116361041Y-107846879D01*
X116303327Y-107917205D01*
X116257883Y-107972578D01*
X116181230Y-108115986D01*
X116181229Y-108115987D01*
X116134026Y-108271595D01*
X116128538Y-108327319D01*
X116118088Y-108433420D01*
X116122082Y-108473971D01*
X116122083Y-110636654D01*
X116022134Y-110703438D01*
X115925443Y-110782790D01*
X115800688Y-110907545D01*
X115721336Y-111004236D01*
X115623316Y-111150933D01*
X115564351Y-111261248D01*
X115496834Y-111424249D01*
X115460524Y-111543946D01*
X115426104Y-111716987D01*
X115413844Y-111841469D01*
X115413844Y-112017899D01*
X115426104Y-112142381D01*
X115460524Y-112315422D01*
X115496834Y-112435119D01*
X115564351Y-112598120D01*
X115623316Y-112708435D01*
X115686959Y-112803683D01*
X85054630Y-112803683D01*
X82204084Y-109953139D01*
X82178227Y-109921632D01*
X82052528Y-109818474D01*
X81909120Y-109741820D01*
X81753512Y-109694617D01*
X81632239Y-109682673D01*
X81632236Y-109682673D01*
X81591686Y-109678679D01*
X81551136Y-109682673D01*
X77532380Y-109682673D01*
X77491827Y-109678679D01*
X77451274Y-109682673D01*
X48512584Y-109682673D01*
X48472034Y-109678679D01*
X48431483Y-109682673D01*
X48431481Y-109682673D01*
X48310208Y-109694617D01*
X48154600Y-109741820D01*
X48011191Y-109818474D01*
X47916992Y-109895781D01*
X47916991Y-109895782D01*
X47885493Y-109921632D01*
X47859645Y-109953128D01*
X46395459Y-111417315D01*
X46330814Y-111261248D01*
X46271849Y-111150933D01*
X46184296Y-111019902D01*
X61378700Y-95825500D01*
X128388069Y-95825500D01*
X116392548Y-107821022D01*
%TA.AperFunction,NonConductor*%
D17*
G36*
X116392548Y-107821022D02*
G01*
X116361041Y-107846879D01*
X116303327Y-107917205D01*
X116257883Y-107972578D01*
X116181230Y-108115986D01*
X116181229Y-108115987D01*
X116134026Y-108271595D01*
X116128538Y-108327319D01*
X116118088Y-108433420D01*
X116122082Y-108473971D01*
X116122083Y-110636654D01*
X116022134Y-110703438D01*
X115925443Y-110782790D01*
X115800688Y-110907545D01*
X115721336Y-111004236D01*
X115623316Y-111150933D01*
X115564351Y-111261248D01*
X115496834Y-111424249D01*
X115460524Y-111543946D01*
X115426104Y-111716987D01*
X115413844Y-111841469D01*
X115413844Y-112017899D01*
X115426104Y-112142381D01*
X115460524Y-112315422D01*
X115496834Y-112435119D01*
X115564351Y-112598120D01*
X115623316Y-112708435D01*
X115686959Y-112803683D01*
X85054630Y-112803683D01*
X82204084Y-109953139D01*
X82178227Y-109921632D01*
X82052528Y-109818474D01*
X81909120Y-109741820D01*
X81753512Y-109694617D01*
X81632239Y-109682673D01*
X81632236Y-109682673D01*
X81591686Y-109678679D01*
X81551136Y-109682673D01*
X77532380Y-109682673D01*
X77491827Y-109678679D01*
X77451274Y-109682673D01*
X48512584Y-109682673D01*
X48472034Y-109678679D01*
X48431483Y-109682673D01*
X48431481Y-109682673D01*
X48310208Y-109694617D01*
X48154600Y-109741820D01*
X48011191Y-109818474D01*
X47916992Y-109895781D01*
X47916991Y-109895782D01*
X47885493Y-109921632D01*
X47859645Y-109953128D01*
X46395459Y-111417315D01*
X46330814Y-111261248D01*
X46271849Y-111150933D01*
X46184296Y-111019902D01*
X61378700Y-95825500D01*
X128388069Y-95825500D01*
X116392548Y-107821022D01*
G37*
%TD.AperFunction*%
D16*
X201241682Y-104174500D02*
X196020567Y-104174500D01*
X196035000Y-104101939D01*
X196035000Y-103898061D01*
X195995226Y-103698102D01*
X195917205Y-103509744D01*
X195825500Y-103372497D01*
X195825500Y-99627503D01*
X195917205Y-99490256D01*
X195995226Y-99301898D01*
X196035000Y-99101939D01*
X196035000Y-98898061D01*
X195995226Y-98698102D01*
X195917205Y-98509744D01*
X195803937Y-98340226D01*
X195659774Y-98196063D01*
X195490256Y-98082795D01*
X195301898Y-98004774D01*
X195101939Y-97965000D01*
X194898061Y-97965000D01*
X194698102Y-98004774D01*
X194509744Y-98082795D01*
X194340226Y-98196063D01*
X194196063Y-98340226D01*
X194082795Y-98509744D01*
X194004774Y-98698102D01*
X193965000Y-98898061D01*
X193965000Y-99101939D01*
X194004774Y-99301898D01*
X194082795Y-99490256D01*
X194174500Y-99627503D01*
X194174501Y-103372496D01*
X194082795Y-103509744D01*
X194004774Y-103698102D01*
X193965000Y-103898061D01*
X193965000Y-104101939D01*
X193979433Y-104174500D01*
X189627503Y-104174500D01*
X189490256Y-104082795D01*
X189301898Y-104004774D01*
X189101939Y-103965000D01*
X188898061Y-103965000D01*
X188698102Y-104004774D01*
X188509744Y-104082795D01*
X188340226Y-104196063D01*
X188196063Y-104340226D01*
X188082795Y-104509744D01*
X188004774Y-104698102D01*
X187965000Y-104898061D01*
X187965000Y-105101939D01*
X187979049Y-105172569D01*
X187959447Y-105174500D01*
X149040553Y-105174500D01*
X149000000Y-105170506D01*
X148959447Y-105174500D01*
X124757816Y-105174500D01*
X124717265Y-105170506D01*
X124676715Y-105174500D01*
X124676713Y-105174500D01*
X124555440Y-105186444D01*
X124399832Y-105233647D01*
X124256423Y-105310301D01*
X124194862Y-105360823D01*
X124130725Y-105413459D01*
X124104874Y-105444959D01*
X118316104Y-111233730D01*
X118271848Y-111150933D01*
X118173828Y-111004236D01*
X118094476Y-110907545D01*
X117969721Y-110782790D01*
X117873030Y-110703438D01*
X117773082Y-110636655D01*
X117773082Y-108775352D01*
X129532434Y-97016001D01*
X208400180Y-97016001D01*
X201241682Y-104174500D01*
%TA.AperFunction,NonConductor*%
D17*
G36*
X201241682Y-104174500D02*
G01*
X196020567Y-104174500D01*
X196035000Y-104101939D01*
X196035000Y-103898061D01*
X195995226Y-103698102D01*
X195917205Y-103509744D01*
X195825500Y-103372497D01*
X195825500Y-99627503D01*
X195917205Y-99490256D01*
X195995226Y-99301898D01*
X196035000Y-99101939D01*
X196035000Y-98898061D01*
X195995226Y-98698102D01*
X195917205Y-98509744D01*
X195803937Y-98340226D01*
X195659774Y-98196063D01*
X195490256Y-98082795D01*
X195301898Y-98004774D01*
X195101939Y-97965000D01*
X194898061Y-97965000D01*
X194698102Y-98004774D01*
X194509744Y-98082795D01*
X194340226Y-98196063D01*
X194196063Y-98340226D01*
X194082795Y-98509744D01*
X194004774Y-98698102D01*
X193965000Y-98898061D01*
X193965000Y-99101939D01*
X194004774Y-99301898D01*
X194082795Y-99490256D01*
X194174500Y-99627503D01*
X194174501Y-103372496D01*
X194082795Y-103509744D01*
X194004774Y-103698102D01*
X193965000Y-103898061D01*
X193965000Y-104101939D01*
X193979433Y-104174500D01*
X189627503Y-104174500D01*
X189490256Y-104082795D01*
X189301898Y-104004774D01*
X189101939Y-103965000D01*
X188898061Y-103965000D01*
X188698102Y-104004774D01*
X188509744Y-104082795D01*
X188340226Y-104196063D01*
X188196063Y-104340226D01*
X188082795Y-104509744D01*
X188004774Y-104698102D01*
X187965000Y-104898061D01*
X187965000Y-105101939D01*
X187979049Y-105172569D01*
X187959447Y-105174500D01*
X149040553Y-105174500D01*
X149000000Y-105170506D01*
X148959447Y-105174500D01*
X124757816Y-105174500D01*
X124717265Y-105170506D01*
X124676715Y-105174500D01*
X124676713Y-105174500D01*
X124555440Y-105186444D01*
X124399832Y-105233647D01*
X124256423Y-105310301D01*
X124194862Y-105360823D01*
X124130725Y-105413459D01*
X124104874Y-105444959D01*
X118316104Y-111233730D01*
X118271848Y-111150933D01*
X118173828Y-111004236D01*
X118094476Y-110907545D01*
X117969721Y-110782790D01*
X117873030Y-110703438D01*
X117773082Y-110636655D01*
X117773082Y-108775352D01*
X129532434Y-97016001D01*
X208400180Y-97016001D01*
X201241682Y-104174500D01*
G37*
%TD.AperFunction*%
D16*
X207620147Y-100418574D02*
X207728320Y-100679727D01*
X207885363Y-100914759D01*
X208085241Y-101114637D01*
X208174501Y-101174278D01*
X208174500Y-101825722D01*
X208085241Y-101885363D01*
X207885363Y-102085241D01*
X207728320Y-102320273D01*
X207620147Y-102581426D01*
X207565000Y-102858665D01*
X207565000Y-103141335D01*
X207620147Y-103418574D01*
X207728320Y-103679727D01*
X207885363Y-103914759D01*
X208085241Y-104114637D01*
X208174501Y-104174278D01*
X208174500Y-104825722D01*
X208085241Y-104885363D01*
X207885363Y-105085241D01*
X207825722Y-105174500D01*
X202576546Y-105174500D01*
X207572418Y-100178628D01*
X207620147Y-100418574D01*
%TA.AperFunction,NonConductor*%
D17*
G36*
X207620147Y-100418574D02*
G01*
X207728320Y-100679727D01*
X207885363Y-100914759D01*
X208085241Y-101114637D01*
X208174501Y-101174278D01*
X208174500Y-101825722D01*
X208085241Y-101885363D01*
X207885363Y-102085241D01*
X207728320Y-102320273D01*
X207620147Y-102581426D01*
X207565000Y-102858665D01*
X207565000Y-103141335D01*
X207620147Y-103418574D01*
X207728320Y-103679727D01*
X207885363Y-103914759D01*
X208085241Y-104114637D01*
X208174501Y-104174278D01*
X208174500Y-104825722D01*
X208085241Y-104885363D01*
X207885363Y-105085241D01*
X207825722Y-105174500D01*
X202576546Y-105174500D01*
X207572418Y-100178628D01*
X207620147Y-100418574D01*
G37*
%TD.AperFunction*%
D16*
X221861928Y-104346000D02*
X221874188Y-104470482D01*
X221910498Y-104590180D01*
X221922161Y-104612000D01*
X221910498Y-104633820D01*
X221874188Y-104753518D01*
X221861928Y-104878000D01*
X221861928Y-105174500D01*
X217794278Y-105174500D01*
X217734637Y-105085241D01*
X217534759Y-104885363D01*
X217299727Y-104728320D01*
X217038574Y-104620147D01*
X216761335Y-104565000D01*
X216478665Y-104565000D01*
X216201426Y-104620147D01*
X216143145Y-104644288D01*
X216373376Y-104414057D01*
X216478665Y-104435000D01*
X216761335Y-104435000D01*
X217038574Y-104379853D01*
X217299727Y-104271680D01*
X217534759Y-104114637D01*
X217734637Y-103914759D01*
X217794278Y-103825500D01*
X221861928Y-103825500D01*
X221861928Y-104346000D01*
%TA.AperFunction,NonConductor*%
D17*
G36*
X221861928Y-104346000D02*
G01*
X221874188Y-104470482D01*
X221910498Y-104590180D01*
X221922161Y-104612000D01*
X221910498Y-104633820D01*
X221874188Y-104753518D01*
X221861928Y-104878000D01*
X221861928Y-105174500D01*
X217794278Y-105174500D01*
X217734637Y-105085241D01*
X217534759Y-104885363D01*
X217299727Y-104728320D01*
X217038574Y-104620147D01*
X216761335Y-104565000D01*
X216478665Y-104565000D01*
X216201426Y-104620147D01*
X216143145Y-104644288D01*
X216373376Y-104414057D01*
X216478665Y-104435000D01*
X216761335Y-104435000D01*
X217038574Y-104379853D01*
X217299727Y-104271680D01*
X217534759Y-104114637D01*
X217734637Y-103914759D01*
X217794278Y-103825500D01*
X221861928Y-103825500D01*
X221861928Y-104346000D01*
G37*
%TD.AperFunction*%
D16*
X221861928Y-100282000D02*
X221874188Y-100406482D01*
X221910498Y-100526180D01*
X221922161Y-100548000D01*
X221910498Y-100569820D01*
X221874188Y-100689518D01*
X221869364Y-100738500D01*
X218525933Y-100738500D01*
X218034056Y-100246624D01*
X218055000Y-100141335D01*
X218055000Y-99858665D01*
X218010509Y-99634999D01*
X221861928Y-99634999D01*
X221861928Y-100282000D01*
%TA.AperFunction,NonConductor*%
D17*
G36*
X221861928Y-100282000D02*
G01*
X221874188Y-100406482D01*
X221910498Y-100526180D01*
X221922161Y-100548000D01*
X221910498Y-100569820D01*
X221874188Y-100689518D01*
X221869364Y-100738500D01*
X218525933Y-100738500D01*
X218034056Y-100246624D01*
X218055000Y-100141335D01*
X218055000Y-99858665D01*
X218010509Y-99634999D01*
X221861928Y-99634999D01*
X221861928Y-100282000D01*
G37*
%TD.AperFunction*%
D16*
X216411022Y-87578455D02*
X216201426Y-87620147D01*
X215940273Y-87728320D01*
X215705241Y-87885363D01*
X215505363Y-88085241D01*
X215348320Y-88320273D01*
X215240147Y-88581426D01*
X215185000Y-88858665D01*
X215185000Y-89141335D01*
X215240147Y-89418574D01*
X215348320Y-89679727D01*
X215505363Y-89914759D01*
X215705241Y-90114637D01*
X215940273Y-90271680D01*
X216201426Y-90379853D01*
X216478665Y-90435000D01*
X216761335Y-90435000D01*
X216866624Y-90414056D01*
X217096856Y-90644288D01*
X217038574Y-90620147D01*
X216761335Y-90565000D01*
X216478665Y-90565000D01*
X216201426Y-90620147D01*
X215940273Y-90728320D01*
X215705241Y-90885363D01*
X215505363Y-91085241D01*
X215348320Y-91320273D01*
X215240147Y-91581426D01*
X215185000Y-91858665D01*
X215185000Y-92141335D01*
X215240147Y-92418574D01*
X215348320Y-92679727D01*
X215505363Y-92914759D01*
X215705241Y-93114637D01*
X215940273Y-93271680D01*
X216201426Y-93379853D01*
X216478665Y-93435000D01*
X216761335Y-93435000D01*
X216866624Y-93414056D01*
X217096855Y-93644288D01*
X217038574Y-93620147D01*
X216761335Y-93565000D01*
X216478665Y-93565000D01*
X216201426Y-93620147D01*
X215940273Y-93728320D01*
X215705241Y-93885363D01*
X215505363Y-94085241D01*
X215348320Y-94320273D01*
X215240147Y-94581426D01*
X215185000Y-94858665D01*
X215185000Y-95141335D01*
X215240147Y-95418574D01*
X215348320Y-95679727D01*
X215505363Y-95914759D01*
X215705241Y-96114637D01*
X215940273Y-96271680D01*
X216201426Y-96379853D01*
X216478665Y-96435000D01*
X216761335Y-96435000D01*
X216866624Y-96414056D01*
X218436565Y-97983999D01*
X210231051Y-97983999D01*
X210190501Y-97980005D01*
X210149950Y-97983999D01*
X210149948Y-97983999D01*
X210028675Y-97995943D01*
X209873067Y-98043146D01*
X209729658Y-98119800D01*
X209635459Y-98197107D01*
X209635458Y-98197108D01*
X209603960Y-98222958D01*
X209578112Y-98254454D01*
X209246623Y-98585943D01*
X209178629Y-98572418D01*
X211326550Y-96424497D01*
X211358051Y-96398645D01*
X211439979Y-96298815D01*
X211461209Y-96272947D01*
X211537863Y-96129538D01*
X211560613Y-96054541D01*
X211585066Y-95973930D01*
X211597010Y-95852657D01*
X211597010Y-95852655D01*
X211601004Y-95812105D01*
X211597010Y-95771554D01*
X211597010Y-90812052D01*
X211601003Y-90771509D01*
X211597010Y-90730966D01*
X211597010Y-90730957D01*
X211585066Y-90609684D01*
X211537863Y-90454076D01*
X211461209Y-90310668D01*
X211461208Y-90310666D01*
X211383901Y-90216468D01*
X211358051Y-90184969D01*
X211326551Y-90159118D01*
X210414056Y-89246624D01*
X210435000Y-89141335D01*
X210435000Y-88858665D01*
X210379853Y-88581426D01*
X210271680Y-88320273D01*
X210114637Y-88085241D01*
X209914759Y-87885363D01*
X209825167Y-87825500D01*
X214959450Y-87825500D01*
X215000000Y-87829494D01*
X215040550Y-87825500D01*
X215040553Y-87825500D01*
X215161826Y-87813556D01*
X215317434Y-87766353D01*
X215460842Y-87689699D01*
X215586541Y-87586541D01*
X215612398Y-87555035D01*
X216000000Y-87167433D01*
X216411022Y-87578455D01*
%TA.AperFunction,NonConductor*%
D17*
G36*
X216411022Y-87578455D02*
G01*
X216201426Y-87620147D01*
X215940273Y-87728320D01*
X215705241Y-87885363D01*
X215505363Y-88085241D01*
X215348320Y-88320273D01*
X215240147Y-88581426D01*
X215185000Y-88858665D01*
X215185000Y-89141335D01*
X215240147Y-89418574D01*
X215348320Y-89679727D01*
X215505363Y-89914759D01*
X215705241Y-90114637D01*
X215940273Y-90271680D01*
X216201426Y-90379853D01*
X216478665Y-90435000D01*
X216761335Y-90435000D01*
X216866624Y-90414056D01*
X217096856Y-90644288D01*
X217038574Y-90620147D01*
X216761335Y-90565000D01*
X216478665Y-90565000D01*
X216201426Y-90620147D01*
X215940273Y-90728320D01*
X215705241Y-90885363D01*
X215505363Y-91085241D01*
X215348320Y-91320273D01*
X215240147Y-91581426D01*
X215185000Y-91858665D01*
X215185000Y-92141335D01*
X215240147Y-92418574D01*
X215348320Y-92679727D01*
X215505363Y-92914759D01*
X215705241Y-93114637D01*
X215940273Y-93271680D01*
X216201426Y-93379853D01*
X216478665Y-93435000D01*
X216761335Y-93435000D01*
X216866624Y-93414056D01*
X217096855Y-93644288D01*
X217038574Y-93620147D01*
X216761335Y-93565000D01*
X216478665Y-93565000D01*
X216201426Y-93620147D01*
X215940273Y-93728320D01*
X215705241Y-93885363D01*
X215505363Y-94085241D01*
X215348320Y-94320273D01*
X215240147Y-94581426D01*
X215185000Y-94858665D01*
X215185000Y-95141335D01*
X215240147Y-95418574D01*
X215348320Y-95679727D01*
X215505363Y-95914759D01*
X215705241Y-96114637D01*
X215940273Y-96271680D01*
X216201426Y-96379853D01*
X216478665Y-96435000D01*
X216761335Y-96435000D01*
X216866624Y-96414056D01*
X218436565Y-97983999D01*
X210231051Y-97983999D01*
X210190501Y-97980005D01*
X210149950Y-97983999D01*
X210149948Y-97983999D01*
X210028675Y-97995943D01*
X209873067Y-98043146D01*
X209729658Y-98119800D01*
X209635459Y-98197107D01*
X209635458Y-98197108D01*
X209603960Y-98222958D01*
X209578112Y-98254454D01*
X209246623Y-98585943D01*
X209178629Y-98572418D01*
X211326550Y-96424497D01*
X211358051Y-96398645D01*
X211439979Y-96298815D01*
X211461209Y-96272947D01*
X211537863Y-96129538D01*
X211560613Y-96054541D01*
X211585066Y-95973930D01*
X211597010Y-95852657D01*
X211597010Y-95852655D01*
X211601004Y-95812105D01*
X211597010Y-95771554D01*
X211597010Y-90812052D01*
X211601003Y-90771509D01*
X211597010Y-90730966D01*
X211597010Y-90730957D01*
X211585066Y-90609684D01*
X211537863Y-90454076D01*
X211461209Y-90310668D01*
X211461208Y-90310666D01*
X211383901Y-90216468D01*
X211358051Y-90184969D01*
X211326551Y-90159118D01*
X210414056Y-89246624D01*
X210435000Y-89141335D01*
X210435000Y-88858665D01*
X210379853Y-88581426D01*
X210271680Y-88320273D01*
X210114637Y-88085241D01*
X209914759Y-87885363D01*
X209825167Y-87825500D01*
X214959450Y-87825500D01*
X215000000Y-87829494D01*
X215040550Y-87825500D01*
X215040553Y-87825500D01*
X215161826Y-87813556D01*
X215317434Y-87766353D01*
X215460842Y-87689699D01*
X215586541Y-87586541D01*
X215612398Y-87555035D01*
X216000000Y-87167433D01*
X216411022Y-87578455D01*
G37*
%TD.AperFunction*%
D16*
X219475611Y-96023045D02*
X219501459Y-96054541D01*
X219532955Y-96080389D01*
X219532958Y-96080392D01*
X219627157Y-96157699D01*
X219688527Y-96190502D01*
X219770566Y-96234353D01*
X219926174Y-96281556D01*
X220047447Y-96293500D01*
X220047449Y-96293500D01*
X220088000Y-96297494D01*
X220128550Y-96293500D01*
X221869364Y-96293500D01*
X221874188Y-96342482D01*
X221910498Y-96462180D01*
X221922161Y-96484000D01*
X221910498Y-96505820D01*
X221874188Y-96625518D01*
X221869364Y-96674500D01*
X219461934Y-96674500D01*
X218034056Y-95246624D01*
X218055000Y-95141335D01*
X218055000Y-94858665D01*
X217999853Y-94581426D01*
X217975713Y-94523146D01*
X219475611Y-96023045D01*
%TA.AperFunction,NonConductor*%
D17*
G36*
X219475611Y-96023045D02*
G01*
X219501459Y-96054541D01*
X219532955Y-96080389D01*
X219532958Y-96080392D01*
X219627157Y-96157699D01*
X219688527Y-96190502D01*
X219770566Y-96234353D01*
X219926174Y-96281556D01*
X220047447Y-96293500D01*
X220047449Y-96293500D01*
X220088000Y-96297494D01*
X220128550Y-96293500D01*
X221869364Y-96293500D01*
X221874188Y-96342482D01*
X221910498Y-96462180D01*
X221922161Y-96484000D01*
X221910498Y-96505820D01*
X221874188Y-96625518D01*
X221869364Y-96674500D01*
X219461934Y-96674500D01*
X218034056Y-95246624D01*
X218055000Y-95141335D01*
X218055000Y-94858665D01*
X217999853Y-94581426D01*
X217975713Y-94523146D01*
X219475611Y-96023045D01*
G37*
%TD.AperFunction*%
D16*
X220443607Y-93991040D02*
X220469459Y-94022541D01*
X220595158Y-94125699D01*
X220738566Y-94202353D01*
X220894174Y-94249556D01*
X221015447Y-94261500D01*
X221015456Y-94261500D01*
X221055999Y-94265493D01*
X221096542Y-94261500D01*
X221869364Y-94261500D01*
X221874188Y-94310482D01*
X221910498Y-94430180D01*
X221922161Y-94452000D01*
X221910498Y-94473820D01*
X221874188Y-94593518D01*
X221869364Y-94642500D01*
X220429934Y-94642500D01*
X218034056Y-92246624D01*
X218055000Y-92141335D01*
X218055000Y-91858665D01*
X217999853Y-91581426D01*
X217975712Y-91523144D01*
X220443607Y-93991040D01*
%TA.AperFunction,NonConductor*%
D17*
G36*
X220443607Y-93991040D02*
G01*
X220469459Y-94022541D01*
X220595158Y-94125699D01*
X220738566Y-94202353D01*
X220894174Y-94249556D01*
X221015447Y-94261500D01*
X221015456Y-94261500D01*
X221055999Y-94265493D01*
X221096542Y-94261500D01*
X221869364Y-94261500D01*
X221874188Y-94310482D01*
X221910498Y-94430180D01*
X221922161Y-94452000D01*
X221910498Y-94473820D01*
X221874188Y-94593518D01*
X221869364Y-94642500D01*
X220429934Y-94642500D01*
X218034056Y-92246624D01*
X218055000Y-92141335D01*
X218055000Y-91858665D01*
X217999853Y-91581426D01*
X217975712Y-91523144D01*
X220443607Y-93991040D01*
G37*
%TD.AperFunction*%
D16*
X208085241Y-87885363D02*
X207885363Y-88085241D01*
X207728320Y-88320273D01*
X207620147Y-88581426D01*
X207565000Y-88858665D01*
X207565000Y-89141335D01*
X207620147Y-89418574D01*
X207728320Y-89679727D01*
X207885363Y-89914759D01*
X208085241Y-90114637D01*
X208320273Y-90271680D01*
X208581426Y-90379853D01*
X208858665Y-90435000D01*
X209141335Y-90435000D01*
X209246624Y-90414056D01*
X209476855Y-90644288D01*
X209418574Y-90620147D01*
X209141335Y-90565000D01*
X208858665Y-90565000D01*
X208581426Y-90620147D01*
X208320273Y-90728320D01*
X208085241Y-90885363D01*
X207885363Y-91085241D01*
X207728320Y-91320273D01*
X207620147Y-91581426D01*
X207565000Y-91858665D01*
X207565000Y-92141335D01*
X207620147Y-92418574D01*
X207728320Y-92679727D01*
X207885363Y-92914759D01*
X208085241Y-93114637D01*
X208320273Y-93271680D01*
X208581426Y-93379853D01*
X208858665Y-93435000D01*
X209141335Y-93435000D01*
X209246623Y-93414057D01*
X209365001Y-93532435D01*
X209365001Y-93609491D01*
X209141335Y-93565000D01*
X208858665Y-93565000D01*
X208581426Y-93620147D01*
X208320273Y-93728320D01*
X208085241Y-93885363D01*
X207885363Y-94085241D01*
X207825722Y-94174500D01*
X196020567Y-94174500D01*
X196027429Y-94140004D01*
X202341933Y-87825500D01*
X208174833Y-87825500D01*
X208085241Y-87885363D01*
%TA.AperFunction,NonConductor*%
D17*
G36*
X208085241Y-87885363D02*
G01*
X207885363Y-88085241D01*
X207728320Y-88320273D01*
X207620147Y-88581426D01*
X207565000Y-88858665D01*
X207565000Y-89141335D01*
X207620147Y-89418574D01*
X207728320Y-89679727D01*
X207885363Y-89914759D01*
X208085241Y-90114637D01*
X208320273Y-90271680D01*
X208581426Y-90379853D01*
X208858665Y-90435000D01*
X209141335Y-90435000D01*
X209246624Y-90414056D01*
X209476855Y-90644288D01*
X209418574Y-90620147D01*
X209141335Y-90565000D01*
X208858665Y-90565000D01*
X208581426Y-90620147D01*
X208320273Y-90728320D01*
X208085241Y-90885363D01*
X207885363Y-91085241D01*
X207728320Y-91320273D01*
X207620147Y-91581426D01*
X207565000Y-91858665D01*
X207565000Y-92141335D01*
X207620147Y-92418574D01*
X207728320Y-92679727D01*
X207885363Y-92914759D01*
X208085241Y-93114637D01*
X208320273Y-93271680D01*
X208581426Y-93379853D01*
X208858665Y-93435000D01*
X209141335Y-93435000D01*
X209246623Y-93414057D01*
X209365001Y-93532435D01*
X209365001Y-93609491D01*
X209141335Y-93565000D01*
X208858665Y-93565000D01*
X208581426Y-93620147D01*
X208320273Y-93728320D01*
X208085241Y-93885363D01*
X207885363Y-94085241D01*
X207825722Y-94174500D01*
X196020567Y-94174500D01*
X196027429Y-94140004D01*
X202341933Y-87825500D01*
X208174833Y-87825500D01*
X208085241Y-87885363D01*
G37*
%TD.AperFunction*%
D16*
X222449472Y-90020904D02*
X222375518Y-90028188D01*
X222255820Y-90064498D01*
X222145506Y-90123463D01*
X222048815Y-90202815D01*
X221969463Y-90299506D01*
X221910498Y-90409820D01*
X221874188Y-90529518D01*
X221861928Y-90654000D01*
X221861928Y-92154000D01*
X221874188Y-92278482D01*
X221910498Y-92398180D01*
X221922161Y-92420000D01*
X221910498Y-92441820D01*
X221874188Y-92561518D01*
X221869364Y-92610500D01*
X221397933Y-92610500D01*
X218803654Y-90016221D01*
X218898061Y-90035000D01*
X219101939Y-90035000D01*
X219301898Y-89995226D01*
X219490256Y-89917205D01*
X219627503Y-89825500D01*
X222254068Y-89825500D01*
X222449472Y-90020904D01*
%TA.AperFunction,NonConductor*%
D17*
G36*
X222449472Y-90020904D02*
G01*
X222375518Y-90028188D01*
X222255820Y-90064498D01*
X222145506Y-90123463D01*
X222048815Y-90202815D01*
X221969463Y-90299506D01*
X221910498Y-90409820D01*
X221874188Y-90529518D01*
X221861928Y-90654000D01*
X221861928Y-92154000D01*
X221874188Y-92278482D01*
X221910498Y-92398180D01*
X221922161Y-92420000D01*
X221910498Y-92441820D01*
X221874188Y-92561518D01*
X221869364Y-92610500D01*
X221397933Y-92610500D01*
X218803654Y-90016221D01*
X218898061Y-90035000D01*
X219101939Y-90035000D01*
X219301898Y-89995226D01*
X219490256Y-89917205D01*
X219627503Y-89825500D01*
X222254068Y-89825500D01*
X222449472Y-90020904D01*
G37*
%TD.AperFunction*%
M02*
