M48
; DRILL file {KiCad (5.1.10)-1} date 02/27/22 18:22:26
; FORMAT={-:-/ absolute / metric / decimal}
; #@! TF.CreationDate,2022-02-27T18:22:26-05:00
; #@! TF.GenerationSoftware,Kicad,Pcbnew,(5.1.10)-1
; #@! TF.FileFunction,Plated,1,2,PTH
FMAT,2
METRIC
T1C0.400
T2C1.100
%
G90
G05
T1
X138.0Y-81.0
X141.0Y-89.0
X141.0Y-91.0
X150.0Y-98.0
X152.0Y-92.0
X159.0Y-91.0
X162.0Y-81.0
T2
X142.38Y-51.03
X142.38Y-53.57
X142.38Y-56.11
X142.38Y-58.65
X142.38Y-61.19
X142.38Y-63.73
X142.38Y-66.27
X142.38Y-68.81
X142.38Y-71.35
X142.38Y-73.89
X142.38Y-76.43
X142.38Y-78.97
X157.62Y-51.03
X157.62Y-53.57
X157.62Y-56.11
X157.62Y-58.65
X157.62Y-61.19
X157.62Y-63.73
X157.62Y-66.27
X157.62Y-68.81
X157.62Y-71.35
X157.62Y-73.89
X157.62Y-76.43
X157.62Y-78.97
T0
M30
