%TF.GenerationSoftware,KiCad,Pcbnew,(5.1.10)-1*%
%TF.CreationDate,2022-02-26T03:46:18-05:00*%
%TF.ProjectId,chunair_core,6368756e-6169-4725-9f63-6f72652e6b69,rev?*%
%TF.SameCoordinates,Original*%
%TF.FileFunction,Copper,L1,Top*%
%TF.FilePolarity,Positive*%
%FSLAX46Y46*%
G04 Gerber Fmt 4.6, Leading zero omitted, Abs format (unit mm)*
G04 Created by KiCad (PCBNEW (5.1.10)-1) date 2022-02-26 03:46:18*
%MOMM*%
%LPD*%
G01*
G04 APERTURE LIST*
%TA.AperFunction,ComponentPad*%
%ADD10C,1.600000*%
%TD*%
%TA.AperFunction,ComponentPad*%
%ADD11R,1.600000X1.600000*%
%TD*%
%TA.AperFunction,SMDPad,CuDef*%
%ADD12R,1.500000X5.000000*%
%TD*%
%TA.AperFunction,SMDPad,CuDef*%
%ADD13R,5.000000X1.500000*%
%TD*%
%TA.AperFunction,ViaPad*%
%ADD14C,0.800000*%
%TD*%
%TA.AperFunction,Conductor*%
%ADD15C,0.254000*%
%TD*%
%TA.AperFunction,Conductor*%
%ADD16C,0.381000*%
%TD*%
%TA.AperFunction,Conductor*%
%ADD17C,0.100000*%
%TD*%
G04 APERTURE END LIST*
D10*
%TO.P,U1,24*%
%TO.N,N/C*%
X157620000Y-51030000D03*
%TO.P,U1,23*%
%TO.N,GND*%
X157620000Y-53570000D03*
%TO.P,U1,22*%
%TO.N,N/C*%
X157620000Y-56110000D03*
%TO.P,U1,21*%
%TO.N,+5V*%
X157620000Y-58650000D03*
%TO.P,U1,20*%
%TO.N,/A3*%
X157620000Y-61190000D03*
%TO.P,U1,19*%
%TO.N,/A2*%
X157620000Y-63730000D03*
%TO.P,U1,18*%
%TO.N,/A1*%
X157620000Y-66270000D03*
%TO.P,U1,17*%
%TO.N,/A0*%
X157620000Y-68810000D03*
%TO.P,U1,16*%
%TO.N,/15*%
X157620000Y-71350000D03*
%TO.P,U1,15*%
%TO.N,/14*%
X157620000Y-73890000D03*
%TO.P,U1,14*%
%TO.N,/16*%
X157620000Y-76430000D03*
%TO.P,U1,13*%
%TO.N,/A10*%
X157620000Y-78970000D03*
%TO.P,U1,12*%
%TO.N,/A9*%
X142380000Y-78970000D03*
%TO.P,U1,11*%
%TO.N,/8*%
X142380000Y-76430000D03*
%TO.P,U1,10*%
%TO.N,/7*%
X142380000Y-73890000D03*
%TO.P,U1,9*%
%TO.N,/6*%
X142380000Y-71350000D03*
%TO.P,U1,8*%
%TO.N,/coin*%
X142380000Y-68810000D03*
%TO.P,U1,7*%
%TO.N,/RGB_R*%
X142380000Y-66270000D03*
%TO.P,U1,6*%
%TO.N,/RGB_L*%
X142380000Y-63730000D03*
%TO.P,U1,5*%
%TO.N,N/C*%
X142380000Y-61190000D03*
%TO.P,U1,4*%
%TO.N,GND*%
X142380000Y-58650000D03*
%TO.P,U1,3*%
X142380000Y-56110000D03*
%TO.P,U1,2*%
%TO.N,N/C*%
X142380000Y-53570000D03*
D11*
%TO.P,U1,1*%
X142380000Y-51030000D03*
%TD*%
D12*
%TO.P,J3,2*%
%TO.N,/RGB_R*%
X149936000Y-95000000D03*
%TO.P,J3,3*%
%TO.N,/coin*%
X151968000Y-95000000D03*
%TO.P,J3,1*%
%TO.N,/RGB_L*%
X147904000Y-95000000D03*
%TD*%
D13*
%TO.P,J2,8*%
%TO.N,/A2*%
X138000000Y-96128000D03*
%TO.P,J2,7*%
%TO.N,/A0*%
X138000000Y-94096000D03*
%TO.P,J2,4*%
%TO.N,/15*%
X138000000Y-88000000D03*
%TO.P,J2,5*%
%TO.N,GND*%
X138000000Y-90032000D03*
%TO.P,J2,6*%
%TO.N,/A9*%
X138000000Y-92064000D03*
%TO.P,J2,2*%
%TO.N,/7*%
X138000000Y-83936000D03*
%TO.P,J2,3*%
%TO.N,/16*%
X138000000Y-85968000D03*
%TO.P,J2,1*%
%TO.N,+5V*%
X138000000Y-81904000D03*
%TD*%
%TO.P,J1,8*%
%TO.N,/A3*%
X162000000Y-96128000D03*
%TO.P,J1,7*%
%TO.N,/A1*%
X162000000Y-94096000D03*
%TO.P,J1,4*%
%TO.N,/14*%
X162000000Y-88000000D03*
%TO.P,J1,5*%
%TO.N,GND*%
X162000000Y-90032000D03*
%TO.P,J1,6*%
%TO.N,/A10*%
X162000000Y-92064000D03*
%TO.P,J1,2*%
%TO.N,/6*%
X162000000Y-83936000D03*
%TO.P,J1,3*%
%TO.N,/8*%
X162000000Y-85968000D03*
%TO.P,J1,1*%
%TO.N,+5V*%
X162000000Y-81904000D03*
%TD*%
D14*
%TO.N,/6*%
X163000000Y-68000000D03*
%TO.N,/8*%
X163000000Y-66000000D03*
%TO.N,/A0*%
X155311989Y-71000000D03*
%TO.N,/15*%
X141000000Y-88000000D03*
%TO.N,/16*%
X141653000Y-86000000D03*
%TO.N,/RGB_R*%
X136876280Y-60876280D03*
%TO.N,/coin*%
X134862213Y-61862213D03*
%TO.N,/RGB_L*%
X138890347Y-59890347D03*
%TD*%
D15*
%TO.N,/A3*%
X156038989Y-62771011D02*
X157620000Y-61190000D01*
X156038989Y-92920989D02*
X156038989Y-62771011D01*
X159246000Y-96128000D02*
X156038989Y-92920989D01*
X162000000Y-96128000D02*
X159246000Y-96128000D01*
%TO.N,/A1*%
X156492999Y-67397001D02*
X157620000Y-66270000D01*
X156492999Y-91342999D02*
X156492999Y-67397001D01*
X159246000Y-94096000D02*
X156492999Y-91342999D01*
X162000000Y-94096000D02*
X159246000Y-94096000D01*
D16*
%TO.N,/14*%
X158810501Y-75080501D02*
X157620000Y-73890000D01*
X158810501Y-86731403D02*
X158810501Y-75080501D01*
X160079098Y-88000000D02*
X158810501Y-86731403D01*
X162000000Y-88000000D02*
X160079098Y-88000000D01*
%TO.N,GND*%
X166052520Y-62002520D02*
X157620000Y-53570000D01*
X166052520Y-88860480D02*
X166052520Y-62002520D01*
X164881000Y-90032000D02*
X166052520Y-88860480D01*
X162000000Y-90032000D02*
X164881000Y-90032000D01*
X144920000Y-53570000D02*
X142380000Y-56110000D01*
X157620000Y-53570000D02*
X144920000Y-53570000D01*
X142380000Y-56110000D02*
X142380000Y-58650000D01*
X135119000Y-90032000D02*
X138000000Y-90032000D01*
X135109499Y-90022499D02*
X135119000Y-90032000D01*
X135109499Y-64789131D02*
X135109499Y-90022499D01*
X141248630Y-58650000D02*
X135109499Y-64789131D01*
X142380000Y-58650000D02*
X141248630Y-58650000D01*
D15*
%TO.N,/A10*%
X157620000Y-90438000D02*
X157620000Y-78970000D01*
X159246000Y-92064000D02*
X157620000Y-90438000D01*
X162000000Y-92064000D02*
X159246000Y-92064000D01*
D16*
%TO.N,/6*%
X164890501Y-69890501D02*
X163000000Y-68000000D01*
X164890501Y-83926499D02*
X164890501Y-69890501D01*
X164881000Y-83936000D02*
X164890501Y-83926499D01*
X162000000Y-83936000D02*
X164881000Y-83936000D01*
%TO.N,/8*%
X165471511Y-68471511D02*
X163000000Y-66000000D01*
X165471511Y-85377489D02*
X165471511Y-68471511D01*
X164881000Y-85968000D02*
X165471511Y-85377489D01*
X162000000Y-85968000D02*
X164881000Y-85968000D01*
%TO.N,+5V*%
X162000000Y-63030000D02*
X157620000Y-58650000D01*
X162000000Y-81904000D02*
X162000000Y-63030000D01*
X156270501Y-59999499D02*
X157620000Y-58650000D01*
X141808559Y-59999499D02*
X156270501Y-59999499D01*
X138000000Y-63808058D02*
X141808559Y-59999499D01*
X138000000Y-81904000D02*
X138000000Y-63808058D01*
D15*
%TO.N,/A2*%
X158747001Y-60649039D02*
X158747001Y-62602999D01*
X158747001Y-62602999D02*
X157620000Y-63730000D01*
X157079039Y-60062999D02*
X158160961Y-60062999D01*
X148072999Y-69069039D02*
X157079039Y-60062999D01*
X158160961Y-60062999D02*
X158747001Y-60649039D01*
X148072999Y-87861603D02*
X148072999Y-69069039D01*
X139806602Y-96128000D02*
X148072999Y-87861603D01*
X138000000Y-96128000D02*
X139806602Y-96128000D01*
%TO.N,/A0*%
X155311989Y-82654613D02*
X155311989Y-71000000D01*
X140761601Y-97205001D02*
X155311989Y-82654613D01*
X135238399Y-97205001D02*
X140761601Y-97205001D01*
X135172999Y-97139601D02*
X135238399Y-97205001D01*
X135172999Y-94169001D02*
X135172999Y-97139601D01*
X135246000Y-94096000D02*
X135172999Y-94169001D01*
X138000000Y-94096000D02*
X135246000Y-94096000D01*
D16*
%TO.N,/15*%
X138000000Y-88000000D02*
X141000000Y-88000000D01*
D15*
%TO.N,/A9*%
X142380000Y-89490602D02*
X142380000Y-78970000D01*
X139806602Y-92064000D02*
X142380000Y-89490602D01*
X138000000Y-92064000D02*
X139806602Y-92064000D01*
D16*
%TO.N,/7*%
X141189499Y-83627501D02*
X141189499Y-75080501D01*
X140881000Y-83936000D02*
X141189499Y-83627501D01*
X141189499Y-75080501D02*
X142380000Y-73890000D01*
X138000000Y-83936000D02*
X140881000Y-83936000D01*
%TO.N,/16*%
X141621000Y-85968000D02*
X141653000Y-86000000D01*
X138000000Y-85968000D02*
X141621000Y-85968000D01*
D15*
%TO.N,/RGB_R*%
X134137979Y-63614581D02*
X136876280Y-60876280D01*
X134137979Y-97388715D02*
X134137979Y-63614581D01*
X134862285Y-98113021D02*
X134137979Y-97388715D01*
X149576979Y-98113021D02*
X134862285Y-98113021D01*
X149936000Y-97754000D02*
X149576979Y-98113021D01*
X149936000Y-95000000D02*
X149936000Y-97754000D01*
%TO.N,/coin*%
X133683969Y-97576772D02*
X133683969Y-63040457D01*
X134674228Y-98567031D02*
X133683969Y-97576772D01*
X151154969Y-98567031D02*
X134674228Y-98567031D01*
X151968000Y-97754000D02*
X151154969Y-98567031D01*
X133683969Y-63040457D02*
X134862213Y-61862213D01*
X151968000Y-95000000D02*
X151968000Y-97754000D01*
%TO.N,/RGB_L*%
X134591989Y-64188705D02*
X138890347Y-59890347D01*
X134591989Y-97200658D02*
X134591989Y-64188705D01*
X145244989Y-97659011D02*
X135050342Y-97659011D01*
X135050342Y-97659011D02*
X134591989Y-97200658D01*
X147904000Y-95000000D02*
X145244989Y-97659011D01*
%TD*%
%TO.N,GND*%
X166340000Y-98340000D02*
X152459631Y-98340000D01*
X152480351Y-98319280D01*
X152509422Y-98295422D01*
X152604645Y-98179392D01*
X152626731Y-98138072D01*
X152718000Y-98138072D01*
X152842482Y-98125812D01*
X152962180Y-98089502D01*
X153072494Y-98030537D01*
X153169185Y-97951185D01*
X153248537Y-97854494D01*
X153307502Y-97744180D01*
X153343812Y-97624482D01*
X153356072Y-97500000D01*
X153356072Y-92500000D01*
X153343812Y-92375518D01*
X153307502Y-92255820D01*
X153248537Y-92145506D01*
X153169185Y-92048815D01*
X153072494Y-91969463D01*
X152962180Y-91910498D01*
X152842482Y-91874188D01*
X152718000Y-91861928D01*
X151218000Y-91861928D01*
X151093518Y-91874188D01*
X150973820Y-91910498D01*
X150952000Y-91922161D01*
X150930180Y-91910498D01*
X150810482Y-91874188D01*
X150686000Y-91861928D01*
X149186000Y-91861928D01*
X149061518Y-91874188D01*
X148941820Y-91910498D01*
X148920000Y-91922161D01*
X148898180Y-91910498D01*
X148778482Y-91874188D01*
X148654000Y-91861928D01*
X147182304Y-91861928D01*
X155276989Y-83767244D01*
X155276989Y-92883566D01*
X155273303Y-92920989D01*
X155276989Y-92958412D01*
X155276989Y-92958414D01*
X155288015Y-93070366D01*
X155331587Y-93214003D01*
X155331588Y-93214004D01*
X155402344Y-93346381D01*
X155436991Y-93388598D01*
X155497567Y-93462411D01*
X155526643Y-93486273D01*
X158680721Y-96640352D01*
X158704578Y-96669422D01*
X158820608Y-96764645D01*
X158861928Y-96786731D01*
X158861928Y-96878000D01*
X158874188Y-97002482D01*
X158910498Y-97122180D01*
X158969463Y-97232494D01*
X159048815Y-97329185D01*
X159145506Y-97408537D01*
X159255820Y-97467502D01*
X159375518Y-97503812D01*
X159500000Y-97516072D01*
X164500000Y-97516072D01*
X164624482Y-97503812D01*
X164744180Y-97467502D01*
X164854494Y-97408537D01*
X164951185Y-97329185D01*
X165030537Y-97232494D01*
X165089502Y-97122180D01*
X165125812Y-97002482D01*
X165138072Y-96878000D01*
X165138072Y-95378000D01*
X165125812Y-95253518D01*
X165089502Y-95133820D01*
X165077839Y-95112000D01*
X165089502Y-95090180D01*
X165125812Y-94970482D01*
X165138072Y-94846000D01*
X165138072Y-93346000D01*
X165125812Y-93221518D01*
X165089502Y-93101820D01*
X165077839Y-93080000D01*
X165089502Y-93058180D01*
X165125812Y-92938482D01*
X165138072Y-92814000D01*
X165138072Y-91314000D01*
X165125812Y-91189518D01*
X165089502Y-91069820D01*
X165077839Y-91048000D01*
X165089502Y-91026180D01*
X165125812Y-90906482D01*
X165138072Y-90782000D01*
X165135000Y-90317750D01*
X164976250Y-90159000D01*
X162127000Y-90159000D01*
X162127000Y-90179000D01*
X161873000Y-90179000D01*
X161873000Y-90159000D01*
X159023750Y-90159000D01*
X158865000Y-90317750D01*
X158863109Y-90603479D01*
X158382000Y-90122370D01*
X158382000Y-87470334D01*
X158861928Y-87950263D01*
X158861928Y-88750000D01*
X158874188Y-88874482D01*
X158910498Y-88994180D01*
X158922161Y-89016000D01*
X158910498Y-89037820D01*
X158874188Y-89157518D01*
X158861928Y-89282000D01*
X158865000Y-89746250D01*
X159023750Y-89905000D01*
X161873000Y-89905000D01*
X161873000Y-89885000D01*
X162127000Y-89885000D01*
X162127000Y-89905000D01*
X164976250Y-89905000D01*
X165135000Y-89746250D01*
X165138072Y-89282000D01*
X165125812Y-89157518D01*
X165089502Y-89037820D01*
X165077839Y-89016000D01*
X165089502Y-88994180D01*
X165125812Y-88874482D01*
X165138072Y-88750000D01*
X165138072Y-87250000D01*
X165125812Y-87125518D01*
X165089502Y-87005820D01*
X165077839Y-86984000D01*
X165089502Y-86962180D01*
X165125812Y-86842482D01*
X165134553Y-86753731D01*
X165198434Y-86734353D01*
X165341842Y-86657699D01*
X165467541Y-86554541D01*
X165493397Y-86523035D01*
X166026556Y-85989878D01*
X166058052Y-85964030D01*
X166083900Y-85932534D01*
X166083903Y-85932531D01*
X166161210Y-85838332D01*
X166237864Y-85694923D01*
X166251319Y-85650567D01*
X166285067Y-85539315D01*
X166297011Y-85418042D01*
X166297011Y-85418040D01*
X166301005Y-85377489D01*
X166297011Y-85336939D01*
X166297011Y-68512053D01*
X166301004Y-68471510D01*
X166297011Y-68430967D01*
X166297011Y-68430958D01*
X166285067Y-68309685D01*
X166237864Y-68154077D01*
X166161210Y-68010669D01*
X166058052Y-67884970D01*
X166026550Y-67859117D01*
X164027429Y-65859996D01*
X163995226Y-65698102D01*
X163917205Y-65509744D01*
X163803937Y-65340226D01*
X163659774Y-65196063D01*
X163490256Y-65082795D01*
X163301898Y-65004774D01*
X163101939Y-64965000D01*
X162898061Y-64965000D01*
X162825500Y-64979433D01*
X162825500Y-63070542D01*
X162829493Y-63029999D01*
X162825500Y-62989456D01*
X162825500Y-62989447D01*
X162813556Y-62868174D01*
X162766353Y-62712566D01*
X162689699Y-62569158D01*
X162586541Y-62443459D01*
X162555040Y-62417607D01*
X159034056Y-58896624D01*
X159055000Y-58791335D01*
X159055000Y-58508665D01*
X158999853Y-58231426D01*
X158891680Y-57970273D01*
X158734637Y-57735241D01*
X158534759Y-57535363D01*
X158302241Y-57380000D01*
X158534759Y-57224637D01*
X158734637Y-57024759D01*
X158891680Y-56789727D01*
X158999853Y-56528574D01*
X159055000Y-56251335D01*
X159055000Y-55968665D01*
X158999853Y-55691426D01*
X158891680Y-55430273D01*
X158734637Y-55195241D01*
X158534759Y-54995363D01*
X158300872Y-54839085D01*
X158361514Y-54806671D01*
X158433097Y-54562702D01*
X157620000Y-53749605D01*
X156806903Y-54562702D01*
X156878486Y-54806671D01*
X156942992Y-54837194D01*
X156940273Y-54838320D01*
X156705241Y-54995363D01*
X156505363Y-55195241D01*
X156348320Y-55430273D01*
X156240147Y-55691426D01*
X156185000Y-55968665D01*
X156185000Y-56251335D01*
X156240147Y-56528574D01*
X156348320Y-56789727D01*
X156505363Y-57024759D01*
X156705241Y-57224637D01*
X156937759Y-57380000D01*
X156705241Y-57535363D01*
X156505363Y-57735241D01*
X156348320Y-57970273D01*
X156240147Y-58231426D01*
X156185000Y-58508665D01*
X156185000Y-58791335D01*
X156205944Y-58896624D01*
X155928569Y-59173999D01*
X143719593Y-59173999D01*
X143737571Y-59136004D01*
X143806300Y-58861816D01*
X143820217Y-58579488D01*
X143778787Y-58299870D01*
X143683603Y-58033708D01*
X143616671Y-57908486D01*
X143372702Y-57836903D01*
X142559605Y-58650000D01*
X142573748Y-58664143D01*
X142394143Y-58843748D01*
X142380000Y-58829605D01*
X142365858Y-58843748D01*
X142186253Y-58664143D01*
X142200395Y-58650000D01*
X141387298Y-57836903D01*
X141143329Y-57908486D01*
X141022429Y-58163996D01*
X140953700Y-58438184D01*
X140939783Y-58720512D01*
X140981213Y-59000130D01*
X141076397Y-59266292D01*
X141143329Y-59391514D01*
X141220931Y-59414283D01*
X141196170Y-59444454D01*
X137444961Y-63195665D01*
X137413460Y-63221517D01*
X137387609Y-63253017D01*
X137310301Y-63347216D01*
X137233647Y-63490625D01*
X137186445Y-63646232D01*
X137170506Y-63808058D01*
X137174501Y-63848619D01*
X137174500Y-80515928D01*
X135500000Y-80515928D01*
X135375518Y-80528188D01*
X135353989Y-80534719D01*
X135353989Y-64504335D01*
X138932978Y-60925347D01*
X138992286Y-60925347D01*
X139192245Y-60885573D01*
X139380603Y-60807552D01*
X139550121Y-60694284D01*
X139694284Y-60550121D01*
X139807552Y-60380603D01*
X139885573Y-60192245D01*
X139925347Y-59992286D01*
X139925347Y-59788408D01*
X139885573Y-59588449D01*
X139807552Y-59400091D01*
X139694284Y-59230573D01*
X139550121Y-59086410D01*
X139380603Y-58973142D01*
X139192245Y-58895121D01*
X138992286Y-58855347D01*
X138788408Y-58855347D01*
X138588449Y-58895121D01*
X138400091Y-58973142D01*
X138230573Y-59086410D01*
X138086410Y-59230573D01*
X137973142Y-59400091D01*
X137895121Y-59588449D01*
X137855347Y-59788408D01*
X137855347Y-59847716D01*
X137583387Y-60119676D01*
X137536054Y-60072343D01*
X137366536Y-59959075D01*
X137178178Y-59881054D01*
X136978219Y-59841280D01*
X136774341Y-59841280D01*
X136574382Y-59881054D01*
X136386024Y-59959075D01*
X136216506Y-60072343D01*
X136072343Y-60216506D01*
X135959075Y-60386024D01*
X135881054Y-60574382D01*
X135841280Y-60774341D01*
X135841280Y-60833649D01*
X135569320Y-61105609D01*
X135521987Y-61058276D01*
X135352469Y-60945008D01*
X135164111Y-60866987D01*
X134964152Y-60827213D01*
X134760274Y-60827213D01*
X134560315Y-60866987D01*
X134371957Y-60945008D01*
X134202439Y-61058276D01*
X134058276Y-61202439D01*
X133945008Y-61371957D01*
X133866987Y-61560315D01*
X133827213Y-61760274D01*
X133827213Y-61819583D01*
X133660000Y-61986796D01*
X133660000Y-57102702D01*
X141566903Y-57102702D01*
X141638486Y-57346671D01*
X141704636Y-57377971D01*
X141638486Y-57413329D01*
X141566903Y-57657298D01*
X142380000Y-58470395D01*
X143193097Y-57657298D01*
X143121514Y-57413329D01*
X143055364Y-57382029D01*
X143121514Y-57346671D01*
X143193097Y-57102702D01*
X142380000Y-56289605D01*
X141566903Y-57102702D01*
X133660000Y-57102702D01*
X133660000Y-53779872D01*
X134765000Y-53779872D01*
X134765000Y-54220128D01*
X134850890Y-54651925D01*
X135019369Y-55058669D01*
X135263962Y-55424729D01*
X135575271Y-55736038D01*
X135941331Y-55980631D01*
X136348075Y-56149110D01*
X136779872Y-56235000D01*
X137220128Y-56235000D01*
X137494056Y-56180512D01*
X140939783Y-56180512D01*
X140981213Y-56460130D01*
X141076397Y-56726292D01*
X141143329Y-56851514D01*
X141387298Y-56923097D01*
X142200395Y-56110000D01*
X142559605Y-56110000D01*
X143372702Y-56923097D01*
X143616671Y-56851514D01*
X143737571Y-56596004D01*
X143806300Y-56321816D01*
X143820217Y-56039488D01*
X143778787Y-55759870D01*
X143683603Y-55493708D01*
X143616671Y-55368486D01*
X143372702Y-55296903D01*
X142559605Y-56110000D01*
X142200395Y-56110000D01*
X141387298Y-55296903D01*
X141143329Y-55368486D01*
X141022429Y-55623996D01*
X140953700Y-55898184D01*
X140939783Y-56180512D01*
X137494056Y-56180512D01*
X137651925Y-56149110D01*
X138058669Y-55980631D01*
X138424729Y-55736038D01*
X138736038Y-55424729D01*
X138980631Y-55058669D01*
X139149110Y-54651925D01*
X139235000Y-54220128D01*
X139235000Y-53779872D01*
X139149110Y-53348075D01*
X138980631Y-52941331D01*
X138736038Y-52575271D01*
X138424729Y-52263962D01*
X138058669Y-52019369D01*
X137651925Y-51850890D01*
X137220128Y-51765000D01*
X136779872Y-51765000D01*
X136348075Y-51850890D01*
X135941331Y-52019369D01*
X135575271Y-52263962D01*
X135263962Y-52575271D01*
X135019369Y-52941331D01*
X134850890Y-53348075D01*
X134765000Y-53779872D01*
X133660000Y-53779872D01*
X133660000Y-50230000D01*
X140941928Y-50230000D01*
X140941928Y-51830000D01*
X140954188Y-51954482D01*
X140990498Y-52074180D01*
X141049463Y-52184494D01*
X141128815Y-52281185D01*
X141225506Y-52360537D01*
X141335820Y-52419502D01*
X141455518Y-52455812D01*
X141463961Y-52456643D01*
X141265363Y-52655241D01*
X141108320Y-52890273D01*
X141000147Y-53151426D01*
X140945000Y-53428665D01*
X140945000Y-53711335D01*
X141000147Y-53988574D01*
X141108320Y-54249727D01*
X141265363Y-54484759D01*
X141465241Y-54684637D01*
X141699128Y-54840915D01*
X141638486Y-54873329D01*
X141566903Y-55117298D01*
X142380000Y-55930395D01*
X143193097Y-55117298D01*
X143121514Y-54873329D01*
X143057008Y-54842806D01*
X143059727Y-54841680D01*
X143294759Y-54684637D01*
X143494637Y-54484759D01*
X143651680Y-54249727D01*
X143759853Y-53988574D01*
X143815000Y-53711335D01*
X143815000Y-53640512D01*
X156179783Y-53640512D01*
X156221213Y-53920130D01*
X156316397Y-54186292D01*
X156383329Y-54311514D01*
X156627298Y-54383097D01*
X157440395Y-53570000D01*
X157799605Y-53570000D01*
X158612702Y-54383097D01*
X158856671Y-54311514D01*
X158977571Y-54056004D01*
X159046300Y-53781816D01*
X159046395Y-53779872D01*
X160765000Y-53779872D01*
X160765000Y-54220128D01*
X160850890Y-54651925D01*
X161019369Y-55058669D01*
X161263962Y-55424729D01*
X161575271Y-55736038D01*
X161941331Y-55980631D01*
X162348075Y-56149110D01*
X162779872Y-56235000D01*
X163220128Y-56235000D01*
X163651925Y-56149110D01*
X164058669Y-55980631D01*
X164424729Y-55736038D01*
X164736038Y-55424729D01*
X164980631Y-55058669D01*
X165149110Y-54651925D01*
X165235000Y-54220128D01*
X165235000Y-53779872D01*
X165149110Y-53348075D01*
X164980631Y-52941331D01*
X164736038Y-52575271D01*
X164424729Y-52263962D01*
X164058669Y-52019369D01*
X163651925Y-51850890D01*
X163220128Y-51765000D01*
X162779872Y-51765000D01*
X162348075Y-51850890D01*
X161941331Y-52019369D01*
X161575271Y-52263962D01*
X161263962Y-52575271D01*
X161019369Y-52941331D01*
X160850890Y-53348075D01*
X160765000Y-53779872D01*
X159046395Y-53779872D01*
X159060217Y-53499488D01*
X159018787Y-53219870D01*
X158923603Y-52953708D01*
X158856671Y-52828486D01*
X158612702Y-52756903D01*
X157799605Y-53570000D01*
X157440395Y-53570000D01*
X156627298Y-52756903D01*
X156383329Y-52828486D01*
X156262429Y-53083996D01*
X156193700Y-53358184D01*
X156179783Y-53640512D01*
X143815000Y-53640512D01*
X143815000Y-53428665D01*
X143759853Y-53151426D01*
X143651680Y-52890273D01*
X143494637Y-52655241D01*
X143296039Y-52456643D01*
X143304482Y-52455812D01*
X143424180Y-52419502D01*
X143534494Y-52360537D01*
X143631185Y-52281185D01*
X143710537Y-52184494D01*
X143769502Y-52074180D01*
X143805812Y-51954482D01*
X143818072Y-51830000D01*
X143818072Y-50888665D01*
X156185000Y-50888665D01*
X156185000Y-51171335D01*
X156240147Y-51448574D01*
X156348320Y-51709727D01*
X156505363Y-51944759D01*
X156705241Y-52144637D01*
X156939128Y-52300915D01*
X156878486Y-52333329D01*
X156806903Y-52577298D01*
X157620000Y-53390395D01*
X158433097Y-52577298D01*
X158361514Y-52333329D01*
X158297008Y-52302806D01*
X158299727Y-52301680D01*
X158534759Y-52144637D01*
X158734637Y-51944759D01*
X158891680Y-51709727D01*
X158999853Y-51448574D01*
X159055000Y-51171335D01*
X159055000Y-50888665D01*
X158999853Y-50611426D01*
X158891680Y-50350273D01*
X158734637Y-50115241D01*
X158534759Y-49915363D01*
X158299727Y-49758320D01*
X158038574Y-49650147D01*
X157761335Y-49595000D01*
X157478665Y-49595000D01*
X157201426Y-49650147D01*
X156940273Y-49758320D01*
X156705241Y-49915363D01*
X156505363Y-50115241D01*
X156348320Y-50350273D01*
X156240147Y-50611426D01*
X156185000Y-50888665D01*
X143818072Y-50888665D01*
X143818072Y-50230000D01*
X143805812Y-50105518D01*
X143769502Y-49985820D01*
X143710537Y-49875506D01*
X143631185Y-49778815D01*
X143534494Y-49699463D01*
X143424180Y-49640498D01*
X143304482Y-49604188D01*
X143180000Y-49591928D01*
X141580000Y-49591928D01*
X141455518Y-49604188D01*
X141335820Y-49640498D01*
X141225506Y-49699463D01*
X141128815Y-49778815D01*
X141049463Y-49875506D01*
X140990498Y-49985820D01*
X140954188Y-50105518D01*
X140941928Y-50230000D01*
X133660000Y-50230000D01*
X133660000Y-47660000D01*
X166340001Y-47660000D01*
X166340000Y-98340000D01*
%TA.AperFunction,Conductor*%
D17*
G36*
X166340000Y-98340000D02*
G01*
X152459631Y-98340000D01*
X152480351Y-98319280D01*
X152509422Y-98295422D01*
X152604645Y-98179392D01*
X152626731Y-98138072D01*
X152718000Y-98138072D01*
X152842482Y-98125812D01*
X152962180Y-98089502D01*
X153072494Y-98030537D01*
X153169185Y-97951185D01*
X153248537Y-97854494D01*
X153307502Y-97744180D01*
X153343812Y-97624482D01*
X153356072Y-97500000D01*
X153356072Y-92500000D01*
X153343812Y-92375518D01*
X153307502Y-92255820D01*
X153248537Y-92145506D01*
X153169185Y-92048815D01*
X153072494Y-91969463D01*
X152962180Y-91910498D01*
X152842482Y-91874188D01*
X152718000Y-91861928D01*
X151218000Y-91861928D01*
X151093518Y-91874188D01*
X150973820Y-91910498D01*
X150952000Y-91922161D01*
X150930180Y-91910498D01*
X150810482Y-91874188D01*
X150686000Y-91861928D01*
X149186000Y-91861928D01*
X149061518Y-91874188D01*
X148941820Y-91910498D01*
X148920000Y-91922161D01*
X148898180Y-91910498D01*
X148778482Y-91874188D01*
X148654000Y-91861928D01*
X147182304Y-91861928D01*
X155276989Y-83767244D01*
X155276989Y-92883566D01*
X155273303Y-92920989D01*
X155276989Y-92958412D01*
X155276989Y-92958414D01*
X155288015Y-93070366D01*
X155331587Y-93214003D01*
X155331588Y-93214004D01*
X155402344Y-93346381D01*
X155436991Y-93388598D01*
X155497567Y-93462411D01*
X155526643Y-93486273D01*
X158680721Y-96640352D01*
X158704578Y-96669422D01*
X158820608Y-96764645D01*
X158861928Y-96786731D01*
X158861928Y-96878000D01*
X158874188Y-97002482D01*
X158910498Y-97122180D01*
X158969463Y-97232494D01*
X159048815Y-97329185D01*
X159145506Y-97408537D01*
X159255820Y-97467502D01*
X159375518Y-97503812D01*
X159500000Y-97516072D01*
X164500000Y-97516072D01*
X164624482Y-97503812D01*
X164744180Y-97467502D01*
X164854494Y-97408537D01*
X164951185Y-97329185D01*
X165030537Y-97232494D01*
X165089502Y-97122180D01*
X165125812Y-97002482D01*
X165138072Y-96878000D01*
X165138072Y-95378000D01*
X165125812Y-95253518D01*
X165089502Y-95133820D01*
X165077839Y-95112000D01*
X165089502Y-95090180D01*
X165125812Y-94970482D01*
X165138072Y-94846000D01*
X165138072Y-93346000D01*
X165125812Y-93221518D01*
X165089502Y-93101820D01*
X165077839Y-93080000D01*
X165089502Y-93058180D01*
X165125812Y-92938482D01*
X165138072Y-92814000D01*
X165138072Y-91314000D01*
X165125812Y-91189518D01*
X165089502Y-91069820D01*
X165077839Y-91048000D01*
X165089502Y-91026180D01*
X165125812Y-90906482D01*
X165138072Y-90782000D01*
X165135000Y-90317750D01*
X164976250Y-90159000D01*
X162127000Y-90159000D01*
X162127000Y-90179000D01*
X161873000Y-90179000D01*
X161873000Y-90159000D01*
X159023750Y-90159000D01*
X158865000Y-90317750D01*
X158863109Y-90603479D01*
X158382000Y-90122370D01*
X158382000Y-87470334D01*
X158861928Y-87950263D01*
X158861928Y-88750000D01*
X158874188Y-88874482D01*
X158910498Y-88994180D01*
X158922161Y-89016000D01*
X158910498Y-89037820D01*
X158874188Y-89157518D01*
X158861928Y-89282000D01*
X158865000Y-89746250D01*
X159023750Y-89905000D01*
X161873000Y-89905000D01*
X161873000Y-89885000D01*
X162127000Y-89885000D01*
X162127000Y-89905000D01*
X164976250Y-89905000D01*
X165135000Y-89746250D01*
X165138072Y-89282000D01*
X165125812Y-89157518D01*
X165089502Y-89037820D01*
X165077839Y-89016000D01*
X165089502Y-88994180D01*
X165125812Y-88874482D01*
X165138072Y-88750000D01*
X165138072Y-87250000D01*
X165125812Y-87125518D01*
X165089502Y-87005820D01*
X165077839Y-86984000D01*
X165089502Y-86962180D01*
X165125812Y-86842482D01*
X165134553Y-86753731D01*
X165198434Y-86734353D01*
X165341842Y-86657699D01*
X165467541Y-86554541D01*
X165493397Y-86523035D01*
X166026556Y-85989878D01*
X166058052Y-85964030D01*
X166083900Y-85932534D01*
X166083903Y-85932531D01*
X166161210Y-85838332D01*
X166237864Y-85694923D01*
X166251319Y-85650567D01*
X166285067Y-85539315D01*
X166297011Y-85418042D01*
X166297011Y-85418040D01*
X166301005Y-85377489D01*
X166297011Y-85336939D01*
X166297011Y-68512053D01*
X166301004Y-68471510D01*
X166297011Y-68430967D01*
X166297011Y-68430958D01*
X166285067Y-68309685D01*
X166237864Y-68154077D01*
X166161210Y-68010669D01*
X166058052Y-67884970D01*
X166026550Y-67859117D01*
X164027429Y-65859996D01*
X163995226Y-65698102D01*
X163917205Y-65509744D01*
X163803937Y-65340226D01*
X163659774Y-65196063D01*
X163490256Y-65082795D01*
X163301898Y-65004774D01*
X163101939Y-64965000D01*
X162898061Y-64965000D01*
X162825500Y-64979433D01*
X162825500Y-63070542D01*
X162829493Y-63029999D01*
X162825500Y-62989456D01*
X162825500Y-62989447D01*
X162813556Y-62868174D01*
X162766353Y-62712566D01*
X162689699Y-62569158D01*
X162586541Y-62443459D01*
X162555040Y-62417607D01*
X159034056Y-58896624D01*
X159055000Y-58791335D01*
X159055000Y-58508665D01*
X158999853Y-58231426D01*
X158891680Y-57970273D01*
X158734637Y-57735241D01*
X158534759Y-57535363D01*
X158302241Y-57380000D01*
X158534759Y-57224637D01*
X158734637Y-57024759D01*
X158891680Y-56789727D01*
X158999853Y-56528574D01*
X159055000Y-56251335D01*
X159055000Y-55968665D01*
X158999853Y-55691426D01*
X158891680Y-55430273D01*
X158734637Y-55195241D01*
X158534759Y-54995363D01*
X158300872Y-54839085D01*
X158361514Y-54806671D01*
X158433097Y-54562702D01*
X157620000Y-53749605D01*
X156806903Y-54562702D01*
X156878486Y-54806671D01*
X156942992Y-54837194D01*
X156940273Y-54838320D01*
X156705241Y-54995363D01*
X156505363Y-55195241D01*
X156348320Y-55430273D01*
X156240147Y-55691426D01*
X156185000Y-55968665D01*
X156185000Y-56251335D01*
X156240147Y-56528574D01*
X156348320Y-56789727D01*
X156505363Y-57024759D01*
X156705241Y-57224637D01*
X156937759Y-57380000D01*
X156705241Y-57535363D01*
X156505363Y-57735241D01*
X156348320Y-57970273D01*
X156240147Y-58231426D01*
X156185000Y-58508665D01*
X156185000Y-58791335D01*
X156205944Y-58896624D01*
X155928569Y-59173999D01*
X143719593Y-59173999D01*
X143737571Y-59136004D01*
X143806300Y-58861816D01*
X143820217Y-58579488D01*
X143778787Y-58299870D01*
X143683603Y-58033708D01*
X143616671Y-57908486D01*
X143372702Y-57836903D01*
X142559605Y-58650000D01*
X142573748Y-58664143D01*
X142394143Y-58843748D01*
X142380000Y-58829605D01*
X142365858Y-58843748D01*
X142186253Y-58664143D01*
X142200395Y-58650000D01*
X141387298Y-57836903D01*
X141143329Y-57908486D01*
X141022429Y-58163996D01*
X140953700Y-58438184D01*
X140939783Y-58720512D01*
X140981213Y-59000130D01*
X141076397Y-59266292D01*
X141143329Y-59391514D01*
X141220931Y-59414283D01*
X141196170Y-59444454D01*
X137444961Y-63195665D01*
X137413460Y-63221517D01*
X137387609Y-63253017D01*
X137310301Y-63347216D01*
X137233647Y-63490625D01*
X137186445Y-63646232D01*
X137170506Y-63808058D01*
X137174501Y-63848619D01*
X137174500Y-80515928D01*
X135500000Y-80515928D01*
X135375518Y-80528188D01*
X135353989Y-80534719D01*
X135353989Y-64504335D01*
X138932978Y-60925347D01*
X138992286Y-60925347D01*
X139192245Y-60885573D01*
X139380603Y-60807552D01*
X139550121Y-60694284D01*
X139694284Y-60550121D01*
X139807552Y-60380603D01*
X139885573Y-60192245D01*
X139925347Y-59992286D01*
X139925347Y-59788408D01*
X139885573Y-59588449D01*
X139807552Y-59400091D01*
X139694284Y-59230573D01*
X139550121Y-59086410D01*
X139380603Y-58973142D01*
X139192245Y-58895121D01*
X138992286Y-58855347D01*
X138788408Y-58855347D01*
X138588449Y-58895121D01*
X138400091Y-58973142D01*
X138230573Y-59086410D01*
X138086410Y-59230573D01*
X137973142Y-59400091D01*
X137895121Y-59588449D01*
X137855347Y-59788408D01*
X137855347Y-59847716D01*
X137583387Y-60119676D01*
X137536054Y-60072343D01*
X137366536Y-59959075D01*
X137178178Y-59881054D01*
X136978219Y-59841280D01*
X136774341Y-59841280D01*
X136574382Y-59881054D01*
X136386024Y-59959075D01*
X136216506Y-60072343D01*
X136072343Y-60216506D01*
X135959075Y-60386024D01*
X135881054Y-60574382D01*
X135841280Y-60774341D01*
X135841280Y-60833649D01*
X135569320Y-61105609D01*
X135521987Y-61058276D01*
X135352469Y-60945008D01*
X135164111Y-60866987D01*
X134964152Y-60827213D01*
X134760274Y-60827213D01*
X134560315Y-60866987D01*
X134371957Y-60945008D01*
X134202439Y-61058276D01*
X134058276Y-61202439D01*
X133945008Y-61371957D01*
X133866987Y-61560315D01*
X133827213Y-61760274D01*
X133827213Y-61819583D01*
X133660000Y-61986796D01*
X133660000Y-57102702D01*
X141566903Y-57102702D01*
X141638486Y-57346671D01*
X141704636Y-57377971D01*
X141638486Y-57413329D01*
X141566903Y-57657298D01*
X142380000Y-58470395D01*
X143193097Y-57657298D01*
X143121514Y-57413329D01*
X143055364Y-57382029D01*
X143121514Y-57346671D01*
X143193097Y-57102702D01*
X142380000Y-56289605D01*
X141566903Y-57102702D01*
X133660000Y-57102702D01*
X133660000Y-53779872D01*
X134765000Y-53779872D01*
X134765000Y-54220128D01*
X134850890Y-54651925D01*
X135019369Y-55058669D01*
X135263962Y-55424729D01*
X135575271Y-55736038D01*
X135941331Y-55980631D01*
X136348075Y-56149110D01*
X136779872Y-56235000D01*
X137220128Y-56235000D01*
X137494056Y-56180512D01*
X140939783Y-56180512D01*
X140981213Y-56460130D01*
X141076397Y-56726292D01*
X141143329Y-56851514D01*
X141387298Y-56923097D01*
X142200395Y-56110000D01*
X142559605Y-56110000D01*
X143372702Y-56923097D01*
X143616671Y-56851514D01*
X143737571Y-56596004D01*
X143806300Y-56321816D01*
X143820217Y-56039488D01*
X143778787Y-55759870D01*
X143683603Y-55493708D01*
X143616671Y-55368486D01*
X143372702Y-55296903D01*
X142559605Y-56110000D01*
X142200395Y-56110000D01*
X141387298Y-55296903D01*
X141143329Y-55368486D01*
X141022429Y-55623996D01*
X140953700Y-55898184D01*
X140939783Y-56180512D01*
X137494056Y-56180512D01*
X137651925Y-56149110D01*
X138058669Y-55980631D01*
X138424729Y-55736038D01*
X138736038Y-55424729D01*
X138980631Y-55058669D01*
X139149110Y-54651925D01*
X139235000Y-54220128D01*
X139235000Y-53779872D01*
X139149110Y-53348075D01*
X138980631Y-52941331D01*
X138736038Y-52575271D01*
X138424729Y-52263962D01*
X138058669Y-52019369D01*
X137651925Y-51850890D01*
X137220128Y-51765000D01*
X136779872Y-51765000D01*
X136348075Y-51850890D01*
X135941331Y-52019369D01*
X135575271Y-52263962D01*
X135263962Y-52575271D01*
X135019369Y-52941331D01*
X134850890Y-53348075D01*
X134765000Y-53779872D01*
X133660000Y-53779872D01*
X133660000Y-50230000D01*
X140941928Y-50230000D01*
X140941928Y-51830000D01*
X140954188Y-51954482D01*
X140990498Y-52074180D01*
X141049463Y-52184494D01*
X141128815Y-52281185D01*
X141225506Y-52360537D01*
X141335820Y-52419502D01*
X141455518Y-52455812D01*
X141463961Y-52456643D01*
X141265363Y-52655241D01*
X141108320Y-52890273D01*
X141000147Y-53151426D01*
X140945000Y-53428665D01*
X140945000Y-53711335D01*
X141000147Y-53988574D01*
X141108320Y-54249727D01*
X141265363Y-54484759D01*
X141465241Y-54684637D01*
X141699128Y-54840915D01*
X141638486Y-54873329D01*
X141566903Y-55117298D01*
X142380000Y-55930395D01*
X143193097Y-55117298D01*
X143121514Y-54873329D01*
X143057008Y-54842806D01*
X143059727Y-54841680D01*
X143294759Y-54684637D01*
X143494637Y-54484759D01*
X143651680Y-54249727D01*
X143759853Y-53988574D01*
X143815000Y-53711335D01*
X143815000Y-53640512D01*
X156179783Y-53640512D01*
X156221213Y-53920130D01*
X156316397Y-54186292D01*
X156383329Y-54311514D01*
X156627298Y-54383097D01*
X157440395Y-53570000D01*
X157799605Y-53570000D01*
X158612702Y-54383097D01*
X158856671Y-54311514D01*
X158977571Y-54056004D01*
X159046300Y-53781816D01*
X159046395Y-53779872D01*
X160765000Y-53779872D01*
X160765000Y-54220128D01*
X160850890Y-54651925D01*
X161019369Y-55058669D01*
X161263962Y-55424729D01*
X161575271Y-55736038D01*
X161941331Y-55980631D01*
X162348075Y-56149110D01*
X162779872Y-56235000D01*
X163220128Y-56235000D01*
X163651925Y-56149110D01*
X164058669Y-55980631D01*
X164424729Y-55736038D01*
X164736038Y-55424729D01*
X164980631Y-55058669D01*
X165149110Y-54651925D01*
X165235000Y-54220128D01*
X165235000Y-53779872D01*
X165149110Y-53348075D01*
X164980631Y-52941331D01*
X164736038Y-52575271D01*
X164424729Y-52263962D01*
X164058669Y-52019369D01*
X163651925Y-51850890D01*
X163220128Y-51765000D01*
X162779872Y-51765000D01*
X162348075Y-51850890D01*
X161941331Y-52019369D01*
X161575271Y-52263962D01*
X161263962Y-52575271D01*
X161019369Y-52941331D01*
X160850890Y-53348075D01*
X160765000Y-53779872D01*
X159046395Y-53779872D01*
X159060217Y-53499488D01*
X159018787Y-53219870D01*
X158923603Y-52953708D01*
X158856671Y-52828486D01*
X158612702Y-52756903D01*
X157799605Y-53570000D01*
X157440395Y-53570000D01*
X156627298Y-52756903D01*
X156383329Y-52828486D01*
X156262429Y-53083996D01*
X156193700Y-53358184D01*
X156179783Y-53640512D01*
X143815000Y-53640512D01*
X143815000Y-53428665D01*
X143759853Y-53151426D01*
X143651680Y-52890273D01*
X143494637Y-52655241D01*
X143296039Y-52456643D01*
X143304482Y-52455812D01*
X143424180Y-52419502D01*
X143534494Y-52360537D01*
X143631185Y-52281185D01*
X143710537Y-52184494D01*
X143769502Y-52074180D01*
X143805812Y-51954482D01*
X143818072Y-51830000D01*
X143818072Y-50888665D01*
X156185000Y-50888665D01*
X156185000Y-51171335D01*
X156240147Y-51448574D01*
X156348320Y-51709727D01*
X156505363Y-51944759D01*
X156705241Y-52144637D01*
X156939128Y-52300915D01*
X156878486Y-52333329D01*
X156806903Y-52577298D01*
X157620000Y-53390395D01*
X158433097Y-52577298D01*
X158361514Y-52333329D01*
X158297008Y-52302806D01*
X158299727Y-52301680D01*
X158534759Y-52144637D01*
X158734637Y-51944759D01*
X158891680Y-51709727D01*
X158999853Y-51448574D01*
X159055000Y-51171335D01*
X159055000Y-50888665D01*
X158999853Y-50611426D01*
X158891680Y-50350273D01*
X158734637Y-50115241D01*
X158534759Y-49915363D01*
X158299727Y-49758320D01*
X158038574Y-49650147D01*
X157761335Y-49595000D01*
X157478665Y-49595000D01*
X157201426Y-49650147D01*
X156940273Y-49758320D01*
X156705241Y-49915363D01*
X156505363Y-50115241D01*
X156348320Y-50350273D01*
X156240147Y-50611426D01*
X156185000Y-50888665D01*
X143818072Y-50888665D01*
X143818072Y-50230000D01*
X143805812Y-50105518D01*
X143769502Y-49985820D01*
X143710537Y-49875506D01*
X143631185Y-49778815D01*
X143534494Y-49699463D01*
X143424180Y-49640498D01*
X143304482Y-49604188D01*
X143180000Y-49591928D01*
X141580000Y-49591928D01*
X141455518Y-49604188D01*
X141335820Y-49640498D01*
X141225506Y-49699463D01*
X141128815Y-49778815D01*
X141049463Y-49875506D01*
X140990498Y-49985820D01*
X140954188Y-50105518D01*
X140941928Y-50230000D01*
X133660000Y-50230000D01*
X133660000Y-47660000D01*
X166340001Y-47660000D01*
X166340000Y-98340000D01*
G37*
%TD.AperFunction*%
D15*
X138127000Y-89905000D02*
X138147000Y-89905000D01*
X138147000Y-90159000D01*
X138127000Y-90159000D01*
X138127000Y-90179000D01*
X137873000Y-90179000D01*
X137873000Y-90159000D01*
X137853000Y-90159000D01*
X137853000Y-89905000D01*
X137873000Y-89905000D01*
X137873000Y-89885000D01*
X138127000Y-89885000D01*
X138127000Y-89905000D01*
%TA.AperFunction,Conductor*%
D17*
G36*
X138127000Y-89905000D02*
G01*
X138147000Y-89905000D01*
X138147000Y-90159000D01*
X138127000Y-90159000D01*
X138127000Y-90179000D01*
X137873000Y-90179000D01*
X137873000Y-90159000D01*
X137853000Y-90159000D01*
X137853000Y-89905000D01*
X137873000Y-89905000D01*
X137873000Y-89885000D01*
X138127000Y-89885000D01*
X138127000Y-89905000D01*
G37*
%TD.AperFunction*%
%TD*%
M02*
