%TF.GenerationSoftware,KiCad,Pcbnew,(5.1.10)-1*%
%TF.CreationDate,2022-02-27T18:22:25-05:00*%
%TF.ProjectId,chunair_core,6368756e-6169-4725-9f63-6f72652e6b69,rev?*%
%TF.SameCoordinates,Original*%
%TF.FileFunction,Legend,Bot*%
%TF.FilePolarity,Positive*%
%FSLAX46Y46*%
G04 Gerber Fmt 4.6, Leading zero omitted, Abs format (unit mm)*
G04 Created by KiCad (PCBNEW (5.1.10)-1) date 2022-02-27 18:22:25*
%MOMM*%
%LPD*%
G01*
G04 APERTURE LIST*
%ADD10C,0.300000*%
%ADD11C,0.010000*%
G04 APERTURE END LIST*
D10*
X156928571Y-88178571D02*
X156928571Y-89250000D01*
X157000000Y-89464285D01*
X157142857Y-89607142D01*
X157357142Y-89678571D01*
X157500000Y-89678571D01*
X155500000Y-89678571D02*
X156214285Y-89678571D01*
X156214285Y-88178571D01*
X154142857Y-89535714D02*
X154214285Y-89607142D01*
X154428571Y-89678571D01*
X154571428Y-89678571D01*
X154785714Y-89607142D01*
X154928571Y-89464285D01*
X155000000Y-89321428D01*
X155071428Y-89035714D01*
X155071428Y-88821428D01*
X155000000Y-88535714D01*
X154928571Y-88392857D01*
X154785714Y-88250000D01*
X154571428Y-88178571D01*
X154428571Y-88178571D01*
X154214285Y-88250000D01*
X154142857Y-88321428D01*
X153071428Y-88178571D02*
X153071428Y-89250000D01*
X153142857Y-89464285D01*
X153285714Y-89607142D01*
X153500000Y-89678571D01*
X153642857Y-89678571D01*
X151642857Y-89678571D02*
X152357142Y-89678571D01*
X152357142Y-88178571D01*
X150285714Y-89535714D02*
X150357142Y-89607142D01*
X150571428Y-89678571D01*
X150714285Y-89678571D01*
X150928571Y-89607142D01*
X151071428Y-89464285D01*
X151142857Y-89321428D01*
X151214285Y-89035714D01*
X151214285Y-88821428D01*
X151142857Y-88535714D01*
X151071428Y-88392857D01*
X150928571Y-88250000D01*
X150714285Y-88178571D01*
X150571428Y-88178571D01*
X150357142Y-88250000D01*
X150285714Y-88321428D01*
X149214285Y-88178571D02*
X149214285Y-89250000D01*
X149285714Y-89464285D01*
X149428571Y-89607142D01*
X149642857Y-89678571D01*
X149785714Y-89678571D01*
X147785714Y-89678571D02*
X148500000Y-89678571D01*
X148500000Y-88178571D01*
X146428571Y-89535714D02*
X146500000Y-89607142D01*
X146714285Y-89678571D01*
X146857142Y-89678571D01*
X147071428Y-89607142D01*
X147214285Y-89464285D01*
X147285714Y-89321428D01*
X147357142Y-89035714D01*
X147357142Y-88821428D01*
X147285714Y-88535714D01*
X147214285Y-88392857D01*
X147071428Y-88250000D01*
X146857142Y-88178571D01*
X146714285Y-88178571D01*
X146500000Y-88250000D01*
X146428571Y-88321428D01*
X145357142Y-88178571D02*
X145357142Y-89250000D01*
X145428571Y-89464285D01*
X145571428Y-89607142D01*
X145785714Y-89678571D01*
X145928571Y-89678571D01*
X143928571Y-89678571D02*
X144642857Y-89678571D01*
X144642857Y-88178571D01*
X142571428Y-89535714D02*
X142642857Y-89607142D01*
X142857142Y-89678571D01*
X143000000Y-89678571D01*
X143214285Y-89607142D01*
X143357142Y-89464285D01*
X143428571Y-89321428D01*
X143500000Y-89035714D01*
X143500000Y-88821428D01*
X143428571Y-88535714D01*
X143357142Y-88392857D01*
X143214285Y-88250000D01*
X143000000Y-88178571D01*
X142857142Y-88178571D01*
X142642857Y-88250000D01*
X142571428Y-88321428D01*
D11*
%TO.C,G\u002A\u002A\u002A*%
G36*
X147333000Y-65309189D02*
G01*
X146629146Y-66916469D01*
X146445717Y-67335823D01*
X146221836Y-67848449D01*
X145967626Y-68431127D01*
X145693208Y-69060632D01*
X145408706Y-69713742D01*
X145124241Y-70367235D01*
X144849936Y-70997888D01*
X144779901Y-71159000D01*
X144539082Y-71712606D01*
X144309816Y-72238788D01*
X144097901Y-72724298D01*
X143909137Y-73155889D01*
X143749321Y-73520313D01*
X143624254Y-73804324D01*
X143539735Y-73994672D01*
X143507119Y-74066556D01*
X143379729Y-74338862D01*
X143517320Y-74757994D01*
X143674592Y-75143885D01*
X143877398Y-75503739D01*
X144104362Y-75804884D01*
X144334106Y-76014652D01*
X144343972Y-76021290D01*
X144649762Y-76182898D01*
X145066767Y-76340787D01*
X145579204Y-76490799D01*
X146171286Y-76628773D01*
X146827232Y-76750550D01*
X147464481Y-76843549D01*
X147747770Y-76872369D01*
X148120883Y-76899421D01*
X148558901Y-76923922D01*
X149036903Y-76945090D01*
X149529968Y-76962144D01*
X150013176Y-76974302D01*
X150461605Y-76980780D01*
X150850336Y-76980798D01*
X151154447Y-76973573D01*
X151301750Y-76963973D01*
X151471545Y-76947333D01*
X151728350Y-76922114D01*
X152032791Y-76892185D01*
X152254250Y-76870396D01*
X152862627Y-76796578D01*
X153465982Y-76697466D01*
X154043585Y-76578235D01*
X154574706Y-76444060D01*
X155038615Y-76300113D01*
X155414582Y-76151571D01*
X155656029Y-76021290D01*
X155885139Y-75816568D01*
X156112517Y-75519169D01*
X156316699Y-75161873D01*
X156476221Y-74777461D01*
X156482158Y-74759587D01*
X156619225Y-74342049D01*
X156489470Y-74068149D01*
X156486019Y-74060582D01*
X155184020Y-74060582D01*
X155178745Y-74290956D01*
X155062475Y-74544741D01*
X154846177Y-74809925D01*
X154540816Y-75074499D01*
X154157359Y-75326452D01*
X153905250Y-75461198D01*
X153140066Y-75781387D01*
X152330031Y-76013154D01*
X151501960Y-76152436D01*
X150682666Y-76195169D01*
X149898966Y-76137289D01*
X149682500Y-76101165D01*
X149164533Y-75946956D01*
X148693122Y-75697220D01*
X148413351Y-75477785D01*
X148271257Y-75338277D01*
X148182421Y-75234646D01*
X148165583Y-75194750D01*
X148239217Y-75190041D01*
X148388822Y-75212615D01*
X148446033Y-75224994D01*
X148691974Y-75260168D01*
X149033462Y-75278523D01*
X149440174Y-75280107D01*
X149881781Y-75264968D01*
X150327958Y-75233155D01*
X150444500Y-75221793D01*
X151292041Y-75105055D01*
X152080322Y-74931594D01*
X152850285Y-74689640D01*
X153642874Y-74367419D01*
X154011356Y-74196208D01*
X154394691Y-74019043D01*
X154683243Y-73904880D01*
X154891522Y-73852040D01*
X155034039Y-73858846D01*
X155125307Y-73923619D01*
X155179837Y-74044680D01*
X155184020Y-74060582D01*
X156486019Y-74060582D01*
X156431225Y-73940470D01*
X156330110Y-73713655D01*
X156193777Y-73405086D01*
X156029879Y-73032144D01*
X155974336Y-72905250D01*
X150908127Y-72905250D01*
X150279439Y-72947362D01*
X149874066Y-72981476D01*
X149400249Y-73032643D01*
X148885664Y-73096831D01*
X148357989Y-73170009D01*
X147844901Y-73248143D01*
X147374078Y-73327202D01*
X146973196Y-73403155D01*
X146669933Y-73471968D01*
X146659453Y-73474719D01*
X146312800Y-73574921D01*
X145924307Y-73700205D01*
X145569092Y-73826156D01*
X145516453Y-73846251D01*
X145199276Y-73965175D01*
X144974750Y-74036596D01*
X144819132Y-74063817D01*
X144708679Y-74050142D01*
X144619646Y-73998873D01*
X144591626Y-73974908D01*
X144499166Y-73814433D01*
X144482186Y-73602014D01*
X144541669Y-73388562D01*
X144579102Y-73325346D01*
X144795840Y-73103702D01*
X145119177Y-72890154D01*
X145528727Y-72690863D01*
X146004104Y-72511989D01*
X146524922Y-72359692D01*
X147070795Y-72240132D01*
X147621337Y-72159470D01*
X148156161Y-72123866D01*
X148533633Y-72130374D01*
X148977193Y-72171752D01*
X149368587Y-72246558D01*
X149752755Y-72367293D01*
X150174634Y-72546457D01*
X150374689Y-72642536D01*
X150908127Y-72905250D01*
X155974336Y-72905250D01*
X155846068Y-72612212D01*
X155649997Y-72162673D01*
X155600091Y-72048000D01*
X155098746Y-70895529D01*
X154647903Y-69859231D01*
X154247432Y-68938808D01*
X153897204Y-68133963D01*
X153597089Y-67444397D01*
X153346957Y-66869812D01*
X153146678Y-66409911D01*
X152996124Y-66064396D01*
X152895163Y-65832968D01*
X152883403Y-65806049D01*
X152667000Y-65310848D01*
X152667000Y-60999000D01*
X147333000Y-60999000D01*
X147333000Y-65309189D01*
G37*
X147333000Y-65309189D02*
X146629146Y-66916469D01*
X146445717Y-67335823D01*
X146221836Y-67848449D01*
X145967626Y-68431127D01*
X145693208Y-69060632D01*
X145408706Y-69713742D01*
X145124241Y-70367235D01*
X144849936Y-70997888D01*
X144779901Y-71159000D01*
X144539082Y-71712606D01*
X144309816Y-72238788D01*
X144097901Y-72724298D01*
X143909137Y-73155889D01*
X143749321Y-73520313D01*
X143624254Y-73804324D01*
X143539735Y-73994672D01*
X143507119Y-74066556D01*
X143379729Y-74338862D01*
X143517320Y-74757994D01*
X143674592Y-75143885D01*
X143877398Y-75503739D01*
X144104362Y-75804884D01*
X144334106Y-76014652D01*
X144343972Y-76021290D01*
X144649762Y-76182898D01*
X145066767Y-76340787D01*
X145579204Y-76490799D01*
X146171286Y-76628773D01*
X146827232Y-76750550D01*
X147464481Y-76843549D01*
X147747770Y-76872369D01*
X148120883Y-76899421D01*
X148558901Y-76923922D01*
X149036903Y-76945090D01*
X149529968Y-76962144D01*
X150013176Y-76974302D01*
X150461605Y-76980780D01*
X150850336Y-76980798D01*
X151154447Y-76973573D01*
X151301750Y-76963973D01*
X151471545Y-76947333D01*
X151728350Y-76922114D01*
X152032791Y-76892185D01*
X152254250Y-76870396D01*
X152862627Y-76796578D01*
X153465982Y-76697466D01*
X154043585Y-76578235D01*
X154574706Y-76444060D01*
X155038615Y-76300113D01*
X155414582Y-76151571D01*
X155656029Y-76021290D01*
X155885139Y-75816568D01*
X156112517Y-75519169D01*
X156316699Y-75161873D01*
X156476221Y-74777461D01*
X156482158Y-74759587D01*
X156619225Y-74342049D01*
X156489470Y-74068149D01*
X156486019Y-74060582D01*
X155184020Y-74060582D01*
X155178745Y-74290956D01*
X155062475Y-74544741D01*
X154846177Y-74809925D01*
X154540816Y-75074499D01*
X154157359Y-75326452D01*
X153905250Y-75461198D01*
X153140066Y-75781387D01*
X152330031Y-76013154D01*
X151501960Y-76152436D01*
X150682666Y-76195169D01*
X149898966Y-76137289D01*
X149682500Y-76101165D01*
X149164533Y-75946956D01*
X148693122Y-75697220D01*
X148413351Y-75477785D01*
X148271257Y-75338277D01*
X148182421Y-75234646D01*
X148165583Y-75194750D01*
X148239217Y-75190041D01*
X148388822Y-75212615D01*
X148446033Y-75224994D01*
X148691974Y-75260168D01*
X149033462Y-75278523D01*
X149440174Y-75280107D01*
X149881781Y-75264968D01*
X150327958Y-75233155D01*
X150444500Y-75221793D01*
X151292041Y-75105055D01*
X152080322Y-74931594D01*
X152850285Y-74689640D01*
X153642874Y-74367419D01*
X154011356Y-74196208D01*
X154394691Y-74019043D01*
X154683243Y-73904880D01*
X154891522Y-73852040D01*
X155034039Y-73858846D01*
X155125307Y-73923619D01*
X155179837Y-74044680D01*
X155184020Y-74060582D01*
X156486019Y-74060582D01*
X156431225Y-73940470D01*
X156330110Y-73713655D01*
X156193777Y-73405086D01*
X156029879Y-73032144D01*
X155974336Y-72905250D01*
X150908127Y-72905250D01*
X150279439Y-72947362D01*
X149874066Y-72981476D01*
X149400249Y-73032643D01*
X148885664Y-73096831D01*
X148357989Y-73170009D01*
X147844901Y-73248143D01*
X147374078Y-73327202D01*
X146973196Y-73403155D01*
X146669933Y-73471968D01*
X146659453Y-73474719D01*
X146312800Y-73574921D01*
X145924307Y-73700205D01*
X145569092Y-73826156D01*
X145516453Y-73846251D01*
X145199276Y-73965175D01*
X144974750Y-74036596D01*
X144819132Y-74063817D01*
X144708679Y-74050142D01*
X144619646Y-73998873D01*
X144591626Y-73974908D01*
X144499166Y-73814433D01*
X144482186Y-73602014D01*
X144541669Y-73388562D01*
X144579102Y-73325346D01*
X144795840Y-73103702D01*
X145119177Y-72890154D01*
X145528727Y-72690863D01*
X146004104Y-72511989D01*
X146524922Y-72359692D01*
X147070795Y-72240132D01*
X147621337Y-72159470D01*
X148156161Y-72123866D01*
X148533633Y-72130374D01*
X148977193Y-72171752D01*
X149368587Y-72246558D01*
X149752755Y-72367293D01*
X150174634Y-72546457D01*
X150374689Y-72642536D01*
X150908127Y-72905250D01*
X155974336Y-72905250D01*
X155846068Y-72612212D01*
X155649997Y-72162673D01*
X155600091Y-72048000D01*
X155098746Y-70895529D01*
X154647903Y-69859231D01*
X154247432Y-68938808D01*
X153897204Y-68133963D01*
X153597089Y-67444397D01*
X153346957Y-66869812D01*
X153146678Y-66409911D01*
X152996124Y-66064396D01*
X152895163Y-65832968D01*
X152883403Y-65806049D01*
X152667000Y-65310848D01*
X152667000Y-60999000D01*
X147333000Y-60999000D01*
X147333000Y-65309189D01*
%TD*%
M02*
