%TF.GenerationSoftware,KiCad,Pcbnew,(5.1.10)-1*%
%TF.CreationDate,2022-02-27T18:22:25-05:00*%
%TF.ProjectId,chunair_core,6368756e-6169-4725-9f63-6f72652e6b69,rev?*%
%TF.SameCoordinates,Original*%
%TF.FileFunction,Legend,Top*%
%TF.FilePolarity,Positive*%
%FSLAX46Y46*%
G04 Gerber Fmt 4.6, Leading zero omitted, Abs format (unit mm)*
G04 Created by KiCad (PCBNEW (5.1.10)-1) date 2022-02-27 18:22:25*
%MOMM*%
%LPD*%
G01*
G04 APERTURE LIST*
%ADD10C,0.300000*%
%ADD11C,0.150000*%
%ADD12C,0.120000*%
G04 APERTURE END LIST*
D10*
X152535714Y-90464285D02*
X152607142Y-90535714D01*
X152678571Y-90750000D01*
X152678571Y-90892857D01*
X152607142Y-91107142D01*
X152464285Y-91250000D01*
X152321428Y-91321428D01*
X152035714Y-91392857D01*
X151821428Y-91392857D01*
X151535714Y-91321428D01*
X151392857Y-91250000D01*
X151250000Y-91107142D01*
X151178571Y-90892857D01*
X151178571Y-90750000D01*
X151250000Y-90535714D01*
X151321428Y-90464285D01*
X151178571Y-89535714D02*
X151178571Y-89250000D01*
X151250000Y-89107142D01*
X151392857Y-88964285D01*
X151678571Y-88892857D01*
X152178571Y-88892857D01*
X152464285Y-88964285D01*
X152607142Y-89107142D01*
X152678571Y-89250000D01*
X152678571Y-89535714D01*
X152607142Y-89678571D01*
X152464285Y-89821428D01*
X152178571Y-89892857D01*
X151678571Y-89892857D01*
X151392857Y-89821428D01*
X151250000Y-89678571D01*
X151178571Y-89535714D01*
X152678571Y-88250000D02*
X151178571Y-88250000D01*
X152678571Y-87535714D02*
X151178571Y-87535714D01*
X152678571Y-86678571D01*
X151178571Y-86678571D01*
X150678571Y-91357142D02*
X149964285Y-91857142D01*
X150678571Y-92214285D02*
X149178571Y-92214285D01*
X149178571Y-91642857D01*
X149250000Y-91500000D01*
X149321428Y-91428571D01*
X149464285Y-91357142D01*
X149678571Y-91357142D01*
X149821428Y-91428571D01*
X149892857Y-91500000D01*
X149964285Y-91642857D01*
X149964285Y-92214285D01*
X149250000Y-89928571D02*
X149178571Y-90071428D01*
X149178571Y-90285714D01*
X149250000Y-90500000D01*
X149392857Y-90642857D01*
X149535714Y-90714285D01*
X149821428Y-90785714D01*
X150035714Y-90785714D01*
X150321428Y-90714285D01*
X150464285Y-90642857D01*
X150607142Y-90500000D01*
X150678571Y-90285714D01*
X150678571Y-90142857D01*
X150607142Y-89928571D01*
X150535714Y-89857142D01*
X150035714Y-89857142D01*
X150035714Y-90142857D01*
X149892857Y-88714285D02*
X149964285Y-88500000D01*
X150035714Y-88428571D01*
X150178571Y-88357142D01*
X150392857Y-88357142D01*
X150535714Y-88428571D01*
X150607142Y-88500000D01*
X150678571Y-88642857D01*
X150678571Y-89214285D01*
X149178571Y-89214285D01*
X149178571Y-88714285D01*
X149250000Y-88571428D01*
X149321428Y-88500000D01*
X149464285Y-88428571D01*
X149607142Y-88428571D01*
X149750000Y-88500000D01*
X149821428Y-88571428D01*
X149892857Y-88714285D01*
X149892857Y-89214285D01*
X150821428Y-88071428D02*
X150821428Y-86928571D01*
X150678571Y-85714285D02*
X149964285Y-86214285D01*
X150678571Y-86571428D02*
X149178571Y-86571428D01*
X149178571Y-86000000D01*
X149250000Y-85857142D01*
X149321428Y-85785714D01*
X149464285Y-85714285D01*
X149678571Y-85714285D01*
X149821428Y-85785714D01*
X149892857Y-85857142D01*
X149964285Y-86000000D01*
X149964285Y-86571428D01*
X148678571Y-91214285D02*
X147964285Y-91714285D01*
X148678571Y-92071428D02*
X147178571Y-92071428D01*
X147178571Y-91500000D01*
X147250000Y-91357142D01*
X147321428Y-91285714D01*
X147464285Y-91214285D01*
X147678571Y-91214285D01*
X147821428Y-91285714D01*
X147892857Y-91357142D01*
X147964285Y-91500000D01*
X147964285Y-92071428D01*
X147250000Y-89785714D02*
X147178571Y-89928571D01*
X147178571Y-90142857D01*
X147250000Y-90357142D01*
X147392857Y-90500000D01*
X147535714Y-90571428D01*
X147821428Y-90642857D01*
X148035714Y-90642857D01*
X148321428Y-90571428D01*
X148464285Y-90500000D01*
X148607142Y-90357142D01*
X148678571Y-90142857D01*
X148678571Y-90000000D01*
X148607142Y-89785714D01*
X148535714Y-89714285D01*
X148035714Y-89714285D01*
X148035714Y-90000000D01*
X147892857Y-88571428D02*
X147964285Y-88357142D01*
X148035714Y-88285714D01*
X148178571Y-88214285D01*
X148392857Y-88214285D01*
X148535714Y-88285714D01*
X148607142Y-88357142D01*
X148678571Y-88500000D01*
X148678571Y-89071428D01*
X147178571Y-89071428D01*
X147178571Y-88571428D01*
X147250000Y-88428571D01*
X147321428Y-88357142D01*
X147464285Y-88285714D01*
X147607142Y-88285714D01*
X147750000Y-88357142D01*
X147821428Y-88428571D01*
X147892857Y-88571428D01*
X147892857Y-89071428D01*
X148821428Y-87928571D02*
X148821428Y-86785714D01*
X148678571Y-85714285D02*
X148678571Y-86428571D01*
X147178571Y-86428571D01*
X155928571Y-97250000D02*
X156642857Y-97250000D01*
X155785714Y-97678571D02*
X156285714Y-96178571D01*
X156785714Y-97678571D01*
X157214285Y-96321428D02*
X157285714Y-96250000D01*
X157428571Y-96178571D01*
X157785714Y-96178571D01*
X157928571Y-96250000D01*
X158000000Y-96321428D01*
X158071428Y-96464285D01*
X158071428Y-96607142D01*
X158000000Y-96821428D01*
X157142857Y-97678571D01*
X158071428Y-97678571D01*
X155928571Y-95250000D02*
X156642857Y-95250000D01*
X155785714Y-95678571D02*
X156285714Y-94178571D01*
X156785714Y-95678571D01*
X157571428Y-94178571D02*
X157714285Y-94178571D01*
X157857142Y-94250000D01*
X157928571Y-94321428D01*
X158000000Y-94464285D01*
X158071428Y-94750000D01*
X158071428Y-95107142D01*
X158000000Y-95392857D01*
X157928571Y-95535714D01*
X157857142Y-95607142D01*
X157714285Y-95678571D01*
X157571428Y-95678571D01*
X157428571Y-95607142D01*
X157357142Y-95535714D01*
X157285714Y-95392857D01*
X157214285Y-95107142D01*
X157214285Y-94750000D01*
X157285714Y-94464285D01*
X157357142Y-94321428D01*
X157428571Y-94250000D01*
X157571428Y-94178571D01*
X155928571Y-93250000D02*
X156642857Y-93250000D01*
X155785714Y-93678571D02*
X156285714Y-92178571D01*
X156785714Y-93678571D01*
X157357142Y-93678571D02*
X157642857Y-93678571D01*
X157785714Y-93607142D01*
X157857142Y-93535714D01*
X158000000Y-93321428D01*
X158071428Y-93035714D01*
X158071428Y-92464285D01*
X158000000Y-92321428D01*
X157928571Y-92250000D01*
X157785714Y-92178571D01*
X157500000Y-92178571D01*
X157357142Y-92250000D01*
X157285714Y-92321428D01*
X157214285Y-92464285D01*
X157214285Y-92821428D01*
X157285714Y-92964285D01*
X157357142Y-93035714D01*
X157500000Y-93107142D01*
X157785714Y-93107142D01*
X157928571Y-93035714D01*
X158000000Y-92964285D01*
X158071428Y-92821428D01*
X141928571Y-97250000D02*
X142642857Y-97250000D01*
X141785714Y-97678571D02*
X142285714Y-96178571D01*
X142785714Y-97678571D01*
X143142857Y-96178571D02*
X144071428Y-96178571D01*
X143571428Y-96750000D01*
X143785714Y-96750000D01*
X143928571Y-96821428D01*
X144000000Y-96892857D01*
X144071428Y-97035714D01*
X144071428Y-97392857D01*
X144000000Y-97535714D01*
X143928571Y-97607142D01*
X143785714Y-97678571D01*
X143357142Y-97678571D01*
X143214285Y-97607142D01*
X143142857Y-97535714D01*
X141928571Y-95250000D02*
X142642857Y-95250000D01*
X141785714Y-95678571D02*
X142285714Y-94178571D01*
X142785714Y-95678571D01*
X144071428Y-95678571D02*
X143214285Y-95678571D01*
X143642857Y-95678571D02*
X143642857Y-94178571D01*
X143500000Y-94392857D01*
X143357142Y-94535714D01*
X143214285Y-94607142D01*
X141214285Y-93250000D02*
X141928571Y-93250000D01*
X141071428Y-93678571D02*
X141571428Y-92178571D01*
X142071428Y-93678571D01*
X143357142Y-93678571D02*
X142500000Y-93678571D01*
X142928571Y-93678571D02*
X142928571Y-92178571D01*
X142785714Y-92392857D01*
X142642857Y-92535714D01*
X142500000Y-92607142D01*
X144285714Y-92178571D02*
X144428571Y-92178571D01*
X144571428Y-92250000D01*
X144642857Y-92321428D01*
X144714285Y-92464285D01*
X144785714Y-92750000D01*
X144785714Y-93107142D01*
X144714285Y-93392857D01*
X144642857Y-93535714D01*
X144571428Y-93607142D01*
X144428571Y-93678571D01*
X144285714Y-93678571D01*
X144142857Y-93607142D01*
X144071428Y-93535714D01*
X144000000Y-93392857D01*
X143928571Y-93107142D01*
X143928571Y-92750000D01*
X144000000Y-92464285D01*
X144071428Y-92321428D01*
X144142857Y-92250000D01*
X144285714Y-92178571D01*
X156714285Y-89678571D02*
X155857142Y-89678571D01*
X156285714Y-89678571D02*
X156285714Y-88178571D01*
X156142857Y-88392857D01*
X156000000Y-88535714D01*
X155857142Y-88607142D01*
X158071428Y-88178571D02*
X157357142Y-88178571D01*
X157285714Y-88892857D01*
X157357142Y-88821428D01*
X157500000Y-88750000D01*
X157857142Y-88750000D01*
X158000000Y-88821428D01*
X158071428Y-88892857D01*
X158142857Y-89035714D01*
X158142857Y-89392857D01*
X158071428Y-89535714D01*
X158000000Y-89607142D01*
X157857142Y-89678571D01*
X157500000Y-89678571D01*
X157357142Y-89607142D01*
X157285714Y-89535714D01*
X156714285Y-87678571D02*
X155857142Y-87678571D01*
X156285714Y-87678571D02*
X156285714Y-86178571D01*
X156142857Y-86392857D01*
X156000000Y-86535714D01*
X155857142Y-86607142D01*
X158000000Y-86178571D02*
X157714285Y-86178571D01*
X157571428Y-86250000D01*
X157500000Y-86321428D01*
X157357142Y-86535714D01*
X157285714Y-86821428D01*
X157285714Y-87392857D01*
X157357142Y-87535714D01*
X157428571Y-87607142D01*
X157571428Y-87678571D01*
X157857142Y-87678571D01*
X158000000Y-87607142D01*
X158071428Y-87535714D01*
X158142857Y-87392857D01*
X158142857Y-87035714D01*
X158071428Y-86892857D01*
X158000000Y-86821428D01*
X157857142Y-86750000D01*
X157571428Y-86750000D01*
X157428571Y-86821428D01*
X157357142Y-86892857D01*
X157285714Y-87035714D01*
X156500000Y-84178571D02*
X157500000Y-84178571D01*
X156857142Y-85678571D01*
X142714285Y-89678571D02*
X141857142Y-89678571D01*
X142285714Y-89678571D02*
X142285714Y-88178571D01*
X142142857Y-88392857D01*
X142000000Y-88535714D01*
X141857142Y-88607142D01*
X144000000Y-88678571D02*
X144000000Y-89678571D01*
X143642857Y-88107142D02*
X143285714Y-89178571D01*
X144214285Y-89178571D01*
X142857142Y-86821428D02*
X142714285Y-86750000D01*
X142642857Y-86678571D01*
X142571428Y-86535714D01*
X142571428Y-86464285D01*
X142642857Y-86321428D01*
X142714285Y-86250000D01*
X142857142Y-86178571D01*
X143142857Y-86178571D01*
X143285714Y-86250000D01*
X143357142Y-86321428D01*
X143428571Y-86464285D01*
X143428571Y-86535714D01*
X143357142Y-86678571D01*
X143285714Y-86750000D01*
X143142857Y-86821428D01*
X142857142Y-86821428D01*
X142714285Y-86892857D01*
X142642857Y-86964285D01*
X142571428Y-87107142D01*
X142571428Y-87392857D01*
X142642857Y-87535714D01*
X142714285Y-87607142D01*
X142857142Y-87678571D01*
X143142857Y-87678571D01*
X143285714Y-87607142D01*
X143357142Y-87535714D01*
X143428571Y-87392857D01*
X143428571Y-87107142D01*
X143357142Y-86964285D01*
X143285714Y-86892857D01*
X143142857Y-86821428D01*
X143285714Y-84178571D02*
X143000000Y-84178571D01*
X142857142Y-84250000D01*
X142785714Y-84321428D01*
X142642857Y-84535714D01*
X142571428Y-84821428D01*
X142571428Y-85392857D01*
X142642857Y-85535714D01*
X142714285Y-85607142D01*
X142857142Y-85678571D01*
X143142857Y-85678571D01*
X143285714Y-85607142D01*
X143357142Y-85535714D01*
X143428571Y-85392857D01*
X143428571Y-85035714D01*
X143357142Y-84892857D01*
X143285714Y-84821428D01*
X143142857Y-84750000D01*
X142857142Y-84750000D01*
X142714285Y-84821428D01*
X142642857Y-84892857D01*
X142571428Y-85035714D01*
X155857142Y-90250000D02*
X155714285Y-90178571D01*
X155500000Y-90178571D01*
X155285714Y-90250000D01*
X155142857Y-90392857D01*
X155071428Y-90535714D01*
X155000000Y-90821428D01*
X155000000Y-91035714D01*
X155071428Y-91321428D01*
X155142857Y-91464285D01*
X155285714Y-91607142D01*
X155500000Y-91678571D01*
X155642857Y-91678571D01*
X155857142Y-91607142D01*
X155928571Y-91535714D01*
X155928571Y-91035714D01*
X155642857Y-91035714D01*
X156571428Y-91678571D02*
X156571428Y-90178571D01*
X157428571Y-91678571D01*
X157428571Y-90178571D01*
X158142857Y-91678571D02*
X158142857Y-90178571D01*
X158500000Y-90178571D01*
X158714285Y-90250000D01*
X158857142Y-90392857D01*
X158928571Y-90535714D01*
X159000000Y-90821428D01*
X159000000Y-91035714D01*
X158928571Y-91321428D01*
X158857142Y-91464285D01*
X158714285Y-91607142D01*
X158500000Y-91678571D01*
X158142857Y-91678571D01*
X141857142Y-90250000D02*
X141714285Y-90178571D01*
X141500000Y-90178571D01*
X141285714Y-90250000D01*
X141142857Y-90392857D01*
X141071428Y-90535714D01*
X141000000Y-90821428D01*
X141000000Y-91035714D01*
X141071428Y-91321428D01*
X141142857Y-91464285D01*
X141285714Y-91607142D01*
X141500000Y-91678571D01*
X141642857Y-91678571D01*
X141857142Y-91607142D01*
X141928571Y-91535714D01*
X141928571Y-91035714D01*
X141642857Y-91035714D01*
X142571428Y-91678571D02*
X142571428Y-90178571D01*
X143428571Y-91678571D01*
X143428571Y-90178571D01*
X144142857Y-91678571D02*
X144142857Y-90178571D01*
X144500000Y-90178571D01*
X144714285Y-90250000D01*
X144857142Y-90392857D01*
X144928571Y-90535714D01*
X145000000Y-90821428D01*
X145000000Y-91035714D01*
X144928571Y-91321428D01*
X144857142Y-91464285D01*
X144714285Y-91607142D01*
X144500000Y-91678571D01*
X144142857Y-91678571D01*
X156714285Y-82178571D02*
X156000000Y-82178571D01*
X155928571Y-82892857D01*
X156000000Y-82821428D01*
X156142857Y-82750000D01*
X156500000Y-82750000D01*
X156642857Y-82821428D01*
X156714285Y-82892857D01*
X156785714Y-83035714D01*
X156785714Y-83392857D01*
X156714285Y-83535714D01*
X156642857Y-83607142D01*
X156500000Y-83678571D01*
X156142857Y-83678571D01*
X156000000Y-83607142D01*
X155928571Y-83535714D01*
X157214285Y-82178571D02*
X157714285Y-83678571D01*
X158214285Y-82178571D01*
X142714285Y-82178571D02*
X142000000Y-82178571D01*
X141928571Y-82892857D01*
X142000000Y-82821428D01*
X142142857Y-82750000D01*
X142500000Y-82750000D01*
X142642857Y-82821428D01*
X142714285Y-82892857D01*
X142785714Y-83035714D01*
X142785714Y-83392857D01*
X142714285Y-83535714D01*
X142642857Y-83607142D01*
X142500000Y-83678571D01*
X142142857Y-83678571D01*
X142000000Y-83607142D01*
X141928571Y-83535714D01*
X143214285Y-82178571D02*
X143714285Y-83678571D01*
X144214285Y-82178571D01*
D11*
%TO.C,U1*%
X158890000Y-80240000D02*
X141110000Y-80240000D01*
X158890000Y-49760000D02*
X158890000Y-80240000D01*
X153810000Y-49760000D02*
X158890000Y-49760000D01*
X153810000Y-47220000D02*
X153810000Y-49760000D01*
X146190000Y-47220000D02*
X153810000Y-47220000D01*
X146190000Y-49760000D02*
X146190000Y-47220000D01*
X141110000Y-49760000D02*
X146190000Y-49760000D01*
X141110000Y-49760000D02*
X141110000Y-80240000D01*
D12*
%TO.C,J3*%
X146888000Y-92714000D02*
X146888000Y-97032000D01*
X152984000Y-92968000D02*
X152984000Y-97032000D01*
%TO.C,J2*%
X164286000Y-81888000D02*
X159968000Y-81888000D01*
X164032000Y-98144000D02*
X159968000Y-98144000D01*
%TO.C,J1*%
X140286000Y-81888000D02*
X135968000Y-81888000D01*
X140032000Y-98144000D02*
X135968000Y-98144000D01*
%TO.C,J3*%
D11*
X145324380Y-95333333D02*
X146038666Y-95333333D01*
X146181523Y-95380952D01*
X146276761Y-95476190D01*
X146324380Y-95619047D01*
X146324380Y-95714285D01*
X145324380Y-94952380D02*
X145324380Y-94333333D01*
X145705333Y-94666666D01*
X145705333Y-94523809D01*
X145752952Y-94428571D01*
X145800571Y-94380952D01*
X145895809Y-94333333D01*
X146133904Y-94333333D01*
X146229142Y-94380952D01*
X146276761Y-94428571D01*
X146324380Y-94523809D01*
X146324380Y-94809523D01*
X146276761Y-94904761D01*
X146229142Y-94952380D01*
%TD*%
M02*
