M48
; DRILL file {KiCad (5.1.10)-1} date 02/26/22 03:46:23
; FORMAT={-:-/ absolute / metric / decimal}
; #@! TF.CreationDate,2022-02-26T03:46:23-05:00
; #@! TF.GenerationSoftware,Kicad,Pcbnew,(5.1.10)-1
; #@! TF.FileFunction,Plated,1,2,PTH
FMAT,2
METRIC
T1C0.400
T2C1.100
%
G90
G05
T1
X134.862Y-61.862
X136.876Y-60.876
X138.89Y-59.89
X141.0Y-88.0
X141.653Y-86.0
X155.312Y-71.0
X163.0Y-66.0
X163.0Y-68.0
T2
X142.38Y-51.03
X142.38Y-53.57
X142.38Y-56.11
X142.38Y-58.65
X142.38Y-61.19
X142.38Y-63.73
X142.38Y-66.27
X142.38Y-68.81
X142.38Y-71.35
X142.38Y-73.89
X142.38Y-76.43
X142.38Y-78.97
X157.62Y-51.03
X157.62Y-53.57
X157.62Y-56.11
X157.62Y-58.65
X157.62Y-61.19
X157.62Y-63.73
X157.62Y-66.27
X157.62Y-68.81
X157.62Y-71.35
X157.62Y-73.89
X157.62Y-76.43
X157.62Y-78.97
T0
M30
