%TF.GenerationSoftware,KiCad,Pcbnew,(5.1.10)-1*%
%TF.CreationDate,2022-02-27T18:22:25-05:00*%
%TF.ProjectId,chunair_core,6368756e-6169-4725-9f63-6f72652e6b69,rev?*%
%TF.SameCoordinates,Original*%
%TF.FileFunction,Copper,L2,Bot*%
%TF.FilePolarity,Positive*%
%FSLAX46Y46*%
G04 Gerber Fmt 4.6, Leading zero omitted, Abs format (unit mm)*
G04 Created by KiCad (PCBNEW (5.1.10)-1) date 2022-02-27 18:22:25*
%MOMM*%
%LPD*%
G01*
G04 APERTURE LIST*
%TA.AperFunction,ComponentPad*%
%ADD10C,1.600000*%
%TD*%
%TA.AperFunction,ComponentPad*%
%ADD11R,1.600000X1.600000*%
%TD*%
%TA.AperFunction,ViaPad*%
%ADD12C,0.800000*%
%TD*%
%TA.AperFunction,Conductor*%
%ADD13C,0.381000*%
%TD*%
%TA.AperFunction,Conductor*%
%ADD14C,0.254000*%
%TD*%
%TA.AperFunction,NonConductor*%
%ADD15C,0.254000*%
%TD*%
%TA.AperFunction,NonConductor*%
%ADD16C,0.100000*%
%TD*%
G04 APERTURE END LIST*
D10*
%TO.P,U1,24*%
%TO.N,N/C*%
X157620000Y-51030000D03*
%TO.P,U1,23*%
%TO.N,GND*%
X157620000Y-53570000D03*
%TO.P,U1,22*%
%TO.N,N/C*%
X157620000Y-56110000D03*
%TO.P,U1,21*%
%TO.N,+5V*%
X157620000Y-58650000D03*
%TO.P,U1,20*%
%TO.N,/A3*%
X157620000Y-61190000D03*
%TO.P,U1,19*%
%TO.N,/A2*%
X157620000Y-63730000D03*
%TO.P,U1,18*%
%TO.N,/A1*%
X157620000Y-66270000D03*
%TO.P,U1,17*%
%TO.N,/A0*%
X157620000Y-68810000D03*
%TO.P,U1,16*%
%TO.N,/15*%
X157620000Y-71350000D03*
%TO.P,U1,15*%
%TO.N,/14*%
X157620000Y-73890000D03*
%TO.P,U1,14*%
%TO.N,/16*%
X157620000Y-76430000D03*
%TO.P,U1,13*%
%TO.N,/A10*%
X157620000Y-78970000D03*
%TO.P,U1,12*%
%TO.N,/A9*%
X142380000Y-78970000D03*
%TO.P,U1,11*%
%TO.N,/8*%
X142380000Y-76430000D03*
%TO.P,U1,10*%
%TO.N,/7*%
X142380000Y-73890000D03*
%TO.P,U1,9*%
%TO.N,/6*%
X142380000Y-71350000D03*
%TO.P,U1,8*%
%TO.N,/coin*%
X142380000Y-68810000D03*
%TO.P,U1,7*%
%TO.N,/RGB_R*%
X142380000Y-66270000D03*
%TO.P,U1,6*%
%TO.N,/RGB_L*%
X142380000Y-63730000D03*
%TO.P,U1,5*%
%TO.N,N/C*%
X142380000Y-61190000D03*
%TO.P,U1,4*%
%TO.N,GND*%
X142380000Y-58650000D03*
%TO.P,U1,3*%
X142380000Y-56110000D03*
%TO.P,U1,2*%
%TO.N,N/C*%
X142380000Y-53570000D03*
D11*
%TO.P,U1,1*%
X142380000Y-51030000D03*
%TD*%
D12*
%TO.N,/14*%
X141000000Y-89000000D03*
%TO.N,GND*%
X141000000Y-91000000D03*
X159000000Y-91000000D03*
%TO.N,+5V*%
X138000000Y-81000000D03*
X162000000Y-81000000D03*
%TO.N,/RGB_R*%
X150000000Y-98000000D03*
%TO.N,/coin*%
X152000000Y-92000000D03*
%TD*%
D13*
%TO.N,/14*%
X156110000Y-73890000D02*
X141000000Y-89000000D01*
X157620000Y-73890000D02*
X156110000Y-73890000D01*
%TO.N,GND*%
X141000000Y-91000000D02*
X159000000Y-91000000D01*
X162790501Y-87209499D02*
X162790501Y-58740501D01*
X162790501Y-58740501D02*
X157620000Y-53570000D01*
X159000000Y-91000000D02*
X162790501Y-87209499D01*
X144920000Y-53570000D02*
X142380000Y-56110000D01*
X157620000Y-53570000D02*
X144920000Y-53570000D01*
X142380000Y-56110000D02*
X142380000Y-58650000D01*
%TO.N,+5V*%
X162000000Y-63030000D02*
X157620000Y-58650000D01*
X162000000Y-81000000D02*
X162000000Y-63030000D01*
X138000000Y-76508058D02*
X138000000Y-81000000D01*
X141808559Y-72699499D02*
X138000000Y-76508058D01*
X143570501Y-72699499D02*
X141808559Y-72699499D01*
X157620000Y-58650000D02*
X143570501Y-72699499D01*
D14*
%TO.N,/RGB_R*%
X146281971Y-98000000D02*
X150000000Y-98000000D01*
X136237979Y-87956008D02*
X146281971Y-98000000D01*
X136237979Y-72412021D02*
X136237979Y-87956008D01*
X142380000Y-66270000D02*
X136237979Y-72412021D01*
%TO.N,/coin*%
X140924038Y-92000000D02*
X152000000Y-92000000D01*
X136691989Y-87767951D02*
X140924038Y-92000000D01*
X136691989Y-74498011D02*
X136691989Y-87767951D01*
X142380000Y-68810000D02*
X136691989Y-74498011D01*
%TD*%
D15*
X166340000Y-99340000D02*
X133660000Y-99340000D01*
X133660000Y-72412021D01*
X135472293Y-72412021D01*
X135475979Y-72449444D01*
X135475980Y-87918575D01*
X135472293Y-87956008D01*
X135487006Y-88105386D01*
X135530578Y-88249023D01*
X135601334Y-88381400D01*
X135620371Y-88404596D01*
X135696558Y-88497430D01*
X135725628Y-88521287D01*
X145716687Y-98512346D01*
X145740549Y-98541422D01*
X145814190Y-98601857D01*
X145856578Y-98636645D01*
X145899850Y-98659774D01*
X145988956Y-98707402D01*
X146132593Y-98750974D01*
X146244545Y-98762000D01*
X146244548Y-98762000D01*
X146281971Y-98765686D01*
X146319394Y-98762000D01*
X149298289Y-98762000D01*
X149340226Y-98803937D01*
X149509744Y-98917205D01*
X149698102Y-98995226D01*
X149898061Y-99035000D01*
X150101939Y-99035000D01*
X150301898Y-98995226D01*
X150490256Y-98917205D01*
X150659774Y-98803937D01*
X150803937Y-98659774D01*
X150917205Y-98490256D01*
X150995226Y-98301898D01*
X151035000Y-98101939D01*
X151035000Y-97898061D01*
X150995226Y-97698102D01*
X150917205Y-97509744D01*
X150803937Y-97340226D01*
X150659774Y-97196063D01*
X150490256Y-97082795D01*
X150301898Y-97004774D01*
X150101939Y-96965000D01*
X149898061Y-96965000D01*
X149698102Y-97004774D01*
X149509744Y-97082795D01*
X149340226Y-97196063D01*
X149298289Y-97238000D01*
X146597601Y-97238000D01*
X142121601Y-92762000D01*
X151298289Y-92762000D01*
X151340226Y-92803937D01*
X151509744Y-92917205D01*
X151698102Y-92995226D01*
X151898061Y-93035000D01*
X152101939Y-93035000D01*
X152301898Y-92995226D01*
X152490256Y-92917205D01*
X152659774Y-92803937D01*
X152803937Y-92659774D01*
X152917205Y-92490256D01*
X152995226Y-92301898D01*
X153035000Y-92101939D01*
X153035000Y-91898061D01*
X153020567Y-91825500D01*
X158372497Y-91825500D01*
X158509744Y-91917205D01*
X158698102Y-91995226D01*
X158898061Y-92035000D01*
X159101939Y-92035000D01*
X159301898Y-91995226D01*
X159490256Y-91917205D01*
X159659774Y-91803937D01*
X159803937Y-91659774D01*
X159917205Y-91490256D01*
X159995226Y-91301898D01*
X160027429Y-91140004D01*
X163345547Y-87821887D01*
X163377042Y-87796040D01*
X163402890Y-87764544D01*
X163402893Y-87764541D01*
X163480200Y-87670342D01*
X163556854Y-87526933D01*
X163572627Y-87474936D01*
X163604057Y-87371325D01*
X163616001Y-87250052D01*
X163616001Y-87250050D01*
X163619995Y-87209499D01*
X163616001Y-87168949D01*
X163616001Y-58781051D01*
X163619995Y-58740501D01*
X163616001Y-58699948D01*
X163604057Y-58578675D01*
X163556854Y-58423067D01*
X163480200Y-58279658D01*
X163402893Y-58185459D01*
X163402890Y-58185456D01*
X163377042Y-58153960D01*
X163345546Y-58128112D01*
X159034056Y-53816624D01*
X159041366Y-53779872D01*
X160765000Y-53779872D01*
X160765000Y-54220128D01*
X160850890Y-54651925D01*
X161019369Y-55058669D01*
X161263962Y-55424729D01*
X161575271Y-55736038D01*
X161941331Y-55980631D01*
X162348075Y-56149110D01*
X162779872Y-56235000D01*
X163220128Y-56235000D01*
X163651925Y-56149110D01*
X164058669Y-55980631D01*
X164424729Y-55736038D01*
X164736038Y-55424729D01*
X164980631Y-55058669D01*
X165149110Y-54651925D01*
X165235000Y-54220128D01*
X165235000Y-53779872D01*
X165149110Y-53348075D01*
X164980631Y-52941331D01*
X164736038Y-52575271D01*
X164424729Y-52263962D01*
X164058669Y-52019369D01*
X163651925Y-51850890D01*
X163220128Y-51765000D01*
X162779872Y-51765000D01*
X162348075Y-51850890D01*
X161941331Y-52019369D01*
X161575271Y-52263962D01*
X161263962Y-52575271D01*
X161019369Y-52941331D01*
X160850890Y-53348075D01*
X160765000Y-53779872D01*
X159041366Y-53779872D01*
X159055000Y-53711335D01*
X159055000Y-53428665D01*
X158999853Y-53151426D01*
X158891680Y-52890273D01*
X158734637Y-52655241D01*
X158534759Y-52455363D01*
X158302241Y-52300000D01*
X158534759Y-52144637D01*
X158734637Y-51944759D01*
X158891680Y-51709727D01*
X158999853Y-51448574D01*
X159055000Y-51171335D01*
X159055000Y-50888665D01*
X158999853Y-50611426D01*
X158891680Y-50350273D01*
X158734637Y-50115241D01*
X158534759Y-49915363D01*
X158299727Y-49758320D01*
X158038574Y-49650147D01*
X157761335Y-49595000D01*
X157478665Y-49595000D01*
X157201426Y-49650147D01*
X156940273Y-49758320D01*
X156705241Y-49915363D01*
X156505363Y-50115241D01*
X156348320Y-50350273D01*
X156240147Y-50611426D01*
X156185000Y-50888665D01*
X156185000Y-51171335D01*
X156240147Y-51448574D01*
X156348320Y-51709727D01*
X156505363Y-51944759D01*
X156705241Y-52144637D01*
X156937759Y-52300000D01*
X156705241Y-52455363D01*
X156505363Y-52655241D01*
X156445722Y-52744500D01*
X144960542Y-52744500D01*
X144919999Y-52740507D01*
X144879456Y-52744500D01*
X144879447Y-52744500D01*
X144758174Y-52756444D01*
X144602566Y-52803647D01*
X144468417Y-52875352D01*
X144459156Y-52880302D01*
X144403033Y-52926361D01*
X144333459Y-52983459D01*
X144307606Y-53014961D01*
X143815000Y-53507567D01*
X143815000Y-53428665D01*
X143759853Y-53151426D01*
X143651680Y-52890273D01*
X143494637Y-52655241D01*
X143296039Y-52456643D01*
X143304482Y-52455812D01*
X143424180Y-52419502D01*
X143534494Y-52360537D01*
X143631185Y-52281185D01*
X143710537Y-52184494D01*
X143769502Y-52074180D01*
X143805812Y-51954482D01*
X143818072Y-51830000D01*
X143818072Y-50230000D01*
X143805812Y-50105518D01*
X143769502Y-49985820D01*
X143710537Y-49875506D01*
X143631185Y-49778815D01*
X143534494Y-49699463D01*
X143424180Y-49640498D01*
X143304482Y-49604188D01*
X143180000Y-49591928D01*
X141580000Y-49591928D01*
X141455518Y-49604188D01*
X141335820Y-49640498D01*
X141225506Y-49699463D01*
X141128815Y-49778815D01*
X141049463Y-49875506D01*
X140990498Y-49985820D01*
X140954188Y-50105518D01*
X140941928Y-50230000D01*
X140941928Y-51830000D01*
X140954188Y-51954482D01*
X140990498Y-52074180D01*
X141049463Y-52184494D01*
X141128815Y-52281185D01*
X141225506Y-52360537D01*
X141335820Y-52419502D01*
X141455518Y-52455812D01*
X141463961Y-52456643D01*
X141265363Y-52655241D01*
X141108320Y-52890273D01*
X141000147Y-53151426D01*
X140945000Y-53428665D01*
X140945000Y-53711335D01*
X141000147Y-53988574D01*
X141108320Y-54249727D01*
X141265363Y-54484759D01*
X141465241Y-54684637D01*
X141697759Y-54840000D01*
X141465241Y-54995363D01*
X141265363Y-55195241D01*
X141108320Y-55430273D01*
X141000147Y-55691426D01*
X140945000Y-55968665D01*
X140945000Y-56251335D01*
X141000147Y-56528574D01*
X141108320Y-56789727D01*
X141265363Y-57024759D01*
X141465241Y-57224637D01*
X141554500Y-57284278D01*
X141554501Y-57475722D01*
X141465241Y-57535363D01*
X141265363Y-57735241D01*
X141108320Y-57970273D01*
X141000147Y-58231426D01*
X140945000Y-58508665D01*
X140945000Y-58791335D01*
X141000147Y-59068574D01*
X141108320Y-59329727D01*
X141265363Y-59564759D01*
X141465241Y-59764637D01*
X141697759Y-59920000D01*
X141465241Y-60075363D01*
X141265363Y-60275241D01*
X141108320Y-60510273D01*
X141000147Y-60771426D01*
X140945000Y-61048665D01*
X140945000Y-61331335D01*
X141000147Y-61608574D01*
X141108320Y-61869727D01*
X141265363Y-62104759D01*
X141465241Y-62304637D01*
X141697759Y-62460000D01*
X141465241Y-62615363D01*
X141265363Y-62815241D01*
X141108320Y-63050273D01*
X141000147Y-63311426D01*
X140945000Y-63588665D01*
X140945000Y-63871335D01*
X141000147Y-64148574D01*
X141108320Y-64409727D01*
X141265363Y-64644759D01*
X141465241Y-64844637D01*
X141697759Y-65000000D01*
X141465241Y-65155363D01*
X141265363Y-65355241D01*
X141108320Y-65590273D01*
X141000147Y-65851426D01*
X140945000Y-66128665D01*
X140945000Y-66411335D01*
X140980843Y-66591526D01*
X135725633Y-71846737D01*
X135696557Y-71870599D01*
X135645227Y-71933146D01*
X135601334Y-71986629D01*
X135588949Y-72009800D01*
X135530577Y-72119007D01*
X135487005Y-72262644D01*
X135475979Y-72374595D01*
X135472293Y-72412021D01*
X133660000Y-72412021D01*
X133660000Y-53779872D01*
X134765000Y-53779872D01*
X134765000Y-54220128D01*
X134850890Y-54651925D01*
X135019369Y-55058669D01*
X135263962Y-55424729D01*
X135575271Y-55736038D01*
X135941331Y-55980631D01*
X136348075Y-56149110D01*
X136779872Y-56235000D01*
X137220128Y-56235000D01*
X137651925Y-56149110D01*
X138058669Y-55980631D01*
X138424729Y-55736038D01*
X138736038Y-55424729D01*
X138980631Y-55058669D01*
X139149110Y-54651925D01*
X139235000Y-54220128D01*
X139235000Y-53779872D01*
X139149110Y-53348075D01*
X138980631Y-52941331D01*
X138736038Y-52575271D01*
X138424729Y-52263962D01*
X138058669Y-52019369D01*
X137651925Y-51850890D01*
X137220128Y-51765000D01*
X136779872Y-51765000D01*
X136348075Y-51850890D01*
X135941331Y-52019369D01*
X135575271Y-52263962D01*
X135263962Y-52575271D01*
X135019369Y-52941331D01*
X134850890Y-53348075D01*
X134765000Y-53779872D01*
X133660000Y-53779872D01*
X133660000Y-48127000D01*
X166340001Y-48127000D01*
X166340000Y-99340000D01*
%TA.AperFunction,NonConductor*%
D16*
G36*
X166340000Y-99340000D02*
G01*
X133660000Y-99340000D01*
X133660000Y-72412021D01*
X135472293Y-72412021D01*
X135475979Y-72449444D01*
X135475980Y-87918575D01*
X135472293Y-87956008D01*
X135487006Y-88105386D01*
X135530578Y-88249023D01*
X135601334Y-88381400D01*
X135620371Y-88404596D01*
X135696558Y-88497430D01*
X135725628Y-88521287D01*
X145716687Y-98512346D01*
X145740549Y-98541422D01*
X145814190Y-98601857D01*
X145856578Y-98636645D01*
X145899850Y-98659774D01*
X145988956Y-98707402D01*
X146132593Y-98750974D01*
X146244545Y-98762000D01*
X146244548Y-98762000D01*
X146281971Y-98765686D01*
X146319394Y-98762000D01*
X149298289Y-98762000D01*
X149340226Y-98803937D01*
X149509744Y-98917205D01*
X149698102Y-98995226D01*
X149898061Y-99035000D01*
X150101939Y-99035000D01*
X150301898Y-98995226D01*
X150490256Y-98917205D01*
X150659774Y-98803937D01*
X150803937Y-98659774D01*
X150917205Y-98490256D01*
X150995226Y-98301898D01*
X151035000Y-98101939D01*
X151035000Y-97898061D01*
X150995226Y-97698102D01*
X150917205Y-97509744D01*
X150803937Y-97340226D01*
X150659774Y-97196063D01*
X150490256Y-97082795D01*
X150301898Y-97004774D01*
X150101939Y-96965000D01*
X149898061Y-96965000D01*
X149698102Y-97004774D01*
X149509744Y-97082795D01*
X149340226Y-97196063D01*
X149298289Y-97238000D01*
X146597601Y-97238000D01*
X142121601Y-92762000D01*
X151298289Y-92762000D01*
X151340226Y-92803937D01*
X151509744Y-92917205D01*
X151698102Y-92995226D01*
X151898061Y-93035000D01*
X152101939Y-93035000D01*
X152301898Y-92995226D01*
X152490256Y-92917205D01*
X152659774Y-92803937D01*
X152803937Y-92659774D01*
X152917205Y-92490256D01*
X152995226Y-92301898D01*
X153035000Y-92101939D01*
X153035000Y-91898061D01*
X153020567Y-91825500D01*
X158372497Y-91825500D01*
X158509744Y-91917205D01*
X158698102Y-91995226D01*
X158898061Y-92035000D01*
X159101939Y-92035000D01*
X159301898Y-91995226D01*
X159490256Y-91917205D01*
X159659774Y-91803937D01*
X159803937Y-91659774D01*
X159917205Y-91490256D01*
X159995226Y-91301898D01*
X160027429Y-91140004D01*
X163345547Y-87821887D01*
X163377042Y-87796040D01*
X163402890Y-87764544D01*
X163402893Y-87764541D01*
X163480200Y-87670342D01*
X163556854Y-87526933D01*
X163572627Y-87474936D01*
X163604057Y-87371325D01*
X163616001Y-87250052D01*
X163616001Y-87250050D01*
X163619995Y-87209499D01*
X163616001Y-87168949D01*
X163616001Y-58781051D01*
X163619995Y-58740501D01*
X163616001Y-58699948D01*
X163604057Y-58578675D01*
X163556854Y-58423067D01*
X163480200Y-58279658D01*
X163402893Y-58185459D01*
X163402890Y-58185456D01*
X163377042Y-58153960D01*
X163345546Y-58128112D01*
X159034056Y-53816624D01*
X159041366Y-53779872D01*
X160765000Y-53779872D01*
X160765000Y-54220128D01*
X160850890Y-54651925D01*
X161019369Y-55058669D01*
X161263962Y-55424729D01*
X161575271Y-55736038D01*
X161941331Y-55980631D01*
X162348075Y-56149110D01*
X162779872Y-56235000D01*
X163220128Y-56235000D01*
X163651925Y-56149110D01*
X164058669Y-55980631D01*
X164424729Y-55736038D01*
X164736038Y-55424729D01*
X164980631Y-55058669D01*
X165149110Y-54651925D01*
X165235000Y-54220128D01*
X165235000Y-53779872D01*
X165149110Y-53348075D01*
X164980631Y-52941331D01*
X164736038Y-52575271D01*
X164424729Y-52263962D01*
X164058669Y-52019369D01*
X163651925Y-51850890D01*
X163220128Y-51765000D01*
X162779872Y-51765000D01*
X162348075Y-51850890D01*
X161941331Y-52019369D01*
X161575271Y-52263962D01*
X161263962Y-52575271D01*
X161019369Y-52941331D01*
X160850890Y-53348075D01*
X160765000Y-53779872D01*
X159041366Y-53779872D01*
X159055000Y-53711335D01*
X159055000Y-53428665D01*
X158999853Y-53151426D01*
X158891680Y-52890273D01*
X158734637Y-52655241D01*
X158534759Y-52455363D01*
X158302241Y-52300000D01*
X158534759Y-52144637D01*
X158734637Y-51944759D01*
X158891680Y-51709727D01*
X158999853Y-51448574D01*
X159055000Y-51171335D01*
X159055000Y-50888665D01*
X158999853Y-50611426D01*
X158891680Y-50350273D01*
X158734637Y-50115241D01*
X158534759Y-49915363D01*
X158299727Y-49758320D01*
X158038574Y-49650147D01*
X157761335Y-49595000D01*
X157478665Y-49595000D01*
X157201426Y-49650147D01*
X156940273Y-49758320D01*
X156705241Y-49915363D01*
X156505363Y-50115241D01*
X156348320Y-50350273D01*
X156240147Y-50611426D01*
X156185000Y-50888665D01*
X156185000Y-51171335D01*
X156240147Y-51448574D01*
X156348320Y-51709727D01*
X156505363Y-51944759D01*
X156705241Y-52144637D01*
X156937759Y-52300000D01*
X156705241Y-52455363D01*
X156505363Y-52655241D01*
X156445722Y-52744500D01*
X144960542Y-52744500D01*
X144919999Y-52740507D01*
X144879456Y-52744500D01*
X144879447Y-52744500D01*
X144758174Y-52756444D01*
X144602566Y-52803647D01*
X144468417Y-52875352D01*
X144459156Y-52880302D01*
X144403033Y-52926361D01*
X144333459Y-52983459D01*
X144307606Y-53014961D01*
X143815000Y-53507567D01*
X143815000Y-53428665D01*
X143759853Y-53151426D01*
X143651680Y-52890273D01*
X143494637Y-52655241D01*
X143296039Y-52456643D01*
X143304482Y-52455812D01*
X143424180Y-52419502D01*
X143534494Y-52360537D01*
X143631185Y-52281185D01*
X143710537Y-52184494D01*
X143769502Y-52074180D01*
X143805812Y-51954482D01*
X143818072Y-51830000D01*
X143818072Y-50230000D01*
X143805812Y-50105518D01*
X143769502Y-49985820D01*
X143710537Y-49875506D01*
X143631185Y-49778815D01*
X143534494Y-49699463D01*
X143424180Y-49640498D01*
X143304482Y-49604188D01*
X143180000Y-49591928D01*
X141580000Y-49591928D01*
X141455518Y-49604188D01*
X141335820Y-49640498D01*
X141225506Y-49699463D01*
X141128815Y-49778815D01*
X141049463Y-49875506D01*
X140990498Y-49985820D01*
X140954188Y-50105518D01*
X140941928Y-50230000D01*
X140941928Y-51830000D01*
X140954188Y-51954482D01*
X140990498Y-52074180D01*
X141049463Y-52184494D01*
X141128815Y-52281185D01*
X141225506Y-52360537D01*
X141335820Y-52419502D01*
X141455518Y-52455812D01*
X141463961Y-52456643D01*
X141265363Y-52655241D01*
X141108320Y-52890273D01*
X141000147Y-53151426D01*
X140945000Y-53428665D01*
X140945000Y-53711335D01*
X141000147Y-53988574D01*
X141108320Y-54249727D01*
X141265363Y-54484759D01*
X141465241Y-54684637D01*
X141697759Y-54840000D01*
X141465241Y-54995363D01*
X141265363Y-55195241D01*
X141108320Y-55430273D01*
X141000147Y-55691426D01*
X140945000Y-55968665D01*
X140945000Y-56251335D01*
X141000147Y-56528574D01*
X141108320Y-56789727D01*
X141265363Y-57024759D01*
X141465241Y-57224637D01*
X141554500Y-57284278D01*
X141554501Y-57475722D01*
X141465241Y-57535363D01*
X141265363Y-57735241D01*
X141108320Y-57970273D01*
X141000147Y-58231426D01*
X140945000Y-58508665D01*
X140945000Y-58791335D01*
X141000147Y-59068574D01*
X141108320Y-59329727D01*
X141265363Y-59564759D01*
X141465241Y-59764637D01*
X141697759Y-59920000D01*
X141465241Y-60075363D01*
X141265363Y-60275241D01*
X141108320Y-60510273D01*
X141000147Y-60771426D01*
X140945000Y-61048665D01*
X140945000Y-61331335D01*
X141000147Y-61608574D01*
X141108320Y-61869727D01*
X141265363Y-62104759D01*
X141465241Y-62304637D01*
X141697759Y-62460000D01*
X141465241Y-62615363D01*
X141265363Y-62815241D01*
X141108320Y-63050273D01*
X141000147Y-63311426D01*
X140945000Y-63588665D01*
X140945000Y-63871335D01*
X141000147Y-64148574D01*
X141108320Y-64409727D01*
X141265363Y-64644759D01*
X141465241Y-64844637D01*
X141697759Y-65000000D01*
X141465241Y-65155363D01*
X141265363Y-65355241D01*
X141108320Y-65590273D01*
X141000147Y-65851426D01*
X140945000Y-66128665D01*
X140945000Y-66411335D01*
X140980843Y-66591526D01*
X135725633Y-71846737D01*
X135696557Y-71870599D01*
X135645227Y-71933146D01*
X135601334Y-71986629D01*
X135588949Y-72009800D01*
X135530577Y-72119007D01*
X135487005Y-72262644D01*
X135475979Y-72374595D01*
X135472293Y-72412021D01*
X133660000Y-72412021D01*
X133660000Y-53779872D01*
X134765000Y-53779872D01*
X134765000Y-54220128D01*
X134850890Y-54651925D01*
X135019369Y-55058669D01*
X135263962Y-55424729D01*
X135575271Y-55736038D01*
X135941331Y-55980631D01*
X136348075Y-56149110D01*
X136779872Y-56235000D01*
X137220128Y-56235000D01*
X137651925Y-56149110D01*
X138058669Y-55980631D01*
X138424729Y-55736038D01*
X138736038Y-55424729D01*
X138980631Y-55058669D01*
X139149110Y-54651925D01*
X139235000Y-54220128D01*
X139235000Y-53779872D01*
X139149110Y-53348075D01*
X138980631Y-52941331D01*
X138736038Y-52575271D01*
X138424729Y-52263962D01*
X138058669Y-52019369D01*
X137651925Y-51850890D01*
X137220128Y-51765000D01*
X136779872Y-51765000D01*
X136348075Y-51850890D01*
X135941331Y-52019369D01*
X135575271Y-52263962D01*
X135263962Y-52575271D01*
X135019369Y-52941331D01*
X134850890Y-53348075D01*
X134765000Y-53779872D01*
X133660000Y-53779872D01*
X133660000Y-48127000D01*
X166340001Y-48127000D01*
X166340000Y-99340000D01*
G37*
%TD.AperFunction*%
D15*
X156185000Y-61331335D02*
X156240147Y-61608574D01*
X156348320Y-61869727D01*
X156505363Y-62104759D01*
X156705241Y-62304637D01*
X156937759Y-62460000D01*
X156705241Y-62615363D01*
X156505363Y-62815241D01*
X156348320Y-63050273D01*
X156240147Y-63311426D01*
X156185000Y-63588665D01*
X156185000Y-63871335D01*
X156240147Y-64148574D01*
X156348320Y-64409727D01*
X156505363Y-64644759D01*
X156705241Y-64844637D01*
X156937759Y-65000000D01*
X156705241Y-65155363D01*
X156505363Y-65355241D01*
X156348320Y-65590273D01*
X156240147Y-65851426D01*
X156185000Y-66128665D01*
X156185000Y-66411335D01*
X156240147Y-66688574D01*
X156348320Y-66949727D01*
X156505363Y-67184759D01*
X156705241Y-67384637D01*
X156937759Y-67540000D01*
X156705241Y-67695363D01*
X156505363Y-67895241D01*
X156348320Y-68130273D01*
X156240147Y-68391426D01*
X156185000Y-68668665D01*
X156185000Y-68951335D01*
X156240147Y-69228574D01*
X156348320Y-69489727D01*
X156505363Y-69724759D01*
X156705241Y-69924637D01*
X156937759Y-70080000D01*
X156705241Y-70235363D01*
X156505363Y-70435241D01*
X156348320Y-70670273D01*
X156240147Y-70931426D01*
X156185000Y-71208665D01*
X156185000Y-71491335D01*
X156240147Y-71768574D01*
X156348320Y-72029727D01*
X156505363Y-72264759D01*
X156705241Y-72464637D01*
X156937759Y-72620000D01*
X156705241Y-72775363D01*
X156505363Y-72975241D01*
X156445722Y-73064500D01*
X156150550Y-73064500D01*
X156110000Y-73060506D01*
X156069449Y-73064500D01*
X156069447Y-73064500D01*
X155948174Y-73076444D01*
X155806494Y-73119422D01*
X155792566Y-73123647D01*
X155649157Y-73200301D01*
X155554958Y-73277608D01*
X155554955Y-73277611D01*
X155523459Y-73303459D01*
X155497611Y-73334955D01*
X140859996Y-87972571D01*
X140698102Y-88004774D01*
X140509744Y-88082795D01*
X140340226Y-88196063D01*
X140196063Y-88340226D01*
X140082795Y-88509744D01*
X140004774Y-88698102D01*
X139965000Y-88898061D01*
X139965000Y-89101939D01*
X140004774Y-89301898D01*
X140082795Y-89490256D01*
X140196063Y-89659774D01*
X140340226Y-89803937D01*
X140509744Y-89917205D01*
X140698102Y-89995226D01*
X140722103Y-90000000D01*
X140698102Y-90004774D01*
X140509744Y-90082795D01*
X140340226Y-90196063D01*
X140268979Y-90267310D01*
X137453989Y-87452321D01*
X137453989Y-81879951D01*
X137509744Y-81917205D01*
X137698102Y-81995226D01*
X137898061Y-82035000D01*
X138101939Y-82035000D01*
X138301898Y-81995226D01*
X138490256Y-81917205D01*
X138659774Y-81803937D01*
X138803937Y-81659774D01*
X138917205Y-81490256D01*
X138995226Y-81301898D01*
X139035000Y-81101939D01*
X139035000Y-80898061D01*
X138995226Y-80698102D01*
X138917205Y-80509744D01*
X138825500Y-80372497D01*
X138825500Y-76849990D01*
X141107571Y-74567920D01*
X141108320Y-74569727D01*
X141265363Y-74804759D01*
X141465241Y-75004637D01*
X141697759Y-75160000D01*
X141465241Y-75315363D01*
X141265363Y-75515241D01*
X141108320Y-75750273D01*
X141000147Y-76011426D01*
X140945000Y-76288665D01*
X140945000Y-76571335D01*
X141000147Y-76848574D01*
X141108320Y-77109727D01*
X141265363Y-77344759D01*
X141465241Y-77544637D01*
X141697759Y-77700000D01*
X141465241Y-77855363D01*
X141265363Y-78055241D01*
X141108320Y-78290273D01*
X141000147Y-78551426D01*
X140945000Y-78828665D01*
X140945000Y-79111335D01*
X141000147Y-79388574D01*
X141108320Y-79649727D01*
X141265363Y-79884759D01*
X141465241Y-80084637D01*
X141700273Y-80241680D01*
X141961426Y-80349853D01*
X142238665Y-80405000D01*
X142521335Y-80405000D01*
X142798574Y-80349853D01*
X143059727Y-80241680D01*
X143294759Y-80084637D01*
X143494637Y-79884759D01*
X143651680Y-79649727D01*
X143759853Y-79388574D01*
X143815000Y-79111335D01*
X143815000Y-78828665D01*
X143759853Y-78551426D01*
X143651680Y-78290273D01*
X143494637Y-78055241D01*
X143294759Y-77855363D01*
X143062241Y-77700000D01*
X143294759Y-77544637D01*
X143494637Y-77344759D01*
X143651680Y-77109727D01*
X143759853Y-76848574D01*
X143815000Y-76571335D01*
X143815000Y-76288665D01*
X143759853Y-76011426D01*
X143651680Y-75750273D01*
X143494637Y-75515241D01*
X143294759Y-75315363D01*
X143062241Y-75160000D01*
X143294759Y-75004637D01*
X143494637Y-74804759D01*
X143651680Y-74569727D01*
X143759853Y-74308574D01*
X143815000Y-74031335D01*
X143815000Y-73748665D01*
X143766096Y-73502811D01*
X143887935Y-73465852D01*
X144031343Y-73389198D01*
X144157042Y-73286040D01*
X144182899Y-73254533D01*
X156185000Y-61252433D01*
X156185000Y-61331335D01*
%TA.AperFunction,NonConductor*%
D16*
G36*
X156185000Y-61331335D02*
G01*
X156240147Y-61608574D01*
X156348320Y-61869727D01*
X156505363Y-62104759D01*
X156705241Y-62304637D01*
X156937759Y-62460000D01*
X156705241Y-62615363D01*
X156505363Y-62815241D01*
X156348320Y-63050273D01*
X156240147Y-63311426D01*
X156185000Y-63588665D01*
X156185000Y-63871335D01*
X156240147Y-64148574D01*
X156348320Y-64409727D01*
X156505363Y-64644759D01*
X156705241Y-64844637D01*
X156937759Y-65000000D01*
X156705241Y-65155363D01*
X156505363Y-65355241D01*
X156348320Y-65590273D01*
X156240147Y-65851426D01*
X156185000Y-66128665D01*
X156185000Y-66411335D01*
X156240147Y-66688574D01*
X156348320Y-66949727D01*
X156505363Y-67184759D01*
X156705241Y-67384637D01*
X156937759Y-67540000D01*
X156705241Y-67695363D01*
X156505363Y-67895241D01*
X156348320Y-68130273D01*
X156240147Y-68391426D01*
X156185000Y-68668665D01*
X156185000Y-68951335D01*
X156240147Y-69228574D01*
X156348320Y-69489727D01*
X156505363Y-69724759D01*
X156705241Y-69924637D01*
X156937759Y-70080000D01*
X156705241Y-70235363D01*
X156505363Y-70435241D01*
X156348320Y-70670273D01*
X156240147Y-70931426D01*
X156185000Y-71208665D01*
X156185000Y-71491335D01*
X156240147Y-71768574D01*
X156348320Y-72029727D01*
X156505363Y-72264759D01*
X156705241Y-72464637D01*
X156937759Y-72620000D01*
X156705241Y-72775363D01*
X156505363Y-72975241D01*
X156445722Y-73064500D01*
X156150550Y-73064500D01*
X156110000Y-73060506D01*
X156069449Y-73064500D01*
X156069447Y-73064500D01*
X155948174Y-73076444D01*
X155806494Y-73119422D01*
X155792566Y-73123647D01*
X155649157Y-73200301D01*
X155554958Y-73277608D01*
X155554955Y-73277611D01*
X155523459Y-73303459D01*
X155497611Y-73334955D01*
X140859996Y-87972571D01*
X140698102Y-88004774D01*
X140509744Y-88082795D01*
X140340226Y-88196063D01*
X140196063Y-88340226D01*
X140082795Y-88509744D01*
X140004774Y-88698102D01*
X139965000Y-88898061D01*
X139965000Y-89101939D01*
X140004774Y-89301898D01*
X140082795Y-89490256D01*
X140196063Y-89659774D01*
X140340226Y-89803937D01*
X140509744Y-89917205D01*
X140698102Y-89995226D01*
X140722103Y-90000000D01*
X140698102Y-90004774D01*
X140509744Y-90082795D01*
X140340226Y-90196063D01*
X140268979Y-90267310D01*
X137453989Y-87452321D01*
X137453989Y-81879951D01*
X137509744Y-81917205D01*
X137698102Y-81995226D01*
X137898061Y-82035000D01*
X138101939Y-82035000D01*
X138301898Y-81995226D01*
X138490256Y-81917205D01*
X138659774Y-81803937D01*
X138803937Y-81659774D01*
X138917205Y-81490256D01*
X138995226Y-81301898D01*
X139035000Y-81101939D01*
X139035000Y-80898061D01*
X138995226Y-80698102D01*
X138917205Y-80509744D01*
X138825500Y-80372497D01*
X138825500Y-76849990D01*
X141107571Y-74567920D01*
X141108320Y-74569727D01*
X141265363Y-74804759D01*
X141465241Y-75004637D01*
X141697759Y-75160000D01*
X141465241Y-75315363D01*
X141265363Y-75515241D01*
X141108320Y-75750273D01*
X141000147Y-76011426D01*
X140945000Y-76288665D01*
X140945000Y-76571335D01*
X141000147Y-76848574D01*
X141108320Y-77109727D01*
X141265363Y-77344759D01*
X141465241Y-77544637D01*
X141697759Y-77700000D01*
X141465241Y-77855363D01*
X141265363Y-78055241D01*
X141108320Y-78290273D01*
X141000147Y-78551426D01*
X140945000Y-78828665D01*
X140945000Y-79111335D01*
X141000147Y-79388574D01*
X141108320Y-79649727D01*
X141265363Y-79884759D01*
X141465241Y-80084637D01*
X141700273Y-80241680D01*
X141961426Y-80349853D01*
X142238665Y-80405000D01*
X142521335Y-80405000D01*
X142798574Y-80349853D01*
X143059727Y-80241680D01*
X143294759Y-80084637D01*
X143494637Y-79884759D01*
X143651680Y-79649727D01*
X143759853Y-79388574D01*
X143815000Y-79111335D01*
X143815000Y-78828665D01*
X143759853Y-78551426D01*
X143651680Y-78290273D01*
X143494637Y-78055241D01*
X143294759Y-77855363D01*
X143062241Y-77700000D01*
X143294759Y-77544637D01*
X143494637Y-77344759D01*
X143651680Y-77109727D01*
X143759853Y-76848574D01*
X143815000Y-76571335D01*
X143815000Y-76288665D01*
X143759853Y-76011426D01*
X143651680Y-75750273D01*
X143494637Y-75515241D01*
X143294759Y-75315363D01*
X143062241Y-75160000D01*
X143294759Y-75004637D01*
X143494637Y-74804759D01*
X143651680Y-74569727D01*
X143759853Y-74308574D01*
X143815000Y-74031335D01*
X143815000Y-73748665D01*
X143766096Y-73502811D01*
X143887935Y-73465852D01*
X144031343Y-73389198D01*
X144157042Y-73286040D01*
X144182899Y-73254533D01*
X156185000Y-61252433D01*
X156185000Y-61331335D01*
G37*
%TD.AperFunction*%
D15*
X161174501Y-63371934D02*
X161174500Y-80372497D01*
X161082795Y-80509744D01*
X161004774Y-80698102D01*
X160965000Y-80898061D01*
X160965000Y-81101939D01*
X161004774Y-81301898D01*
X161082795Y-81490256D01*
X161196063Y-81659774D01*
X161340226Y-81803937D01*
X161509744Y-81917205D01*
X161698102Y-81995226D01*
X161898061Y-82035000D01*
X161965001Y-82035000D01*
X161965001Y-86867565D01*
X158859996Y-89972571D01*
X158698102Y-90004774D01*
X158509744Y-90082795D01*
X158372497Y-90174500D01*
X141627503Y-90174500D01*
X141490256Y-90082795D01*
X141301898Y-90004774D01*
X141277897Y-90000000D01*
X141301898Y-89995226D01*
X141490256Y-89917205D01*
X141659774Y-89803937D01*
X141803937Y-89659774D01*
X141917205Y-89490256D01*
X141995226Y-89301898D01*
X142027429Y-89140004D01*
X147873187Y-83294246D01*
X147850890Y-83348075D01*
X147765000Y-83779872D01*
X147765000Y-84220128D01*
X147850890Y-84651925D01*
X148019369Y-85058669D01*
X148263962Y-85424729D01*
X148575271Y-85736038D01*
X148941331Y-85980631D01*
X149348075Y-86149110D01*
X149779872Y-86235000D01*
X150220128Y-86235000D01*
X150651925Y-86149110D01*
X151058669Y-85980631D01*
X151424729Y-85736038D01*
X151736038Y-85424729D01*
X151980631Y-85058669D01*
X152149110Y-84651925D01*
X152235000Y-84220128D01*
X152235000Y-83779872D01*
X152149110Y-83348075D01*
X151980631Y-82941331D01*
X151736038Y-82575271D01*
X151424729Y-82263962D01*
X151058669Y-82019369D01*
X150651925Y-81850890D01*
X150220128Y-81765000D01*
X149779872Y-81765000D01*
X149348075Y-81850890D01*
X149294247Y-81873187D01*
X156448210Y-74719224D01*
X156505363Y-74804759D01*
X156705241Y-75004637D01*
X156937759Y-75160000D01*
X156705241Y-75315363D01*
X156505363Y-75515241D01*
X156348320Y-75750273D01*
X156240147Y-76011426D01*
X156185000Y-76288665D01*
X156185000Y-76571335D01*
X156240147Y-76848574D01*
X156348320Y-77109727D01*
X156505363Y-77344759D01*
X156705241Y-77544637D01*
X156937759Y-77700000D01*
X156705241Y-77855363D01*
X156505363Y-78055241D01*
X156348320Y-78290273D01*
X156240147Y-78551426D01*
X156185000Y-78828665D01*
X156185000Y-79111335D01*
X156240147Y-79388574D01*
X156348320Y-79649727D01*
X156505363Y-79884759D01*
X156705241Y-80084637D01*
X156940273Y-80241680D01*
X157201426Y-80349853D01*
X157478665Y-80405000D01*
X157761335Y-80405000D01*
X158038574Y-80349853D01*
X158299727Y-80241680D01*
X158534759Y-80084637D01*
X158734637Y-79884759D01*
X158891680Y-79649727D01*
X158999853Y-79388574D01*
X159055000Y-79111335D01*
X159055000Y-78828665D01*
X158999853Y-78551426D01*
X158891680Y-78290273D01*
X158734637Y-78055241D01*
X158534759Y-77855363D01*
X158302241Y-77700000D01*
X158534759Y-77544637D01*
X158734637Y-77344759D01*
X158891680Y-77109727D01*
X158999853Y-76848574D01*
X159055000Y-76571335D01*
X159055000Y-76288665D01*
X158999853Y-76011426D01*
X158891680Y-75750273D01*
X158734637Y-75515241D01*
X158534759Y-75315363D01*
X158302241Y-75160000D01*
X158534759Y-75004637D01*
X158734637Y-74804759D01*
X158891680Y-74569727D01*
X158999853Y-74308574D01*
X159055000Y-74031335D01*
X159055000Y-73748665D01*
X158999853Y-73471426D01*
X158891680Y-73210273D01*
X158734637Y-72975241D01*
X158534759Y-72775363D01*
X158302241Y-72620000D01*
X158534759Y-72464637D01*
X158734637Y-72264759D01*
X158891680Y-72029727D01*
X158999853Y-71768574D01*
X159055000Y-71491335D01*
X159055000Y-71208665D01*
X158999853Y-70931426D01*
X158891680Y-70670273D01*
X158734637Y-70435241D01*
X158534759Y-70235363D01*
X158302241Y-70080000D01*
X158534759Y-69924637D01*
X158734637Y-69724759D01*
X158891680Y-69489727D01*
X158999853Y-69228574D01*
X159055000Y-68951335D01*
X159055000Y-68668665D01*
X158999853Y-68391426D01*
X158891680Y-68130273D01*
X158734637Y-67895241D01*
X158534759Y-67695363D01*
X158302241Y-67540000D01*
X158534759Y-67384637D01*
X158734637Y-67184759D01*
X158891680Y-66949727D01*
X158999853Y-66688574D01*
X159055000Y-66411335D01*
X159055000Y-66128665D01*
X158999853Y-65851426D01*
X158891680Y-65590273D01*
X158734637Y-65355241D01*
X158534759Y-65155363D01*
X158302241Y-65000000D01*
X158534759Y-64844637D01*
X158734637Y-64644759D01*
X158891680Y-64409727D01*
X158999853Y-64148574D01*
X159055000Y-63871335D01*
X159055000Y-63588665D01*
X158999853Y-63311426D01*
X158891680Y-63050273D01*
X158734637Y-62815241D01*
X158534759Y-62615363D01*
X158302241Y-62460000D01*
X158534759Y-62304637D01*
X158734637Y-62104759D01*
X158891680Y-61869727D01*
X158999853Y-61608574D01*
X159055000Y-61331335D01*
X159055000Y-61252432D01*
X161174501Y-63371934D01*
%TA.AperFunction,NonConductor*%
D16*
G36*
X161174501Y-63371934D02*
G01*
X161174500Y-80372497D01*
X161082795Y-80509744D01*
X161004774Y-80698102D01*
X160965000Y-80898061D01*
X160965000Y-81101939D01*
X161004774Y-81301898D01*
X161082795Y-81490256D01*
X161196063Y-81659774D01*
X161340226Y-81803937D01*
X161509744Y-81917205D01*
X161698102Y-81995226D01*
X161898061Y-82035000D01*
X161965001Y-82035000D01*
X161965001Y-86867565D01*
X158859996Y-89972571D01*
X158698102Y-90004774D01*
X158509744Y-90082795D01*
X158372497Y-90174500D01*
X141627503Y-90174500D01*
X141490256Y-90082795D01*
X141301898Y-90004774D01*
X141277897Y-90000000D01*
X141301898Y-89995226D01*
X141490256Y-89917205D01*
X141659774Y-89803937D01*
X141803937Y-89659774D01*
X141917205Y-89490256D01*
X141995226Y-89301898D01*
X142027429Y-89140004D01*
X147873187Y-83294246D01*
X147850890Y-83348075D01*
X147765000Y-83779872D01*
X147765000Y-84220128D01*
X147850890Y-84651925D01*
X148019369Y-85058669D01*
X148263962Y-85424729D01*
X148575271Y-85736038D01*
X148941331Y-85980631D01*
X149348075Y-86149110D01*
X149779872Y-86235000D01*
X150220128Y-86235000D01*
X150651925Y-86149110D01*
X151058669Y-85980631D01*
X151424729Y-85736038D01*
X151736038Y-85424729D01*
X151980631Y-85058669D01*
X152149110Y-84651925D01*
X152235000Y-84220128D01*
X152235000Y-83779872D01*
X152149110Y-83348075D01*
X151980631Y-82941331D01*
X151736038Y-82575271D01*
X151424729Y-82263962D01*
X151058669Y-82019369D01*
X150651925Y-81850890D01*
X150220128Y-81765000D01*
X149779872Y-81765000D01*
X149348075Y-81850890D01*
X149294247Y-81873187D01*
X156448210Y-74719224D01*
X156505363Y-74804759D01*
X156705241Y-75004637D01*
X156937759Y-75160000D01*
X156705241Y-75315363D01*
X156505363Y-75515241D01*
X156348320Y-75750273D01*
X156240147Y-76011426D01*
X156185000Y-76288665D01*
X156185000Y-76571335D01*
X156240147Y-76848574D01*
X156348320Y-77109727D01*
X156505363Y-77344759D01*
X156705241Y-77544637D01*
X156937759Y-77700000D01*
X156705241Y-77855363D01*
X156505363Y-78055241D01*
X156348320Y-78290273D01*
X156240147Y-78551426D01*
X156185000Y-78828665D01*
X156185000Y-79111335D01*
X156240147Y-79388574D01*
X156348320Y-79649727D01*
X156505363Y-79884759D01*
X156705241Y-80084637D01*
X156940273Y-80241680D01*
X157201426Y-80349853D01*
X157478665Y-80405000D01*
X157761335Y-80405000D01*
X158038574Y-80349853D01*
X158299727Y-80241680D01*
X158534759Y-80084637D01*
X158734637Y-79884759D01*
X158891680Y-79649727D01*
X158999853Y-79388574D01*
X159055000Y-79111335D01*
X159055000Y-78828665D01*
X158999853Y-78551426D01*
X158891680Y-78290273D01*
X158734637Y-78055241D01*
X158534759Y-77855363D01*
X158302241Y-77700000D01*
X158534759Y-77544637D01*
X158734637Y-77344759D01*
X158891680Y-77109727D01*
X158999853Y-76848574D01*
X159055000Y-76571335D01*
X159055000Y-76288665D01*
X158999853Y-76011426D01*
X158891680Y-75750273D01*
X158734637Y-75515241D01*
X158534759Y-75315363D01*
X158302241Y-75160000D01*
X158534759Y-75004637D01*
X158734637Y-74804759D01*
X158891680Y-74569727D01*
X158999853Y-74308574D01*
X159055000Y-74031335D01*
X159055000Y-73748665D01*
X158999853Y-73471426D01*
X158891680Y-73210273D01*
X158734637Y-72975241D01*
X158534759Y-72775363D01*
X158302241Y-72620000D01*
X158534759Y-72464637D01*
X158734637Y-72264759D01*
X158891680Y-72029727D01*
X158999853Y-71768574D01*
X159055000Y-71491335D01*
X159055000Y-71208665D01*
X158999853Y-70931426D01*
X158891680Y-70670273D01*
X158734637Y-70435241D01*
X158534759Y-70235363D01*
X158302241Y-70080000D01*
X158534759Y-69924637D01*
X158734637Y-69724759D01*
X158891680Y-69489727D01*
X158999853Y-69228574D01*
X159055000Y-68951335D01*
X159055000Y-68668665D01*
X158999853Y-68391426D01*
X158891680Y-68130273D01*
X158734637Y-67895241D01*
X158534759Y-67695363D01*
X158302241Y-67540000D01*
X158534759Y-67384637D01*
X158734637Y-67184759D01*
X158891680Y-66949727D01*
X158999853Y-66688574D01*
X159055000Y-66411335D01*
X159055000Y-66128665D01*
X158999853Y-65851426D01*
X158891680Y-65590273D01*
X158734637Y-65355241D01*
X158534759Y-65155363D01*
X158302241Y-65000000D01*
X158534759Y-64844637D01*
X158734637Y-64644759D01*
X158891680Y-64409727D01*
X158999853Y-64148574D01*
X159055000Y-63871335D01*
X159055000Y-63588665D01*
X158999853Y-63311426D01*
X158891680Y-63050273D01*
X158734637Y-62815241D01*
X158534759Y-62615363D01*
X158302241Y-62460000D01*
X158534759Y-62304637D01*
X158734637Y-62104759D01*
X158891680Y-61869727D01*
X158999853Y-61608574D01*
X159055000Y-61331335D01*
X159055000Y-61252432D01*
X161174501Y-63371934D01*
G37*
%TD.AperFunction*%
D15*
X140945000Y-71491335D02*
X141000147Y-71768574D01*
X141108320Y-72029727D01*
X141189461Y-72151163D01*
X137453989Y-75886637D01*
X137453989Y-74813641D01*
X140945000Y-71322631D01*
X140945000Y-71491335D01*
%TA.AperFunction,NonConductor*%
D16*
G36*
X140945000Y-71491335D02*
G01*
X141000147Y-71768574D01*
X141108320Y-72029727D01*
X141189461Y-72151163D01*
X137453989Y-75886637D01*
X137453989Y-74813641D01*
X140945000Y-71322631D01*
X140945000Y-71491335D01*
G37*
%TD.AperFunction*%
D15*
X140945000Y-68951335D02*
X140980843Y-69131526D01*
X136999979Y-73112391D01*
X136999979Y-72727651D01*
X140945000Y-68782631D01*
X140945000Y-68951335D01*
%TA.AperFunction,NonConductor*%
D16*
G36*
X140945000Y-68951335D02*
G01*
X140980843Y-69131526D01*
X136999979Y-73112391D01*
X136999979Y-72727651D01*
X140945000Y-68782631D01*
X140945000Y-68951335D01*
G37*
%TD.AperFunction*%
D15*
X156505363Y-54484759D02*
X156705241Y-54684637D01*
X156937759Y-54840000D01*
X156705241Y-54995363D01*
X156505363Y-55195241D01*
X156348320Y-55430273D01*
X156240147Y-55691426D01*
X156185000Y-55968665D01*
X156185000Y-56251335D01*
X156240147Y-56528574D01*
X156348320Y-56789727D01*
X156505363Y-57024759D01*
X156705241Y-57224637D01*
X156937759Y-57380000D01*
X156705241Y-57535363D01*
X156505363Y-57735241D01*
X156348320Y-57970273D01*
X156240147Y-58231426D01*
X156185000Y-58508665D01*
X156185000Y-58791335D01*
X156205943Y-58896624D01*
X143815000Y-71287568D01*
X143815000Y-71208665D01*
X143759853Y-70931426D01*
X143651680Y-70670273D01*
X143494637Y-70435241D01*
X143294759Y-70235363D01*
X143062241Y-70080000D01*
X143294759Y-69924637D01*
X143494637Y-69724759D01*
X143651680Y-69489727D01*
X143759853Y-69228574D01*
X143815000Y-68951335D01*
X143815000Y-68668665D01*
X143759853Y-68391426D01*
X143651680Y-68130273D01*
X143494637Y-67895241D01*
X143294759Y-67695363D01*
X143062241Y-67540000D01*
X143294759Y-67384637D01*
X143494637Y-67184759D01*
X143651680Y-66949727D01*
X143759853Y-66688574D01*
X143815000Y-66411335D01*
X143815000Y-66128665D01*
X143759853Y-65851426D01*
X143651680Y-65590273D01*
X143494637Y-65355241D01*
X143294759Y-65155363D01*
X143062241Y-65000000D01*
X143294759Y-64844637D01*
X143494637Y-64644759D01*
X143651680Y-64409727D01*
X143759853Y-64148574D01*
X143815000Y-63871335D01*
X143815000Y-63588665D01*
X143759853Y-63311426D01*
X143651680Y-63050273D01*
X143494637Y-62815241D01*
X143294759Y-62615363D01*
X143062241Y-62460000D01*
X143294759Y-62304637D01*
X143494637Y-62104759D01*
X143651680Y-61869727D01*
X143759853Y-61608574D01*
X143815000Y-61331335D01*
X143815000Y-61048665D01*
X143759853Y-60771426D01*
X143651680Y-60510273D01*
X143494637Y-60275241D01*
X143294759Y-60075363D01*
X143062241Y-59920000D01*
X143294759Y-59764637D01*
X143494637Y-59564759D01*
X143651680Y-59329727D01*
X143759853Y-59068574D01*
X143815000Y-58791335D01*
X143815000Y-58508665D01*
X143759853Y-58231426D01*
X143651680Y-57970273D01*
X143494637Y-57735241D01*
X143294759Y-57535363D01*
X143205500Y-57475722D01*
X143205500Y-57284278D01*
X143294759Y-57224637D01*
X143494637Y-57024759D01*
X143651680Y-56789727D01*
X143759853Y-56528574D01*
X143815000Y-56251335D01*
X143815000Y-55968665D01*
X143794056Y-55863376D01*
X145261933Y-54395500D01*
X156445722Y-54395500D01*
X156505363Y-54484759D01*
%TA.AperFunction,NonConductor*%
D16*
G36*
X156505363Y-54484759D02*
G01*
X156705241Y-54684637D01*
X156937759Y-54840000D01*
X156705241Y-54995363D01*
X156505363Y-55195241D01*
X156348320Y-55430273D01*
X156240147Y-55691426D01*
X156185000Y-55968665D01*
X156185000Y-56251335D01*
X156240147Y-56528574D01*
X156348320Y-56789727D01*
X156505363Y-57024759D01*
X156705241Y-57224637D01*
X156937759Y-57380000D01*
X156705241Y-57535363D01*
X156505363Y-57735241D01*
X156348320Y-57970273D01*
X156240147Y-58231426D01*
X156185000Y-58508665D01*
X156185000Y-58791335D01*
X156205943Y-58896624D01*
X143815000Y-71287568D01*
X143815000Y-71208665D01*
X143759853Y-70931426D01*
X143651680Y-70670273D01*
X143494637Y-70435241D01*
X143294759Y-70235363D01*
X143062241Y-70080000D01*
X143294759Y-69924637D01*
X143494637Y-69724759D01*
X143651680Y-69489727D01*
X143759853Y-69228574D01*
X143815000Y-68951335D01*
X143815000Y-68668665D01*
X143759853Y-68391426D01*
X143651680Y-68130273D01*
X143494637Y-67895241D01*
X143294759Y-67695363D01*
X143062241Y-67540000D01*
X143294759Y-67384637D01*
X143494637Y-67184759D01*
X143651680Y-66949727D01*
X143759853Y-66688574D01*
X143815000Y-66411335D01*
X143815000Y-66128665D01*
X143759853Y-65851426D01*
X143651680Y-65590273D01*
X143494637Y-65355241D01*
X143294759Y-65155363D01*
X143062241Y-65000000D01*
X143294759Y-64844637D01*
X143494637Y-64644759D01*
X143651680Y-64409727D01*
X143759853Y-64148574D01*
X143815000Y-63871335D01*
X143815000Y-63588665D01*
X143759853Y-63311426D01*
X143651680Y-63050273D01*
X143494637Y-62815241D01*
X143294759Y-62615363D01*
X143062241Y-62460000D01*
X143294759Y-62304637D01*
X143494637Y-62104759D01*
X143651680Y-61869727D01*
X143759853Y-61608574D01*
X143815000Y-61331335D01*
X143815000Y-61048665D01*
X143759853Y-60771426D01*
X143651680Y-60510273D01*
X143494637Y-60275241D01*
X143294759Y-60075363D01*
X143062241Y-59920000D01*
X143294759Y-59764637D01*
X143494637Y-59564759D01*
X143651680Y-59329727D01*
X143759853Y-59068574D01*
X143815000Y-58791335D01*
X143815000Y-58508665D01*
X143759853Y-58231426D01*
X143651680Y-57970273D01*
X143494637Y-57735241D01*
X143294759Y-57535363D01*
X143205500Y-57475722D01*
X143205500Y-57284278D01*
X143294759Y-57224637D01*
X143494637Y-57024759D01*
X143651680Y-56789727D01*
X143759853Y-56528574D01*
X143815000Y-56251335D01*
X143815000Y-55968665D01*
X143794056Y-55863376D01*
X145261933Y-54395500D01*
X156445722Y-54395500D01*
X156505363Y-54484759D01*
G37*
%TD.AperFunction*%
D15*
X161965002Y-59082436D02*
X161965002Y-61827569D01*
X159034056Y-58896624D01*
X159055000Y-58791335D01*
X159055000Y-58508665D01*
X158999853Y-58231426D01*
X158891680Y-57970273D01*
X158734637Y-57735241D01*
X158534759Y-57535363D01*
X158302241Y-57380000D01*
X158534759Y-57224637D01*
X158734637Y-57024759D01*
X158891680Y-56789727D01*
X158999853Y-56528574D01*
X159055000Y-56251335D01*
X159055000Y-56172433D01*
X161965002Y-59082436D01*
%TA.AperFunction,NonConductor*%
D16*
G36*
X161965002Y-59082436D02*
G01*
X161965002Y-61827569D01*
X159034056Y-58896624D01*
X159055000Y-58791335D01*
X159055000Y-58508665D01*
X158999853Y-58231426D01*
X158891680Y-57970273D01*
X158734637Y-57735241D01*
X158534759Y-57535363D01*
X158302241Y-57380000D01*
X158534759Y-57224637D01*
X158734637Y-57024759D01*
X158891680Y-56789727D01*
X158999853Y-56528574D01*
X159055000Y-56251335D01*
X159055000Y-56172433D01*
X161965002Y-59082436D01*
G37*
%TD.AperFunction*%
M02*
